<svg xmlns="http://www.w3.org/2000/svg" xmlns:xlink="http://www.w3.org/1999/xlink" width="146.904" height="23.641" viewBox="0 0 146.904 23.641"><defs><style>.a{fill:#fff;}.b{clip-path:url(#a);}.c{isolation:isolate;}</style><clipPath id="a"><path class="a" d="M88.13,92a4.555,4.555,0,0,1-3.75,2.344,4.5,4.5,0,0,1-.567,0,4.6,4.6,0,0,1-3.823-6.467,30.58,30.58,0,0,1,3.074-6.159,2.316,2.316,0,0,1,.761-.988.844.844,0,0,1,.794-.111,1.5,1.5,0,0,1,.743.84l2.464,5.459a6.353,6.353,0,0,1,.877,2.625A4.525,4.525,0,0,1,88.13,92Z" transform="translate(-79.564 -80.568)"/></clipPath></defs><g transform="translate(-4.97 -139.099)"><g transform="translate(134.06 139.099)"><path class="a" d="M64.205,61.33c-.565.031-1.142.547-1.563,1.463,0,0-3.177,4.977-3.9,7.821a5.846,5.846,0,0,0,3.818,8.043,7.741,7.741,0,0,1-2.014.375,7.86,7.86,0,0,1-7.531-11.084c.981-3.839,5.272-10.561,5.272-10.561,1.073-2.34,2.9-2.75,3.942-.445Z" transform="translate(-52.283 -55.408)"/><g class="b" transform="translate(8.67 8.007)"><path class="a" d="M13.512-3950.647c1.351-1.039,1.08-1.49,2.622-.9s2.1,1.129,3.225.9,1.578-.37,2.237.743,1.6.072,2.419.683.791,1.377.759,2.752,0,16.183,0,16.183H10.729l.2-20.361A2.076,2.076,0,0,0,13.512-3950.647Z" transform="translate(-12.918 3950.638)"/></g></g><g transform="translate(-24.786 142.183)"><g class="c" transform="translate(29.755 3.262)"><path class="a" d="M-81.427-14.594H-86.4V-4.377h10.03v-5.636C-76.37-13.334-77.919-14.594-81.427-14.594ZM-83.5-6.846v-5.279h2.043c1.481,0,2.2.613,2.2,2.35v2.929Zm7.823-7.748v2.469h5.534a3.219,3.219,0,0,0-1,2.605v5.142h2.895V-9.621c0-1.652.579-2.5,2.06-2.5v-2.469Zm10.939,0v2.469h4.172c1.873,0,2.605.868,2.605,3.048v4.7h2.895v-4.7c0-3.848-1.686-5.517-5.5-5.517Zm.085,4.921v5.3h2.895v-5.67Zm16.378-4.921v6.215l2.895-.443v-5.773ZM-35.16-6.846v-2.81c0-3.372-1.447-5.142-4.751-5.142A8.071,8.071,0,0,0-44-13.657l.954,2.146a5.551,5.551,0,0,1,2.656-.817c1.5,0,2.333,1.09,2.333,2.878v2.605h-5.619v2.469H-34V-6.846Zm1.88-7.748v6.215l2.895-.443v-5.773Zm7.67-.17A6.109,6.109,0,0,0-29.1-13.725l.92,2.026a4.578,4.578,0,0,1,2.2-.681,2.585,2.585,0,0,1,2.673,2.895A2.585,2.585,0,0,1-25.985-6.59,4.894,4.894,0,0,1-28.2-7.254l-.9,2.009A6.109,6.109,0,0,0-25.61-4.206c3.184,0,5.194-2.043,5.194-5.279S-22.426-14.764-25.61-14.764Zm14.6,5.108c0-3.542-2.06-5.074-4.751-5.074a8.41,8.41,0,0,0-4.206,1.107l.954,2.06a6.085,6.085,0,0,1,2.759-.817c1.567,0,2.452,1.039,2.452,2.844v5.16h2.793Zm8.078-5.091a3.957,3.957,0,0,0-3.61,2.316l-.647-2.163h-2.844l1.907,5.568L-9.436-4.377h2.861l1.226-4.546c.681-2.537,1.515-3.269,2.554-3.269,1.107,0,1.975.92,1.975,2.656C-.82-7.084-1.842-6.165-4-7.118l-.63,2.35C-.769-3.27,1.9-5.228,1.9-9.536,1.9-12.6-.02-14.747-2.931-14.747Zm11.3.153v2.469h7.05v3.065c0,1.975-.477,2.333-1.447,2.333a4.794,4.794,0,0,1-1.311-.2L12.34-4.547a6.589,6.589,0,0,0,2.043.289c1.975,0,3.831-.9,3.831-4.529v-5.807ZM11.25-10.3l-2.793.341v8.139H11.25Zm8.555,5.926h4.887v-7.254c0-2.026-.817-2.963-2.963-2.963H20.078v2.469h.749c.783,0,.971.324.971,1.294v3.985H19.805ZM34.78-6.846v-2.81c0-3.372-1.447-5.142-4.751-5.142a8.071,8.071,0,0,0-4.087,1.141l.954,2.146a5.551,5.551,0,0,1,2.656-.817c1.5,0,2.333,1.09,2.333,2.878v2.605H26.266v2.469h9.672V-6.846Z" transform="translate(86.399 14.798)"/></g></g></g></svg>