<svg width="119" height="105" viewBox="0 0 119 105" fill="none" xmlns="http://www.w3.org/2000/svg">
<path d="M118.73 76.374C118.73 78.4412 118.323 80.4882 117.532 82.3981C116.741 84.308 115.582 86.0434 114.12 87.5052C112.658 88.967 110.923 90.1266 109.013 90.9177C107.103 91.7088 105.056 92.116 102.989 92.116H42.357C40.2897 92.1161 38.2425 91.709 36.3325 90.918C34.4225 90.1269 32.687 88.9674 31.2251 87.5056C29.7632 86.0438 28.6036 84.3084 27.8124 82.3984C27.0212 80.4885 26.614 78.4413 26.614 76.374V15.741C26.6141 13.6737 27.0215 11.6267 27.8127 9.71686C28.6039 7.807 29.7636 6.0717 31.2254 4.61002C32.6873 3.14833 34.4228 1.98889 36.3327 1.19791C38.2427 0.406918 40.2897 -0.000131294 42.357 3.17671e-08H102.99C107.165 3.1767e-08 111.169 1.65843 114.121 4.61044C117.073 7.56245 118.731 11.5662 118.731 15.741L118.73 76.374Z" fill="url(#paint0_linear_1206_2065)"/>
<path d="M100.413 47.4011H0.234863V104.148H100.413V47.4011Z" fill="#C2E07B"/>
<path d="M50.0149 18.7771L100.331 47.3901L50.0149 75.8471L0.00292969 47.4471L50.0149 18.7771Z" fill="#7BBC48"/>
<path d="M84.1839 26.2971H16.2129V53.4441H84.1839V26.2971Z" fill="white"/>
<path d="M16.2148 56.656V38.156L36.6748 26.426H63.4558L84.1858 38.215V56.521L50.0148 75.849L16.2148 56.656Z" fill="white"/>
<g style="mix-blend-mode:multiply">
<path d="M16.2129 26.2971H48.1609L25.4729 61.8971L16.2819 56.6701L16.2129 26.2971Z" fill="#F6F6F6"/>
</g>
<path d="M50.176 75.593L100.491 104.206L0.165039 104.264L50.176 75.593Z" fill="#A2D45E"/>
<path d="M31.106 51.5501C31.0057 51.4838 30.9245 51.3923 30.8706 51.2847C30.8167 51.1771 30.7921 51.0573 30.799 50.9371C30.8022 50.7902 30.8496 50.6477 30.935 50.5281C30.935 50.5051 31.003 50.4281 31.135 50.2891L33.58 48.0411L30.242 47.6651L29.97 47.5991C29.877 47.5733 29.7914 47.5258 29.7203 47.4604C29.6492 47.395 29.5946 47.3137 29.561 47.2231C29.4934 47.1095 29.4588 46.9793 29.461 46.8471C29.4618 46.779 29.4736 46.7115 29.496 46.6471L30.109 44.8411C30.1349 44.7481 30.1824 44.6625 30.2478 44.5914C30.3132 44.5202 30.3945 44.4657 30.485 44.4321C30.5986 44.3645 30.7289 44.3298 30.8611 44.3321C30.9209 44.3341 30.98 44.346 31.036 44.3671L31.308 44.5031L34.237 46.1731L33.556 42.8731L33.521 42.6011C33.525 42.408 33.6047 42.224 33.7431 42.0891C33.8084 42.0144 33.889 41.9545 33.9793 41.9133C34.0697 41.872 34.1677 41.8505 34.267 41.8501H36.141C36.2403 41.8505 36.3384 41.872 36.4288 41.9133C36.5191 41.9545 36.5997 42.0144 36.6651 42.0891C36.8027 42.2245 36.8823 42.4081 36.887 42.6011L36.852 42.8731L36.171 46.1731L39.1401 44.5031L39.412 44.3671C39.4667 44.3415 39.5267 44.3295 39.587 44.3321C39.7612 44.3303 39.9324 44.3774 40.081 44.4681C40.1499 44.5066 40.2089 44.5606 40.2531 44.6259C40.2974 44.6912 40.3258 44.7659 40.336 44.8441L40.949 46.6501L40.9841 46.8501C40.9822 47.0155 40.9283 47.1761 40.83 47.3091C40.7386 47.4495 40.5999 47.5524 40.439 47.5991L40.2001 47.6671L36.827 48.0431L39.314 50.2911C39.45 50.4271 39.5141 50.5081 39.5141 50.5301C39.5995 50.6497 39.6469 50.7922 39.65 50.9391C39.657 51.0593 39.6324 51.1791 39.5785 51.2867C39.5246 51.3943 39.4434 51.4858 39.343 51.5521L37.843 52.6771C37.7049 52.7449 37.5528 52.7792 37.399 52.7771C37.2819 52.7901 37.1635 52.7717 37.0558 52.7239C36.9481 52.6761 36.855 52.6006 36.7861 52.5051C36.7839 52.4787 36.7713 52.4543 36.7511 52.4371C36.7101 52.3835 36.6765 52.3246 36.651 52.2621L35.2211 49.1621L33.7911 52.2621C33.7656 52.3246 33.732 52.3835 33.6911 52.4371C33.6708 52.4543 33.6582 52.4787 33.6561 52.5051C33.5869 52.6005 33.4938 52.6759 33.3862 52.7236C33.2785 52.7714 33.1601 52.7899 33.043 52.7771C32.8892 52.7792 32.7371 52.7449 32.599 52.6771L31.106 51.5501ZM46.306 51.5501C46.2057 51.4838 46.1245 51.3923 46.0706 51.2847C46.0167 51.1771 45.992 51.0573 45.999 50.9371C46.0021 50.7902 46.0495 50.6477 46.1351 50.5281C46.1351 50.5051 46.203 50.4281 46.335 50.2891L48.78 48.0411L45.442 47.6651L45.1701 47.5971C45.077 47.5713 44.9913 47.5238 44.9202 47.4584C44.8491 47.393 44.7946 47.3117 44.761 47.2211C44.6934 47.1075 44.6588 46.9773 44.6611 46.8451C44.6618 46.777 44.6736 46.7095 44.6961 46.6451L45.309 44.8391C45.3358 44.7451 45.3852 44.6591 45.4528 44.5885C45.5204 44.5179 45.6043 44.4649 45.697 44.4341C45.8103 44.3666 45.9402 44.332 46.072 44.3341C46.1319 44.3361 46.191 44.3479 46.2471 44.3691L46.5191 44.5051L49.448 46.1751L48.767 42.8751L48.732 42.6031C48.736 42.41 48.8157 42.226 48.9541 42.0911C49.0194 42.0164 49.1 41.9565 49.1903 41.9153C49.2807 41.8741 49.3787 41.8525 49.478 41.8521H51.352C51.4513 41.8525 51.5494 41.8741 51.6398 41.9153C51.7301 41.9565 51.8107 42.0164 51.8761 42.0911C52.0137 42.2265 52.0933 42.4101 52.098 42.6031L52.065 42.8751L51.384 46.1751L54.353 44.5051L54.625 44.3691C54.6797 44.3435 54.7397 44.3315 54.8 44.3341C54.9742 44.3323 55.1454 44.3794 55.2941 44.4701C55.3629 44.5086 55.4218 44.5626 55.4661 44.6279C55.5104 44.6932 55.5388 44.7679 55.5491 44.8461L56.1571 46.6441L56.192 46.8441C56.1901 47.0095 56.1362 47.1701 56.038 47.3031C55.9466 47.4435 55.8079 47.5464 55.647 47.5931L55.408 47.6611L52.035 48.0371L54.522 50.2851C54.658 50.4211 54.7221 50.5021 54.7221 50.5241C54.8075 50.6437 54.8548 50.7862 54.858 50.9331C54.865 51.0533 54.8404 51.1731 54.7865 51.2807C54.7326 51.3883 54.6514 51.4798 54.551 51.5461L53.051 52.6711C52.9129 52.7389 52.7608 52.7731 52.607 52.7711C52.4899 52.7841 52.3715 52.7657 52.2638 52.7179C52.1561 52.6701 52.063 52.5947 51.994 52.4991C51.9924 52.473 51.9805 52.4486 51.961 52.4311C51.9201 52.3775 51.8865 52.3186 51.861 52.2561L50.431 49.1561L49.0011 52.2561C48.9756 52.3186 48.9419 52.3775 48.901 52.4311C48.8808 52.4483 48.8682 52.4727 48.866 52.4991C48.7969 52.5945 48.7038 52.6699 48.5961 52.7176C48.4885 52.7654 48.3701 52.7839 48.253 52.7711C48.0992 52.7731 47.9471 52.7389 47.809 52.6711L46.306 51.5501ZM61.5061 51.5501C61.4057 51.4838 61.3245 51.3923 61.2706 51.2847C61.2167 51.1771 61.1921 51.0573 61.199 50.9371C61.2022 50.7902 61.2496 50.6477 61.335 50.5281C61.335 50.5051 61.403 50.4281 61.535 50.2891L63.9801 48.0411L60.642 47.6651L60.37 47.5971C60.277 47.5713 60.1914 47.5238 60.1203 47.4584C60.0491 47.393 59.9946 47.3117 59.961 47.2211C59.8934 47.1075 59.8588 46.9773 59.861 46.8451C59.8618 46.777 59.8736 46.7095 59.896 46.6451L60.509 44.8391C60.5348 44.7462 60.5822 44.6606 60.6474 44.5895C60.7125 44.5184 60.7937 44.4638 60.884 44.4301C60.9973 44.3626 61.1272 44.328 61.259 44.3301C61.3189 44.3321 61.378 44.3439 61.434 44.3651L61.706 44.5011L64.6351 46.1711L63.9541 42.8711L63.9191 42.5991C63.923 42.406 64.0027 42.2221 64.141 42.0871C64.2064 42.0124 64.287 41.9525 64.3773 41.9113C64.4677 41.87 64.5658 41.8485 64.6651 41.8481H66.539C66.6383 41.8485 66.7364 41.87 66.8268 41.9113C66.9171 41.9525 66.9976 42.0124 67.063 42.0871C67.2008 42.2225 67.2804 42.4061 67.285 42.5991L67.25 42.8711L66.569 46.1711L69.538 44.5011L69.81 44.3651C69.8647 44.3395 69.9248 44.3275 69.9851 44.3301C70.1592 44.3283 70.3304 44.3754 70.479 44.4661C70.5479 44.5046 70.6068 44.5586 70.6511 44.6239C70.6954 44.6892 70.7238 44.7639 70.7341 44.8421L71.3471 46.6481L71.382 46.8481C71.3801 47.0135 71.3262 47.1741 71.228 47.3071C71.1366 47.4475 70.9979 47.5504 70.8371 47.5971L70.598 47.6651L67.2251 48.0411L69.7121 50.2891C69.8481 50.4251 69.912 50.5061 69.912 50.5281C69.9976 50.6477 70.045 50.7902 70.048 50.9371C70.055 51.0573 70.0304 51.1771 69.9765 51.2847C69.9226 51.3923 69.8414 51.4838 69.741 51.5501L68.241 52.6751C68.103 52.7429 67.9508 52.7772 67.797 52.7751C67.6799 52.788 67.5615 52.7696 67.4539 52.7218C67.3462 52.674 67.2531 52.5986 67.184 52.5031C67.1818 52.4767 67.1692 52.4523 67.149 52.4351C67.1081 52.3815 67.0745 52.3226 67.0491 52.2601L65.608 49.1601L64.1781 52.2601C64.1526 52.3226 64.119 52.3815 64.078 52.4351C64.0578 52.4523 64.0452 52.4767 64.043 52.5031C63.9739 52.5985 63.8808 52.6739 63.7731 52.7216C63.6655 52.7694 63.5471 52.7879 63.43 52.7751C63.2762 52.7772 63.1241 52.7429 62.986 52.6751L61.5061 51.5501Z" fill="#C7007D"/>
<defs>
<linearGradient id="paint0_linear_1206_2065" x1="38.8656" y1="89.3525" x2="113.756" y2="4.05229" gradientUnits="userSpaceOnUse">
<stop stop-color="#FBBAE2"/>
<stop offset="0.128" stop-color="#FBC5E5"/>
<stop offset="0.422" stop-color="#FCD9EB"/>
<stop offset="0.568" stop-color="#FCE5EE"/>
<stop offset="1" stop-color="#FDFDFD"/>
</linearGradient>
</defs>
</svg>
