<svg xmlns="http://www.w3.org/2000/svg" xmlns:xlink="http://www.w3.org/1999/xlink" width="60" height="64" viewBox="0 0 60 64"><defs><style>.a{fill:none;}.b{clip-path:url(#a);}.c{fill:#cb007b;}.d{fill:#a2d45e;}</style><clipPath id="a"><rect class="a" width="60" height="64"/></clipPath></defs><g class="b"><path class="c" d="M-2890.523,120.769l1.057-1.172-.953-.872-.678.75a.678.678,0,0,0-.152.246.418.418,0,0,0-.01.223.536.536,0,0,0,.108.213,1.638,1.638,0,0,0,.2.214Zm-.054-2.429a.163.163,0,0,1,.262-.014l1.233,1.127a.168.168,0,0,1,.014.268l-1.295,1.433a.168.168,0,0,1-.268.014l-.521-.478a2.523,2.523,0,0,1-.325-.357.941.941,0,0,1-.167-.356.709.709,0,0,1,.023-.366,1.109,1.109,0,0,1,.246-.392Zm-1.842,1.039a.073.073,0,0,1-.051.018.058.058,0,0,1-.049-.02l-.707-.769a1.452,1.452,0,0,1-.177-.239.6.6,0,0,1-.083-.251.538.538,0,0,1,.05-.269.946.946,0,0,1,.225-.289l1.114-1.038a.058.058,0,0,1,.094,0l.159.174a.071.071,0,0,1,.02.047.062.062,0,0,1-.025.049l-1.038.967a1.745,1.745,0,0,0-.142.146.354.354,0,0,0-.073.135.2.2,0,0,0,.019.14.731.731,0,0,0,.126.176l.713.765a.069.069,0,0,1,.016.048.073.073,0,0,1-.023.052Zm1.308-1.78a.06.06,0,0,1,.1,0l.157.171a.06.06,0,0,1,0,.1l-.826.769a.062.062,0,0,1-.1,0l-.157-.173a.061.061,0,0,1,0-.1Zm-2.314-1.228a.058.058,0,0,1,.052-.012.081.081,0,0,1,.042.025l.139.189a.08.08,0,0,1,.018.053.064.064,0,0,1-.024.049l-.966.724a.064.064,0,0,1-.052.012.072.072,0,0,1-.051-.03l-.139-.187a.068.068,0,0,1-.009-.05.067.067,0,0,1,.027-.048Zm-.765-2.818a.061.061,0,0,1,.057-.009.091.091,0,0,1,.042.036l.125.188a.082.082,0,0,1,.016.053.062.062,0,0,1-.031.048l-1.274.857a.331.331,0,0,0-.172.221.462.462,0,0,0,.1.274l.413.621,1.457-.98a.16.16,0,0,1,.252.048l.292.44a.06.06,0,0,1-.02.093l-.19.127a.058.058,0,0,1-.092-.019l-.186-.28-1.309.88.139.211a.061.061,0,0,1-.021.094l-.186.125a.071.071,0,0,1-.051.012.053.053,0,0,1-.045-.027l-.837-1.262a.574.574,0,0,1-.1-.471.68.68,0,0,1,.3-.386Zm-.478-.819a.057.057,0,0,1,.057,0,.072.072,0,0,1,.035.034l.108.206a.088.088,0,0,1,.009.056.056.056,0,0,1-.035.044l-1.913,1.011a.068.068,0,0,1-.054,0,.066.066,0,0,1-.043-.038l-.11-.205a.061.061,0,0,1,0-.052.071.071,0,0,1,.031-.044Zm-1.106-2.323a.061.061,0,0,1,.054,0,.084.084,0,0,1,.037.038l.095.21a.085.085,0,0,1,.007.055.063.063,0,0,1-.039.039l-1.285.6c-.07.033-.131.064-.181.095a.309.309,0,0,0-.111.1.223.223,0,0,0-.025.142.723.723,0,0,0,.067.205l.368.8,1.7-.788a.06.06,0,0,1,.055,0,.073.073,0,0,1,.034.033l.1.214a.089.089,0,0,1,.005.056.062.062,0,0,1-.038.041l-1.962.91a.053.053,0,0,1-.055,0,.06.06,0,0,1-.041-.038l-.493-1.073a1.409,1.409,0,0,1-.1-.283.64.64,0,0,1,0-.269.515.515,0,0,1,.13-.243.9.9,0,0,1,.3-.205Zm-1.458-.986a.067.067,0,0,1,.057,0,.078.078,0,0,1,.037.046l.171.506a.241.241,0,0,1,.015.137.143.143,0,0,1-.049.084.251.251,0,0,1-.088.052c-.032.013-.068.025-.1.038l-.877.3a.071.071,0,0,1-.051,0,.06.06,0,0,1-.038-.041l-.324-.958a.849.849,0,0,1-.019-.6.723.723,0,0,1,.475-.37l.609-.209a2.133,2.133,0,0,1,.411-.1.664.664,0,0,1,.311.032.526.526,0,0,1,.234.189,1.339,1.339,0,0,1,.179.366l.3.885c.016.047,0,.079-.04.094l-.216.074c-.042.014-.071,0-.087-.051l-.286-.851a.883.883,0,0,0-.11-.234.282.282,0,0,0-.133-.11.324.324,0,0,0-.18-.01,2.075,2.075,0,0,0-.252.072l-.53.181c-.08.028-.145.053-.2.079a.289.289,0,0,0-.119.094.221.221,0,0,0-.033.143.852.852,0,0,0,.051.225l.217.647.549-.186-.123-.366a.065.065,0,0,1,.041-.095Zm-1.012-3.9a1.665,1.665,0,0,1,.514-.053.792.792,0,0,1,.379.126.824.824,0,0,1,.268.306,1.962,1.962,0,0,1,.179.489,2.524,2.524,0,0,1,.078.539.988.988,0,0,1-.075.42.766.766,0,0,1-.25.306,1.306,1.306,0,0,1-.455.195l-1.236.3a.066.066,0,0,1-.053-.011.074.074,0,0,1-.034-.048l-.055-.218a.068.068,0,0,1,.01-.054.064.064,0,0,1,.043-.034l1.214-.3a.921.921,0,0,0,.343-.15.458.458,0,0,0,.156-.228.716.716,0,0,0,.02-.294,2.555,2.555,0,0,0-.065-.351,1.7,1.7,0,0,0-.1-.311.533.533,0,0,0-.163-.215.553.553,0,0,0-.261-.1,1.15,1.15,0,0,0-.394.041l-1.144.282a.094.094,0,0,1-.052,0,.051.051,0,0,1-.033-.039l-.059-.238a.056.056,0,0,1,.011-.051.1.1,0,0,1,.045-.026Zm.464.938a.061.061,0,0,1,.053.01.066.066,0,0,1,.029.041l.056.227a.069.069,0,0,1-.007.053.065.065,0,0,1-.044.029l-1.388.342a.069.069,0,0,1-.052-.007.064.064,0,0,1-.035-.043l-.055-.226a.066.066,0,0,1,.011-.05.064.064,0,0,1,.042-.034Zm-.085-3.849a.432.432,0,0,1,.278.048.236.236,0,0,1,.112.2l.07.852a.08.08,0,0,1-.013.052.062.062,0,0,1-.049.026l-.227.018a.068.068,0,0,1-.052-.015.08.08,0,0,1-.021-.05l-.053-.643c0-.057-.021-.089-.051-.1a.592.592,0,0,0-.15,0l-1.009.085a.6.6,0,0,0-.193.042.223.223,0,0,0-.1.087.276.276,0,0,0-.036.127,1.012,1.012,0,0,0,0,.161l.027.337a1.205,1.205,0,0,0,.018.126.28.28,0,0,0,.051.1.253.253,0,0,0,.091.069.49.49,0,0,0,.154.036l1.62.146a.044.044,0,0,1,.039.032c0,.018.006.035.009.054l.022.283a.033.033,0,0,1-.028.039.127.127,0,0,1-.06,0l-1.345-.158-.661.5a.07.07,0,0,1-.05.017.06.06,0,0,1-.043-.021l-.142-.223a.073.073,0,0,1,.01-.1l.471-.322-.192-.056a.464.464,0,0,1-.243-.158.552.552,0,0,1-.09-.286l-.046-.561a.631.631,0,0,1,.021-.227.481.481,0,0,1,.1-.192.522.522,0,0,1,.175-.141.717.717,0,0,1,.252-.067Zm-.7-2.054a.056.056,0,0,1,.049.024.063.063,0,0,1,.018.045v.235a.078.078,0,0,1-.019.053.057.057,0,0,1-.048.023l-1.2-.005a.07.07,0,0,1-.05-.024.079.079,0,0,1-.021-.053v-.234a.061.061,0,0,1,.023-.046.064.064,0,0,1,.049-.024Zm.974-1.568a.163.163,0,0,1,.164.2l-.094.854c0,.046-.03.065-.076.059l-.225-.024c-.045,0-.064-.029-.06-.076l.073-.667-1.321-.146a.623.623,0,0,0-.094,0,.23.23,0,0,0-.08.018.118.118,0,0,0-.06.055.283.283,0,0,0-.032.111l-.036.329a.065.065,0,0,1-.023.046.068.068,0,0,1-.052.015l-.224-.023a.075.075,0,0,1-.047-.026.068.068,0,0,1-.017-.051l.04-.377a.522.522,0,0,1,.185-.4.625.625,0,0,1,.434-.076Zm-2.005-.738a.083.083,0,0,1-.046-.025.062.062,0,0,1-.014-.053l.1-.7a1.33,1.33,0,0,1,.075-.3.614.614,0,0,1,.147-.229.523.523,0,0,1,.24-.132.89.89,0,0,1,.365-.008l1.2.175.031-.222a.054.054,0,0,1,.029-.046.059.059,0,0,1,.048-.012l.226.032a.062.062,0,0,1,.057.079l-.244,1.695a.06.06,0,0,1-.078.058l-.226-.033a.074.074,0,0,1-.042-.025.064.064,0,0,1-.015-.053l.16-1.105-1.109-.161a.56.56,0,0,0-.353.036.422.422,0,0,0-.157.323l-.091.685a.064.064,0,0,1-.029.049.078.078,0,0,1-.053.008Zm2.551-2.275a.057.057,0,0,1,.044.032.078.078,0,0,1,.01.05l-.047.228a.083.083,0,0,1-.026.05.061.061,0,0,1-.055.012l-2.12-.423a.077.077,0,0,1-.043-.033.061.061,0,0,1-.011-.057l.044-.229a.073.073,0,0,1,.031-.042.072.072,0,0,1,.053-.011Zm1.272-1.735a.061.061,0,0,1,.038.036.08.08,0,0,1,0,.049l-.07.224a.093.093,0,0,1-.031.047.051.051,0,0,1-.051.006l-2.806-.874a.072.072,0,0,1-.039-.039.064.064,0,0,1-.006-.056l.069-.224a.061.061,0,0,1,.036-.038.076.076,0,0,1,.054-.007Zm-.5-3.054a1.474,1.474,0,0,1,.394.25.66.66,0,0,1,.19.294.734.734,0,0,1,.011.357,2.5,2.5,0,0,1-.137.437,2.591,2.591,0,0,1-.211.4.806.806,0,0,1-.257.256.643.643,0,0,1-.341.087,1.222,1.222,0,0,1-.452-.109l-1.287-.53a.072.072,0,0,1-.038-.036.057.057,0,0,1,0-.054l.088-.217a.063.063,0,0,1,.038-.036.064.064,0,0,1,.056,0l1.293.533a.812.812,0,0,0,.278.07.348.348,0,0,0,.2-.051.518.518,0,0,0,.154-.171,2.155,2.155,0,0,0,.138-.286,1.818,1.818,0,0,0,.1-.308.513.513,0,0,0,0-.231.354.354,0,0,0-.111-.174.989.989,0,0,0-.248-.14l-1.015-.417-.14.341.344.576a.065.065,0,0,1-.023.1l-.193.115a.063.063,0,0,1-.055.012.074.074,0,0,1-.042-.039l-.388-.641a.354.354,0,0,1-.028-.082.159.159,0,0,1,.012-.091l.247-.606a.163.163,0,0,1,.244-.1Zm1.593-1.514a.06.06,0,0,1,.028.092l-.11.206a.071.071,0,0,1-.037.034.065.065,0,0,1-.054-.008l-1.35-.73a.343.343,0,0,0-.273-.053.41.41,0,0,0-.189.2l-.394.737a.059.059,0,0,1-.091.027l-.2-.107a.073.073,0,0,1-.034-.039.056.056,0,0,1,0-.055l.448-.84a.555.555,0,0,1,.367-.314.678.678,0,0,1,.477.086Zm-1.108-1.817.911.6a.476.476,0,0,0,.431.109l0,0a1.042,1.042,0,0,0,.333-.373,1.027,1.027,0,0,0,.2-.452.36.36,0,0,0-.068-.175.73.73,0,0,0-.2-.18l-.907-.6Zm1.814-.783a1.178,1.178,0,0,1,.312.3.657.657,0,0,1,.116.322,1.3,1.3,0,0,1-.263.7,1.285,1.285,0,0,1-.537.523.779.779,0,0,1-.734-.151l-1.063-.7a.163.163,0,0,1-.06-.255l.9-1.387a.165.165,0,0,1,.261-.053Zm1.107-1.817a.051.051,0,0,1,.024.048.069.069,0,0,1-.014.047l-.148.182a.084.084,0,0,1-.046.03.056.056,0,0,1-.052-.014l-.932-.767a.065.065,0,0,1-.023-.048.069.069,0,0,1,.016-.057l.147-.181a.061.061,0,0,1,.046-.02.067.067,0,0,1,.052.013Zm1.6-1.573a1.32,1.32,0,0,1,.22.281.816.816,0,0,1,.111.308.7.7,0,0,1-.026.314.753.753,0,0,1-.187.3l-.26.269a.078.078,0,0,1-.049.024.061.061,0,0,1-.052-.021l-.162-.16a.059.059,0,0,1-.021-.049.071.071,0,0,1,.023-.051l.241-.249a.424.424,0,0,0,.124-.208.349.349,0,0,0-.009-.192.549.549,0,0,0-.09-.167,1.513,1.513,0,0,0-.123-.139l-.721-.706-.806.832a.165.165,0,0,1-.266,0l-.638-.627a.058.058,0,0,1-.021-.051.081.081,0,0,1,.025-.05l.156-.163a.08.08,0,0,1,.048-.025.062.062,0,0,1,.051.021l.506.5.809-.837a.163.163,0,0,1,.261,0Zm1.284-.056a.059.059,0,0,1,.019.053.083.083,0,0,1-.022.042l-.172.16a.08.08,0,0,1-.051.025.065.065,0,0,1-.051-.022l-1.467-1.6a.074.074,0,0,1-.016-.053.072.072,0,0,1,.024-.053l.171-.158a.055.055,0,0,1,.049-.015.066.066,0,0,1,.049.021Zm1.949-1.653a.061.061,0,0,1,.016.052.072.072,0,0,1-.026.047l-.176.147a.085.085,0,0,1-.052.021.078.078,0,0,1-.049-.027l-.9-1.1a1.6,1.6,0,0,0-.139-.152.293.293,0,0,0-.125-.079.225.225,0,0,0-.144.01.726.726,0,0,0-.179.12l-.676.564,1.194,1.446a.057.057,0,0,1,.016.053.074.074,0,0,1-.024.044l-.179.15a.087.087,0,0,1-.052.021.059.059,0,0,1-.05-.027l-1.381-1.672a.068.068,0,0,1-.015-.052.067.067,0,0,1,.027-.052l.9-.756a1.345,1.345,0,0,1,.244-.167.638.638,0,0,1,.259-.071.5.5,0,0,1,.267.064.878.878,0,0,1,.273.237Zm.7-2.728.829,1.346,1.1-.681-.529-.862a.67.67,0,0,0-.193-.214.425.425,0,0,0-.212-.072.517.517,0,0,0-.234.047,1.768,1.768,0,0,0-.26.135Zm2.336.617a.166.166,0,0,1-.06.257l-1.417.883a.164.164,0,0,1-.258-.061l-1.013-1.647a.169.169,0,0,1,.061-.263l.6-.373a2.315,2.315,0,0,1,.429-.215.913.913,0,0,1,.386-.063.692.692,0,0,1,.344.123,1.132,1.132,0,0,1,.306.346Zm.51-1.135a.058.058,0,0,1,0,.053.064.064,0,0,1-.034.036l-.209.1a.079.079,0,0,1-.056.009.055.055,0,0,1-.041-.034l-.523-1.092a.062.062,0,0,1,0-.055.074.074,0,0,1,.038-.044l.21-.1a.053.053,0,0,1,.051,0,.06.06,0,0,1,.04.034Zm1.666-1.8c.018.047.007.079-.036.1l-.229.1.722,1.735a.059.059,0,0,1-.036.089l-.215.091a.059.059,0,0,1-.087-.038l-.723-1.735-.97.409a.059.059,0,0,1-.088-.038l-.087-.207a.083.083,0,0,1,0-.054.059.059,0,0,1,.035-.04l1.543-.65a.062.062,0,0,1,.051,0,.055.055,0,0,1,.033.03Zm2.419.354a1.3,1.3,0,0,1,.063.353.843.843,0,0,1-.046.322.7.7,0,0,1-.168.268.786.786,0,0,1-.306.177l-.355.114a.066.066,0,0,1-.055,0,.069.069,0,0,1-.035-.042l-.068-.218a.061.061,0,0,1,0-.053.089.089,0,0,1,.045-.033l.331-.107a.42.42,0,0,0,.206-.124.4.4,0,0,0,.082-.173.612.612,0,0,0,0-.191,1.569,1.569,0,0,0-.046-.181l-.307-.964-1.1.354a.168.168,0,0,1-.237-.121l-.272-.856a.063.063,0,0,1,.007-.054.083.083,0,0,1,.047-.034l.213-.069a.082.082,0,0,1,.054,0,.067.067,0,0,1,.036.042l.214.677,1.1-.356a.163.163,0,0,1,.228.127Zm.926-.317a.058.058,0,0,1-.009.054.064.064,0,0,1-.039.029l-.227.059a.073.073,0,0,1-.054,0,.058.058,0,0,1-.035-.042l-.3-1.172a.063.063,0,0,1,.008-.053.072.072,0,0,1,.045-.035l.225-.059a.061.061,0,0,1,.05.01.072.072,0,0,1,.035.042Zm.357-1.371a.087.087,0,0,1,.01-.051.055.055,0,0,1,.047-.03l.7-.108a1.3,1.3,0,0,1,.308-.015.6.6,0,0,1,.259.074.542.542,0,0,1,.2.194.966.966,0,0,1,.115.348l.183,1.209.22-.034a.069.069,0,0,1,.054.013.072.072,0,0,1,.024.043l.035.227a.061.061,0,0,1-.058.079l-1.68.26a.059.059,0,0,1-.077-.057l-.036-.227a.072.072,0,0,1,.01-.047.063.063,0,0,1,.047-.029l1.1-.171-.17-1.115a.561.561,0,0,0-.139-.329.412.412,0,0,0-.352-.057l-.677.113a.076.076,0,0,1-.054-.013.083.083,0,0,1-.025-.049Zm3.4-.424a.068.068,0,0,1,.018-.051.06.06,0,0,1,.045-.025l1.039-.069a1.4,1.4,0,0,1,.3.011.633.633,0,0,1,.247.093.527.527,0,0,1,.175.209.932.932,0,0,1,.083.357l.1,1.523c0,.047-.019.072-.062.075l-.233.013a.065.065,0,0,1-.05-.012.064.064,0,0,1-.021-.051l-.093-1.42a1.866,1.866,0,0,0-.023-.206.351.351,0,0,0-.057-.139.218.218,0,0,0-.121-.075.718.718,0,0,0-.216-.011l-1.039.077a.073.073,0,0,1-.049-.019.07.07,0,0,1-.023-.051Zm.55,2.144a.06.06,0,0,1-.062.074l-.232.014a.061.061,0,0,1-.074-.063l-.072-1.13a.062.062,0,0,1,.063-.074l.232-.015a.061.061,0,0,1,.072.064Zm3.6-.8a2.07,2.07,0,0,1-.055.422.684.684,0,0,1-.14.282.542.542,0,0,1-.26.152,1.328,1.328,0,0,1-.4.036l-.708-.028c-.048,0-.071-.026-.068-.073l.009-.229c0-.045.026-.066.074-.062l.67.025a.92.92,0,0,0,.257-.016.281.281,0,0,0,.152-.086.322.322,0,0,0,.072-.164,2.026,2.026,0,0,0,.025-.258l.021-.578q0-.124,0-.213a.316.316,0,0,0-.045-.144.228.228,0,0,0-.122-.081.791.791,0,0,0-.228-.031l-.785-.033a.056.056,0,0,1-.048-.022.087.087,0,0,1-.014-.053l.009-.229a.09.09,0,0,1,.018-.05.054.054,0,0,1,.051-.021l.809.033a.791.791,0,0,1,.559.2.751.751,0,0,1,.173.585Zm.983.016a.064.064,0,0,1-.029.046.067.067,0,0,1-.047.012l-.232-.03a.082.082,0,0,1-.05-.025.058.058,0,0,1-.016-.051l.152-1.2a.068.068,0,0,1,.029-.046.072.072,0,0,1,.054-.015l.23.03a.059.059,0,0,1,.044.028.069.069,0,0,1,.017.052Zm2.591,1.163a.435.435,0,0,1-.118.258.229.229,0,0,1-.215.055l-.838-.152a.082.082,0,0,1-.048-.025.067.067,0,0,1-.011-.055l.04-.225a.062.062,0,0,1,.03-.046.078.078,0,0,1,.053-.008l.63.115c.055.01.091,0,.106-.026a.565.565,0,0,0,.042-.144l.181-1a.644.644,0,0,0,.009-.2.233.233,0,0,0-.056-.124.258.258,0,0,0-.115-.069,1.275,1.275,0,0,0-.155-.038l-.331-.059a.706.706,0,0,0-.125-.013.236.236,0,0,0-.108.02.256.256,0,0,0-.09.073.454.454,0,0,0-.075.14l-.56,1.538c-.01.02-.022.03-.04.029a.222.222,0,0,1-.054-.007l-.278-.049a.034.034,0,0,1-.029-.039.121.121,0,0,1,.013-.058l.5-1.267-.308-.77a.078.078,0,0,1,0-.055.065.065,0,0,1,.029-.036l.251-.079a.071.071,0,0,1,.094.036l.188.543.1-.175a.468.468,0,0,1,.214-.2.546.546,0,0,1,.3-.012l.551.1a.645.645,0,0,1,.212.078.5.5,0,0,1,.16.144.527.527,0,0,1,.088.207.61.61,0,0,1,0,.261Zm2.5,1.118a.067.067,0,0,1-.036.042.089.089,0,0,1-.056,0l-.215-.07a.085.085,0,0,1-.045-.034.064.064,0,0,1-.006-.056l.48-1.465a.322.322,0,0,0,0-.28.434.434,0,0,0-.242-.157l-.706-.235-.55,1.678a.16.16,0,0,1-.228.118l-.5-.166a.06.06,0,0,1-.041-.087l.071-.217a.058.058,0,0,1,.083-.043l.318.1.493-1.5-.239-.079a.059.059,0,0,1-.041-.086l.07-.216a.08.08,0,0,1,.031-.041.058.058,0,0,1,.054-.006l1.43.475a.562.562,0,0,1,.369.308.684.684,0,0,1,0,.488Zm.825.362a.061.061,0,0,1-.038.041.084.084,0,0,1-.049,0l-.217-.085a.1.1,0,0,1-.045-.036.071.071,0,0,1,0-.056l.786-2.028a.075.075,0,0,1,.038-.039.085.085,0,0,1,.058,0l.216.084a.06.06,0,0,1,.034.038.071.071,0,0,1,0,.056Z" transform="translate(2905.222 -75.03)"/><path class="c" d="M-2838.038,79.73a.068.068,0,0,1,.027-.044.039.039,0,0,1,.045,0l.22.124a.053.053,0,0,1,.032.042.134.134,0,0,1,0,.056l-.5,1.871.17.1a.453.453,0,0,0,.233.069.354.354,0,0,0,.182-.059.552.552,0,0,0,.14-.129,1.436,1.436,0,0,0,.1-.157l.636-1.149a.072.072,0,0,1,.04-.036.065.065,0,0,1,.055.006l.2.115a.073.073,0,0,1,.03.04.068.068,0,0,1-.006.056l-.64,1.151a1.272,1.272,0,0,1-.216.286.86.86,0,0,1-.268.184.689.689,0,0,1-.308.058.751.751,0,0,1-.334-.1l-.927-.523a.059.059,0,0,1-.025-.092l.112-.2a.059.059,0,0,1,.09-.027l.41.232Zm1.34,3.311a.058.058,0,0,1-.048.032.071.071,0,0,1-.046-.01l-.2-.124a.077.077,0,0,1-.034-.043.061.061,0,0,1,.007-.057l1.153-1.839a.065.065,0,0,1,.046-.03.067.067,0,0,1,.057.009l.2.124a.065.065,0,0,1,.028.046.068.068,0,0,1-.007.053Zm1.306-.249a.057.057,0,0,1-.047.026.063.063,0,0,1-.048-.012l-.19-.135a.085.085,0,0,1-.033-.045.06.06,0,0,1,.01-.053l.7-.988a.06.06,0,0,1,.046-.027.07.07,0,0,1,.058.012l.19.135a.064.064,0,0,1,.024.046.076.076,0,0,1-.009.052Zm1.347-.107-.675.862c-.134.17-.183.311-.145.423l0,0a1.046,1.046,0,0,0,.338.366,1.024,1.024,0,0,0,.431.243.33.33,0,0,0,.179-.053.7.7,0,0,0,.2-.184l.678-.857Zm.615,1.887a1.146,1.146,0,0,1-.321.288.636.636,0,0,1-.329.087,1.261,1.261,0,0,1-.672-.325,1.255,1.255,0,0,1-.471-.584.788.788,0,0,1,.212-.721l.79-1.006a.162.162,0,0,1,.257-.038l1.292,1.026a.169.169,0,0,1,.031.267Zm1.64,1.457a1.351,1.351,0,0,1-.275.226.839.839,0,0,1-.3.118.709.709,0,0,1-.314-.021.759.759,0,0,1-.3-.183l-.271-.258a.069.069,0,0,1-.025-.047.061.061,0,0,1,.02-.053l.155-.166a.055.055,0,0,1,.049-.022.071.071,0,0,1,.05.022l.252.24a.421.421,0,0,0,.208.121.36.36,0,0,0,.189-.012.518.518,0,0,0,.165-.093c.052-.044.1-.085.138-.127l.688-.738-.839-.8a.167.167,0,0,1-.011-.268l.613-.655a.06.06,0,0,1,.05-.022.08.08,0,0,1,.05.025l.164.156a.072.072,0,0,1,.026.047.069.069,0,0,1-.02.051l-.485.518.845.8a.164.164,0,0,1,0,.261Zm2.618,1.484c-.04.031-.076.029-.1-.008l-.131-.17a.428.428,0,0,0-.29.022.707.707,0,0,0-.263.206l-.9.959a.043.043,0,0,1-.049.019.093.093,0,0,1-.047-.03l-.143-.183a.091.091,0,0,1-.018-.054.067.067,0,0,1,.029-.046l.828-.855a1.522,1.522,0,0,1,.117-.12,1.037,1.037,0,0,1,.15-.106.894.894,0,0,1,.173-.075.615.615,0,0,1,.189-.022l-.259-.338a.064.064,0,0,1-.016-.052.07.07,0,0,1,.026-.046l.179-.139a.068.068,0,0,1,.052-.015.061.061,0,0,1,.047.027l.612.8a.056.056,0,0,1,.013.051.084.084,0,0,1-.02.041Zm.26,2.318a2.038,2.038,0,0,1-.368.211.635.635,0,0,1-.308.055.523.523,0,0,1-.277-.114,1.417,1.417,0,0,1-.271-.3l-.4-.587a.064.064,0,0,1,.016-.1l.189-.129c.034-.027.067-.02.094.021l.382.555a1.117,1.117,0,0,0,.168.2.279.279,0,0,0,.16.07.323.323,0,0,0,.173-.042,1.91,1.91,0,0,0,.218-.136l.474-.331a1.6,1.6,0,0,0,.167-.129.264.264,0,0,0,.088-.121.229.229,0,0,0-.008-.146.863.863,0,0,0-.111-.2l-.448-.65a.055.055,0,0,1-.011-.052.082.082,0,0,1,.034-.043l.187-.131a.1.1,0,0,1,.049-.016.057.057,0,0,1,.048.029l.462.671a.825.825,0,0,1,.175.571.75.75,0,0,1-.361.493Zm.3,2.256a.061.061,0,0,1-.094-.026l-.112-.206a.07.07,0,0,1-.007-.049.067.067,0,0,1,.036-.043l1.343-.741a.347.347,0,0,0,.193-.2.415.415,0,0,0-.066-.271l-.4-.734a.062.062,0,0,1,.028-.093l.2-.107a.077.077,0,0,1,.052-.008.055.055,0,0,1,.042.032l.456.837a.571.571,0,0,1,.064.481.69.69,0,0,1-.332.354Zm1.379,2.358a.444.444,0,0,1-.28.039.237.237,0,0,1-.165-.15l-.327-.79a.077.077,0,0,1,0-.055.065.065,0,0,1,.04-.04l.209-.088a.061.061,0,0,1,.054,0,.067.067,0,0,1,.034.042l.248.593c.023.052.049.078.081.076a.5.5,0,0,0,.142-.044l.932-.393a.584.584,0,0,0,.172-.1.226.226,0,0,0,.071-.116.315.315,0,0,0,0-.133,1.188,1.188,0,0,0-.054-.151l-.131-.311a.641.641,0,0,0-.056-.115.264.264,0,0,0-.076-.079.263.263,0,0,0-.108-.035.457.457,0,0,0-.158.013l-1.588.364a.038.038,0,0,1-.044-.016.355.355,0,0,1-.026-.05l-.109-.263a.034.034,0,0,1,.015-.044.11.11,0,0,1,.058-.022l1.326-.268.474-.68a.081.081,0,0,1,.044-.031.052.052,0,0,1,.046.005l.2.167a.074.074,0,0,1,.022.1l-.351.454.2-.007a.45.45,0,0,1,.28.073.549.549,0,0,1,.173.246l.216.519a.648.648,0,0,1,.052.223.5.5,0,0,1-.033.212.531.531,0,0,1-.124.189.673.673,0,0,1-.217.141Zm1.918-.083a.074.074,0,0,1,.055.005.063.063,0,0,1,.034.037l.318,1a1.3,1.3,0,0,1,.06.289.593.593,0,0,1-.029.265.529.529,0,0,1-.158.222.915.915,0,0,1-.325.167l-1.445.467a.06.06,0,0,1-.086-.041l-.07-.225a.063.063,0,0,1,0-.052.065.065,0,0,1,.041-.034l1.347-.434a1.587,1.587,0,0,0,.193-.073.312.312,0,0,0,.119-.09.2.2,0,0,0,.043-.135.739.739,0,0,0-.041-.214l-.324-1a.062.062,0,0,1,.005-.051.069.069,0,0,1,.043-.036Zm-1.932,1.057a.06.06,0,0,1-.086-.044l-.07-.222a.062.062,0,0,1,.044-.088l1.071-.346a.064.064,0,0,1,.088.045l.069.222a.063.063,0,0,1-.044.088Z" transform="translate(2881.121 -76.859)"/><path class="c" d="M-2838.228,113.178l7.469,22.8c.777,2.39.907,4.2-3.214,4.789,4.109-.012,6.224-.022,10.332-.033,2.932-.009,3.426-1.26,2.173-3.787l-5.236-10.563c-1.342-2.707-1.506-3.154.178-5.676l3.6-5.4c1.579-2.365.593-3.813-2.046-3.815l-11.477-.006c-1.606,0-2.364-.1-1.783,1.688" transform="translate(2880.823 -89.368)"/><path class="d" d="M-2863.322,93.894l-5.144,9.716-9.007,0c-2.24,0-3.01,1.29-1.708,3.44l5.085,8.392-6.456,12.177c-.689,1.2-.38,2.687,1.241,2.687h8.741l6.762-16.045c.823-2.121,3.871-.692,2.739,1.6l-4.268,10.973c-1.4,2.484-.6,3.822,2.047,3.822l9.787,0c2.51,0,2.282-1.323,1.459-3.892l-6.785-21.136a1.7,1.7,0,0,1,2.518-1.891c.951.7-.261-1.412-.517-2.06l-3.148-8c-.774-1.97-2.341-1.706-3.347.2" transform="translate(2897.698 -81.835)"/><path class="c" d="M-2906.458,164.015v4.143h3.7v-2.346a2.929,2.929,0,0,0-.132-.979,1.012,1.012,0,0,0-.417-.537,1.738,1.738,0,0,0-.729-.218c-.295-.03-.657-.05-1.078-.063Zm6.02,5.619a.6.6,0,0,1-.673.691h-6.983a.606.606,0,0,1-.679-.691v-7.1a.61.61,0,0,1,.679-.7h3.731a8.061,8.061,0,0,1,1.706.163,3,3,0,0,1,1.236.553,2.388,2.388,0,0,1,.747,1.056,4.806,4.806,0,0,1,.249,1.669Z" transform="translate(2908.773 -109.166)"/><path class="c" d="M-2885.251,170.071a.243.243,0,0,1-.075.191.265.265,0,0,1-.174.064h-1.816a.222.222,0,0,1-.25-.254v-4.834c0-.174-.006-.332-.016-.482a.768.768,0,0,0-.131-.391.732.732,0,0,0-.383-.26,2.425,2.425,0,0,0-.743-.088h-2.343v6.056a.245.245,0,0,1-.073.191.26.26,0,0,1-.179.064h-1.8a.291.291,0,0,1-.19-.064.24.24,0,0,1-.073-.191V162.1a.262.262,0,0,1,.073-.182.247.247,0,0,1,.19-.084h5.183a5.212,5.212,0,0,1,1.085.111,2.183,2.183,0,0,1,.894.408,2.031,2.031,0,0,1,.6.809,3.422,3.422,0,0,1,.219,1.314Z" transform="translate(2902.705 -109.166)"/><path class="c" d="M-2874.426,169.648a.6.6,0,0,1-.685.677h-3.645c-.178,0-.268-.084-.268-.254v-1.645a.275.275,0,0,1,.077-.2.247.247,0,0,1,.191-.081h2.023v-3.556a.615.615,0,0,0-.126-.463.833.833,0,0,0-.517-.11h-.879a.254.254,0,0,1-.194-.075.235.235,0,0,1-.073-.172V162.1a.271.271,0,0,1,.073-.181.239.239,0,0,1,.194-.085h1.87a1.909,1.909,0,0,1,1.522.519,2.378,2.378,0,0,1,.437,1.562Z" transform="translate(2896.954 -109.166)"/><path class="c" d="M-2861.563,168.9a1.66,1.66,0,0,1-.26,1.007.879.879,0,0,1-.747.345h-3.253c-.154,0-.23-.083-.23-.252v-1.633a.347.347,0,0,1,.057-.2.207.207,0,0,1,.173-.08h1.523c.215,0,.339-.05.376-.154a1.977,1.977,0,0,0,.051-.535v-2.261c0-.3,0-.535-.012-.7a.481.481,0,0,0-.147-.354.76.76,0,0,0-.419-.124c-.19-.013-.467-.016-.831-.016a1,1,0,0,0-.816.28,2.149,2.149,0,0,0-.384.8l-1.358,5.087c-.018.078-.056.12-.118.129a1.136,1.136,0,0,1-.2.015h-1.9a.138.138,0,0,1-.15-.116.43.43,0,0,1,0-.221l1.2-3.92-1.886-2.873a.471.471,0,0,1-.077-.321.351.351,0,0,1,.118-.255l.908-.754a.607.607,0,0,1,.423-.138.381.381,0,0,1,.351.187l.955,1.619.245-.6a1.8,1.8,0,0,1,.638-.84,1.967,1.967,0,0,1,1.078-.254h2.588a2.356,2.356,0,0,1,.823.141,1.88,1.88,0,0,1,.662.414,1.983,1.983,0,0,1,.456.686,2.49,2.49,0,0,1,.168.942Z" transform="translate(2893.758 -109.096)"/><path class="c" d="M-2848.112,172.931a.218.218,0,0,1-.073.172.255.255,0,0,1-.177.064h-1.8a.292.292,0,0,1-.189-.064.22.22,0,0,1-.074-.172V162.1a.265.265,0,0,1,.074-.182.248.248,0,0,1,.189-.084h1.8a.22.22,0,0,1,.177.084.262.262,0,0,1,.073.182Z" transform="translate(2885.593 -109.166)"/><path class="c" d="M-2842.885,170.071a.246.246,0,0,1-.072.191.264.264,0,0,1-.179.064h-1.8a.3.3,0,0,1-.191-.064.246.246,0,0,1-.074-.191V162.1a.27.27,0,0,1,.074-.182.25.25,0,0,1,.191-.084h1.8a.226.226,0,0,1,.179.084.27.27,0,0,1,.072.182Z" transform="translate(2883.517 -109.166)"/><path class="c" d="M-2834.123,170.071a.26.26,0,0,1-.072.191.289.289,0,0,1-.193.064h-1.8a.222.222,0,0,1-.247-.254v-5.2a1.222,1.222,0,0,0-.133-.662c-.09-.129-.291-.192-.606-.192h-3.073a.231.231,0,0,1-.181-.075.235.235,0,0,1-.068-.171V162.1a.274.274,0,0,1,.068-.182.221.221,0,0,1,.181-.084h3.926a2.379,2.379,0,0,1,1.64.5,1.99,1.99,0,0,1,.555,1.556Z" transform="translate(2881.646 -109.166)"/><path class="c" d="M-2822.3,166.934a6.519,6.519,0,0,1-.161,1.556,2.4,2.4,0,0,1-.528,1.047,2.1,2.1,0,0,1-.976.6,5.033,5.033,0,0,1-1.5.191h-2.724a.221.221,0,0,1-.249-.252v-1.633a.306.306,0,0,1,.064-.2.232.232,0,0,1,.185-.08h1.781c.391,0,.7-.01.941-.028a1.029,1.029,0,0,0,.543-.166.7.7,0,0,0,.247-.452,5.229,5.229,0,0,0,.056-.885v-.913a6.545,6.545,0,0,0-.042-.8,1.076,1.076,0,0,0-.2-.524.878.878,0,0,0-.452-.286,3.044,3.044,0,0,0-.83-.088h-2.194a.258.258,0,0,1-.175-.067.219.219,0,0,1-.075-.178V162.1a.259.259,0,0,1,.075-.182.227.227,0,0,1,.175-.084h3.088a3.238,3.238,0,0,1,2.156.666,2.63,2.63,0,0,1,.789,2.12Z" transform="translate(2876.916 -109.166)"/><path class="c" d="M-2812.427,163.7a.442.442,0,0,1-.046.228c-.03.055-.1.083-.2.083h-.793a1.565,1.565,0,0,0-.548.922,3.077,3.077,0,0,0-.027,1.184l.737,3.95a.2.2,0,0,1-.062.191.283.283,0,0,1-.187.064h-1.83a.223.223,0,0,1-.251-.254l-.615-3.517a3.8,3.8,0,0,1-.072-.612,3.709,3.709,0,0,1,.034-.673,2.893,2.893,0,0,1,.183-.666,2.058,2.058,0,0,1,.369-.589h-1.309a.225.225,0,0,1-.178-.075.243.243,0,0,1-.065-.171V162.1a.274.274,0,0,1,.065-.189.219.219,0,0,1,.178-.077h4.37a.2.2,0,0,1,.163.077.336.336,0,0,1,.084.146Z" transform="translate(2872.427 -109.166)"/></g></svg>