<?xml version="1.0" encoding="utf-8"?>
<!-- Generator: Adobe Illustrator 16.0.0, SVG Export Plug-In . SVG Version: 6.00 Build 0)  -->
<!DOCTYPE svg PUBLIC "-//W3C//DTD SVG 1.1//EN" "http://www.w3.org/Graphics/SVG/1.1/DTD/svg11.dtd">
<svg version="1.1" id="Layer_1" xmlns="http://www.w3.org/2000/svg" xmlns:xlink="http://www.w3.org/1999/xlink" x="0px" y="0px"
	 width="182px" height="67.333px" viewBox="0 0 182 67.333" enable-background="new 0 0 182 67.333" xml:space="preserve">
<circle fill-rule="evenodd" clip-rule="evenodd" fill="#D40E8C" cx="85" cy="33.643" r="30.643"/>
<g>
	<path fill-rule="evenodd" clip-rule="evenodd" fill="#FFFFFF" d="M104.129,32.372c0,0.847,0,1.693,0,2.541
		c-0.059,0.467-0.108,0.934-0.176,1.4c-0.413,2.816-1.36,5.441-2.951,7.807c-3.158,4.691-7.528,7.512-13.114,8.432
		c-0.537,0.088-1.078,0.146-1.617,0.221c-0.846,0-1.692,0-2.542,0c-0.466-0.059-0.932-0.109-1.396-0.178
		c-3.168-0.461-6.068-1.605-8.636-3.521c-4.206-3.143-6.751-7.313-7.602-12.504c-0.09-0.549-0.149-1.104-0.224-1.656
		c0-0.848,0-1.693,0-2.541c0.059-0.467,0.108-0.934,0.176-1.399c0.413-2.817,1.36-5.441,2.951-7.807
		c3.156-4.691,7.528-7.514,13.115-8.433c0.535-0.088,1.078-0.146,1.615-0.22c0.85,0,1.696,0,2.542,0
		c0.453,0.058,0.907,0.108,1.356,0.175c3.721,0.543,7.029,2.012,9.864,4.485c3.543,3.091,5.694,6.965,6.419,11.619
		C103.993,31.317,104.056,31.846,104.129,32.372z M85.007,15.767c-9.883-0.009-17.849,7.942-17.882,17.847
		c-0.034,9.883,7.962,17.898,17.862,17.904c9.887,0.008,17.897-8.006,17.889-17.891C102.868,23.74,94.898,15.774,85.007,15.767z"/>
	<path fill-rule="evenodd" clip-rule="evenodd" fill="#FFFFFF" d="M81.932,39.313c0.146-0.184,0.225-0.313,0.33-0.418
		c3.977-3.98,7.956-7.959,11.932-11.939c0.466-0.463,0.815-0.527,1.118-0.207c0.278,0.296,0.2,0.658-0.231,1.093
		c-4.166,4.163-8.327,8.327-12.491,12.493c-0.555,0.553-0.785,0.557-1.334,0.008c-2.111-2.113-4.226-4.227-6.337-6.338
		c-0.096-0.096-0.203-0.189-0.276-0.303c-0.177-0.27-0.172-0.545,0.058-0.784c0.23-0.237,0.508-0.247,0.78-0.076
		c0.125,0.077,0.227,0.192,0.332,0.299c1.93,1.926,3.856,3.854,5.783,5.781C81.691,39.02,81.774,39.129,81.932,39.313z"/>
</g>
</svg>
