<svg width="42" height="42" viewBox="0 0 42 42" fill="none" xmlns="http://www.w3.org/2000/svg">
<path d="M21.057 0.769043C9.89301 0.769043 0.845001 9.81904 0.845001 20.98C0.845001 32.141 9.89301 41.191 21.057 41.191C32.219 41.191 41.268 32.141 41.268 20.98C41.268 9.81904 32.219 0.769043 21.057 0.769043ZM31.518 28.5611L29.403 30.683C28.704 31.382 27.772 31.75 26.829 31.75C26.295 31.75 25.758 31.631 25.257 31.388C23.143 30.362 19.952 28.468 16.759 25.275C13.566 22.082 11.671 18.89 10.645 16.776C9.97199 15.391 10.256 13.7251 11.351 12.6301L13.473 10.524C13.895 10.104 14.574 10.106 14.993 10.527L19.34 14.9C19.756 15.318 19.757 15.994 19.343 16.413L17.772 18.004C18.166 18.7 19.021 20.032 20.457 21.471C21.895 22.909 23.218 23.751 23.908 24.14L25.543 22.556C25.965 22.148 26.636 22.1541 27.051 22.5701L31.52 27.045C31.935 27.462 31.935 28.1411 31.518 28.5611Z" fill="#D1D3D4"/>
</svg>
