<svg width="27" height="27" viewBox="0 0 27 27" fill="none" xmlns="http://www.w3.org/2000/svg">
<path d="M13.909 26.576C6.733 26.576 0.895 20.738 0.895 13.563C0.895 6.38902 6.733 0.551025 13.909 0.551025C21.083 0.551025 26.921 6.38902 26.921 13.563C26.921 20.738 21.083 26.576 13.909 26.576Z" fill="#3D5B9A"/>
<path fill-rule="evenodd" clip-rule="evenodd" d="M11.868 13.6249V21.1669C11.868 21.2749 11.956 21.3629 12.063 21.3629H14.865C14.973 21.3629 15.061 21.2749 15.061 21.1669V13.5019H17.092C17.194 13.5019 17.278 13.4239 17.286 13.3219L17.481 11.0129C17.491 10.8979 17.4 10.7989 17.286 10.7989H15.06V9.15992C15.06 8.77692 15.372 8.46592 15.755 8.46592H17.319C17.428 8.46592 17.516 8.37792 17.516 8.26992V5.95992C17.516 5.85192 17.428 5.76392 17.319 5.76392H14.674C13.123 5.76392 11.865 7.02092 11.865 8.57392V10.7999H10.465C10.357 10.7999 10.268 10.8879 10.268 10.9969V13.3059C10.268 13.4139 10.357 13.5019 10.465 13.5019H11.865V13.6249H11.868Z" fill="white"/>
</svg>
