<svg width="50" height="50" viewBox="0 0 50 50" fill="none" xmlns="http://www.w3.org/2000/svg">
<path d="M48.1121 20.6532L27.7176 20.6522C26.817 20.6522 26.087 21.3821 26.087 22.2827V28.7979C26.087 29.6982 26.817 30.4283 27.7175 30.4283H39.2024C37.9448 33.6921 35.5976 36.4254 32.6028 38.1621L37.5 46.6395C45.3557 42.0963 50 34.1247 50 25.2011C50 23.9305 49.9063 23.0222 49.719 21.9994C49.5767 21.2224 48.902 20.6532 48.1121 20.6532Z" fill="#167EE6"/>
<path d="M25 40.2174C19.3795 40.2174 14.4728 37.1465 11.8376 32.6022L3.36044 37.4884C7.67441 44.9651 15.7558 50 25 50C29.5348 50 33.8138 48.779 37.5 46.6512V46.6396L32.6028 38.162C30.3628 39.4612 27.7706 40.2174 25 40.2174Z" fill="#12B347"/>
<path d="M37.5 46.6512V46.6396L32.6028 38.162C30.3628 39.4611 27.7708 40.2174 25 40.2174V50C29.5349 50 33.8141 48.779 37.5 46.6512Z" fill="#0F993E"/>
<path d="M9.78262 25C9.78262 22.2296 10.5387 19.6377 11.8376 17.3978L3.36045 12.5116C1.2209 16.1861 0 20.4535 0 25C0 29.5465 1.2209 33.8139 3.36045 37.4884L11.8376 32.6022C10.5387 30.3623 9.78262 27.7704 9.78262 25Z" fill="#FFD500"/>
<path d="M25 9.78262C28.6651 9.78262 32.0317 11.085 34.6613 13.2513C35.31 13.7856 36.2529 13.7471 36.8472 13.1528L41.4634 8.53662C42.1376 7.8624 42.0895 6.75879 41.3693 6.13399C36.9636 2.31182 31.2311 0 25 0C15.7558 0 7.67441 5.03486 3.36044 12.5116L11.8376 17.3978C14.4728 12.8535 19.3795 9.78262 25 9.78262Z" fill="#FF4B26"/>
<path d="M34.6613 13.2513C35.3101 13.7856 36.253 13.7471 36.8472 13.1528L41.4634 8.53662C42.1375 7.8624 42.0895 6.75879 41.3693 6.13398C36.9636 2.31172 31.2312 0 25 0V9.78262C28.665 9.78262 32.0317 11.085 34.6613 13.2513Z" fill="#D93F21"/>
</svg>
