<svg width="42" height="42" viewBox="0 0 42 42" fill="none" xmlns="http://www.w3.org/2000/svg">
<path d="M20.945 0.77002C9.78201 0.77002 0.734009 9.81901 0.734009 20.98C0.734009 32.141 9.78201 41.191 20.945 41.191C32.107 41.191 41.157 32.141 41.157 20.98C41.157 9.81901 32.107 0.77002 20.945 0.77002ZM21.655 9.29402C23.263 9.34202 24.566 10.5 24.584 12.198C24.604 13.838 23.355 15.112 21.668 15.14C20.086 15.169 18.752 13.814 18.744 12.227C18.733 10.655 20.062 9.31502 21.655 9.29402ZM23.521 32.665H19.727C19.016 32.663 18.74 32.387 18.739 31.672C18.738 28.254 18.739 24.836 18.739 21.418V20.975C18.468 20.975 18.252 20.982 18.037 20.973C17.6 20.954 17.303 20.675 17.297 20.24C17.287 19.272 17.287 18.303 17.297 17.337C17.303 16.9 17.602 16.608 18.041 16.605C19.977 16.598 21.914 16.599 23.85 16.605C24.242 16.608 24.486 16.823 24.567 17.208C24.597 17.352 24.602 17.501 24.602 17.649V31.594C24.602 32.428 24.362 32.665 23.521 32.665Z" fill="#D1D3D4"/>
</svg>
