<svg width="50" height="50" viewBox="0 0 50 50" fill="#ffff" xmlns="http://www.w3.org/2000/svg">
<g id="music-and-multimedia 1">
<g id="Group">
<g id="Group_2">
<path id="Vector" d="M45.6847 42.173L42.1077 36.2104C40.4557 33.4584 39.5827 30.3062 39.5827 27.0979V21.875C39.5827 15.2812 35.1827 9.7042 29.166 7.90625V4.1667C29.166 1.86875 27.2972 0 24.9993 0C22.7013 0 20.8326 1.86875 20.8326 4.1667V7.90625C14.816 9.7042 10.416 15.2812 10.416 21.875V27.0979C10.416 30.3062 9.54305 33.4562 7.89305 36.2084L4.316 42.1709C4.12225 42.4938 4.11805 42.8938 4.3035 43.2209C4.48895 43.548 4.8327 43.7501 5.2077 43.7501H44.791C45.166 43.7501 45.5118 43.548 45.6973 43.223C45.8827 42.8979 45.8764 42.4938 45.6847 42.173Z" fill="#E4FDFF"/>
</g>
</g>
<g id="Group_3">
<g id="Group_4">
<path id="Vector_2" d="M18.439 45.8333C19.614 48.2875 22.1015 50 24.9993 50C27.8972 50 30.3848 48.2875 31.5598 45.8333H18.439Z" fill="#E4FDFF"/>
</g>
</g>
</g>
</svg>
