<svg id="Layer_1" enable-background="new 0 0 512 512" fill="#ffff" height="512" viewBox="0 0 512 512" width="512" xmlns="http://www.w3.org/2000/svg"><g><path d="m0 141.356h422v30h-422z"/><path d="m422 102.356c0-24.813-20.187-45-45-45h-332c-24.813 0-45 20.187-45 45v9h422z"/><path d="m421 242.643c.334 0 .666.01 1 .013v-41.299h-422v123c0 24.813 20.187 45 45 45h255.138c-.089-1.894-.139-3.798-.139-5.713.001-66.721 54.281-121.001 121.001-121.001zm-346-11.286h37.5c8.284 0 15 6.716 15 15s-6.716 15-15 15h-37.5c-8.284 0-15-6.716-15-15s6.716-15 15-15zm85 77.999h-85c-8.284 0-15-6.716-15-15s6.716-15 15-15h85c8.284 0 15 6.716 15 15s-6.716 15-15 15z"/><path d="m421 272.643c-50.178 0-91 40.823-91 91 0 50.178 40.823 91 91 91s91-40.823 91-91-40.823-91-91-91zm43.607 83.277-36 36c-2.929 2.929-6.768 4.394-10.606 4.394s-7.678-1.464-10.606-4.394l-18.5-18.5c-5.858-5.858-5.858-15.355 0-21.213 5.857-5.858 15.355-5.858 21.213 0l7.894 7.894 25.394-25.394c5.857-5.858 15.355-5.858 21.213 0 5.855 5.858 5.855 15.355-.002 21.213z"/></g></svg>