<svg width="50" height="50" viewBox="0 0 50 50" fill="#ffff" xmlns="http://www.w3.org/2000/svg">
<g id="multimedia 2">
<path id="Vector" d="M9.37495 25.0001C9.37495 17.4708 14.7718 11.2996 21.875 9.83951V12.5L31.2501 6.25007L21.875 0V3.3913C11.2934 4.91549 3.12488 14.0044 3.12488 25.0001C3.12488 31.6209 6.09372 37.5524 10.7568 41.5674L16.2289 37.919C12.0967 35.1043 9.37495 30.3655 9.37495 25.0001Z" fill="#E4FDFF"/>
<path id="Vector_2" d="M39.2431 8.43286L33.771 12.0813C37.9032 14.8959 40.6251 19.6348 40.6251 25.0002C40.6251 32.5388 35.2391 38.7934 28.1248 40.2517V37.5L18.7498 43.75L28.1248 50V46.6213C38.7076 45.0967 46.875 35.9968 46.875 25.0001C46.8751 18.3793 43.9063 12.4479 39.2431 8.43286Z" fill="#E4FDFF"/>
</g>
</svg>
