<svg width="27" height="27" viewBox="0 0 27 27" fill="none" xmlns="http://www.w3.org/2000/svg">
<path d="M26.104 13.602C26.104 20.809 20.26 26.653 13.053 26.653C5.84499 26.653 0.0019989 20.809 0.0019989 13.602C0.0019989 6.39503 5.84499 0.551025 13.053 0.551025C20.26 0.551025 26.104 6.39503 26.104 13.602Z" fill="#111B44"/>
<path d="M21.28 13.602C21.28 18.146 17.595 21.83 13.051 21.83C8.50699 21.83 4.82401 18.146 4.82401 13.602C4.82401 9.05802 8.50699 5.37402 13.051 5.37402C17.595 5.37402 21.28 9.05802 21.28 13.602Z" fill="white"/>
<path d="M13.051 22.1351C8.34799 22.1351 4.52 18.3071 4.52 13.6021C4.52 8.89709 8.34799 5.06909 13.051 5.06909C17.757 5.06909 21.585 8.89709 21.585 13.6021C21.585 18.3071 17.757 22.1351 13.051 22.1351ZM13.051 5.68009C8.68399 5.68009 5.131 9.23409 5.131 13.6021C5.131 17.9711 8.68399 21.5241 13.051 21.5241C17.42 21.5241 20.976 17.9711 20.976 13.6021C20.976 9.23409 17.42 5.68009 13.051 5.68009Z" fill="#111B44"/>
<path d="M13.051 22.1351C11.17 22.1351 9.69701 18.3871 9.69701 13.6021C9.69701 8.81709 11.17 5.06909 13.051 5.06909C14.935 5.06909 16.409 8.81709 16.409 13.6021C16.409 18.3871 14.935 22.1351 13.051 22.1351ZM13.051 5.68009C11.726 5.68009 10.306 8.86309 10.306 13.6021C10.306 18.3401 11.726 21.5241 13.051 21.5241C14.378 21.5241 15.799 18.3401 15.799 13.6021C15.799 8.86309 14.378 5.68009 13.051 5.68009Z" fill="#111B44"/>
<path d="M19.121 19.449C19.073 19.449 19.024 19.437 18.977 19.413C17.461 18.607 15.301 18.146 13.05 18.146C10.803 18.146 8.642 18.607 7.125 19.413C7.003 19.479 6.851 19.453 6.757 19.35C5.315 17.77 4.519 15.729 4.519 13.603C4.519 11.476 5.315 9.43502 6.757 7.85602C6.85 7.75302 7.002 7.72602 7.125 7.79302C8.643 8.60002 10.803 9.06103 13.05 9.06103C15.3 9.06103 17.461 8.60002 18.977 7.79302C19.101 7.72802 19.252 7.75402 19.345 7.85602C20.79 9.43502 21.584 11.476 21.584 13.603C21.584 15.729 20.79 17.77 19.345 19.35C19.287 19.415 19.205 19.449 19.121 19.449ZM13.051 17.536C15.331 17.536 17.447 17.972 19.051 18.765C20.293 17.323 20.976 15.499 20.976 13.603C20.976 11.707 20.293 9.88203 19.051 8.44203C17.447 9.23503 15.329 9.67002 13.051 9.67002C10.777 9.67002 8.65699 9.23503 7.05499 8.44203C5.81199 9.88203 5.131 11.707 5.131 13.603C5.131 15.499 5.81199 17.323 7.05499 18.765C8.65699 17.971 10.775 17.536 13.051 17.536Z" fill="#111B44"/>
<path d="M12.153 15.0839H12.142C12.017 15.0799 11.907 14.9999 11.866 14.8829L11.015 12.5289C10.958 12.3699 11.04 12.1949 11.2 12.1369C11.357 12.0779 11.532 12.1609 11.589 12.3209L12.183 13.9639L12.806 12.5679C12.856 12.4549 12.969 12.3859 13.092 12.3859C13.215 12.3899 13.325 12.4669 13.368 12.5819L13.888 13.9329L14.517 12.3129C14.579 12.1569 14.753 12.0799 14.913 12.1399C15.07 12.2019 15.148 12.3779 15.088 12.5349L14.172 14.8899C14.127 15.0069 14.013 15.0839 13.887 15.0839C13.762 15.0839 13.649 15.0069 13.604 14.8889L13.065 13.4879L12.433 14.9049C12.382 15.0139 12.273 15.0839 12.153 15.0839Z" fill="#111B44"/>
<path d="M17.717 15.0839H17.706C17.581 15.0799 17.472 14.9999 17.431 14.8829L16.579 12.5289C16.522 12.3699 16.604 12.1949 16.762 12.1369C16.924 12.0779 17.096 12.1609 17.154 12.3209L17.748 13.9639L18.371 12.5679C18.421 12.4549 18.539 12.3859 18.657 12.3859C18.78 12.3899 18.89 12.4669 18.934 12.5819L19.454 13.9329L20.082 12.3129C20.143 12.1569 20.318 12.0799 20.478 12.1399C20.635 12.2019 20.712 12.3779 20.651 12.5349L19.736 14.8899C19.69 15.0069 19.578 15.0839 19.451 15.0839C19.325 15.0839 19.212 15.0069 19.167 14.8889L18.628 13.4879L17.997 14.9049C17.947 15.0139 17.836 15.0839 17.717 15.0839Z" fill="#111B44"/>
<path d="M6.489 15.0839H6.47701C6.35301 15.0799 6.244 14.9999 6.202 14.8829L5.351 12.5289C5.293 12.3699 5.375 12.1949 5.536 12.1369C5.692 12.0779 5.868 12.1609 5.926 12.3209L6.52001 13.9639L7.142 12.5679C7.192 12.4549 7.299 12.3859 7.429 12.3859C7.551 12.3899 7.66101 12.4669 7.70501 12.5819L8.224 13.9329L8.85401 12.3129C8.91601 12.1569 9.089 12.0799 9.249 12.1399C9.406 12.2019 9.484 12.3779 9.424 12.5349L8.508 14.8899C8.462 15.0069 8.349 15.0839 8.224 15.0839H8.222C8.098 15.0839 7.98401 15.0069 7.94001 14.8889L7.4 13.4879L6.769 14.9049C6.719 15.0139 6.609 15.0839 6.489 15.0839Z" fill="#111B44"/>
</svg>
