<?xml version="1.0" encoding="utf-8"?>
<!-- Generator: Adobe Illustrator 16.0.0, SVG Export Plug-In . SVG Version: 6.00 Build 0)  -->
<!DOCTYPE svg PUBLIC "-//W3C//DTD SVG 1.1//EN" "http://www.w3.org/Graphics/SVG/1.1/DTD/svg11.dtd">
<svg version="1.1" id="Layer_1" xmlns="http://www.w3.org/2000/svg" xmlns:xlink="http://www.w3.org/1999/xlink" x="0px" y="0px"
	 width="182px" height="67.333px" viewBox="0 0 182 67.333" enable-background="new 0 0 182 67.333" xml:space="preserve">
<circle fill-rule="evenodd" clip-rule="evenodd" fill="#D40E8C" cx="86" cy="32.691" r="30.643"/>
<g>
	<path fill-rule="evenodd" clip-rule="evenodd" fill="#FFFFFF" d="M84.796,50.906c-0.419-0.193-0.884-0.172-1.322-0.279
		c-3.287-0.803-5.77-2.676-7.438-5.607c-1.068-1.877-1.569-3.924-1.394-6.08c0.116-1.422,0.599-2.775,1.083-4.115
		c1.572-4.347,3.611-8.487,5.688-12.607c1.225-2.431,2.519-4.824,3.815-7.218c0.121-0.224,0.299-0.375,0.491-0.523
		c0.189,0,0.38,0,0.569,0c0.256,0.172,0.425,0.409,0.573,0.682c2.605,4.778,5.121,9.604,7.349,14.573
		c1.028,2.296,1.969,4.625,2.708,7.035c0.915,2.98,0.465,5.783-1.056,8.436c-1.494,2.602-3.715,4.328-6.579,5.223
		c-0.687,0.215-1.388,0.371-2.109,0.412c-0.049,0.002-0.091,0.012-0.103,0.07C86.313,50.906,85.555,50.906,84.796,50.906z
		 M85.979,49.335c0.332,0,0.664,0.021,0.995-0.006c0.341-0.027,0.683-0.082,1.015-0.158c2.904-0.66,5.142-2.256,6.602-4.852
		c1.131-2.01,1.59-4.16,1.03-6.457c-0.456-1.877-1.16-3.67-1.913-5.443c-2.229-5.242-4.82-10.306-7.533-15.31
		c-0.044-0.08-0.063-0.212-0.162-0.212c-0.123-0.001-0.14,0.143-0.188,0.23c-1.828,3.371-3.599,6.769-5.237,10.236
		c-1.394,2.951-2.754,5.915-3.789,9.018c-0.563,1.686-0.848,3.389-0.453,5.156C77.366,46.123,81.348,49.353,85.979,49.335z"/>
	<path fill-rule="evenodd" clip-rule="evenodd" fill="#FFFFFF" d="M85.737,46.341c-3.225-0.066-6.105-2.68-6.499-5.875
		c-0.04-0.318-0.071-0.637-0.063-0.955c0.014-0.426,0.341-0.756,0.739-0.766c0.378-0.01,0.725,0.293,0.754,0.705
		c0.074,1.004,0.256,1.973,0.816,2.832c1,1.543,2.401,2.41,4.253,2.516c0.13,0.008,0.259,0.029,0.387,0.055
		c0.38,0.074,0.645,0.379,0.646,0.736s-0.298,0.697-0.681,0.75C85.975,46.357,85.854,46.341,85.737,46.341z"/>
</g>
</svg>
