<svg width="42" height="42" viewBox="0 0 42 42" fill="none" xmlns="http://www.w3.org/2000/svg">
<path d="M21 0.769043C9.838 0.769043 0.789001 9.81904 0.789001 20.98C0.789001 32.141 9.838 41.19 21 41.19C32.162 41.19 41.213 32.14 41.213 20.979C41.213 9.81805 32.162 0.769043 21 0.769043ZM16.354 16.06C16.379 15.357 16.773 13.3931 19.833 10.1821C19.932 10.0781 20.142 10.0781 20.24 10.1821C23.3 13.3931 23.694 15.357 23.719 16.06C23.731 16.178 23.737 16.295 23.737 16.411C23.737 18.315 22.077 19.8671 20.039 19.8671C17.998 19.8671 16.336 18.315 16.336 16.411C16.334 16.295 16.342 16.176 16.354 16.06ZM32.397 28.3371L32.391 28.338V28.7101C31.836 28.7101 30.952 28.903 30.302 29.065C30.239 29.088 30.182 29.111 30.119 29.132C27.576 29.759 22.141 31.142 19.511 31.81L19.473 31.821C19.364 31.842 19.253 31.853 19.139 31.853C18.945 31.853 18.759 31.815 18.583 31.754C18.552 31.741 18.521 31.728 18.491 31.717L18.489 31.718L10.726 26.091L10.383 25.841C10.254 25.774 10.138 25.6891 10.033 25.5871L10.025 25.583L10.027 25.581C9.76399 25.323 9.60201 24.97 9.60201 24.573C9.60201 23.825 10.178 23.2191 10.91 23.1561C10.994 23.1381 11.078 23.1301 11.168 23.1301C11.234 23.1301 11.297 23.136 11.362 23.146C11.422 23.155 11.48 23.167 11.537 23.183C11.608 23.206 11.678 23.2361 11.744 23.2701C11.791 23.2921 11.834 23.316 11.877 23.346V23.345L12.776 23.993L17.727 27.204C17.871 27.239 18.035 27.247 18.21 27.237C18.481 27.174 19.969 26.7821 21.348 26.4171L21.428 26.396C21.796 26.291 22.191 26.1851 22.604 26.0851C23.247 25.9151 23.727 25.786 23.826 25.761C24.238 25.533 24.518 25.101 24.518 24.599C24.518 23.934 24.034 23.385 23.399 23.282H22.152H20.256C19.767 23.282 19.371 22.8861 19.371 22.3951C19.371 21.9061 19.767 21.508 20.256 21.508H23.606C24.063 21.495 24.607 21.489 25.245 21.489C26.664 21.489 27.651 22.02 28.53 22.634C29.743 23.48 30.75 24.482 32.396 24.482L32.39 24.5031V24.6151V27.825L32.397 28.3371Z" fill="#D1D3D4"/>
</svg>
