<svg xmlns="http://www.w3.org/2000/svg" width="80" height="80" viewBox="0 0 80 80"><defs><style>.a{fill:none;}.b{fill:#fff;}</style></defs><g transform="translate(-1775 -4.007)"><rect class="a" width="80" height="80" transform="translate(1775 4.007)"/><g transform="translate(-2)"><g transform="translate(1792.57 14.007)"><path class="b" d="M-2838.2,113.383l8.433,25.571c.877,2.68,1.024,4.711-3.628,5.371,4.639-.013,7.025-.024,11.664-.037,3.31-.01,3.867-1.413,2.452-4.247l-5.911-11.846c-1.514-3.036-1.7-3.538.2-6.365l4.067-6.053c1.783-2.652.67-4.277-2.308-4.278l-12.957-.007c-1.813,0-2.67-.108-2.014,1.893" transform="translate(2867.322 -98.455)"/><path class="b" d="M-2861.056,94.084l-5.807,10.9-10.169.005c-2.528,0-3.4,1.447-1.928,3.857l5.741,9.412-7.288,13.656c-.778,1.351-.429,3.014,1.4,3.014h9.87l7.633-17.993c.929-2.378,4.37-.776,3.093,1.794l-4.819,12.306c-1.584,2.786-.673,4.287,2.312,4.287l11.049.005c2.833,0,2.576-1.484,1.647-4.365l-7.661-23.7a1.922,1.922,0,0,1,2.844-2.12c1.073.786-.295-1.583-.585-2.311l-3.554-8.967c-.874-2.209-2.642-1.913-3.779.227" transform="translate(2880.896 -92.333)"/></g><g transform="translate(1783 61.175)"><path class="b" d="M-2906.158,164.28v4.647h4.179V166.3a3.254,3.254,0,0,0-.149-1.1,1.135,1.135,0,0,0-.471-.6,1.974,1.974,0,0,0-.823-.245c-.334-.033-.741-.056-1.216-.071Zm6.8,6.3a.679.679,0,0,1-.76.775h-7.884a.682.682,0,0,1-.766-.775v-7.966a.686.686,0,0,1,.766-.783h4.212a9.176,9.176,0,0,1,1.927.182,3.4,3.4,0,0,1,1.4.621,2.679,2.679,0,0,1,.843,1.184,5.34,5.34,0,0,1,.281,1.871Z" transform="translate(2908.773 -161.711)"/><path class="b" d="M-2884.187,171.072a.274.274,0,0,1-.084.214.305.305,0,0,1-.2.071h-2.05a.25.25,0,0,1-.283-.285V165.65c0-.2-.007-.372-.017-.541a.846.846,0,0,0-.149-.439.827.827,0,0,0-.432-.291,2.748,2.748,0,0,0-.839-.1h-2.645v6.791a.273.273,0,0,1-.083.214.293.293,0,0,1-.2.071h-2.035a.33.33,0,0,1-.214-.071.271.271,0,0,1-.083-.214V162.13a.3.3,0,0,1,.083-.2.28.28,0,0,1,.214-.094h5.853a5.912,5.912,0,0,1,1.225.125,2.473,2.473,0,0,1,1.009.458,2.278,2.278,0,0,1,.681.907,3.8,3.8,0,0,1,.247,1.474Z" transform="translate(2903.892 -161.711)"/><path class="b" d="M-2873.832,170.6a.678.678,0,0,1-.774.759h-4.115c-.2,0-.3-.094-.3-.285v-1.845a.313.313,0,0,1,.087-.226.279.279,0,0,1,.215-.091h2.283v-3.987a.692.692,0,0,0-.141-.519.948.948,0,0,0-.585-.123h-.993a.291.291,0,0,1-.219-.084.266.266,0,0,1-.083-.193V162.13a.307.307,0,0,1,.083-.2.273.273,0,0,1,.219-.1h2.112a2.159,2.159,0,0,1,1.717.582,2.647,2.647,0,0,1,.495,1.752Z" transform="translate(2899.266 -161.711)"/><path class="b" d="M-2860.349,169.781a1.85,1.85,0,0,1-.295,1.129.994.994,0,0,1-.843.387h-3.672c-.173,0-.26-.093-.26-.283v-1.831a.389.389,0,0,1,.064-.226.235.235,0,0,1,.2-.09h1.719c.243,0,.383-.056.425-.172a2.148,2.148,0,0,0,.059-.6v-2.535c0-.339,0-.6-.015-.783a.539.539,0,0,0-.166-.4.863.863,0,0,0-.474-.139c-.214-.014-.527-.018-.937-.018a1.138,1.138,0,0,0-.922.314,2.421,2.421,0,0,0-.434.895l-1.532,5.7c-.021.087-.065.135-.133.145a1.3,1.3,0,0,1-.229.016h-2.148a.157.157,0,0,1-.169-.131.5.5,0,0,1,0-.248l1.356-4.4-2.129-3.222a.523.523,0,0,1-.086-.36.385.385,0,0,1,.133-.286l1.023-.845a.692.692,0,0,1,.478-.154.428.428,0,0,1,.4.21l1.08,1.816.275-.678a2.019,2.019,0,0,1,.722-.942,2.229,2.229,0,0,1,1.216-.284h2.921a2.672,2.672,0,0,1,.93.158,2.13,2.13,0,0,1,.748.465,2.216,2.216,0,0,1,.513.77,2.767,2.767,0,0,1,.19,1.056Z" transform="translate(2896.695 -161.654)"/><path class="b" d="M-2847.812,174.279a.246.246,0,0,1-.083.193.29.29,0,0,1-.2.071h-2.033a.332.332,0,0,1-.215-.071.248.248,0,0,1-.083-.193V162.13a.3.3,0,0,1,.083-.2.282.282,0,0,1,.215-.094h2.033a.25.25,0,0,1,.2.094.3.3,0,0,1,.083.2Z" transform="translate(2890.127 -161.711)"/><path class="b" d="M-2842.585,171.072a.279.279,0,0,1-.082.214.3.3,0,0,1-.2.071h-2.033a.335.335,0,0,1-.216-.071.274.274,0,0,1-.083-.214V162.13a.3.3,0,0,1,.083-.2.283.283,0,0,1,.216-.094h2.033a.257.257,0,0,1,.2.094.306.306,0,0,1,.082.2Z" transform="translate(2888.457 -161.711)"/><path class="b" d="M-2833.3,171.072a.289.289,0,0,1-.08.214.328.328,0,0,1-.218.071h-2.029a.249.249,0,0,1-.279-.285v-5.834a1.361,1.361,0,0,0-.15-.742c-.1-.144-.327-.215-.684-.215h-3.47a.259.259,0,0,1-.2-.084.26.26,0,0,1-.076-.192V162.13a.3.3,0,0,1,.076-.2.248.248,0,0,1,.2-.094h4.432a2.7,2.7,0,0,1,1.85.557,2.221,2.221,0,0,1,.627,1.745Z" transform="translate(2886.952 -161.711)"/><path class="b" d="M-2821.493,167.554a7.272,7.272,0,0,1-.181,1.745,2.694,2.694,0,0,1-.6,1.174,2.38,2.38,0,0,1-1.1.668,5.724,5.724,0,0,1-1.688.214h-3.075a.249.249,0,0,1-.281-.283v-1.831a.346.346,0,0,1,.071-.226.266.266,0,0,1,.21-.09h2.011q.66,0,1.061-.032a1.169,1.169,0,0,0,.613-.186.786.786,0,0,0,.279-.507,5.8,5.8,0,0,0,.063-.993v-1.023a7.212,7.212,0,0,0-.047-.9,1.193,1.193,0,0,0-.224-.587.988.988,0,0,0-.51-.321,3.459,3.459,0,0,0-.937-.1h-2.477a.289.289,0,0,1-.2-.076.245.245,0,0,1-.085-.2V162.13a.29.29,0,0,1,.085-.2.254.254,0,0,1,.2-.094h3.485a3.675,3.675,0,0,1,2.435.747,2.939,2.939,0,0,1,.89,2.377Z" transform="translate(2883.148 -161.711)"/><path class="b" d="M-2811.8,163.933a.489.489,0,0,1-.052.255c-.033.062-.109.093-.228.093h-.9a1.751,1.751,0,0,0-.618,1.034,3.424,3.424,0,0,0-.031,1.328l.832,4.43a.225.225,0,0,1-.069.214.324.324,0,0,1-.213.071h-2.065a.251.251,0,0,1-.283-.285l-.694-3.944a4.341,4.341,0,0,1-.081-.687,4.172,4.172,0,0,1,.038-.755,3.261,3.261,0,0,1,.208-.746,2.294,2.294,0,0,1,.416-.66h-1.478a.253.253,0,0,1-.2-.084.272.272,0,0,1-.073-.192V162.13a.308.308,0,0,1,.073-.212.246.246,0,0,1,.2-.086h4.933a.228.228,0,0,1,.184.086.388.388,0,0,1,.1.164Z" transform="translate(2879.536 -161.711)"/></g></g></g></svg>