<?xml version="1.0" encoding="utf-8"?>
<!-- Generator: Adobe Illustrator 16.0.0, SVG Export Plug-In . SVG Version: 6.00 Build 0)  -->
<!DOCTYPE svg PUBLIC "-//W3C//DTD SVG 1.1//EN" "http://www.w3.org/Graphics/SVG/1.1/DTD/svg11.dtd">
<svg version="1.1" id="Layer_1" xmlns="http://www.w3.org/2000/svg" xmlns:xlink="http://www.w3.org/1999/xlink" x="0px" y="0px"
	 width="182px" height="67.333px" viewBox="0 0 182 67.333" enable-background="new 0 0 182 67.333" xml:space="preserve">
<circle fill-rule="evenodd" clip-rule="evenodd" fill="#D40E8C" cx="85.644" cy="33.691" r="30.643"/>
<g>
	<path fill-rule="evenodd" clip-rule="evenodd" fill="#FFFFFF" d="M95.511,34.273c0,0.729,0,1.426,0,2.127
		c0,1.889-0.018,3.779,0.012,5.666c0.006,0.359,0.145,0.738,0.305,1.064c0.227,0.457,0.537,0.869,0.801,1.307
		c0.465,0.773,0.508,1.578,0.057,2.363c-0.453,0.783-1.16,1.156-2.07,1.152c-1.875-0.006-3.754,0.002-5.631-0.006
		c-0.24,0-0.357,0.033-0.42,0.322c-0.41,1.852-2.039,3.115-3.953,3.104c-1.842-0.012-3.451-1.324-3.839-3.158
		c-0.052-0.242-0.157-0.266-0.356-0.266c-1.889,0.004-3.776-0.004-5.666,0.006c-0.924,0.004-1.641-0.371-2.094-1.17
		c-0.456-0.805-0.391-1.613,0.093-2.395c0.257-0.414,0.505-0.832,0.775-1.236c0.228-0.338,0.321-0.697,0.321-1.105
		c-0.009-4.217,0.033-8.436-0.018-12.652c-0.053-4.9,3.129-9.254,7.75-10.642c0.303-0.091,0.266-0.302,0.307-0.485
		c0.449-2.029,2.803-2.933,4.479-1.703c0.623,0.456,0.998,1.075,1.127,1.833c0.033,0.204,0.115,0.282,0.309,0.358
		c0.738,0.288,1.465,0.603,2.188,0.931c0.181,0.082,0.298,0.108,0.478-0.01c4.773-3.136,10.928-0.695,12.27,4.857
		c1.035,4.293-1.924,8.811-6.273,9.583C96.155,34.173,95.853,34.218,95.511,34.273z M89.269,20.606
		c-1.181-0.631-2.426-1.01-3.754-1.116c-2.871-0.231-5.369,0.646-7.457,2.61c-2.08,1.958-3.069,4.412-3.078,7.259
		c-0.012,4.289-0.006,8.578,0,12.867c0,0.52-0.129,0.982-0.404,1.414c-0.281,0.439-0.547,0.889-0.831,1.328
		c-0.26,0.402-0.319,0.818-0.091,1.244c0.229,0.428,0.62,0.6,1.095,0.6c6.617,0,13.235,0.002,19.854-0.002
		c1.027,0,1.545-0.936,1.014-1.814c-0.28-0.467-0.576-0.926-0.865-1.389c-0.26-0.412-0.385-0.855-0.384-1.348
		c0.006-2.531,0.004-5.063,0.004-7.592c0-0.129,0-0.258,0-0.385C87.569,33.705,84.456,25.501,89.269,20.606z M101.784,26.288
		c-0.018-3.768-3.092-6.861-6.811-6.85c-3.825,0.011-6.881,3.071-6.877,6.888c0,3.735,3.137,6.826,6.896,6.798
		C98.718,33.099,101.798,29.995,101.784,26.288z M81.909,47.96c0.279,1.383,1.575,2.375,2.93,2.268
		c1.321-0.105,2.543-1.182,2.565-2.268C85.581,47.96,83.758,47.96,81.909,47.96z M83.088,18.342c1.056,0,2.118,0,3.173,0
		c-0.154-0.667-0.84-1.188-1.588-1.188C83.919,17.156,83.228,17.684,83.088,18.342z"/>
	<text transform="matrix(1 0 0 1 93.5449 29.2598)" fill="#FFFFFF" font-family="'Assistant-Bold'" font-size="9.6965">!</text>
</g>
</svg>
