<svg width="27" height="27" viewBox="0 0 27 27" fill="none" xmlns="http://www.w3.org/2000/svg">
<path d="M13.269 26.576C6.094 26.576 0.254997 20.739 0.254997 13.563C0.254997 6.38902 6.094 0.551025 13.269 0.551025C20.443 0.551025 26.281 6.38902 26.281 13.563C26.28 20.739 20.442 26.576 13.269 26.576Z" fill="#ED2224"/>
<path d="M21.06 11.59C21.06 9.74405 19.564 8.24805 17.718 8.24805H9.051C7.204 8.24805 5.709 9.74405 5.709 11.59V15.653C5.709 17.498 7.204 18.994 9.051 18.994H17.718C19.564 18.994 21.06 17.498 21.06 15.653V11.59ZM15.592 13.826L12.135 15.722C11.986 15.804 11.849 15.695 11.849 15.525V11.633C11.849 11.459 11.99 11.351 12.139 11.437L15.618 13.432C15.774 13.519 15.747 13.742 15.592 13.826Z" fill="white"/>
</svg>
