<?xml version="1.0" encoding="utf-8"?>
<!-- Generator: Adobe Illustrator 16.0.0, SVG Export Plug-In . SVG Version: 6.00 Build 0)  -->
<!DOCTYPE svg PUBLIC "-//W3C//DTD SVG 1.1//EN" "http://www.w3.org/Graphics/SVG/1.1/DTD/svg11.dtd">
<svg version="1.1" id="Layer_1" xmlns="http://www.w3.org/2000/svg" xmlns:xlink="http://www.w3.org/1999/xlink" x="0px" y="0px"
	 width="182px" height="67.333px" viewBox="0 0 182 67.333" enable-background="new 0 0 182 67.333" xml:space="preserve">
<circle fill-rule="evenodd" clip-rule="evenodd" fill="#D40E8C" cx="85.849" cy="32.691" r="30.643"/>
<g>
	<path fill-rule="evenodd" clip-rule="evenodd" fill="none" stroke="#FFFFFF" stroke-width="2" stroke-miterlimit="10" d="
		M86.28,61.892c1.01-0.096,2.471-0.152,3.902-0.391c6.42-1.07,11.809-4.047,16.166-8.893c0.211-0.236,0.287-0.43,0.182-0.75
		c-2.234-6.963-6.762-11.732-13.631-14.252c-0.242-0.09-0.605-0.039-0.842,0.082c-4.162,2.168-8.313,2.164-12.477-0.006
		c-0.232-0.123-0.598-0.162-0.84-0.072c-6.865,2.529-11.396,7.297-13.598,14.271c-0.061,0.197,0.016,0.529,0.152,0.684
		C70.782,58.666,77.665,61.695,86.28,61.892z"/>
	<path fill-rule="evenodd" clip-rule="evenodd" fill="none" stroke="#FFFFFF" stroke-width="2" stroke-miterlimit="10" d="
		M85.812,34.765c5.957,0.008,10.76-4.763,10.809-10.743c0.049-5.839-4.852-10.752-10.746-10.774
		c-5.926-0.022-10.852,4.818-10.826,10.739C75.073,30.059,79.894,34.765,85.812,34.765z"/>
</g>
</svg>
