<svg xmlns="http://www.w3.org/2000/svg" xmlns:xlink="http://www.w3.org/1999/xlink" width="420.479" height="218.959" viewBox="0 0 420.479 218.959"><defs><style>.a{fill:none;}.b{fill:#c7007d;}.c{fill:#fff;}.d{clip-path:url(#c);}.e{fill:#a2d45e;}.f{fill:#231f20;}.g{fill:#14c4ac;}.h{clip-path:url(#h);}.i{isolation:isolate;}.j{fill:#474747;}.k{filter:url(#f);}.l{filter:url(#d);}.m{filter:url(#a);}</style><filter id="a" x="216" y="14.479" width="204.479" height="204.479" filterUnits="userSpaceOnUse"><feOffset dy="5" input="SourceAlpha"/><feGaussianBlur stdDeviation="14" result="b"/><feFlood flood-color="#cb007b" flood-opacity="0.161"/><feComposite operator="in" in2="b"/><feComposite in="SourceGraphic"/></filter><clipPath id="c"><rect class="a" width="52.42" height="56.164" transform="translate(0 -0.42)"/></clipPath><filter id="d" x="0" y="14.48" width="204.479" height="204.479" filterUnits="userSpaceOnUse"><feOffset dy="5" input="SourceAlpha"/><feGaussianBlur stdDeviation="14" result="e"/><feFlood flood-color="#cb007b" flood-opacity="0.161"/><feComposite operator="in" in2="e"/><feComposite in="SourceGraphic"/></filter><filter id="f" x="100.76" y="0" width="218.959" height="218.959" filterUnits="userSpaceOnUse"><feOffset dy="5" input="SourceAlpha"/><feGaussianBlur stdDeviation="14" result="g"/><feFlood flood-color="#cb007b" flood-opacity="0.161"/><feComposite operator="in" in2="g"/><feComposite in="SourceGraphic"/></filter><clipPath id="h"><path class="b" d="M101.9,110.374a11.877,11.877,0,0,1-9.777,6.111,11.741,11.741,0,0,1-1.479.006c-8.036-.5-13.532-9.387-9.969-16.86,1.495-5.837,8.016-16.059,8.016-16.059A6.038,6.038,0,0,1,90.67,81a2.2,2.2,0,0,1,2.069-.29A3.9,3.9,0,0,1,94.677,82.9L101.1,97.129c1.023,2.166,2.24,4.257,2.285,6.844A11.8,11.8,0,0,1,101.9,110.374Z" transform="translate(-79.564 -80.568)"/></clipPath></defs><g transform="translate(784.24 11440.479)"><g transform="matrix(0.985, 0.174, -0.174, 0.985, -1591.48, -16.337)"><g class="m" transform="matrix(0.98, -0.17, 0.17, 0.98, -1188.8, -11390.76)"><rect class="c" width="104" height="104" rx="12" transform="matrix(0.98, 0.17, -0.17, 0.98, 276.06, 51.48)"/></g><g class="d" transform="translate(-882.174 -11364.564)"><path class="b" d="M-2891.72,114.888l.922-1.022-.831-.76-.591.654a.59.59,0,0,0-.132.215.361.361,0,0,0-.008.195.46.46,0,0,0,.094.186,1.415,1.415,0,0,0,.177.187Zm-.047-2.116a.142.142,0,0,1,.228-.012l1.074.982a.146.146,0,0,1,.012.234l-1.128,1.249a.146.146,0,0,1-.233.012l-.454-.417a2.207,2.207,0,0,1-.283-.311.823.823,0,0,1-.145-.31.622.622,0,0,1,.02-.319.974.974,0,0,1,.214-.342Zm-1.605.906a.063.063,0,0,1-.044.016.051.051,0,0,1-.042-.017l-.616-.67a1.3,1.3,0,0,1-.155-.208.528.528,0,0,1-.072-.218.464.464,0,0,1,.044-.234.823.823,0,0,1,.2-.252l.97-.9a.051.051,0,0,1,.082,0l.139.151a.062.062,0,0,1,.018.041.054.054,0,0,1-.022.043l-.9.843a1.421,1.421,0,0,0-.124.127.3.3,0,0,0-.064.117.17.17,0,0,0,.016.122.637.637,0,0,0,.11.153l.622.667a.062.062,0,0,1,.014.042.064.064,0,0,1-.02.045Zm1.14-1.551a.053.053,0,0,1,.084,0l.136.149a.052.052,0,0,1,0,.085l-.72.67a.054.054,0,0,1-.086,0l-.137-.151a.053.053,0,0,1,0-.084Zm-2.017-1.07a.05.05,0,0,1,.046-.01.07.07,0,0,1,.037.022l.121.164a.068.068,0,0,1,.015.047.055.055,0,0,1-.021.042l-.841.631a.056.056,0,0,1-.046.011.064.064,0,0,1-.044-.026l-.122-.163a.061.061,0,0,1-.008-.044.058.058,0,0,1,.024-.042Zm-.666-2.456a.053.053,0,0,1,.049-.008.077.077,0,0,1,.037.031l.109.164a.07.07,0,0,1,.013.047.054.054,0,0,1-.027.042l-1.11.747a.289.289,0,0,0-.15.192.4.4,0,0,0,.084.239l.359.541,1.27-.854a.14.14,0,0,1,.22.042l.254.383a.052.052,0,0,1-.017.081l-.166.111a.05.05,0,0,1-.08-.016l-.162-.244-1.141.767.122.183a.053.053,0,0,1-.019.082l-.162.109a.062.062,0,0,1-.045.011.046.046,0,0,1-.039-.024l-.73-1.1a.5.5,0,0,1-.09-.41.594.594,0,0,1,.261-.337Zm-.416-.714a.05.05,0,0,1,.049,0,.061.061,0,0,1,.03.03l.094.179a.078.078,0,0,1,.008.049.049.049,0,0,1-.031.039l-1.667.881a.059.059,0,0,1-.047,0,.059.059,0,0,1-.038-.033l-.1-.179a.053.053,0,0,1,0-.045.062.062,0,0,1,.027-.039Zm-.964-2.024a.053.053,0,0,1,.047,0,.071.071,0,0,1,.032.033l.083.183a.075.075,0,0,1,.007.048.056.056,0,0,1-.034.034l-1.12.521c-.061.029-.114.056-.158.082a.271.271,0,0,0-.1.089.2.2,0,0,0-.021.124.626.626,0,0,0,.058.179l.321.7,1.479-.686a.052.052,0,0,1,.048,0,.067.067,0,0,1,.03.029l.086.186a.08.08,0,0,1,0,.049.056.056,0,0,1-.033.036l-1.71.793a.046.046,0,0,1-.048,0,.051.051,0,0,1-.036-.033l-.43-.935a1.228,1.228,0,0,1-.083-.246.561.561,0,0,1,0-.234.453.453,0,0,1,.114-.212.79.79,0,0,1,.26-.179Zm-1.27-.859a.058.058,0,0,1,.05,0,.068.068,0,0,1,.032.04l.149.441a.207.207,0,0,1,.013.119.121.121,0,0,1-.043.073.217.217,0,0,1-.076.045c-.028.012-.06.022-.09.033l-.765.265a.061.061,0,0,1-.044,0,.053.053,0,0,1-.033-.035l-.282-.835a.74.74,0,0,1-.017-.52.63.63,0,0,1,.414-.322l.531-.182a1.852,1.852,0,0,1,.358-.087.577.577,0,0,1,.27.028.459.459,0,0,1,.2.164,1.158,1.158,0,0,1,.156.319l.259.771c.014.041,0,.069-.035.082l-.189.064q-.054.018-.076-.044l-.25-.741a.775.775,0,0,0-.1-.2.246.246,0,0,0-.116-.1.281.281,0,0,0-.156-.009,1.8,1.8,0,0,0-.22.062l-.462.158c-.07.024-.126.046-.175.069a.25.25,0,0,0-.1.082.193.193,0,0,0-.029.124.75.75,0,0,0,.044.2l.19.564.478-.162-.107-.319a.057.057,0,0,1,.036-.082Zm-.882-3.4a1.451,1.451,0,0,1,.448-.047.69.69,0,0,1,.331.11.719.719,0,0,1,.233.266,1.7,1.7,0,0,1,.156.426,2.166,2.166,0,0,1,.068.47.859.859,0,0,1-.065.366.669.669,0,0,1-.219.266,1.133,1.133,0,0,1-.4.17l-1.076.265a.058.058,0,0,1-.046-.01.064.064,0,0,1-.029-.042l-.048-.19a.059.059,0,0,1,.009-.047.056.056,0,0,1,.037-.03l1.059-.26a.807.807,0,0,0,.3-.131.4.4,0,0,0,.136-.2.625.625,0,0,0,.017-.256,2.141,2.141,0,0,0-.056-.306,1.489,1.489,0,0,0-.088-.271.463.463,0,0,0-.141-.188.484.484,0,0,0-.228-.085,1,1,0,0,0-.344.036l-1,.246a.083.083,0,0,1-.045,0,.045.045,0,0,1-.029-.034l-.051-.208a.049.049,0,0,1,.01-.044.09.09,0,0,1,.039-.023Zm.4.817a.053.053,0,0,1,.046.009.057.057,0,0,1,.025.035l.049.2a.06.06,0,0,1-.006.046.057.057,0,0,1-.038.025l-1.21.3a.06.06,0,0,1-.046-.006.057.057,0,0,1-.03-.038l-.047-.2a.057.057,0,0,1,.01-.044.056.056,0,0,1,.037-.03Zm-.074-3.354a.377.377,0,0,1,.242.042.2.2,0,0,1,.1.171l.061.743a.069.069,0,0,1-.012.045.053.053,0,0,1-.042.023l-.2.016a.059.059,0,0,1-.046-.013.072.072,0,0,1-.018-.043l-.046-.56c0-.05-.018-.078-.044-.085a.516.516,0,0,0-.131,0l-.879.074a.52.52,0,0,0-.167.036.194.194,0,0,0-.089.076.242.242,0,0,0-.032.111.839.839,0,0,0,0,.141l.023.293a1.051,1.051,0,0,0,.016.11.241.241,0,0,0,.044.086.219.219,0,0,0,.079.06.425.425,0,0,0,.134.032l1.412.127a.04.04,0,0,1,.034.028c0,.016.005.031.008.047l.019.246a.029.029,0,0,1-.024.034.109.109,0,0,1-.052,0l-1.172-.137-.576.434a.061.061,0,0,1-.044.015.053.053,0,0,1-.037-.018l-.123-.194a.064.064,0,0,1,.008-.088l.411-.281-.167-.049a.4.4,0,0,1-.212-.138.483.483,0,0,1-.079-.25l-.04-.489a.549.549,0,0,1,.018-.2.421.421,0,0,1,.083-.168.457.457,0,0,1,.153-.123.623.623,0,0,1,.219-.059Zm-.606-1.79a.049.049,0,0,1,.043.021.055.055,0,0,1,.015.04v.2a.066.066,0,0,1-.017.046.05.05,0,0,1-.042.02l-1.05,0a.062.062,0,0,1-.044-.021.07.07,0,0,1-.019-.046v-.2a.053.053,0,0,1,.02-.04.056.056,0,0,1,.042-.021Zm.849-1.367a.142.142,0,0,1,.142.178l-.082.744c0,.04-.026.057-.066.052l-.2-.021c-.039,0-.055-.025-.052-.066l.064-.581-1.151-.127a.542.542,0,0,0-.082,0,.2.2,0,0,0-.07.016.1.1,0,0,0-.052.048.247.247,0,0,0-.028.1l-.031.287a.059.059,0,0,1-.02.04.06.06,0,0,1-.046.013l-.2-.02a.065.065,0,0,1-.04-.023.058.058,0,0,1-.015-.044l.035-.328a.453.453,0,0,1,.161-.346.544.544,0,0,1,.378-.067Zm-1.748-.643a.074.074,0,0,1-.041-.022.056.056,0,0,1-.012-.046l.089-.613a1.163,1.163,0,0,1,.066-.262.529.529,0,0,1,.128-.2.455.455,0,0,1,.209-.115.774.774,0,0,1,.318-.007l1.049.153.027-.194a.047.047,0,0,1,.025-.04.051.051,0,0,1,.042-.011l.2.028a.054.054,0,0,1,.049.069l-.213,1.477a.052.052,0,0,1-.067.05l-.2-.029a.065.065,0,0,1-.037-.022.058.058,0,0,1-.013-.047l.14-.963-.966-.141a.487.487,0,0,0-.308.032.367.367,0,0,0-.137.281l-.079.6a.055.055,0,0,1-.025.042.068.068,0,0,1-.047.007Zm2.223-1.982a.051.051,0,0,1,.039.027.071.071,0,0,1,.009.043l-.042.2a.075.075,0,0,1-.023.043.054.054,0,0,1-.049.01l-1.847-.369a.068.068,0,0,1-.038-.029.054.054,0,0,1-.01-.05l.039-.2a.064.064,0,0,1,.028-.037.062.062,0,0,1,.046-.01Zm1.109-1.512a.054.054,0,0,1,.034.032.073.073,0,0,1,0,.042l-.061.2a.077.077,0,0,1-.028.041.044.044,0,0,1-.044.005l-2.445-.762a.063.063,0,0,1-.034-.034.056.056,0,0,1-.005-.049l.06-.2a.055.055,0,0,1,.031-.033.067.067,0,0,1,.047-.006Zm-.434-2.661a1.282,1.282,0,0,1,.343.218.571.571,0,0,1,.165.256.639.639,0,0,1,.01.311,2.2,2.2,0,0,1-.119.381,2.206,2.206,0,0,1-.184.35.7.7,0,0,1-.224.223.561.561,0,0,1-.3.076,1.063,1.063,0,0,1-.394-.1l-1.122-.462a.064.064,0,0,1-.033-.031.049.049,0,0,1,0-.047l.076-.189a.056.056,0,0,1,.033-.031.055.055,0,0,1,.048,0l1.127.465a.707.707,0,0,0,.242.061.3.3,0,0,0,.177-.044.451.451,0,0,0,.135-.149,1.925,1.925,0,0,0,.12-.249,1.558,1.558,0,0,0,.086-.268.445.445,0,0,0,0-.2.306.306,0,0,0-.1-.152.856.856,0,0,0-.216-.122l-.885-.364-.122.3.3.5a.057.057,0,0,1-.021.086l-.168.1a.055.055,0,0,1-.048.01.066.066,0,0,1-.037-.034l-.338-.558a.327.327,0,0,1-.024-.071.139.139,0,0,1,.01-.079l.215-.528a.142.142,0,0,1,.212-.083Zm1.389-1.32a.052.052,0,0,1,.024.08l-.1.18a.061.061,0,0,1-.032.03.057.057,0,0,1-.047-.007l-1.176-.636a.3.3,0,0,0-.238-.046.358.358,0,0,0-.165.176l-.343.642a.052.052,0,0,1-.08.024l-.172-.094a.063.063,0,0,1-.03-.034.05.05,0,0,1,0-.048l.39-.732a.484.484,0,0,1,.32-.273.591.591,0,0,1,.415.075Zm-.966-1.584.794.525a.415.415,0,0,0,.376.095l0,0a.905.905,0,0,0,.29-.325.89.89,0,0,0,.178-.394.311.311,0,0,0-.059-.153.64.64,0,0,0-.174-.157l-.791-.527Zm1.581-.682a1.027,1.027,0,0,1,.272.259.575.575,0,0,1,.1.28,1.135,1.135,0,0,1-.229.613,1.121,1.121,0,0,1-.468.456.678.678,0,0,1-.639-.132l-.927-.612a.142.142,0,0,1-.052-.222l.786-1.209a.144.144,0,0,1,.228-.046Zm.965-1.583a.044.044,0,0,1,.021.042.059.059,0,0,1-.013.041l-.129.159a.074.074,0,0,1-.04.026.049.049,0,0,1-.046-.012l-.812-.668a.058.058,0,0,1-.02-.042.06.06,0,0,1,.014-.05l.128-.158a.054.054,0,0,1,.041-.017.057.057,0,0,1,.045.011Zm1.392-1.37a1.146,1.146,0,0,1,.191.245.713.713,0,0,1,.1.268.607.607,0,0,1-.022.273.654.654,0,0,1-.163.263l-.227.234a.067.067,0,0,1-.042.021.054.054,0,0,1-.045-.018l-.141-.139a.052.052,0,0,1-.019-.042.065.065,0,0,1,.02-.044l.21-.217a.366.366,0,0,0,.108-.181.305.305,0,0,0-.007-.167.482.482,0,0,0-.079-.146,1.349,1.349,0,0,0-.107-.121l-.628-.615-.7.725a.144.144,0,0,1-.232,0l-.556-.546a.049.049,0,0,1-.018-.044.069.069,0,0,1,.022-.044l.136-.142a.07.07,0,0,1,.042-.022.053.053,0,0,1,.044.018l.441.433.705-.729a.142.142,0,0,1,.227,0Zm1.119-.049a.051.051,0,0,1,.017.046.075.075,0,0,1-.019.037l-.15.139a.071.071,0,0,1-.044.022.057.057,0,0,1-.044-.019l-1.278-1.393a.062.062,0,0,1-.014-.046.061.061,0,0,1,.021-.046l.149-.138a.049.049,0,0,1,.042-.013.058.058,0,0,1,.043.018Zm1.7-1.44a.052.052,0,0,1,.014.045.061.061,0,0,1-.023.041l-.153.128a.074.074,0,0,1-.045.018.069.069,0,0,1-.042-.024l-.788-.954a1.375,1.375,0,0,0-.121-.133.254.254,0,0,0-.109-.069.2.2,0,0,0-.125.008.633.633,0,0,0-.156.1l-.589.492,1.041,1.26a.048.048,0,0,1,.014.046.065.065,0,0,1-.021.039l-.156.131a.074.074,0,0,1-.045.018.051.051,0,0,1-.043-.023l-1.2-1.457a.061.061,0,0,1-.013-.045.059.059,0,0,1,.023-.045l.787-.659a1.166,1.166,0,0,1,.212-.145.556.556,0,0,1,.226-.062.437.437,0,0,1,.233.056.768.768,0,0,1,.238.206Zm.614-2.377.722,1.173.954-.594-.461-.751a.582.582,0,0,0-.168-.187.371.371,0,0,0-.184-.062.452.452,0,0,0-.2.041,1.588,1.588,0,0,0-.226.117Zm2.036.538a.145.145,0,0,1-.052.224l-1.235.769a.143.143,0,0,1-.225-.053l-.882-1.435a.147.147,0,0,1,.053-.229l.523-.325a2.023,2.023,0,0,1,.374-.187.8.8,0,0,1,.337-.055.6.6,0,0,1,.3.107.982.982,0,0,1,.267.3Zm.444-.989a.048.048,0,0,1,0,.046.055.055,0,0,1-.029.032l-.183.088a.068.068,0,0,1-.048.007.048.048,0,0,1-.036-.03l-.456-.952a.055.055,0,0,1,0-.048.065.065,0,0,1,.033-.038l.183-.087a.047.047,0,0,1,.044,0,.053.053,0,0,1,.035.03Zm1.452-1.565c.015.041.006.069-.032.085l-.2.085.629,1.512a.052.052,0,0,1-.032.078l-.187.079a.051.051,0,0,1-.075-.033l-.631-1.512-.845.356a.051.051,0,0,1-.076-.033l-.076-.18a.072.072,0,0,1,0-.047.051.051,0,0,1,.031-.035l1.344-.566a.055.055,0,0,1,.045,0,.048.048,0,0,1,.028.026Zm2.108.308a1.131,1.131,0,0,1,.055.307.728.728,0,0,1-.04.281.622.622,0,0,1-.146.233.689.689,0,0,1-.267.154l-.31.1a.058.058,0,0,1-.048,0,.06.06,0,0,1-.03-.037l-.06-.19a.053.053,0,0,1,0-.047.077.077,0,0,1,.04-.029l.288-.093a.367.367,0,0,0,.179-.108.339.339,0,0,0,.071-.151.537.537,0,0,0,0-.167,1.327,1.327,0,0,0-.04-.158l-.267-.84-.959.309a.146.146,0,0,1-.207-.106l-.238-.746a.055.055,0,0,1,.006-.047.075.075,0,0,1,.041-.03l.186-.06a.072.072,0,0,1,.047,0,.059.059,0,0,1,.031.037l.186.59.963-.31a.142.142,0,0,1,.2.111Zm.807-.276a.051.051,0,0,1-.008.047.055.055,0,0,1-.034.025l-.2.052a.065.065,0,0,1-.048,0,.051.051,0,0,1-.03-.037l-.266-1.021a.055.055,0,0,1,.007-.046.064.064,0,0,1,.039-.031l.2-.052a.053.053,0,0,1,.044.008.063.063,0,0,1,.03.037Zm.311-1.195a.078.078,0,0,1,.009-.044.048.048,0,0,1,.041-.026l.608-.094a1.136,1.136,0,0,1,.269-.013.523.523,0,0,1,.225.064.468.468,0,0,1,.171.169.836.836,0,0,1,.1.3l.159,1.053.192-.03a.06.06,0,0,1,.047.011.061.061,0,0,1,.021.038l.03.2a.053.053,0,0,1-.05.069l-1.464.226a.051.051,0,0,1-.067-.05l-.032-.2a.06.06,0,0,1,.009-.041.054.054,0,0,1,.04-.025l.957-.149-.148-.971a.489.489,0,0,0-.121-.287.359.359,0,0,0-.307-.05l-.59.1a.066.066,0,0,1-.047-.011.075.075,0,0,1-.021-.043Zm2.965-.369a.059.059,0,0,1,.016-.044.052.052,0,0,1,.039-.022l.905-.06a1.218,1.218,0,0,1,.258.01.556.556,0,0,1,.215.081.461.461,0,0,1,.153.182.808.808,0,0,1,.073.311l.087,1.327c0,.041-.016.062-.054.065l-.2.012a.057.057,0,0,1-.044-.011.057.057,0,0,1-.018-.044l-.081-1.237a1.577,1.577,0,0,0-.021-.18.3.3,0,0,0-.05-.121.19.19,0,0,0-.106-.065.626.626,0,0,0-.188-.01l-.905.067a.064.064,0,0,1-.042-.016.059.059,0,0,1-.021-.044Zm.48,1.869a.053.053,0,0,1-.054.064l-.2.012a.053.053,0,0,1-.064-.055l-.062-.985a.054.054,0,0,1,.055-.065l.2-.013a.053.053,0,0,1,.063.056Zm3.136-.7a1.808,1.808,0,0,1-.048.367.6.6,0,0,1-.122.245.475.475,0,0,1-.227.133,1.158,1.158,0,0,1-.353.032l-.617-.024c-.041,0-.062-.023-.058-.063l.007-.2c0-.039.023-.057.065-.054l.584.022a.8.8,0,0,0,.223-.014.245.245,0,0,0,.133-.075.279.279,0,0,0,.063-.143,1.806,1.806,0,0,0,.022-.225l.019-.5q0-.108,0-.186a.279.279,0,0,0-.039-.125.2.2,0,0,0-.106-.071.689.689,0,0,0-.2-.027l-.684-.029a.05.05,0,0,1-.042-.019.079.079,0,0,1-.011-.046l.008-.2a.078.078,0,0,1,.016-.043.047.047,0,0,1,.044-.019l.7.029a.688.688,0,0,1,.487.178.654.654,0,0,1,.151.51Zm.857.014a.055.055,0,0,1-.026.04.057.057,0,0,1-.041.011l-.2-.026a.069.069,0,0,1-.044-.022.05.05,0,0,1-.014-.044l.133-1.048a.061.061,0,0,1,.025-.04.064.064,0,0,1,.048-.013l.2.026a.05.05,0,0,1,.038.024.062.062,0,0,1,.015.045Zm2.257,1.013a.381.381,0,0,1-.1.225.2.2,0,0,1-.187.048l-.73-.133a.071.071,0,0,1-.042-.022.059.059,0,0,1-.01-.048l.035-.2a.055.055,0,0,1,.026-.04.068.068,0,0,1,.047-.007l.549.1c.048.009.079,0,.093-.023a.489.489,0,0,0,.036-.126l.158-.872a.543.543,0,0,0,.008-.172.2.2,0,0,0-.049-.108.223.223,0,0,0-.1-.06,1.088,1.088,0,0,0-.135-.033l-.288-.052a.616.616,0,0,0-.109-.012.2.2,0,0,0-.094.017.226.226,0,0,0-.079.063.4.4,0,0,0-.065.122l-.488,1.34c-.009.017-.019.026-.035.025a.192.192,0,0,1-.048-.006l-.242-.043a.03.03,0,0,1-.025-.034.106.106,0,0,1,.012-.051l.434-1.1-.268-.671a.065.065,0,0,1,0-.048.057.057,0,0,1,.025-.032l.219-.069a.061.061,0,0,1,.082.032l.164.473.091-.152a.406.406,0,0,1,.187-.17.476.476,0,0,1,.259-.011l.48.086a.556.556,0,0,1,.185.068.435.435,0,0,1,.14.125.455.455,0,0,1,.076.18.517.517,0,0,1,0,.227Zm2.176.974a.057.057,0,0,1-.031.037.078.078,0,0,1-.049,0l-.187-.061a.072.072,0,0,1-.039-.03.056.056,0,0,1-.006-.049l.419-1.277a.28.28,0,0,0,0-.244.378.378,0,0,0-.211-.137l-.615-.2-.48,1.462a.14.14,0,0,1-.2.1l-.434-.144a.052.052,0,0,1-.035-.076l.062-.189a.051.051,0,0,1,.073-.038l.277.091.43-1.311-.208-.069a.052.052,0,0,1-.035-.075l.061-.188a.069.069,0,0,1,.027-.035.051.051,0,0,1,.047-.005l1.246.414a.489.489,0,0,1,.322.268.6.6,0,0,1,0,.426Zm.719.316a.054.054,0,0,1-.033.036.074.074,0,0,1-.043,0l-.189-.074a.083.083,0,0,1-.039-.032.06.06,0,0,1,0-.049l.684-1.768a.066.066,0,0,1,.033-.034.074.074,0,0,1,.05,0l.188.073a.052.052,0,0,1,.03.033.063.063,0,0,1,0,.049Z" transform="translate(2904.53 -75.057)"/><path class="b" d="M-2838.184,79.724a.059.059,0,0,1,.024-.038.033.033,0,0,1,.039,0l.192.108a.046.046,0,0,1,.028.036.119.119,0,0,1,0,.049l-.439,1.63.147.084a.4.4,0,0,0,.2.06.308.308,0,0,0,.158-.051.48.48,0,0,0,.122-.113,1.251,1.251,0,0,0,.088-.137l.554-1a.061.061,0,0,1,.035-.032.055.055,0,0,1,.047.005l.177.1a.063.063,0,0,1,.026.035.058.058,0,0,1,0,.049l-.558,1a1.1,1.1,0,0,1-.188.249.743.743,0,0,1-.233.161.6.6,0,0,1-.269.051.654.654,0,0,1-.291-.09l-.808-.456a.051.051,0,0,1-.022-.08l.1-.174a.051.051,0,0,1,.079-.023l.357.2Zm1.168,2.885a.05.05,0,0,1-.042.027.062.062,0,0,1-.04-.008l-.172-.108a.067.067,0,0,1-.03-.038.053.053,0,0,1,.006-.05l1.005-1.6a.057.057,0,0,1,.04-.026.058.058,0,0,1,.05.008l.17.108a.057.057,0,0,1,.024.04.059.059,0,0,1-.006.046Zm1.138-.217a.048.048,0,0,1-.041.022.054.054,0,0,1-.041-.011l-.166-.117a.073.073,0,0,1-.029-.04.053.053,0,0,1,.009-.047l.606-.861a.052.052,0,0,1,.04-.023.061.061,0,0,1,.051.01l.166.117a.055.055,0,0,1,.021.04.068.068,0,0,1-.008.045Zm1.174-.093-.589.751c-.116.149-.16.271-.126.368v0a.913.913,0,0,0,.295.319.9.9,0,0,0,.375.212.287.287,0,0,0,.156-.046.6.6,0,0,0,.17-.161l.591-.747Zm.536,1.644a1,1,0,0,1-.28.251.556.556,0,0,1-.287.076,1.1,1.1,0,0,1-.585-.283,1.093,1.093,0,0,1-.411-.509.688.688,0,0,1,.185-.629l.688-.877a.141.141,0,0,1,.224-.033l1.125.894a.147.147,0,0,1,.027.233Zm1.429,1.269a1.183,1.183,0,0,1-.239.2.734.734,0,0,1-.264.1.619.619,0,0,1-.274-.019.661.661,0,0,1-.263-.16l-.236-.225a.061.061,0,0,1-.022-.041.053.053,0,0,1,.017-.046l.135-.144a.049.049,0,0,1,.043-.019.061.061,0,0,1,.043.019l.22.209a.367.367,0,0,0,.181.105.313.313,0,0,0,.165-.01.446.446,0,0,0,.144-.081c.045-.038.084-.074.12-.111l.6-.643-.731-.695a.146.146,0,0,1-.009-.233l.534-.57a.053.053,0,0,1,.044-.019.071.071,0,0,1,.044.022l.143.136a.06.06,0,0,1,.023.041.061.061,0,0,1-.017.044l-.423.452.737.7a.143.143,0,0,1,0,.227Zm2.282,1.293c-.035.027-.066.025-.089-.007l-.115-.148a.372.372,0,0,0-.252.019.615.615,0,0,0-.229.179l-.783.835a.037.037,0,0,1-.043.016.079.079,0,0,1-.041-.026l-.124-.16a.08.08,0,0,1-.015-.047.059.059,0,0,1,.025-.04l.721-.745a1.367,1.367,0,0,1,.1-.1.9.9,0,0,1,.131-.093.779.779,0,0,1,.15-.065.535.535,0,0,1,.165-.019l-.226-.294a.055.055,0,0,1-.014-.045.061.061,0,0,1,.023-.04l.156-.121a.059.059,0,0,1,.045-.013.055.055,0,0,1,.041.024l.533.693a.049.049,0,0,1,.011.044.072.072,0,0,1-.018.035Zm.226,2.02a1.773,1.773,0,0,1-.321.183.553.553,0,0,1-.269.048.455.455,0,0,1-.241-.1,1.235,1.235,0,0,1-.237-.265l-.353-.511a.055.055,0,0,1,.014-.086l.165-.113c.03-.023.059-.017.082.018l.332.484a.975.975,0,0,0,.147.172.244.244,0,0,0,.139.061.281.281,0,0,0,.151-.036,1.659,1.659,0,0,0,.19-.118l.413-.288a1.411,1.411,0,0,0,.146-.112.229.229,0,0,0,.076-.106.2.2,0,0,0-.007-.127.762.762,0,0,0-.1-.176l-.39-.567a.048.048,0,0,1-.01-.046.072.072,0,0,1,.029-.038l.163-.114a.087.087,0,0,1,.043-.014.049.049,0,0,1,.041.025l.4.585a.717.717,0,0,1,.152.5.654.654,0,0,1-.315.429Zm.26,1.966a.053.053,0,0,1-.082-.023l-.1-.179a.058.058,0,0,1-.006-.043.058.058,0,0,1,.031-.038l1.171-.646a.3.3,0,0,0,.168-.174.359.359,0,0,0-.058-.236l-.347-.639a.054.054,0,0,1,.024-.081l.171-.094a.067.067,0,0,1,.045-.007.047.047,0,0,1,.037.027l.4.73a.5.5,0,0,1,.056.419.6.6,0,0,1-.29.308Zm1.2,2.055a.388.388,0,0,1-.244.034.207.207,0,0,1-.144-.131l-.285-.688a.07.07,0,0,1,0-.048.057.057,0,0,1,.035-.035l.183-.077a.053.053,0,0,1,.047,0,.058.058,0,0,1,.029.037l.217.517c.02.045.042.068.07.067a.44.44,0,0,0,.124-.039l.812-.342a.512.512,0,0,0,.15-.087.2.2,0,0,0,.062-.1.279.279,0,0,0,0-.116,1.147,1.147,0,0,0-.047-.132l-.114-.271a.561.561,0,0,0-.049-.1.224.224,0,0,0-.066-.069.229.229,0,0,0-.094-.031.4.4,0,0,0-.138.011l-1.384.317a.034.034,0,0,1-.039-.014.357.357,0,0,1-.022-.043l-.095-.229a.03.03,0,0,1,.013-.038.1.1,0,0,1,.051-.019l1.156-.234.413-.592a.071.071,0,0,1,.039-.027.045.045,0,0,1,.04,0l.178.146a.064.064,0,0,1,.019.087l-.306.4.176-.006a.392.392,0,0,1,.244.063.479.479,0,0,1,.151.214l.188.452a.558.558,0,0,1,.045.194.436.436,0,0,1-.028.184.469.469,0,0,1-.108.164.586.586,0,0,1-.189.123Zm1.671-.072a.065.065,0,0,1,.048,0,.056.056,0,0,1,.031.032l.277.871a1.138,1.138,0,0,1,.052.252.515.515,0,0,1-.025.231.46.46,0,0,1-.137.194.8.8,0,0,1-.284.145l-1.259.407a.053.053,0,0,1-.075-.035l-.061-.2a.054.054,0,0,1,0-.045.058.058,0,0,1,.036-.03l1.174-.379a1.372,1.372,0,0,0,.168-.063.268.268,0,0,0,.1-.078.177.177,0,0,0,.038-.118.639.639,0,0,0-.036-.186l-.282-.868a.052.052,0,0,1,0-.044.06.06,0,0,1,.038-.032Zm-1.684.921a.052.052,0,0,1-.075-.038l-.061-.194a.054.054,0,0,1,.038-.077l.933-.3a.056.056,0,0,1,.077.04l.061.194a.055.055,0,0,1-.039.077Z" transform="translate(2875.727 -77.248)"/><path class="b" d="M-2838.253,112.961l6.509,19.869c.677,2.083.791,3.661-2.8,4.173,3.582-.01,5.424-.019,9-.029,2.555-.008,2.985-1.1,1.894-3.3l-4.563-9.205c-1.169-2.359-1.312-2.749.156-4.946l3.141-4.7c1.376-2.061.517-3.323-1.783-3.324l-10-.005c-1.4,0-2.061-.084-1.555,1.471" transform="translate(2875.371 -92.239)"/><path class="e" d="M-2865.582,93.693l-4.483,8.466-7.849,0c-1.952,0-2.623,1.124-1.489,3l4.431,7.313-5.626,10.612c-.6,1.05-.331,2.342,1.082,2.342h7.617l5.893-13.982c.717-1.848,3.373-.6,2.387,1.394l-3.719,9.562c-1.223,2.165-.519,3.331,1.783,3.331l8.529,0c2.187,0,1.988-1.153,1.271-3.392l-5.913-18.419a1.486,1.486,0,0,1,2.195-1.648c.829.611-.227-1.23-.451-1.8l-2.743-6.968c-.675-1.717-2.04-1.487-2.917.177" transform="translate(2895.538 -83.211)"/><path class="b" d="M-2906.755,163.734v3.611h3.226V165.3a2.55,2.55,0,0,0-.115-.853.882.882,0,0,0-.364-.468,1.513,1.513,0,0,0-.635-.19c-.257-.026-.573-.043-.939-.055Zm5.246,4.9a.526.526,0,0,1-.587.6h-6.086a.528.528,0,0,1-.592-.6v-6.19a.531.531,0,0,1,.592-.609h3.251a7.024,7.024,0,0,1,1.486.142,2.613,2.613,0,0,1,1.077.482,2.082,2.082,0,0,1,.651.92,4.182,4.182,0,0,1,.217,1.454Z" transform="translate(2908.773 -115.965)"/><path class="b" d="M-2886.311,169.012a.211.211,0,0,1-.065.166.232.232,0,0,1-.152.055h-1.583a.194.194,0,0,1-.218-.222V164.8c0-.152,0-.289-.014-.42a.667.667,0,0,0-.114-.341.636.636,0,0,0-.333-.226,2.114,2.114,0,0,0-.648-.077h-2.042v5.277a.214.214,0,0,1-.064.166.226.226,0,0,1-.156.055h-1.57a.253.253,0,0,1-.165-.055.209.209,0,0,1-.063-.166v-6.948a.228.228,0,0,1,.063-.159.215.215,0,0,1,.165-.073h4.517a4.541,4.541,0,0,1,.946.1,1.9,1.9,0,0,1,.779.356,1.772,1.772,0,0,1,.526.7,2.979,2.979,0,0,1,.19,1.145Z" transform="translate(2901.521 -115.965)"/><path class="b" d="M-2875.017,168.643a.525.525,0,0,1-.6.59h-3.176c-.156,0-.233-.073-.233-.222v-1.433a.239.239,0,0,1,.067-.176.214.214,0,0,1,.166-.071h1.763v-3.1a.535.535,0,0,0-.11-.4.726.726,0,0,0-.451-.1h-.766a.222.222,0,0,1-.169-.065.206.206,0,0,1-.064-.15v-1.456a.237.237,0,0,1,.064-.158.209.209,0,0,1,.169-.074h1.63a1.663,1.663,0,0,1,1.326.453,2.073,2.073,0,0,1,.381,1.361Z" transform="translate(2894.648 -115.965)"/><path class="b" d="M-2862.773,167.969a1.446,1.446,0,0,1-.227.878.766.766,0,0,1-.651.3h-2.835c-.134,0-.2-.072-.2-.22v-1.423a.3.3,0,0,1,.049-.175.181.181,0,0,1,.151-.07h1.327c.188,0,.3-.044.328-.134a1.719,1.719,0,0,0,.045-.466v-1.97c0-.263,0-.466-.01-.609a.422.422,0,0,0-.128-.308.663.663,0,0,0-.365-.108c-.166-.011-.407-.014-.724-.014a.872.872,0,0,0-.711.244,1.872,1.872,0,0,0-.335.7l-1.184,4.433c-.016.068-.049.1-.1.113a.991.991,0,0,1-.177.013h-1.658a.12.12,0,0,1-.13-.1.374.374,0,0,1,0-.193l1.046-3.416-1.644-2.5a.408.408,0,0,1-.067-.28.3.3,0,0,1,.1-.223l.791-.657a.529.529,0,0,1,.369-.12.331.331,0,0,1,.306.163l.833,1.411.214-.527a1.571,1.571,0,0,1,.556-.732,1.715,1.715,0,0,1,.94-.221h2.255a2.052,2.052,0,0,1,.717.123,1.634,1.634,0,0,1,.576.361,1.725,1.725,0,0,1,.4.6,2.165,2.165,0,0,1,.146.821Z" transform="translate(2890.829 -115.881)"/><path class="b" d="M-2848.409,171.5a.189.189,0,0,1-.064.15.221.221,0,0,1-.154.056h-1.57a.255.255,0,0,1-.165-.056.191.191,0,0,1-.064-.15v-9.44a.23.23,0,0,1,.064-.159.216.216,0,0,1,.165-.073h1.57a.191.191,0,0,1,.154.073.228.228,0,0,1,.064.159Z" transform="translate(2881.072 -115.965)"/><path class="b" d="M-2843.183,169.012a.215.215,0,0,1-.063.166.23.23,0,0,1-.156.055h-1.569a.259.259,0,0,1-.167-.055.214.214,0,0,1-.064-.166v-6.948a.236.236,0,0,1,.064-.159.219.219,0,0,1,.167-.073h1.569a.2.2,0,0,1,.156.073.236.236,0,0,1,.063.159Z" transform="translate(2878.59 -115.965)"/><path class="b" d="M-2834.942,169.012a.226.226,0,0,1-.062.166.252.252,0,0,1-.168.055h-1.566a.193.193,0,0,1-.215-.222v-4.533a1.061,1.061,0,0,0-.116-.577c-.078-.112-.253-.167-.528-.167h-2.679a.2.2,0,0,1-.157-.065.205.205,0,0,1-.059-.149v-1.457a.239.239,0,0,1,.059-.159.192.192,0,0,1,.157-.073h3.421a2.072,2.072,0,0,1,1.429.433,1.734,1.734,0,0,1,.484,1.356Z" transform="translate(2876.354 -115.965)"/><path class="b" d="M-2823.111,166.278a5.678,5.678,0,0,1-.14,1.356,2.094,2.094,0,0,1-.46.912,1.832,1.832,0,0,1-.851.519,4.385,4.385,0,0,1-1.3.167h-2.374a.193.193,0,0,1-.217-.22v-1.423a.267.267,0,0,1,.055-.176.2.2,0,0,1,.162-.07h1.552c.341,0,.613-.008.82-.025a.9.9,0,0,0,.473-.145.615.615,0,0,0,.215-.394,4.53,4.53,0,0,0,.049-.771v-.8a5.74,5.74,0,0,0-.036-.7.935.935,0,0,0-.173-.456.763.763,0,0,0-.394-.25,2.656,2.656,0,0,0-.724-.077h-1.912a.225.225,0,0,1-.153-.059.19.19,0,0,1-.065-.156v-1.457a.225.225,0,0,1,.065-.159.2.2,0,0,1,.153-.073h2.691a2.821,2.821,0,0,1,1.879.581,2.293,2.293,0,0,1,.687,1.847Z" transform="translate(2870.702 -115.965)"/><path class="b" d="M-2813.052,163.464a.384.384,0,0,1-.04.2c-.026.048-.085.072-.176.072h-.691a1.362,1.362,0,0,0-.477.8,2.679,2.679,0,0,0-.023,1.032l.642,3.442a.175.175,0,0,1-.053.166.248.248,0,0,1-.164.055h-1.594a.194.194,0,0,1-.219-.222l-.535-3.064a3.327,3.327,0,0,1-.062-.533,3.261,3.261,0,0,1,.03-.586,2.528,2.528,0,0,1,.159-.58,1.789,1.789,0,0,1,.321-.513h-1.141a.2.2,0,0,1-.156-.065.211.211,0,0,1-.056-.149v-1.457a.239.239,0,0,1,.056-.164.191.191,0,0,1,.156-.067h3.808a.175.175,0,0,1,.142.067.292.292,0,0,1,.073.127Z" transform="translate(2865.337 -115.965)"/></g></g><g transform="matrix(0.985, -0.174, 0.174, 0.985, 2388.476, -359.292)"><g class="l" transform="matrix(0.98, 0.17, -0.17, 0.98, -1200.29, -11463.78)"><rect class="c" width="104" height="104" rx="12" transform="matrix(0.98, -0.17, 0.17, 0.98, 42, 69.54)"/></g><g transform="translate(-1146.826 -11361.137)"><g transform="translate(0 0)"><path class="f" d="M48.758,138.376a.2.2,0,0,1-.089.021.213.213,0,0,1-.078-.412,3.669,3.669,0,0,0,1.067-.747,2.976,2.976,0,0,0,.814-1.109.711.711,0,0,0-.028-.555,1.2,1.2,0,0,0-1.131-.548,2.273,2.273,0,0,0-.384.032,1.8,1.8,0,0,0-.764.356.956.956,0,0,0-.416.658.222.222,0,0,1-.441-.053,1.422,1.422,0,0,1,.74-1.042,2.294,2.294,0,0,1,1.273-.356,1.59,1.59,0,0,1,1.493.775.911.911,0,0,1,.139.484,2.354,2.354,0,0,1-.789,1.511A4.235,4.235,0,0,1,48.758,138.376Z" transform="translate(-30.376 -87.017)"/><path class="f" d="M58.636,138.406a.658.658,0,0,1-.583-.27,1.237,1.237,0,0,1-.2-.377.814.814,0,0,0-.082-.192.81.81,0,0,0-.274.192l-1,.967a.228.228,0,0,1-.149.053.189.189,0,0,1-.153-.064.181.181,0,0,1,0-.3l.754-.757a1.627,1.627,0,0,1,.857-.526.451.451,0,0,1,.423.356,1.568,1.568,0,0,0,.224.473.6.6,0,0,0,.356.021,2.112,2.112,0,0,0,1.067-.676,1.639,1.639,0,0,0,.508-1.1.711.711,0,0,0-.356-.615,1.682,1.682,0,0,0-1.01-.284,2.2,2.2,0,0,0-1.23.356.221.221,0,1,1-.235-.373,2.72,2.72,0,0,1,1.476-.416,2.158,2.158,0,0,1,1.262.356,1.124,1.124,0,0,1,.523.967,2.165,2.165,0,0,1-.711,1.49A2.052,2.052,0,0,1,58.636,138.406Z" transform="translate(-36.025 -87.178)"/><path class="f" d="M71.963,138.172a.16.16,0,0,1-.1.032.224.224,0,0,1-.1-.416,2.354,2.354,0,0,0,.761-.658,1.778,1.778,0,0,0,.388-.832,1.084,1.084,0,0,0-.356-.989,1.625,1.625,0,0,0-.587-.331,2.575,2.575,0,0,0-.786-.142.953.953,0,0,0-.384.068,15.4,15.4,0,0,1-1.4,3.222.192.192,0,0,1-.3.032.188.188,0,0,1-.032-.3,10.875,10.875,0,0,0,.74-1.476,6.351,6.351,0,0,0,.583-1.6.206.206,0,0,1,.092-.174,1.116,1.116,0,0,1,.711-.2,2.677,2.677,0,0,1,.978.2,2.065,2.065,0,0,1,.711.391,1.522,1.522,0,0,1,.5,1.138,2.073,2.073,0,0,1-.469,1.191A2.646,2.646,0,0,1,71.963,138.172Z" transform="translate(-44.296 -86.88)"/><path class="f" d="M84.335,135.716a3.085,3.085,0,0,1-.967,2.027.224.224,0,0,1-.171.078.2.2,0,0,1-.192-.121.2.2,0,0,1,.021-.235A2.764,2.764,0,0,0,83.9,135.8a1.066,1.066,0,0,0-.388-.86,1.44,1.44,0,0,0-1-.27,3.519,3.519,0,0,0-.462.032q-.089.356-.27,1.067a5.422,5.422,0,0,1-.8,1.746,3.513,3.513,0,0,1-1.838,1.2h-.082a.206.206,0,0,1-.2-.139q-.089-.224.124-.281a3,3,0,0,0,1.451-.8,3.7,3.7,0,0,0,.711-1.252q.053-.153.427-1.493a5.491,5.491,0,0,0-.676.2.2.2,0,0,1-.281-.128q-.089-.21.11-.281a7.463,7.463,0,0,1,.946-.235l.071-.334a.217.217,0,0,1,.427.078l-.05.2a3.02,3.02,0,0,1,.356-.021,1.928,1.928,0,0,1,1.33.356A1.5,1.5,0,0,1,84.335,135.716Z" transform="translate(-50.608 -86.491)"/><path class="f" d="M97.853,135.736a3.085,3.085,0,0,1-.967,2.027.224.224,0,0,1-.171.078.2.2,0,0,1-.192-.121.2.2,0,0,1,.021-.235,2.764,2.764,0,0,0,.878-1.668,1.067,1.067,0,0,0-.356-.85,1.44,1.44,0,0,0-1-.27,3.509,3.509,0,0,0-.462.032q-.089.356-.27,1.067a5.422,5.422,0,0,1-.8,1.746,3.513,3.513,0,0,1-1.838,1.2h-.082a.206.206,0,0,1-.2-.139q-.089-.224.124-.281a3,3,0,0,0,1.451-.8,3.7,3.7,0,0,0,.711-1.252q.053-.153.427-1.493a5.5,5.5,0,0,0-.676.2.2.2,0,0,1-.281-.128q-.089-.21.11-.281a7.468,7.468,0,0,1,.946-.235l.071-.334a.217.217,0,0,1,.427.078l-.05.2a3.039,3.039,0,0,1,.356-.021,1.927,1.927,0,0,1,1.33.356,1.5,1.5,0,0,1,.494,1.113Z" transform="translate(-59.304 -86.51)"/><path class="f" d="M6.583,111.589a1.269,1.269,0,0,1-.516-.089.822.822,0,0,1-.324-.249,1.067,1.067,0,0,1-.178-.356,1.5,1.5,0,0,1-.057-.42l-.039-4.05a.711.711,0,0,0-.185-.58.711.711,0,0,0-.459-.146H2.864l-.107,4.854a1.1,1.1,0,0,1-.288.733,1.042,1.042,0,0,1-.814.3,1.067,1.067,0,0,1-.811-.3.992.992,0,0,1-.263-.74l.181-4.875a.747.747,0,0,1-.356-.082.612.612,0,0,1-.228-.217.924.924,0,0,1-.117-.316,2,2,0,0,1-.032-.356,1.81,1.81,0,0,1,.039-.356A.935.935,0,0,1,.215,104a.914.914,0,0,1,.267-.256.786.786,0,0,1,.427-.1H5.47a2.57,2.57,0,0,1,.441.057,3.591,3.591,0,0,1,.494.146,1.49,1.49,0,0,1,.462.274,1.777,1.777,0,0,1,.412.452,1.927,1.927,0,0,1,.224.526,3.783,3.783,0,0,1,.1.583q.028.3.028.636l.039,4.146a1.156,1.156,0,0,1-.267.8.992.992,0,0,1-.825.327Z" transform="translate(-0.03 -67.053)"/><path class="f" d="M25.541,109.044h.181a.711.711,0,0,1,.615.324,1.252,1.252,0,0,1,.217.711,1.067,1.067,0,0,1-.252.711.811.811,0,0,1-.654.3H24.232a.711.711,0,0,1-.622-.356,1.5,1.5,0,0,1-.228-.853,5.106,5.106,0,0,1,.149-1.209,5.373,5.373,0,0,1,.441-1.184q.167-.316.356-.644l.356-.644q.107-.2.053-.267a.786.786,0,0,0-.149-.146l-.825-.743a2.784,2.784,0,0,1-.356-.384.875.875,0,0,1-.149-.533,1.209,1.209,0,0,1,1.262-1.213,1.131,1.131,0,0,1,.54.117,1.65,1.65,0,0,1,.384.284l2.208,2.1,1.4-1.853a1.39,1.39,0,0,1,.384-.356,1.191,1.191,0,0,1,.633-.146.907.907,0,0,1,.6.2.964.964,0,0,1,.316.48,1.348,1.348,0,0,1,.032.583.988.988,0,0,1-.228.508l-1.742,2.03q.711.825,1.184,1.458t.793,1.1a1.009,1.009,0,0,1,.132.267,1.067,1.067,0,0,1,.064.356,1.028,1.028,0,0,1-.1.476,1.1,1.1,0,0,1-.59.523.917.917,0,0,1-.3.06,1.469,1.469,0,0,1-.487-.075,1.085,1.085,0,0,1-.444-.356l-2.133-2.6-.885-.861a4.023,4.023,0,0,0-.252.395q-.139.242-.267.5t-.217.48a1.536,1.536,0,0,0-.1.327Q25.445,109.044,25.541,109.044Z" transform="translate(-14.998 -66.589)"/><path class="g" d="M50.462,111.305H48.457a2.9,2.9,0,0,1-.459-.032.871.871,0,0,1-.356-.139.775.775,0,0,1-.249-.3,1.572,1.572,0,0,1-.139-.5l-.711-5.9a1.067,1.067,0,0,1,.2-.775,1,1,0,0,1,.793-.405,1.156,1.156,0,0,1,.779.2,1.067,1.067,0,0,1,.377.747l.576,5.028h1.248a2.752,2.752,0,0,0,.8-.11,1.458,1.458,0,0,0,.615-.356,1.557,1.557,0,0,0,.38-.672,3.5,3.5,0,0,0,.11-1.067l-.039-1.355a.327.327,0,0,0-.043-.174.089.089,0,0,0-.057-.028h-.768l.028.615a.957.957,0,0,1-1,1.127.889.889,0,0,1-.711-.288,1.006,1.006,0,0,1-.256-.69l-.039-1.259a2.414,2.414,0,0,1,.082-.636,1.326,1.326,0,0,1,.267-.516,1.287,1.287,0,0,1,.469-.356,1.674,1.674,0,0,1,.676-.124h1.849a2.219,2.219,0,0,1,.608.078,1.241,1.241,0,0,1,.473.249,1.152,1.152,0,0,1,.32.473,2.113,2.113,0,0,1,.117.757l.039,2.165a5.163,5.163,0,0,1-.309,1.97,3.325,3.325,0,0,1-2.162,2.03,5.024,5.024,0,0,1-1.511.238Z" transform="translate(-29.871 -66.805)"/><path class="g" d="M75.46,111.546a1.28,1.28,0,0,1-.508-.089.907.907,0,0,1-.331-.235.879.879,0,0,1-.178-.324,1.167,1.167,0,0,1-.053-.356V106.71a1.852,1.852,0,0,0-.075-.583.711.711,0,0,0-.206-.324.619.619,0,0,0-.306-.135,2.359,2.359,0,0,0-.356-.028H71.083a1.021,1.021,0,0,1-.711-.267.981.981,0,0,1-.3-.764,1.181,1.181,0,0,1,.242-.711.889.889,0,0,1,.764-.324h3a5.455,5.455,0,0,1,.814.071,1.728,1.728,0,0,1,.86.412,1.928,1.928,0,0,1,.427.5,2.167,2.167,0,0,1,.224.551,3.1,3.1,0,0,1,.089.6q0,.316.028.644v4.125a1.275,1.275,0,0,1-.057.38.864.864,0,0,1-.188.327,1.066,1.066,0,0,1-.334.242A1.141,1.141,0,0,1,75.46,111.546Z" transform="translate(-44.981 -67.01)"/><path class="g" d="M91.861,109.07h.181a.711.711,0,0,1,.615.324,1.252,1.252,0,0,1,.217.711,1.067,1.067,0,0,1-.252.711.811.811,0,0,1-.654.3H90.545a.711.711,0,0,1-.622-.356,1.5,1.5,0,0,1-.228-.853,5.106,5.106,0,0,1,.149-1.209,5.372,5.372,0,0,1,.441-1.184q.167-.316.356-.644l.356-.644q.107-.2.053-.267a.783.783,0,0,0-.135-.142l-.832-.733a2.783,2.783,0,0,1-.356-.384.875.875,0,0,1-.149-.533,1.209,1.209,0,0,1,1.262-1.213,1.131,1.131,0,0,1,.54.117,1.651,1.651,0,0,1,.384.284l2.208,2.1,1.4-1.853a1.39,1.39,0,0,1,.384-.356,1.192,1.192,0,0,1,.633-.146.907.907,0,0,1,.6.2.963.963,0,0,1,.316.48,1.348,1.348,0,0,1,.032.583.988.988,0,0,1-.228.508l-1.742,2.03q.711.825,1.184,1.458t.793,1.1a1.01,1.01,0,0,1,.132.267,1.068,1.068,0,0,1,.064.356,1.028,1.028,0,0,1-.1.476,1.1,1.1,0,0,1-.59.523.918.918,0,0,1-.3.06,1.468,1.468,0,0,1-.487-.075,1.085,1.085,0,0,1-.444-.356l-2.133-2.6-.9-.875a4.017,4.017,0,0,0-.252.395q-.139.242-.267.5t-.213.466a1.536,1.536,0,0,0-.1.327Q91.754,109.07,91.861,109.07Z" transform="translate(-57.489 -66.615)"/><path class="g" d="M116.982,111.305h-2.005a2.905,2.905,0,0,1-.459-.032.871.871,0,0,1-.356-.139.775.775,0,0,1-.249-.3,1.572,1.572,0,0,1-.139-.5l-.711-5.9a1.067,1.067,0,0,1,.2-.775,1,1,0,0,1,.793-.405,1.156,1.156,0,0,1,.779.2,1.067,1.067,0,0,1,.377.747l.576,5.028h1.248a2.752,2.752,0,0,0,.8-.11,1.458,1.458,0,0,0,.615-.356,1.557,1.557,0,0,0,.38-.672,3.5,3.5,0,0,0,.11-1.067l-.039-1.362a.327.327,0,0,0-.043-.174.089.089,0,0,0-.057-.028h-.75l.028.615a.957.957,0,0,1-1,1.127.889.889,0,0,1-.711-.288,1.006,1.006,0,0,1-.256-.69l-.039-1.259a2.413,2.413,0,0,1,.082-.636,1.326,1.326,0,0,1,.267-.516,1.287,1.287,0,0,1,.469-.356,1.675,1.675,0,0,1,.676-.125h1.853a2.219,2.219,0,0,1,.608.078,1.241,1.241,0,0,1,.473.249,1.152,1.152,0,0,1,.32.473,2.113,2.113,0,0,1,.117.757l.039,2.165a5.162,5.162,0,0,1-.309,1.97,3.325,3.325,0,0,1-2.162,2.03A5.024,5.024,0,0,1,116.982,111.305Z" transform="translate(-72.491 -66.805)"/><path class="g" d="M137.435,105.658h-.075q-.96,0-.96-1.006a2.25,2.25,0,0,1,.028-.309.886.886,0,0,1,.139-.356.953.953,0,0,1,.316-.3,1.092,1.092,0,0,1,.565-.124h4.6a3.7,3.7,0,0,1,.8.085,1.608,1.608,0,0,1,.668.316,1.633,1.633,0,0,1,.466.644,3.069,3.069,0,0,1,.206,1.067v.907a5.877,5.877,0,0,1-.309,2.133,4.448,4.448,0,0,1-.91,1.54,3.766,3.766,0,0,1-1.323.924,4.018,4.018,0,0,1-1.547.309h-1.454a1,1,0,0,1-.711-.21,1.489,1.489,0,0,1-.32-.711l-.683-2.8a1.313,1.313,0,0,1-.046-.206q-.021-.124-.05-.256a2.116,2.116,0,0,1-.043-.263v-.21a1.368,1.368,0,0,1,.149-.644A1.777,1.777,0,0,1,137.435,105.658Zm4.587.544a.53.53,0,0,0-.228-.43.711.711,0,0,0-.377-.128h-1.938a1.618,1.618,0,0,0-.484.619,1.42,1.42,0,0,0-.068.356,1,1,0,0,0,.028.224,1.992,1.992,0,0,0,.053.27l.537,2.308h.409a2.387,2.387,0,0,0,.711-.124,1.91,1.91,0,0,0,.711-.434,2.09,2.09,0,0,0,.523-.832,3.2,3.2,0,0,0,.139-1.309Z" transform="translate(-87.535 -67.007)"/><path class="g" d="M41.459,35.882a54.867,54.867,0,0,0,1.454-6.013,1.02,1.02,0,0,1,.9-.839l1.031-.107a1.024,1.024,0,0,1,1.067,1.333,45.737,45.737,0,0,1-2.581,6.4,1.028,1.028,0,0,1-.811.544h0a1.024,1.024,0,0,1-1.063-1.319Zm.992-14.54a2.04,2.04,0,0,1,2.069-2.173,1.988,1.988,0,0,1,2,2.173,2.037,2.037,0,1,1-4.071,0Z" transform="translate(-26.591 -12.335)"/><path class="f" d="M54.655,3.416a8.089,8.089,0,0,0-3.586.427,1.542,1.542,0,0,0-.955.962,1.528,1.528,0,0,0,1.973,1.921,4.981,4.981,0,0,1,2.335-.263A5.139,5.139,0,0,1,58.7,11.441c-.022,2.357-.262,7.069-11.35,15.037q-1.4-.985-2.586-1.913a21.522,21.522,0,0,0,4.1-13.331,7.9,7.9,0,0,0-2.427-5.628,8,8,0,0,0-13.549,6.04c.072,3.588,1.248,7.68,7.491,13.249v.021q-.251.235-.531.455l.029-.025c-2.464,1.945-6.756,2.93-13.14,2.93h-.3a6.125,6.125,0,0,1-1.022-.11,1.69,1.69,0,0,1-.9-.462,2.126,2.126,0,0,1-.481-.974,7,7,0,0,1-.154-1.621v-2.8q0-5.373-2.869-6.685v-.021Q23.89,14.3,23.89,8.92v-2.8a6.778,6.778,0,0,1,.154-1.607,2.1,2.1,0,0,1,.481-.957,1.687,1.687,0,0,1,.9-.462l.09-.018A1.574,1.574,0,1,0,25.03-.033q-.427.06-.818.142a4.319,4.319,0,0,0-1.929.9A4.387,4.387,0,0,0,21.028,2.84a8.242,8.242,0,0,0-.448,2.937v3.2a7.931,7.931,0,0,1-.717,3.808,2.3,2.3,0,0,1-1.191.949,2,2,0,0,0-1.262,1.877,2.027,2.027,0,0,0,1.316,1.9l.165.068a2.145,2.145,0,0,1,.983.875,4.6,4.6,0,0,1,.534,1.554A13.847,13.847,0,0,1,20.58,22.4v3.2a8.248,8.248,0,0,0,.4,2.749,4.1,4.1,0,0,0,1.173,1.778,4.5,4.5,0,0,0,1.926.964,10.485,10.485,0,0,0,2.331.242h.3c7.889,0,13.043-1.529,16.008-4.438,1.1.871,2.32,1.778,3.676,2.724l.879.612h0l.879-.612C53.773,25.743,57.5,22.2,59.6,18.812a13.277,13.277,0,0,0,2.152-7.186A8.062,8.062,0,0,0,54.655,3.416ZM42.412,22.557h-.021c-6.233-5.618-6.412-9.149-6.419-11.094a5,5,0,0,1,4.637-5.031,4.937,4.937,0,0,1,3.645,1.325,4.852,4.852,0,0,1,1.537,3.535v.142A18.356,18.356,0,0,1,42.412,22.557Z" transform="translate(-11.23 0.052)"/></g></g></g><g transform="translate(409.521 -1.479)"><g class="k" transform="matrix(1, 0, 0, 1, -1193.76, -11439)"><rect class="c" width="134.959" height="134.959" rx="12" transform="translate(142.76 37)"/></g><g transform="translate(-1035.185 -11379.858)"><g transform="translate(27.914)"><path class="e" d="M83.367,70.849c-1.472.08-2.979,1.427-4.076,3.815,0,0-8.282,12.977-10.175,20.39-4.116,8.623,1.273,18.73,9.954,20.97a20.184,20.184,0,0,1-5.252.978C58.7,118.009,47.7,101.694,54.183,88.1c2.558-10.01,13.745-27.536,13.745-27.536,2.8-6.1,7.573-7.169,10.278-1.16Z" transform="translate(-52.283 -55.408)"/><g class="h" transform="translate(22.605 20.876)"><path class="b" d="M17.984-3948.777c3.522-2.708,2.816-3.884,6.837-2.358s5.475,2.945,8.409,2.358,4.114-.965,5.833,1.937,4.162.187,6.307,1.78,2.062,3.592,1.979,7.177,0,42.193,0,42.193H10.729l.514-53.086A5.411,5.411,0,0,0,17.984-3948.777Z" transform="translate(-16.436 3948.753)"/></g></g><g transform="translate(0 68.342)"><g class="i"><path class="b" d="M-82.241-14.627H-86.4v8.544h8.387V-10.8C-78.012-13.573-79.308-14.627-82.241-14.627Zm-1.737,6.479v-4.414h1.709c1.239,0,1.837.513,1.837,1.965v2.449Zm6.542-6.479v2.065h4.628a2.692,2.692,0,0,0-.84,2.179v4.3h2.421v-4.386c0-1.381.484-2.093,1.723-2.093v-2.065Zm9.148,0v2.065H-64.8c1.566,0,2.179.726,2.179,2.549v3.93H-60.2v-3.93c0-3.218-1.41-4.614-4.6-4.614Zm.071,4.115v4.429H-65.8v-4.742Zm13.7-4.115v5.2L-52.1-9.8v-4.827ZM-43.55-8.148V-10.5c0-2.819-1.21-4.3-3.973-4.3a6.75,6.75,0,0,0-3.418.954l.8,1.794a4.642,4.642,0,0,1,2.221-.684c1.253,0,1.951.911,1.951,2.407v2.179h-4.7v2.065h8.088V-8.148Zm1.572-6.479v5.2l2.421-.37v-4.827Zm6.414-.142a5.109,5.109,0,0,0-2.919.869l.769,1.695a3.829,3.829,0,0,1,1.837-.57,2.162,2.162,0,0,1,2.236,2.421,2.162,2.162,0,0,1-2.236,2.421,4.093,4.093,0,0,1-1.851-.555l-.755,1.68a5.109,5.109,0,0,0,2.919.869,4.079,4.079,0,0,0,4.343-4.414A4.079,4.079,0,0,0-35.564-14.769Zm12.21,4.272c0-2.962-1.723-4.243-3.973-4.243a7.033,7.033,0,0,0-3.517.926l.8,1.723a5.089,5.089,0,0,1,2.307-.684c1.31,0,2.051.869,2.051,2.378v4.315h2.335Zm6.756-4.258a3.309,3.309,0,0,0-3.019,1.937l-.541-1.808h-2.378l1.595,4.656-1.1,3.887h2.392l1.025-3.8c.57-2.122,1.267-2.734,2.136-2.734.926,0,1.652.769,1.652,2.221,0,2.051-.854,2.819-2.663,2.022l-.527,1.965c3.232,1.253,5.468-.384,5.468-3.987C-12.554-12.961-14.164-14.755-16.6-14.755Zm9.453.128v2.065h5.9V-10c0,1.652-.4,1.951-1.21,1.951a4.009,4.009,0,0,1-1.1-.171l-.271,1.994a5.51,5.51,0,0,0,1.709.242c1.652,0,3.2-.755,3.2-3.788v-4.856Zm2.407,3.588-2.335.285v6.807h2.335ZM2.415-6.083H6.5v-6.066c0-1.695-.684-2.478-2.478-2.478H2.643v2.065H3.27c.655,0,.812.271.812,1.082v3.332H2.415ZM14.938-8.148V-10.5c0-2.819-1.21-4.3-3.973-4.3a6.75,6.75,0,0,0-3.418.954l.8,1.794a4.642,4.642,0,0,1,2.221-.684c1.253,0,1.951.911,1.951,2.407v2.179h-4.7v2.065h8.088V-8.148Z" transform="translate(86.399 14.798)"/></g><g class="i" transform="translate(20.35 15.235)"><path class="j" d="M-48.236-9.965h-2.609v5.493h5.181V-7.494C-45.663-9.2-46.432-9.965-48.236-9.965Zm-1.748,4.76V-9.233h1.739c1.2,0,1.721.568,1.721,1.8v2.224Zm8.285-4.76h-2.517v5.493h.86v-4.76H-41.7c1.181,0,1.721.622,1.721,1.886v2.874h.86V-7.347C-39.118-9.151-39.942-9.965-41.7-9.965Zm3.707,5.493h2.408V-8.327c0-1.089-.421-1.639-1.446-1.639h-.76v.732h.513c.6,0,.833.366.833,1.126v2.9h-1.547Zm6.985-5.575a2.455,2.455,0,0,0-2.215,1.941l-.6-1.858h-.851l.989,2.92-.7,2.572h.851l.7-2.609c.33-1.208.842-2.206,1.858-2.206.925,0,1.6.8,1.6,2.041,0,1.739-.87,2.5-2.49,1.867l-.192.7c2.124.8,3.5-.265,3.5-2.563A2.514,2.514,0,0,0-31.007-10.048Zm7.278.082h-.86V-2.88h.86Zm2.371,0h-.86v5.493h.86Zm5.666,2.655c0-1.9-1.053-2.728-2.527-2.728a4.266,4.266,0,0,0-2.115.549l.293.613a3.518,3.518,0,0,1,1.684-.467c1.135,0,1.831.677,1.831,2.069v2.8h.833Zm2.966-2.746a3.347,3.347,0,0,0-2.1.687l.311.577A2.781,2.781,0,0,1-12.8-9.352a1.963,1.963,0,0,1,2,2.133,1.967,1.967,0,0,1-2.023,2.133,2.6,2.6,0,0,1-1.437-.394l-.284.613a3.263,3.263,0,0,0,1.813.485A2.65,2.65,0,0,0-9.934-7.219,2.65,2.65,0,0,0-12.726-10.057Zm6.7.824v-.732H-9.248v.732h1.785c-1.318.449-1.355,2.124-.43,4.76h.906C-8.259-8.025-7.783-9.233-6.026-9.233Zm4.312-.732v-.915h-.86v1.648H.932L-.945-4.509v.037h.906l2.105-5.4v-.092Zm10.051,0v2.508A2.159,2.159,0,0,1,6.067-5.1,2.159,2.159,0,0,1,3.8-7.457V-9.965h-.86v2.49A2.89,2.89,0,0,0,6.067-4.363,2.89,2.89,0,0,0,9.2-7.475v-2.49Zm-1.84,0h-.86v3.332l.86-.183Z" transform="translate(50.845 10.881)"/></g></g></g></g></g></svg>