<svg width="395" height="192" viewBox="0 0 395 192" fill="none" xmlns="http://www.w3.org/2000/svg">
<g filter="url(#filter0_d_935_3879)">
<path d="M356.738 51.6758L278.781 37.9048C272.323 36.7639 266.163 41.0745 265.022 47.5326L251.251 125.489C250.11 131.948 254.42 138.108 260.879 139.249L338.835 153.02C345.294 154.161 351.454 149.85 352.595 143.392L366.366 65.435C367.506 58.9769 363.196 52.8167 356.738 51.6758Z" fill="white"/>
</g>
<path d="M295.94 104.776L297.026 103.93L296.34 103.037L295.644 103.578C295.575 103.629 295.518 103.693 295.477 103.767C295.446 103.826 295.431 103.892 295.435 103.958C295.439 104.028 295.46 104.096 295.495 104.157C295.536 104.233 295.583 104.305 295.637 104.372L295.94 104.776ZM296.262 102.684C296.278 102.668 296.297 102.656 296.317 102.648C296.338 102.641 296.361 102.638 296.383 102.641C296.405 102.644 296.426 102.651 296.444 102.664C296.463 102.676 296.478 102.693 296.489 102.712L297.376 103.866C297.392 103.882 297.405 103.901 297.413 103.923C297.42 103.944 297.423 103.967 297.42 103.99C297.417 104.012 297.409 104.034 297.397 104.053C297.384 104.072 297.367 104.087 297.347 104.099L296.019 105.133C296.003 105.149 295.984 105.161 295.962 105.169C295.941 105.176 295.918 105.179 295.896 105.176C295.873 105.173 295.852 105.165 295.833 105.153C295.814 105.14 295.798 105.124 295.787 105.104L295.412 104.614C295.326 104.503 295.251 104.384 295.188 104.259C295.135 104.156 295.105 104.043 295.099 103.928C295.097 103.82 295.122 103.713 295.174 103.617C295.242 103.5 295.335 103.398 295.445 103.318L296.262 102.684ZM294.524 103.297C294.51 103.306 294.493 103.309 294.478 103.305C294.47 103.305 294.462 103.302 294.456 103.298C294.449 103.294 294.443 103.288 294.439 103.281L293.949 102.514C293.903 102.441 293.864 102.363 293.833 102.282C293.805 102.21 293.794 102.132 293.8 102.055C293.808 101.975 293.837 101.898 293.884 101.832C293.949 101.746 294.031 101.673 294.125 101.619L295.237 100.901C295.242 100.896 295.249 100.892 295.257 100.889C295.265 100.887 295.273 100.886 295.281 100.888C295.288 100.889 295.296 100.892 295.302 100.897C295.309 100.902 295.314 100.908 295.317 100.915L295.428 101.088C295.437 101.101 295.441 101.116 295.439 101.132C295.437 101.14 295.434 101.148 295.428 101.154C295.423 101.161 295.417 101.167 295.409 101.17L294.376 101.844C294.326 101.875 294.278 101.91 294.232 101.948C294.197 101.976 294.168 102.011 294.149 102.052C294.131 102.091 294.13 102.134 294.143 102.175C294.162 102.235 294.189 102.292 294.225 102.344L294.721 103.11C294.729 103.123 294.731 103.139 294.728 103.153C294.726 103.162 294.723 103.17 294.718 103.177C294.714 103.184 294.707 103.19 294.7 103.194L294.524 103.297ZM295.917 101.968C295.923 101.962 295.93 101.958 295.938 101.956C295.945 101.954 295.954 101.953 295.962 101.955C295.97 101.956 295.977 101.959 295.984 101.964C295.99 101.969 295.996 101.975 295.999 101.982L296.107 102.153C296.113 102.159 296.118 102.166 296.12 102.174C296.122 102.182 296.123 102.19 296.122 102.199C296.12 102.207 296.117 102.214 296.112 102.221C296.107 102.228 296.1 102.233 296.093 102.237L295.267 102.771C295.261 102.777 295.253 102.781 295.245 102.783C295.237 102.786 295.229 102.786 295.221 102.785C295.213 102.783 295.205 102.78 295.198 102.775C295.191 102.77 295.186 102.764 295.182 102.756L295.073 102.584C295.068 102.578 295.064 102.571 295.062 102.563C295.059 102.555 295.059 102.547 295.06 102.539C295.062 102.531 295.065 102.523 295.07 102.517C295.075 102.51 295.081 102.505 295.088 102.501L295.917 101.968ZM294.116 100.563C294.123 100.559 294.131 100.556 294.139 100.556C294.147 100.556 294.156 100.557 294.163 100.561C294.177 100.567 294.188 100.577 294.196 100.589L294.286 100.772C294.295 100.787 294.297 100.804 294.293 100.821C294.291 100.829 294.288 100.836 294.283 100.843C294.278 100.849 294.272 100.855 294.265 100.858L293.327 101.334C293.319 101.337 293.312 101.34 293.303 101.34C293.295 101.341 293.287 101.339 293.28 101.336C293.271 101.334 293.263 101.33 293.257 101.324C293.25 101.318 293.245 101.311 293.241 101.303L293.149 101.121C293.143 101.107 293.143 101.091 293.149 101.077C293.151 101.069 293.155 101.061 293.16 101.055C293.166 101.048 293.172 101.043 293.18 101.039L294.116 100.563ZM293.887 98.0279C293.895 98.0239 293.903 98.0219 293.912 98.022C293.921 98.0221 293.929 98.0244 293.937 98.0285C293.951 98.0372 293.962 98.0501 293.968 98.0655L294.047 98.246C294.054 98.2611 294.056 98.2783 294.051 98.2945C294.049 98.3029 294.045 98.3107 294.039 98.317C294.033 98.3234 294.026 98.3283 294.018 98.3312L292.794 98.8739C292.754 98.8862 292.717 98.9072 292.686 98.9354C292.654 98.9635 292.63 98.9982 292.613 99.0369C292.599 99.1225 292.614 99.2103 292.654 99.2869L292.914 99.8823L294.313 99.2621C294.332 99.2504 294.352 99.2433 294.374 99.2411C294.396 99.2389 294.418 99.2418 294.438 99.2496C294.458 99.2573 294.476 99.2696 294.491 99.2856C294.506 99.3016 294.517 99.3208 294.523 99.3417L294.706 99.7632C294.71 99.7701 294.713 99.7778 294.714 99.7858C294.714 99.7938 294.713 99.8018 294.71 99.8092C294.707 99.8167 294.702 99.8233 294.696 99.8286C294.69 99.834 294.683 99.8379 294.675 99.84L294.493 99.9204C294.486 99.9248 294.478 99.9276 294.47 99.9284C294.462 99.9292 294.454 99.9281 294.447 99.9252C294.439 99.9223 294.433 99.9177 294.427 99.9117C294.422 99.9057 294.418 99.8985 294.416 99.8908L294.299 99.6222L293.042 100.179L293.13 100.381C293.134 100.388 293.137 100.396 293.137 100.404C293.138 100.412 293.136 100.42 293.133 100.428C293.13 100.435 293.125 100.442 293.119 100.447C293.113 100.452 293.105 100.456 293.097 100.458L292.919 100.537C292.905 100.544 292.888 100.545 292.873 100.54C292.865 100.539 292.857 100.535 292.851 100.53C292.845 100.524 292.841 100.517 292.838 100.51L292.311 99.2994C292.278 99.2349 292.259 99.164 292.256 99.0915C292.253 99.0191 292.266 98.9469 292.294 98.8799C292.36 98.7486 292.472 98.6465 292.609 98.5933L293.887 98.0279ZM293.602 97.2522C293.61 97.2493 293.619 97.2487 293.627 97.2502C293.636 97.2516 293.643 97.2553 293.65 97.2607C293.662 97.269 293.671 97.2814 293.674 97.2955L293.736 97.4882C293.741 97.5043 293.741 97.5218 293.735 97.5378C293.733 97.5462 293.728 97.5536 293.721 97.5594C293.714 97.5652 293.707 97.5692 293.698 97.5708L291.903 98.1486C291.895 98.1505 291.886 98.1507 291.879 98.1493C291.871 98.1479 291.863 98.1448 291.856 98.1404C291.848 98.1366 291.842 98.1311 291.836 98.1244C291.831 98.1176 291.827 98.1097 291.824 98.1012L291.757 97.9076C291.755 97.9 291.755 97.8922 291.756 97.8845C291.758 97.8768 291.761 97.8696 291.765 97.8632C291.771 97.848 291.783 97.8359 291.798 97.8295L293.602 97.2522ZM293.005 95.0908C293.012 95.0885 293.021 95.0881 293.029 95.0895C293.037 95.0909 293.044 95.0941 293.051 95.099C293.063 95.1085 293.072 95.1219 293.076 95.1371L293.126 95.3318C293.131 95.3476 293.131 95.3647 293.125 95.3803C293.121 95.3875 293.115 95.3937 293.108 95.3985C293.102 95.4033 293.094 95.4065 293.086 95.4079L291.892 95.7261C291.827 95.7441 291.77 95.7615 291.722 95.7794C291.679 95.7929 291.639 95.8171 291.608 95.8497C291.581 95.8836 291.566 95.9251 291.565 95.9681C291.565 96.0312 291.574 96.0941 291.592 96.1546L291.786 96.8999L293.362 96.4816C293.37 96.4791 293.379 96.4785 293.387 96.48C293.395 96.4814 293.403 96.4848 293.409 96.4899C293.421 96.4983 293.429 96.5101 293.434 96.5237L293.486 96.7219C293.488 96.7384 293.485 96.7553 293.478 96.7701C293.474 96.7777 293.469 96.7843 293.462 96.7895C293.455 96.7946 293.447 96.7981 293.439 96.7998L291.617 97.2834C291.609 97.2865 291.6 97.2874 291.592 97.2859C291.583 97.2844 291.576 97.2807 291.569 97.2751C291.562 97.2716 291.555 97.2663 291.55 97.2595C291.544 97.2527 291.541 97.2447 291.54 97.2363L291.279 96.2405C291.257 96.1565 291.244 96.0705 291.24 95.9838C291.237 95.9049 291.251 95.8264 291.281 95.7533C291.312 95.678 291.364 95.6127 291.43 95.5643C291.516 95.5017 291.613 95.4571 291.717 95.4332L293.005 95.0908ZM291.903 94.0237C291.911 94.0214 291.92 94.021 291.929 94.0225C291.937 94.024 291.945 94.0274 291.952 94.0324C291.966 94.0436 291.975 94.0598 291.977 94.0774L292.047 94.5377C292.056 94.5774 292.053 94.619 292.039 94.6572C292.029 94.6846 292.009 94.7075 291.984 94.7216C291.959 94.7375 291.931 94.7481 291.901 94.7527C291.872 94.7597 291.838 94.7639 291.807 94.7695L291.007 94.8975C290.992 94.9004 290.977 94.8976 290.964 94.8898C290.956 94.8856 290.95 94.8799 290.946 94.8729C290.941 94.8659 290.938 94.8579 290.937 94.8496L290.805 93.978C290.766 93.803 290.793 93.62 290.879 93.4629C290.934 93.3911 291.004 93.3321 291.084 93.2898C291.164 93.2475 291.252 93.2229 291.342 93.2177L291.897 93.1309C292.019 93.1109 292.142 93.103 292.265 93.1075C292.357 93.1112 292.446 93.1368 292.526 93.182C292.6 93.23 292.658 93.2981 292.694 93.3784C292.745 93.4864 292.778 93.6016 292.793 93.7197L292.914 94.5242C292.92 94.5671 292.901 94.5922 292.865 94.5989L292.667 94.6291C292.63 94.6346 292.608 94.6158 292.6 94.5725L292.483 93.7991C292.472 93.725 292.451 93.6527 292.419 93.5847C292.4 93.5358 292.367 93.4943 292.322 93.466C292.276 93.4399 292.223 93.4274 292.17 93.43C292.094 93.4328 292.018 93.4404 291.943 93.4528L291.46 93.5281C291.387 93.5395 291.328 93.5514 291.276 93.5656C291.233 93.5764 291.194 93.5983 291.163 93.6289C291.134 93.6612 291.116 93.7024 291.113 93.746C291.106 93.8143 291.109 93.8832 291.122 93.9507L291.211 94.5393L291.71 94.4629L291.66 94.1301C291.657 94.1219 291.656 94.1132 291.657 94.1046C291.659 94.0961 291.662 94.0879 291.667 94.0807C291.671 94.0736 291.678 94.0676 291.685 94.0632C291.692 94.0588 291.701 94.0562 291.709 94.0556L291.903 94.0237ZM291.626 90.5212C291.776 90.5083 291.928 90.519 292.075 90.5529C292.19 90.581 292.296 90.6382 292.382 90.7189C292.467 90.8029 292.53 90.9069 292.565 91.0214C292.612 91.1661 292.638 91.3163 292.645 91.4681C292.657 91.6265 292.652 91.7857 292.63 91.943C292.614 92.0673 292.57 92.1865 292.503 92.2922C292.436 92.3884 292.346 92.4655 292.24 92.516C292.107 92.5757 291.963 92.6089 291.817 92.6139L290.711 92.6877C290.703 92.6879 290.695 92.6864 290.687 92.6834C290.68 92.6803 290.673 92.6757 290.667 92.6698C290.661 92.664 290.655 92.6568 290.652 92.6488C290.648 92.6409 290.646 92.6322 290.646 92.6234L290.632 92.4279C290.631 92.4197 290.633 92.4115 290.636 92.4038C290.639 92.396 290.643 92.3891 290.649 92.3832C290.654 92.3765 290.66 92.371 290.667 92.367C290.674 92.363 290.682 92.3606 290.69 92.3601L291.779 92.2882C291.889 92.2846 291.997 92.2585 292.097 92.2114C292.17 92.1724 292.229 92.1119 292.266 92.0381C292.303 91.9601 292.324 91.8753 292.327 91.7889C292.334 91.6853 292.333 91.5812 292.325 91.4777C292.321 91.3826 292.308 91.2881 292.286 91.1955C292.269 91.1176 292.232 91.0454 292.18 90.9857C292.121 90.9274 292.049 90.8849 291.97 90.8623C291.857 90.8342 291.74 90.826 291.625 90.838L290.597 90.9063C290.582 90.9078 290.566 90.9051 290.553 90.8984C290.546 90.8946 290.54 90.8889 290.536 90.8822C290.532 90.8754 290.53 90.8677 290.53 90.8599L290.516 90.6461C290.515 90.6383 290.517 90.6305 290.52 90.6232C290.523 90.616 290.527 90.6096 290.533 90.6045C290.546 90.5957 290.561 90.5903 290.576 90.5887L291.626 90.5212ZM291.878 91.3956C291.886 91.3948 291.894 91.396 291.901 91.3989C291.909 91.4019 291.916 91.4065 291.921 91.4125C291.932 91.4225 291.939 91.4364 291.94 91.4513L291.953 91.6568C291.954 91.6647 291.953 91.6728 291.951 91.6804C291.949 91.688 291.944 91.695 291.939 91.7011C291.934 91.7068 291.928 91.7113 291.92 91.7144C291.913 91.7175 291.906 91.7191 291.898 91.7191L290.654 91.8041C290.646 91.8048 290.638 91.8039 290.63 91.8016C290.623 91.7992 290.615 91.7953 290.609 91.7901C290.603 91.7851 290.597 91.7787 290.593 91.7714C290.589 91.764 290.587 91.7558 290.586 91.7475L290.575 91.5423C290.575 91.5346 290.576 91.5269 290.579 91.5197C290.582 91.5126 290.587 91.5061 290.592 91.5007C290.597 91.494 290.604 91.4885 290.611 91.4845C290.618 91.4805 290.626 91.4781 290.634 91.4776L291.878 91.3956ZM292.388 88.079C292.472 88.0803 292.554 88.1097 292.619 88.1625C292.646 88.1849 292.666 88.2137 292.678 88.2463C292.69 88.2789 292.694 88.3141 292.688 88.3483L292.619 89.0908C292.617 89.1067 292.611 89.1217 292.599 89.1331C292.593 89.139 292.586 89.1435 292.578 89.1461C292.571 89.1488 292.562 89.1496 292.554 89.1484L292.354 89.1294C292.346 89.1291 292.338 89.1271 292.33 89.1235C292.323 89.1199 292.316 89.1148 292.311 89.1085C292.303 89.0949 292.299 89.079 292.301 89.0631L292.353 88.5034C292.362 88.4542 292.349 88.4235 292.324 88.4121C292.283 88.399 292.239 88.3913 292.195 88.3893L291.317 88.3092C291.26 88.3019 291.202 88.3041 291.146 88.3156C291.107 88.3246 291.072 88.3453 291.045 88.375C291.02 88.405 291.002 88.4406 290.994 88.4788C290.982 88.5243 290.974 88.5707 290.97 88.6176L290.941 88.9103C290.938 88.9472 290.937 88.9843 290.938 89.0214C290.941 89.0538 290.951 89.0852 290.966 89.1137C290.983 89.1429 291.006 89.1678 291.034 89.1866C291.073 89.2116 291.115 89.2302 291.16 89.2415L292.529 89.6122C292.536 89.6144 292.543 89.6187 292.548 89.6247C292.553 89.6306 292.557 89.638 292.558 89.6457C292.555 89.6615 292.557 89.6771 292.557 89.6934L292.533 89.939C292.533 89.9429 292.532 89.9467 292.531 89.9503C292.529 89.9539 292.527 89.9572 292.524 89.9599C292.522 89.9626 292.518 89.9648 292.515 89.9663C292.511 89.9677 292.507 89.9684 292.504 89.9683C292.486 89.9695 292.468 89.9664 292.452 89.9593L291.322 89.6204L290.679 89.9477C290.665 89.956 290.649 89.9586 290.633 89.9548C290.626 89.9532 290.62 89.9502 290.614 89.9461C290.608 89.9419 290.603 89.9367 290.6 89.9306L290.512 89.7181C290.504 89.7037 290.502 89.6867 290.507 89.6709C290.511 89.655 290.521 89.6414 290.535 89.6328L290.989 89.4276L290.833 89.3503C290.755 89.3142 290.69 89.2535 290.648 89.1774C290.613 89.0956 290.601 89.0056 290.614 88.9175L290.66 88.4288C290.665 88.3615 290.683 88.2958 290.712 88.235C290.738 88.1769 290.775 88.1253 290.823 88.0839C290.873 88.0403 290.932 88.008 290.995 87.9894C291.069 87.9689 291.145 87.9621 291.221 87.9694L292.388 88.079ZM292.103 86.2104C292.111 86.2114 292.119 86.2145 292.126 86.2194C292.133 86.2244 292.138 86.231 292.142 86.2386C292.146 86.2447 292.148 86.2516 292.15 86.2588C292.151 86.266 292.151 86.2734 292.149 86.2806L292.115 86.4776C292.112 86.4944 292.103 86.5095 292.09 86.52C292.084 86.5255 292.077 86.5295 292.069 86.5317C292.061 86.5338 292.053 86.5341 292.045 86.5323L291.011 86.3496C291.002 86.3478 290.995 86.3444 290.988 86.3395C290.981 86.3347 290.975 86.3285 290.971 86.3213C290.962 86.307 290.958 86.2897 290.96 86.2727L290.995 86.0757C290.997 86.0681 291 86.061 291.004 86.0548C291.009 86.0486 291.015 86.0435 291.022 86.0398C291.028 86.0344 291.035 86.0305 291.043 86.0282C291.051 86.0258 291.059 86.0252 291.067 86.0264L292.103 86.2104ZM293.177 85.0117C293.199 85.0148 293.22 85.023 293.238 85.0356C293.256 85.0482 293.271 85.0649 293.282 85.0843C293.292 85.1038 293.298 85.1254 293.299 85.1475C293.3 85.1696 293.295 85.1916 293.286 85.2117L293.076 85.9303C293.069 85.9697 293.04 85.9819 293.002 85.97L292.808 85.9145C292.77 85.9077 292.758 85.8803 292.769 85.8405L292.933 85.2793L291.821 84.954C291.795 84.9472 291.768 84.9424 291.74 84.9397C291.716 84.9365 291.692 84.9378 291.669 84.9433C291.645 84.9483 291.623 84.9619 291.609 84.9815C291.587 85.0092 291.572 85.0411 291.564 85.0751L291.483 85.3524C291.48 85.3674 291.47 85.3803 291.457 85.3883C291.45 85.3923 291.442 85.3949 291.434 85.3957C291.425 85.3965 291.417 85.3956 291.409 85.3931L291.216 85.3387C291.201 85.3334 291.188 85.3229 291.18 85.309C291.176 85.3023 291.173 85.2947 291.172 85.2868C291.171 85.2789 291.171 85.2708 291.173 85.2631L291.265 84.9461C291.276 84.8812 291.302 84.8195 291.34 84.7655C291.377 84.7115 291.426 84.6664 291.483 84.6333C291.607 84.5865 291.744 84.5865 291.868 84.6331L293.177 85.0117ZM291.567 84.0742C291.552 84.0687 291.539 84.0586 291.531 84.0454C291.526 84.0382 291.524 84.0303 291.523 84.0221C291.523 84.0139 291.524 84.0057 291.527 83.998L291.721 83.4096C291.748 83.3234 291.785 83.2407 291.832 83.1631C291.871 83.0934 291.926 83.0336 291.993 82.9883C292.06 82.9431 292.138 82.9165 292.218 82.9114C292.325 82.9056 292.433 82.9221 292.533 82.9599L293.539 83.2931L293.6 83.1067C293.602 83.0986 293.605 83.0911 293.611 83.0849C293.616 83.0788 293.623 83.0742 293.631 83.0716C293.638 83.0679 293.645 83.0656 293.653 83.065C293.66 83.0644 293.668 83.0655 293.675 83.0681L293.867 83.1305C293.875 83.1324 293.882 83.1359 293.888 83.141C293.895 83.1461 293.9 83.1526 293.903 83.16C293.907 83.1673 293.909 83.1754 293.909 83.1835C293.909 83.1917 293.907 83.1997 293.903 83.207L293.436 84.6248C293.435 84.6328 293.432 84.6403 293.427 84.6469C293.422 84.6534 293.416 84.6587 293.408 84.6624C293.401 84.666 293.393 84.668 293.385 84.668C293.377 84.6679 293.369 84.666 293.362 84.6623L293.17 84.599C293.156 84.5936 293.145 84.5837 293.137 84.5709C293.133 84.5636 293.13 84.5555 293.129 84.5471C293.129 84.5387 293.13 84.5303 293.132 84.5223L293.438 83.5981L292.511 83.2912C292.413 83.2504 292.304 83.2426 292.202 83.2691C292.154 83.2951 292.113 83.3313 292.082 83.375C292.05 83.4187 292.028 83.4689 292.018 83.522L291.836 84.0993C291.834 84.1075 291.83 84.1151 291.824 84.1216C291.819 84.128 291.812 84.133 291.804 84.1363C291.788 84.1416 291.772 84.1412 291.756 84.135L291.567 84.0742ZM294.102 82.5087C294.109 82.5111 294.117 82.5154 294.123 82.5212C294.129 82.527 294.133 82.5342 294.135 82.5421C294.14 82.5562 294.141 82.5716 294.137 82.586L294.061 82.7757C294.055 82.7915 294.045 82.805 294.03 82.814C294.023 82.8183 294.014 82.8206 294.005 82.8208C293.997 82.8211 293.988 82.8192 293.98 82.8154L292.225 82.1305C292.211 82.1231 292.199 82.1106 292.193 82.0953C292.189 82.0876 292.186 82.0789 292.186 82.07C292.186 82.0611 292.188 82.0523 292.192 82.0444L292.265 81.8541C292.272 81.8397 292.284 81.8284 292.299 81.8225C292.314 81.8158 292.331 81.8151 292.346 81.8207L294.102 82.5087ZM295.457 81.2123C295.464 81.2161 295.47 81.2214 295.475 81.2279C295.48 81.2343 295.483 81.2418 295.485 81.2498C295.487 81.264 295.484 81.2784 295.478 81.2911L295.383 81.4775C295.375 81.4929 295.363 81.5053 295.348 81.513C295.341 81.5165 295.333 81.5181 295.326 81.5176C295.318 81.5172 295.31 81.5146 295.304 81.5103L293.028 80.3343C293.014 80.3254 293.004 80.3112 293.001 80.2949C292.997 80.287 292.996 80.2784 292.997 80.2699C292.997 80.2614 293 80.2532 293.004 80.2458L293.098 80.0592C293.102 80.0524 293.107 80.0464 293.113 80.0418C293.12 80.0371 293.127 80.0338 293.134 80.0321C293.15 80.0271 293.167 80.0279 293.182 80.0344L295.457 81.2123ZM295.493 78.5157C295.607 78.5907 295.708 78.6833 295.793 78.7901C295.857 78.8714 295.897 78.9684 295.911 79.071C295.921 79.1758 295.906 79.2816 295.866 79.3791C295.816 79.5026 295.754 79.6213 295.683 79.7337C295.611 79.8449 295.531 79.9496 295.441 80.0464C295.369 80.1256 295.28 80.1874 295.181 80.2271C295.082 80.2634 294.975 80.2713 294.872 80.2497C294.739 80.2184 294.613 80.1617 294.502 80.0827L293.477 79.4324C293.464 79.424 293.454 79.4111 293.45 79.3961C293.447 79.3883 293.447 79.38 293.448 79.3719C293.449 79.3638 293.453 79.3562 293.458 79.3498L293.566 79.1769C293.57 79.1703 293.576 79.1647 293.582 79.1605C293.589 79.1562 293.596 79.1533 293.604 79.1521C293.612 79.1498 293.62 79.1494 293.628 79.1508C293.637 79.1523 293.644 79.1556 293.651 79.1604L294.68 79.8146C294.749 79.8619 294.826 79.8965 294.908 79.9167C294.968 79.9316 295.032 79.9272 295.09 79.9042C295.151 79.8756 295.206 79.8335 295.249 79.7809C295.308 79.7101 295.362 79.6351 295.41 79.5566C295.462 79.4777 295.505 79.3943 295.542 79.3075C295.568 79.2454 295.58 79.178 295.576 79.1105C295.57 79.0488 295.545 78.9905 295.504 78.9434C295.448 78.8818 295.384 78.8287 295.313 78.7857L294.505 78.2731L294.332 78.5474L294.541 79.0921C294.545 79.0997 294.547 79.1079 294.547 79.1164C294.547 79.1249 294.546 79.1334 294.542 79.1411C294.539 79.1489 294.534 79.1558 294.527 79.1613C294.521 79.1669 294.513 79.1709 294.505 79.1732L294.322 79.2424C294.315 79.2465 294.306 79.2487 294.298 79.2489C294.289 79.2492 294.281 79.2475 294.273 79.2439C294.258 79.2352 294.247 79.2208 294.242 79.204L294.007 78.5956C294 78.5714 293.996 78.5465 293.995 78.5215C293.996 78.4943 294.004 78.4679 294.019 78.4454L294.323 77.9627C294.332 77.9427 294.346 77.9252 294.364 77.9116C294.381 77.898 294.401 77.8886 294.423 77.8842C294.445 77.8799 294.467 77.8807 294.489 77.8865C294.51 77.8923 294.53 77.9031 294.546 77.9178L295.493 78.5157ZM297.09 77.4572C297.097 77.4612 297.104 77.4669 297.108 77.4737C297.112 77.4805 297.115 77.4882 297.116 77.4963C297.117 77.5043 297.116 77.5125 297.113 77.5201C297.111 77.5278 297.106 77.5346 297.1 77.5402L296.97 77.7001C296.961 77.7124 296.948 77.7209 296.934 77.7241C296.925 77.725 296.917 77.7241 296.909 77.7215C296.902 77.7189 296.895 77.7146 296.889 77.709L295.841 76.8779C295.811 76.8485 295.776 76.8256 295.737 76.8107C295.698 76.7957 295.656 76.7891 295.614 76.7912C295.535 76.8156 295.467 76.8667 295.421 76.9359L294.972 77.5085C294.968 77.5156 294.962 77.5216 294.955 77.526C294.948 77.5305 294.941 77.5333 294.933 77.5343C294.925 77.5352 294.916 77.5343 294.909 77.5315C294.901 77.5287 294.894 77.5242 294.889 77.5182L294.736 77.3957C294.723 77.3862 294.715 77.3724 294.712 77.357C294.709 77.3491 294.709 77.3406 294.71 77.3323C294.712 77.3241 294.715 77.3163 294.72 77.3097L295.232 76.6566C295.272 76.596 295.326 76.5454 295.389 76.5085C295.452 76.4716 295.522 76.4493 295.595 76.4434C295.74 76.4417 295.881 76.4937 295.99 76.5894L297.09 77.4572ZM296.415 75.7289L297.105 76.3842C297.147 76.4375 297.201 76.4799 297.263 76.5076C297.324 76.5353 297.392 76.5475 297.459 76.5432C297.593 76.4825 297.711 76.3899 297.801 76.2735C297.911 76.1763 297.995 76.0537 298.045 75.9164C298.049 75.8609 298.038 75.8053 298.014 75.7554C297.977 75.6854 297.929 75.6228 297.87 75.5705L297.182 74.9138L296.415 75.7289ZM298.09 75.3322C298.183 75.4185 298.258 75.521 298.313 75.6347C298.355 75.7264 298.372 75.8274 298.363 75.9279C298.31 76.1444 298.195 76.3405 298.031 76.4918C297.891 76.6653 297.703 76.7933 297.491 76.8595C297.377 76.8736 297.262 76.8588 297.156 76.8167C297.05 76.7745 296.957 76.7063 296.884 76.6183L296.078 75.8542C296.059 75.842 296.044 75.8257 296.033 75.8064C296.022 75.7872 296.015 75.7657 296.014 75.7435C296.013 75.7214 296.017 75.6993 296.026 75.679C296.035 75.6587 296.048 75.6407 296.065 75.6265L297.049 74.5724C297.062 74.5538 297.08 74.5385 297.099 74.5277C297.119 74.5169 297.142 74.5111 297.165 74.5105C297.187 74.51 297.21 74.5148 297.23 74.5245C297.25 74.5343 297.268 74.5488 297.282 74.5668L298.09 75.3322ZM299.316 73.9409C299.323 73.9463 299.327 73.9535 299.33 73.9615C299.332 73.9694 299.332 73.9779 299.33 73.9859C299.328 74.0007 299.321 74.0143 299.31 74.024L299.155 74.1582C299.143 74.1691 299.128 74.1757 299.111 74.1769C299.103 74.1775 299.095 74.176 299.087 74.1725C299.079 74.169 299.073 74.1637 299.068 74.157L298.384 73.3577C298.379 73.3515 298.376 73.3443 298.373 73.3366C298.371 73.3289 298.371 73.3208 298.372 73.3129C298.372 73.3039 298.374 73.295 298.378 73.2869C298.382 73.2788 298.388 73.2717 298.395 73.2661L298.548 73.1327C298.554 73.1281 298.561 73.1249 298.569 73.1233C298.576 73.1216 298.584 73.1216 298.591 73.1231C298.599 73.1231 298.607 73.1247 298.615 73.128C298.622 73.1312 298.628 73.1359 298.634 73.1418L299.316 73.9409ZM300.926 72.8336C300.987 72.9181 301.036 73.0105 301.071 73.1082C301.108 73.1975 301.125 73.2932 301.123 73.3896C301.121 73.4821 301.097 73.5727 301.054 73.6547C301.005 73.747 300.934 73.8261 300.848 73.8853L300.584 74.0763C300.571 74.0861 300.555 74.0908 300.538 74.0897C300.53 74.0889 300.522 74.0862 300.515 74.0818C300.508 74.0774 300.502 74.0713 300.497 74.0642L300.383 73.9027C300.377 73.8966 300.374 73.8894 300.372 73.8817C300.37 73.8739 300.369 73.8658 300.371 73.858C300.375 73.8417 300.385 73.8274 300.398 73.8182L300.643 73.641C300.704 73.6025 300.752 73.547 300.781 73.4815C300.804 73.4294 300.811 73.372 300.803 73.3157C300.795 73.2606 300.777 73.2073 300.751 73.1582C300.726 73.1106 300.697 73.0646 300.666 73.0204L300.155 72.3053L299.339 72.8977C299.323 72.9133 299.303 72.9248 299.282 72.9313C299.26 72.9379 299.237 72.9392 299.215 72.9353C299.193 72.9314 299.172 72.9223 299.154 72.9087C299.136 72.8952 299.121 72.8776 299.111 72.8573L298.658 72.2227C298.653 72.2165 298.649 72.2089 298.647 72.2008C298.645 72.1927 298.645 72.1842 298.648 72.1763C298.652 72.1599 298.663 72.1459 298.677 72.1368L298.836 72.0206C298.849 72.0107 298.865 72.0056 298.881 72.0062C298.889 72.007 298.897 72.0097 298.904 72.0142C298.911 72.0186 298.917 72.0245 298.921 72.0316L299.28 72.5348L300.102 71.9394C300.118 71.9244 300.137 71.9133 300.158 71.9071C300.179 71.9008 300.202 71.8995 300.223 71.9034C300.245 71.9072 300.266 71.916 300.283 71.9291C300.301 71.9423 300.315 71.9593 300.325 71.9789L300.926 72.8336ZM302.037 72.9801C302.042 72.9867 302.046 72.9946 302.047 73.0031C302.049 73.0115 302.048 73.0202 302.046 73.0283C302.04 73.0415 302.032 73.053 302.02 73.0615L301.848 73.1723C301.835 73.1825 301.818 73.1874 301.801 73.1863C301.793 73.1851 301.785 73.1821 301.778 73.1776C301.771 73.173 301.765 73.167 301.761 73.1599L300.745 71.5654C300.741 71.5583 300.738 71.5504 300.737 71.5422C300.736 71.534 300.737 71.5257 300.739 71.5177C300.74 71.5091 300.744 71.501 300.749 71.4938C300.754 71.4866 300.76 71.4805 300.768 71.4761L300.938 71.366C300.945 71.3618 300.952 71.3591 300.96 71.3581C300.967 71.3572 300.975 71.358 300.982 71.3605C300.99 71.3618 300.997 71.3647 301.004 71.369C301.011 71.3734 301.017 71.3791 301.021 71.3858L302.037 72.9801ZM303.962 71.8575C303.966 71.8642 303.969 71.872 303.97 71.8801C303.971 71.8883 303.971 71.8965 303.968 71.9042C303.965 71.912 303.961 71.9191 303.956 71.9254C303.951 71.9316 303.945 71.9368 303.938 71.9406L303.765 72.0401C303.751 72.0486 303.734 72.0521 303.718 72.05C303.702 72.0445 303.688 72.0335 303.68 72.019L303.07 70.9422C303.042 70.8895 303.009 70.8387 302.974 70.7902C302.95 70.7535 302.918 70.7235 302.879 70.7032C302.84 70.6854 302.796 70.6805 302.754 70.6894C302.694 70.7046 302.636 70.7287 302.583 70.7607L301.917 71.1428L302.723 72.5651C302.729 72.5718 302.732 72.5798 302.733 72.5882C302.734 72.5966 302.733 72.6051 302.729 72.6129C302.725 72.6273 302.715 72.6396 302.702 72.6476L302.526 72.7495C302.511 72.758 302.494 72.7615 302.478 72.7594C302.469 72.758 302.462 72.7545 302.455 72.7492C302.448 72.7439 302.443 72.7371 302.44 72.7292L301.511 71.0853C301.507 71.0783 301.505 71.0705 301.504 71.0625C301.503 71.0545 301.504 71.0464 301.506 71.0387C301.508 71.0302 301.512 71.0221 301.517 71.0151C301.522 71.0082 301.529 71.0025 301.537 70.9984L302.426 70.4862C302.5 70.4424 302.579 70.4069 302.661 70.3803C302.736 70.3565 302.815 70.3491 302.894 70.3585C302.975 70.3693 303.051 70.4025 303.114 70.4542C303.196 70.5211 303.264 70.6043 303.312 70.6986L303.962 71.8575ZM304.98 69.623L305.487 70.904L306.53 70.4849L306.207 69.665C306.179 69.585 306.133 69.5121 306.074 69.4515C306.026 69.4059 305.968 69.3738 305.903 69.3584C305.836 69.3447 305.766 69.3466 305.699 69.364C305.616 69.3828 305.535 69.4082 305.456 69.4399L304.98 69.623ZM306.892 70.5072C306.903 70.5265 306.909 70.5481 306.91 70.5703C306.912 70.5925 306.908 70.6147 306.899 70.6352C306.89 70.6556 306.877 70.6738 306.86 70.6883C306.843 70.7028 306.823 70.7132 306.802 70.7188L305.451 71.2613C305.432 71.2728 305.41 71.2795 305.388 71.281C305.365 71.2824 305.343 71.2786 305.322 71.2697C305.301 71.2608 305.283 71.2471 305.269 71.2298C305.254 71.2124 305.244 71.192 305.239 71.17L304.62 69.603C304.609 69.5833 304.602 69.5611 304.6 69.5384C304.599 69.5156 304.603 69.4928 304.612 69.4719C304.621 69.4509 304.635 69.4323 304.652 69.4175C304.669 69.4027 304.69 69.3922 304.712 69.3867L305.284 69.1576C305.413 69.1041 305.547 69.0642 305.685 69.0384C305.798 69.0153 305.914 69.0169 306.026 69.0429C306.131 69.0696 306.227 69.124 306.303 69.2005C306.396 69.2987 306.468 69.4152 306.514 69.5425L306.892 70.5072ZM307.501 69.6102C307.504 69.6178 307.505 69.626 307.503 69.6339C307.502 69.6418 307.498 69.6493 307.493 69.6555C307.49 69.662 307.485 69.6677 307.479 69.6723C307.473 69.6768 307.467 69.6802 307.459 69.682L307.264 69.7369C307.248 69.7424 307.231 69.7418 307.215 69.7354C307.207 69.7325 307.201 69.7277 307.196 69.7215C307.19 69.7152 307.187 69.7077 307.185 69.6996L306.901 68.6825C306.899 68.6745 306.899 68.6661 306.9 68.6579C306.902 68.6498 306.905 68.642 306.91 68.6352C306.914 68.6276 306.919 68.6209 306.926 68.6155C306.933 68.61 306.941 68.606 306.949 68.6036L307.144 68.5497C307.152 68.5474 307.159 68.5468 307.167 68.5482C307.175 68.5495 307.182 68.5527 307.188 68.5574C307.195 68.5607 307.201 68.5657 307.206 68.5718C307.211 68.578 307.215 68.5853 307.217 68.593L307.501 69.6102ZM309.204 68.3214C309.212 68.3644 309.198 68.3904 309.158 68.3995L308.946 68.4485L309.302 70.0472C309.305 70.0549 309.307 70.0631 309.306 70.0713C309.305 70.0795 309.302 70.0874 309.298 70.0944C309.294 70.1013 309.288 70.1072 309.281 70.1114C309.274 70.1155 309.266 70.118 309.257 70.1185L309.059 70.1638C309.052 70.1664 309.044 70.1673 309.036 70.1663C309.028 70.1654 309.02 70.1626 309.014 70.1581C309.007 70.1537 309.002 70.1478 308.998 70.1408C308.994 70.1339 308.992 70.1262 308.991 70.1182L308.633 68.5191L307.738 68.7227C307.731 68.7256 307.723 68.7266 307.715 68.7257C307.707 68.7248 307.699 68.7221 307.692 68.7176C307.685 68.7131 307.68 68.7071 307.676 68.7C307.672 68.693 307.67 68.6851 307.669 68.677L307.626 68.4864C307.623 68.4705 307.626 68.4542 307.634 68.4402C307.637 68.4327 307.643 68.4263 307.649 68.4212C307.655 68.4162 307.663 68.4126 307.671 68.4111L309.093 68.0874C309.1 68.0855 309.108 68.0853 309.116 68.0866C309.124 68.088 309.131 68.0909 309.137 68.0953C309.143 68.0985 309.148 68.1029 309.152 68.1081C309.156 68.1134 309.159 68.1193 309.16 68.1257L309.204 68.3214ZM311.227 68.9915C311.241 69.095 311.242 69.2 311.227 69.3035C311.216 69.3984 311.186 69.4901 311.139 69.5733C311.094 69.6543 311.031 69.724 310.955 69.7775C310.868 69.834 310.768 69.8699 310.665 69.8827L310.342 69.9272C310.334 69.9293 310.326 69.9296 310.318 69.9282C310.31 69.9267 310.302 69.9236 310.295 69.9189C310.289 69.9139 310.283 69.9076 310.279 69.9004C310.275 69.8932 310.273 69.8854 310.272 69.8772L310.246 69.6796C310.244 69.6718 310.243 69.6635 310.244 69.6555C310.246 69.6475 310.249 69.6399 310.254 69.6333C310.266 69.6214 310.282 69.6139 310.299 69.6117L310.598 69.5702C310.669 69.5646 310.737 69.5385 310.794 69.495C310.837 69.4583 310.869 69.4114 310.89 69.3586C310.908 69.3056 310.918 69.2501 310.919 69.1941C310.918 69.1397 310.914 69.0854 310.907 69.0315L310.79 68.1577L309.792 68.2952C309.77 68.3013 309.747 68.3022 309.725 68.298C309.703 68.2938 309.682 68.2846 309.664 68.271C309.646 68.2574 309.632 68.2398 309.621 68.2196C309.611 68.1995 309.606 68.1773 309.606 68.1547L309.502 67.3785C309.5 67.3704 309.501 67.3621 309.504 67.3543C309.506 67.3465 309.51 67.3393 309.516 67.3333C309.528 67.3207 309.544 67.3128 309.561 67.3109L309.755 67.2841C309.771 67.2816 309.787 67.2845 309.801 67.2923C309.808 67.2972 309.814 67.3034 309.818 67.3106C309.822 67.3179 309.824 67.3259 309.825 67.3341L309.906 67.9476L310.908 67.8098C310.93 67.8042 310.952 67.8038 310.974 67.8085C310.996 67.8132 311.016 67.823 311.034 67.837C311.051 67.851 311.065 67.8689 311.074 67.8893C311.083 67.9096 311.087 67.9318 311.086 67.954L311.227 68.9915ZM312.07 68.8601C312.071 68.8683 312.07 68.8767 312.067 68.8845C312.064 68.8924 312.06 68.8994 312.054 68.905C312.049 68.9105 312.043 68.9149 312.036 68.9181C312.03 68.9213 312.023 68.9233 312.016 68.9237L311.81 68.9401C311.793 68.9435 311.777 68.9405 311.762 68.9318C311.756 68.9273 311.75 68.9211 311.746 68.9138C311.742 68.9066 311.74 68.8984 311.739 68.8901L311.655 67.8381C311.654 67.8301 311.655 67.8221 311.658 67.8145C311.66 67.8068 311.664 67.7999 311.67 67.7941C311.675 67.7874 311.682 67.7818 311.689 67.7777C311.697 67.7737 311.705 67.7711 311.714 67.7703L311.92 67.7539C311.927 67.7533 311.935 67.7543 311.942 67.757C311.95 67.7597 311.956 67.7639 311.962 67.7694C311.974 67.7797 311.983 67.7947 311.985 67.8111L312.07 68.8601ZM312.584 67.7372C312.585 67.7219 312.591 67.7074 312.6 67.6954C312.606 67.6886 312.613 67.6833 312.62 67.68C312.628 67.6768 312.637 67.6757 312.645 67.6769L313.261 67.6901C313.351 67.6908 313.44 67.7022 313.528 67.7241C313.605 67.7418 313.677 67.7768 313.738 67.8263C313.801 67.8785 313.849 67.9461 313.877 68.0225C313.913 68.1229 313.928 68.2291 313.924 68.3354L313.897 69.4003L314.091 69.4041C314.1 69.4041 314.108 69.4057 314.116 69.409C314.123 69.4123 314.13 69.4171 314.136 69.4231C314.145 69.4346 314.15 69.4493 314.15 69.4642L314.145 69.6664C314.146 69.6747 314.145 69.683 314.142 69.6909C314.139 69.6987 314.135 69.7058 314.129 69.7115C314.123 69.7173 314.116 69.7216 314.108 69.724C314.1 69.7265 314.091 69.7271 314.083 69.7257L312.602 69.6936C312.594 69.6948 312.586 69.694 312.578 69.6913C312.57 69.6886 312.563 69.684 312.557 69.6781C312.552 69.6721 312.548 69.6648 312.545 69.6569C312.543 69.649 312.543 69.6407 312.545 69.6327L312.548 69.4301C312.548 69.4157 312.554 69.4019 312.564 69.3913C312.569 69.3852 312.576 69.3805 312.584 69.3774C312.591 69.3744 312.6 69.3731 312.608 69.3736L313.576 69.3934L313.6 68.4112C313.61 68.3051 313.586 68.1984 313.53 68.1074C313.492 68.0694 313.446 68.0404 313.395 68.0227C313.344 68.0049 313.29 67.9988 313.237 68.0048L312.638 68.0006C312.621 68.0001 312.605 67.9933 312.593 67.9816C312.584 67.9681 312.58 67.9519 312.58 67.9356L312.584 67.7372ZM315.569 67.8896C315.57 67.8816 315.572 67.8739 315.576 67.8669C315.58 67.8599 315.586 67.8538 315.592 67.849C315.598 67.8436 315.604 67.8394 315.611 67.8368C315.619 67.8342 315.627 67.8333 315.634 67.8341L316.536 67.9325C316.622 67.9418 316.707 67.9601 316.789 67.9873C316.862 68.0121 316.929 68.0521 316.986 68.1045C317.043 68.1615 317.084 68.2325 317.105 68.3103C317.132 68.4144 317.138 68.5229 317.123 68.6294L316.978 69.9516C316.971 69.992 316.951 70.0099 316.913 70.0063L316.714 69.9833C316.706 69.9832 316.699 69.9815 316.692 69.9783C316.685 69.9752 316.678 69.9705 316.673 69.9648C316.668 69.9582 316.665 69.9507 316.663 69.9427C316.661 69.9346 316.661 69.9263 316.663 69.9183L316.798 68.6858C316.805 68.6257 316.809 68.5653 316.809 68.5048C316.809 68.4606 316.799 68.417 316.781 68.3769C316.76 68.3398 316.727 68.3107 316.688 68.2945C316.629 68.2711 316.567 68.2568 316.504 68.2519L315.601 68.1604C315.586 68.1577 315.572 68.1495 315.563 68.1374C315.557 68.1309 315.553 68.1234 315.551 68.1153C315.549 68.1071 315.548 68.0987 315.55 68.0904L315.569 67.8896ZM315.716 69.8141C315.716 69.8221 315.715 69.8302 315.712 69.8375C315.708 69.8449 315.703 69.8515 315.697 69.8566C315.691 69.8618 315.684 69.8655 315.676 69.8674C315.668 69.8693 315.66 69.8694 315.652 69.8677L315.453 69.8447C315.445 69.845 315.437 69.8434 315.429 69.8401C315.422 69.8367 315.415 69.8317 315.41 69.8253C315.405 69.819 315.401 69.8116 315.399 69.8036C315.397 69.7956 315.398 69.7874 315.399 69.7794L315.51 68.7984C315.51 68.7902 315.511 68.7821 315.514 68.7746C315.518 68.7671 315.523 68.7604 315.529 68.7552C315.535 68.7499 315.543 68.7462 315.551 68.7443C315.559 68.7423 315.567 68.7422 315.575 68.744L315.774 68.7659C315.783 68.7658 315.791 68.7675 315.798 68.771C315.805 68.7745 315.812 68.7797 315.817 68.7861C315.822 68.7925 315.826 68.7999 315.827 68.8079C315.829 68.8159 315.829 68.8242 315.827 68.8321L315.716 69.8141ZM318.927 69.6702C318.902 69.7914 318.865 69.9098 318.816 70.0234C318.779 70.1083 318.724 70.1836 318.653 70.2435C318.581 70.2966 318.496 70.3283 318.406 70.335C318.288 70.3432 318.169 70.3331 318.053 70.3051L317.449 70.1741C317.409 70.1669 317.392 70.1406 317.403 70.1019L317.445 69.9061C317.452 69.8677 317.478 69.854 317.518 69.8643L318.09 69.9875C318.162 70.0062 318.237 70.0147 318.312 70.0126C318.364 70.0114 318.415 69.9937 318.456 69.9619C318.497 69.9277 318.527 69.8827 318.543 69.832C318.568 69.7607 318.588 69.688 318.604 69.6142L318.71 69.125C318.722 69.0541 318.733 68.993 318.742 68.9418C318.747 68.8977 318.741 68.8532 318.725 68.8118C318.705 68.7731 318.673 68.7421 318.633 68.7235C318.572 68.6937 318.507 68.673 318.441 68.662L317.772 68.5145C317.764 68.5135 317.756 68.5106 317.75 68.5061C317.743 68.5016 317.738 68.4955 317.734 68.4885C317.728 68.4734 317.727 68.4569 317.731 68.4412L317.774 68.2456C317.778 68.2304 317.786 68.2166 317.797 68.2061C317.803 68.2002 317.811 68.1961 317.819 68.1941C317.827 68.1922 317.836 68.1925 317.844 68.195L318.528 68.3453C318.706 68.3702 318.867 68.4635 318.977 68.6054C319.023 68.6844 319.053 68.7723 319.063 68.8633C319.073 68.9544 319.065 69.0467 319.037 69.1341L318.927 69.6702ZM319.769 69.8332C319.766 69.8411 319.762 69.8483 319.756 69.8543C319.751 69.8603 319.744 69.865 319.736 69.868C319.723 69.8747 319.708 69.876 319.694 69.8717L319.501 69.8113C319.485 69.8067 319.471 69.7963 319.462 69.782C319.457 69.7754 319.454 69.7678 319.453 69.7599C319.452 69.7519 319.453 69.7438 319.456 69.7362L319.769 68.7271C319.772 68.7194 319.776 68.7124 319.781 68.7064C319.787 68.7004 319.793 68.6955 319.801 68.692C319.808 68.688 319.816 68.6855 319.825 68.6848C319.833 68.684 319.842 68.685 319.85 68.6876L320.043 68.748C320.05 68.7501 320.057 68.7539 320.063 68.7592C320.069 68.7644 320.073 68.7709 320.076 68.7782C320.084 68.7923 320.087 68.8092 320.083 68.8251L319.769 69.8332ZM321.816 71.2237C321.794 71.3051 321.745 71.3769 321.678 71.4279C321.65 71.4464 321.617 71.4575 321.584 71.46C321.55 71.4626 321.516 71.4566 321.486 71.4426L320.79 71.1846C320.774 71.1796 320.761 71.1693 320.752 71.1556C320.748 71.1481 320.746 71.1398 320.746 71.1313C320.746 71.1228 320.747 71.1144 320.751 71.1066L320.82 70.9157C320.822 70.9078 320.827 70.9006 320.832 70.8946C320.838 70.8885 320.845 70.8838 320.852 70.8808C320.868 70.8755 320.885 70.876 320.9 70.8821L321.423 71.0761C321.469 71.0934 321.501 71.0899 321.519 71.0697C321.543 71.0331 321.562 70.9935 321.576 70.9518L321.883 70.1204C321.905 70.0667 321.918 70.01 321.921 69.9524C321.923 69.912 321.913 69.8719 321.892 69.8374C321.87 69.8046 321.84 69.7782 321.804 69.761C321.763 69.7396 321.72 69.7209 321.677 69.705L321.402 69.6036C321.368 69.5903 321.333 69.58 321.297 69.5729C321.265 69.5653 321.233 69.5654 321.201 69.5732C321.168 69.5824 321.138 69.5989 321.112 69.6215C321.078 69.6526 321.049 69.6895 321.027 69.7304L320.313 70.9654C320.301 70.9806 320.29 70.9877 320.275 70.9839C320.259 70.9812 320.243 70.9763 320.228 70.9697L319.997 70.8852C319.99 70.8826 319.984 70.8772 319.98 70.8701C319.977 70.863 319.976 70.8548 319.979 70.8473C319.981 70.8298 319.988 70.8133 319.999 70.7992L320.618 69.7912L320.471 69.0836C320.468 69.0674 320.471 69.0505 320.479 69.0364C320.486 69.0239 320.496 69.0143 320.51 69.0092L320.737 68.9794C320.745 68.9773 320.753 68.9768 320.762 68.9779C320.77 68.9791 320.778 68.9819 320.785 68.9862C320.792 68.9905 320.798 68.9962 320.803 69.0028C320.807 69.0095 320.811 69.0171 320.812 69.0251L320.892 69.5196L321.008 69.3857C321.063 69.3191 321.138 69.2719 321.221 69.2508C321.309 69.2382 321.398 69.25 321.479 69.285L321.936 69.4532C321.999 69.4759 322.056 69.5095 322.107 69.5524C322.156 69.5925 322.195 69.6429 322.223 69.6999C322.251 69.7595 322.266 69.8245 322.267 69.8904C322.27 69.967 322.257 70.0434 322.227 70.114L321.816 71.2237ZM323.789 72.5617C323.786 72.5692 323.781 72.5759 323.774 72.5813C323.768 72.5867 323.761 72.5906 323.752 72.5927C323.736 72.5951 323.719 72.5921 323.704 72.5842L323.531 72.4916C323.516 72.4837 323.504 72.4709 323.498 72.4553C323.494 72.4474 323.493 72.4388 323.493 72.4303C323.493 72.4217 323.496 72.4134 323.5 72.4059L324.135 71.221C324.16 71.1867 324.176 71.1473 324.184 71.1057C324.191 71.0641 324.189 71.0213 324.177 70.9806C324.137 70.9041 324.073 70.8435 323.993 70.809L323.422 70.505L322.695 71.8615C322.688 71.8819 322.675 71.9001 322.66 71.9149C322.644 71.9297 322.625 71.9407 322.604 71.9469C322.583 71.953 322.561 71.9543 322.54 71.9505C322.519 71.9468 322.498 71.9381 322.481 71.9252L322.078 71.7079C322.071 71.7049 322.064 71.7001 322.059 71.694C322.053 71.6879 322.05 71.6807 322.047 71.6728C322.045 71.6649 322.045 71.6567 322.047 71.6487C322.049 71.6407 322.052 71.6333 322.057 71.6269L322.151 71.4516C322.154 71.444 322.158 71.4371 322.164 71.4315C322.169 71.4259 322.177 71.4217 322.184 71.4193C322.192 71.4169 322.2 71.4163 322.208 71.4176C322.216 71.4189 322.223 71.4221 322.23 71.4268L322.487 71.5646L323.138 70.3482L322.946 70.244C322.938 70.241 322.931 70.2362 322.926 70.2302C322.921 70.2242 322.917 70.2171 322.915 70.2093C322.913 70.2016 322.913 70.1935 322.914 70.1856C322.916 70.1778 322.919 70.1704 322.924 70.164L323.017 69.9895C323.024 69.9762 323.036 69.9658 323.05 69.9597C323.057 69.9564 323.065 69.9549 323.073 69.9555C323.082 69.9561 323.09 69.9586 323.097 69.9629L324.252 70.5875C324.318 70.6175 324.377 70.6618 324.423 70.7171C324.47 70.7724 324.504 70.8375 324.523 70.9075C324.55 71.0518 324.524 71.2011 324.448 71.3272L323.789 72.5617ZM324.443 72.998C324.439 73.0057 324.434 73.0124 324.427 73.0175C324.42 73.0227 324.412 73.0262 324.404 73.0278C324.389 73.0295 324.375 73.0269 324.362 73.0203L324.188 72.9145C324.174 72.9055 324.162 72.8921 324.155 72.8762C324.153 72.868 324.153 72.8595 324.155 72.8512C324.156 72.8429 324.159 72.8349 324.164 72.8279L325.145 71.2055C325.154 71.1918 325.168 71.1819 325.184 71.1777C325.201 71.1748 325.218 71.1779 325.233 71.1864L325.406 71.2911C325.412 71.2952 325.417 71.3007 325.422 71.3072C325.426 71.3137 325.429 71.3211 325.429 71.3288C325.431 71.337 325.431 71.3455 325.43 71.3538C325.429 71.3621 325.425 71.37 325.421 71.377L324.443 72.998Z" fill="#C7007D"/>
<path d="M326.802 72.2849C326.807 72.2703 326.818 72.2584 326.833 72.2517C326.839 72.2486 326.846 72.2476 326.853 72.2488C326.86 72.2501 326.866 72.2534 326.871 72.2585L327.041 72.3983C327.048 72.4026 327.054 72.4086 327.057 72.4156C327.061 72.4227 327.063 72.4306 327.063 72.4386C327.063 72.4551 327.06 72.4716 327.054 72.4869L326.338 74.016L326.468 74.1243C326.521 74.1716 326.585 74.204 326.655 74.2183C326.711 74.2259 326.768 74.218 326.819 74.1955C326.871 74.1739 326.918 74.1434 326.959 74.1055C326.999 74.068 327.035 74.028 327.07 73.9858L327.789 73.0972C327.794 73.0905 327.8 73.0848 327.807 73.0805C327.814 73.0761 327.821 73.0731 327.829 73.0718C327.837 73.0705 327.846 73.0709 327.853 73.0732C327.861 73.0755 327.869 73.0794 327.875 73.0849L328.032 73.2142C328.043 73.2244 328.05 73.2383 328.051 73.2532C328.053 73.2614 328.054 73.2699 328.052 73.2783C328.051 73.2866 328.048 73.2945 328.043 73.3015L327.319 74.1893C327.253 74.2707 327.176 74.3423 327.091 74.4019C327.013 74.4574 326.926 74.4975 326.833 74.52C326.743 74.5422 326.65 74.5434 326.559 74.5234C326.459 74.4989 326.366 74.4512 326.288 74.3841L325.572 73.7943C325.565 73.7902 325.559 73.7846 325.554 73.7777C325.55 73.7709 325.547 73.7631 325.547 73.755C325.546 73.7469 325.547 73.7388 325.55 73.7313C325.553 73.7237 325.558 73.717 325.564 73.7117L325.693 73.5577C325.697 73.5508 325.702 73.5449 325.709 73.5405C325.716 73.5361 325.723 73.5334 325.731 73.5325C325.739 73.5317 325.747 73.5327 325.755 73.5355C325.762 73.5384 325.769 73.5429 325.774 73.5488L326.091 73.8079L326.802 72.2849ZM327.451 75.3299C327.445 75.3369 327.438 75.3423 327.43 75.3457C327.422 75.3491 327.413 75.3503 327.405 75.3492C327.391 75.3487 327.377 75.3435 327.367 75.3344L327.216 75.198C327.203 75.1872 327.195 75.172 327.193 75.1554C327.191 75.1468 327.192 75.1379 327.194 75.1295C327.197 75.1211 327.201 75.1134 327.208 75.1072L328.476 73.7061C328.481 73.7 328.488 73.6951 328.496 73.6919C328.503 73.6887 328.512 73.6872 328.52 73.6874C328.529 73.6864 328.537 73.6873 328.546 73.6902C328.554 73.6931 328.562 73.6978 328.568 73.704L328.716 73.8399C328.722 73.8456 328.727 73.8525 328.729 73.86C328.732 73.8675 328.734 73.8755 328.733 73.8836C328.734 73.8915 328.733 73.8995 328.731 73.9071C328.728 73.9147 328.724 73.9218 328.719 73.9278L327.451 75.3299ZM328.609 75.3142C328.604 75.3202 328.597 75.3246 328.589 75.3272C328.581 75.3297 328.573 75.3303 328.565 75.3287C328.558 75.3285 328.551 75.3268 328.544 75.3237C328.537 75.3206 328.532 75.3162 328.527 75.3108L328.384 75.1666C328.371 75.1548 328.364 75.139 328.362 75.1222C328.361 75.1139 328.362 75.1056 328.365 75.0978C328.368 75.09 328.373 75.083 328.379 75.0774L329.126 74.3348C329.131 74.329 329.138 74.3246 329.146 74.3219C329.153 74.3192 329.161 74.3182 329.169 74.3191C329.178 74.3185 329.187 74.3198 329.195 74.3231C329.204 74.3263 329.211 74.3313 329.218 74.3378L329.361 74.482C329.366 74.4878 329.37 74.4946 329.372 74.502C329.374 74.5094 329.375 74.5173 329.375 74.525C329.374 74.5407 329.369 74.5559 329.359 74.5679L328.609 75.3142ZM329.782 75.4268L329.071 76.0641C328.931 76.1907 328.866 76.3032 328.883 76.4047C328.931 76.5437 329.011 76.669 329.118 76.7702C329.205 76.8871 329.319 76.9812 329.451 77.0443C329.505 77.0539 329.561 77.0476 329.612 77.0261C329.685 76.9964 329.752 76.9525 329.808 76.8971L330.52 76.2641L329.782 75.4268ZM330.024 77.1395C329.931 77.2252 329.822 77.2926 329.704 77.338C329.61 77.373 329.507 77.3815 329.408 77.3629C329.198 77.292 329.015 77.1594 328.881 76.9823C328.72 76.8281 328.61 76.6282 328.565 76.4095C328.561 76.295 328.586 76.1814 328.637 76.0788C328.687 75.9762 328.763 75.888 328.857 75.8221L329.687 75.078C329.701 75.0607 329.718 75.0468 329.738 75.0375C329.758 75.0282 329.78 75.0236 329.802 75.0242C329.824 75.0249 329.845 75.0307 329.865 75.0411C329.884 75.0515 329.901 75.0664 329.914 75.0844L330.866 76.1608C330.883 76.1755 330.897 76.1941 330.906 76.215C330.915 76.2359 330.919 76.2587 330.917 76.2813C330.916 76.304 330.909 76.3261 330.898 76.3458C330.887 76.3655 330.871 76.3824 330.852 76.395L330.024 77.1395ZM331.211 78.6381C331.128 78.7016 331.037 78.7538 330.94 78.7935C330.852 78.8288 330.758 78.8467 330.663 78.8461C330.57 78.8442 330.479 78.8214 330.396 78.7796C330.304 78.731 330.225 78.6613 330.165 78.5763L329.972 78.3136C329.961 78.3014 329.956 78.2855 329.957 78.2694C329.958 78.2608 329.96 78.2526 329.964 78.2452C329.969 78.2378 329.975 78.2316 329.982 78.227L330.14 78.1087C330.146 78.1031 330.153 78.0992 330.161 78.0972C330.169 78.0953 330.178 78.0953 330.186 78.0975C330.194 78.099 330.201 78.1021 330.208 78.1066C330.215 78.1111 330.22 78.1169 330.225 78.1236L330.405 78.3678C330.444 78.4273 330.5 78.4742 330.565 78.5027C330.617 78.5236 330.674 78.5301 330.73 78.5216C330.784 78.5132 330.837 78.4946 330.885 78.4668C330.936 78.4372 330.981 78.4086 331.023 78.3784L331.726 77.8495L331.127 77.0377C331.111 77.0217 331.098 77.0023 331.091 76.9809C331.084 76.9594 331.082 76.9366 331.085 76.9142C331.088 76.8918 331.096 76.8705 331.109 76.8518C331.122 76.8331 331.139 76.8177 331.158 76.8066L331.784 76.3381C331.79 76.3327 331.797 76.3289 331.806 76.327C331.814 76.3251 331.822 76.3251 331.83 76.327C331.846 76.3318 331.86 76.3421 331.87 76.3563L331.987 76.5152C331.992 76.5211 331.996 76.5281 331.999 76.5358C332.002 76.5434 332.003 76.5515 332.002 76.5596C332.001 76.5676 331.998 76.5753 331.994 76.5822C331.99 76.5891 331.985 76.5952 331.978 76.6L331.483 76.9716L332.087 77.7893C332.102 77.8055 332.113 77.8249 332.119 77.846C332.125 77.867 332.126 77.8892 332.122 77.9108C332.118 77.9325 332.11 77.9529 332.097 77.9706C332.084 77.9883 332.067 78.0028 332.047 78.0129L331.211 78.6381ZM333.233 80.3087C333.194 80.3292 333.164 80.3219 333.147 80.2864L333.06 80.1206C332.981 80.0831 332.892 80.0742 332.808 80.0954C332.713 80.1198 332.625 80.1665 332.551 80.2319L331.635 80.9181C331.629 80.9244 331.622 80.9286 331.614 80.9301C331.605 80.9316 331.597 80.9303 331.589 80.9264C331.574 80.9195 331.562 80.9081 331.554 80.8937L331.459 80.7145C331.452 80.6993 331.45 80.6822 331.453 80.6656C331.455 80.6579 331.459 80.6508 331.465 80.6448C331.47 80.6388 331.477 80.6339 331.484 80.6305L332.324 80.0222C332.361 79.9931 332.4 79.9661 332.44 79.9411C332.486 79.9139 332.535 79.8908 332.585 79.8723C332.637 79.8541 332.69 79.8414 332.744 79.8343C332.8 79.829 332.856 79.8324 332.91 79.8443L332.739 79.5154C332.734 79.5085 332.732 79.5008 332.731 79.4927C332.73 79.4846 332.73 79.4764 332.733 79.4687C332.738 79.4534 332.748 79.4407 332.762 79.4333L332.937 79.3412C332.944 79.3373 332.952 79.3348 332.96 79.3339C332.968 79.3331 332.976 79.3338 332.984 79.3362C332.992 79.3383 332.999 79.3422 333.005 79.3475C333.011 79.3528 333.016 79.3595 333.02 79.367L333.424 80.1423C333.428 80.1491 333.431 80.1567 333.431 80.1646C333.432 80.1725 333.431 80.1804 333.427 80.1876C333.422 80.2001 333.414 80.2109 333.404 80.219L333.233 80.3087ZM333.105 82.3378C332.993 82.3913 332.877 82.4329 332.757 82.4622C332.667 82.4852 332.573 82.4853 332.483 82.4626C332.398 82.4383 332.321 82.3895 332.263 82.3222C332.186 82.231 332.123 82.1292 332.076 82.0199L331.817 81.4552C331.812 81.4481 331.809 81.4401 331.808 81.4317C331.807 81.4234 331.808 81.4149 331.811 81.407C331.814 81.399 331.818 81.3918 331.825 81.3859C331.831 81.38 331.838 81.3756 331.846 81.3729L332.028 81.2903C332.062 81.2729 332.089 81.2838 332.106 81.3223L332.348 81.8568C332.379 81.926 332.417 81.9915 332.463 82.0518C332.495 82.0926 332.54 82.1222 332.59 82.1361C332.641 82.1477 332.695 82.1444 332.745 82.1269C332.816 82.1039 332.885 82.0761 332.952 82.0438L333.409 81.8319C333.465 81.8072 333.52 81.7788 333.572 81.747C333.612 81.7263 333.644 81.6946 333.666 81.6558C333.684 81.6165 333.69 81.5721 333.681 81.5295C333.667 81.4632 333.644 81.399 333.613 81.3387L333.328 80.7124C333.323 80.7054 333.321 80.6974 333.321 80.6891C333.32 80.6809 333.322 80.6727 333.326 80.6653C333.334 80.6509 333.346 80.6394 333.361 80.633L333.541 80.549C333.555 80.543 333.571 80.5408 333.586 80.5427C333.594 80.5445 333.602 80.5483 333.608 80.5539C333.615 80.5595 333.619 80.5665 333.622 80.5745L333.914 81.2203C334 81.3792 334.022 81.5645 333.977 81.7392C333.942 81.8241 333.89 81.9007 333.824 81.9641C333.757 82.0274 333.679 82.0761 333.592 82.107L333.105 82.3378ZM333.019 84.3195C333.011 84.3234 333.003 84.3254 332.995 84.3256C332.986 84.3257 332.978 84.324 332.971 84.3204C332.963 84.3168 332.957 84.3115 332.952 84.3049C332.947 84.2984 332.943 84.2907 332.942 84.2826L332.874 84.0889C332.869 84.0747 332.87 84.0592 332.876 84.0455C332.88 84.0378 332.885 84.0309 332.891 84.0253C332.897 84.0198 332.905 84.0158 332.913 84.0135L334.179 83.5809C334.22 83.5721 334.258 83.5549 334.292 83.5304C334.325 83.5059 334.354 83.4747 334.375 83.4387C334.398 83.3585 334.392 83.2727 334.359 83.1962L334.128 82.5064C334.125 82.499 334.123 82.491 334.123 82.4828C334.123 82.4747 334.125 82.4668 334.129 82.4595C334.132 82.4522 334.138 82.4459 334.144 82.4409C334.15 82.4359 334.158 82.4325 334.166 82.4308L334.351 82.3679C334.365 82.3629 334.381 82.3632 334.396 82.3689C334.404 82.3712 334.411 82.3755 334.416 82.3813C334.422 82.3871 334.426 82.3942 334.428 82.4019L334.695 83.1905C334.723 83.258 334.736 83.3308 334.733 83.4037C334.73 83.4767 334.711 83.5482 334.677 83.613C334.599 83.7357 334.478 83.8256 334.338 83.8659L333.019 84.3195ZM333.843 86.5525C333.762 86.5763 333.676 86.5732 333.597 86.5435C333.566 86.5296 333.539 86.5082 333.518 86.4814C333.497 86.4545 333.483 86.4229 333.478 86.3894L333.317 85.6622C333.314 85.6459 333.317 85.6292 333.325 85.6149C333.329 85.6074 333.335 85.601 333.342 85.5961C333.349 85.5912 333.357 85.5879 333.366 85.5865L333.559 85.5425C333.567 85.5402 333.575 85.5398 333.583 85.5412C333.591 85.5426 333.599 85.5459 333.606 85.5507C333.612 85.5557 333.617 85.5619 333.621 85.5691C333.625 85.5762 333.627 85.5841 333.628 85.5922L333.751 86.1391C333.763 86.187 333.781 86.2135 333.809 86.2173C333.852 86.2181 333.896 86.2125 333.938 86.2005L334.797 86.0049C334.854 85.9945 334.909 85.9743 334.96 85.9453C334.994 85.9246 335.021 85.894 335.038 85.8576C335.053 85.8213 335.06 85.7824 335.058 85.7433C335.053 85.6968 335.046 85.6507 335.035 85.6052L334.97 85.3184C334.963 85.2818 334.953 85.2459 334.939 85.2114C334.927 85.1814 334.909 85.1543 334.886 85.1319C334.861 85.1101 334.831 85.0941 334.799 85.085C334.754 85.0727 334.708 85.0682 334.661 85.0719L333.243 85.1433C333.235 85.1443 333.228 85.1428 333.221 85.1391C333.215 85.1354 333.21 85.1296 333.207 85.1227C333.201 85.1076 333.196 85.0922 333.193 85.0765L333.139 84.8344C333.137 84.8272 333.138 84.8196 333.142 84.8131C333.145 84.8066 333.151 84.8017 333.158 84.7993C333.175 84.7911 333.193 84.7877 333.212 84.7894L334.391 84.7601L334.901 84.2488C334.913 84.2375 334.928 84.2305 334.944 84.229C334.951 84.227 334.958 84.2266 334.965 84.2278C334.971 84.2291 334.978 84.2318 334.983 84.236L335.133 84.4107C335.145 84.4222 335.153 84.4379 335.153 84.4545C335.154 84.4711 335.148 84.4873 335.137 84.4997L334.766 84.8405L334.941 84.8652C335.026 84.8739 335.107 84.9106 335.17 84.9697C335.228 85.0369 335.267 85.1189 335.281 85.2068L335.388 85.6847C335.403 85.7499 335.407 85.8172 335.398 85.8836C335.391 85.946 335.371 86.0062 335.339 86.06C335.304 86.1166 335.258 86.1652 335.204 86.2028C335.141 86.2453 335.071 86.2753 334.996 86.291L333.843 86.5525ZM335.501 86.7723C335.518 86.769 335.535 86.772 335.549 86.7807C335.555 86.7848 335.561 86.7902 335.565 86.7965C335.569 86.8029 335.572 86.8101 335.574 86.8176L335.695 87.7237C335.707 87.8089 335.71 87.8953 335.702 87.981C335.698 88.0594 335.676 88.1357 335.637 88.2042C335.597 88.2737 335.539 88.3314 335.469 88.3714C335.374 88.4227 335.271 88.4545 335.164 88.4648L333.853 88.6467C333.845 88.6489 333.837 88.6494 333.829 88.6481C333.822 88.6468 333.814 88.6438 333.808 88.6392C333.801 88.6346 333.796 88.6287 333.792 88.6217C333.788 88.6148 333.786 88.6071 333.785 88.5992L333.76 88.3915C333.758 88.384 333.758 88.3762 333.759 88.3685C333.76 88.3609 333.763 88.3536 333.768 88.3472C333.773 88.3407 333.779 88.3353 333.786 88.3313C333.793 88.3273 333.8 88.3247 333.808 88.3239L335.031 88.1549C335.09 88.1478 335.149 88.1368 335.207 88.122C335.249 88.1115 335.287 88.0911 335.319 88.0626C335.351 88.0343 335.372 87.9953 335.377 87.953C335.385 87.89 335.385 87.8262 335.374 87.7635L335.247 86.8595C335.245 86.8521 335.245 86.8445 335.246 86.837C335.248 86.8295 335.251 86.8224 335.255 86.8162C335.26 86.8092 335.266 86.8033 335.274 86.799C335.281 86.7947 335.289 86.7921 335.298 86.7912L335.501 86.7723ZM333.683 87.3865C333.675 87.3889 333.666 87.3894 333.658 87.388C333.65 87.3866 333.643 87.3833 333.636 87.3784C333.63 87.3735 333.624 87.3671 333.621 87.3597C333.617 87.3523 333.615 87.3442 333.615 87.336L333.589 87.1343C333.587 87.1264 333.586 87.1179 333.588 87.1098C333.589 87.1016 333.592 87.0938 333.597 87.0871C333.602 87.0804 333.608 87.0749 333.616 87.0711C333.623 87.0673 333.631 87.0652 333.64 87.0651L334.611 86.9319C334.619 86.93 334.627 86.9299 334.636 86.9317C334.644 86.9334 334.651 86.9369 334.658 86.942C334.664 86.947 334.67 86.9535 334.674 86.9609C334.678 86.9683 334.679 86.9764 334.68 86.9847L334.706 87.1864C334.708 87.1944 334.709 87.2029 334.707 87.211C334.705 87.2192 334.702 87.2269 334.697 87.2335C334.692 87.2402 334.685 87.2456 334.678 87.2494C334.671 87.2532 334.662 87.2553 334.654 87.2555L333.683 87.3865Z" fill="#C7007D"/>
<path d="M323.209 90.1829L326.163 110.886C326.467 113.056 326.305 114.63 322.679 114.51C326.209 115.123 328.025 115.435 331.549 116.047C334.067 116.484 334.68 115.483 333.989 113.126L331.096 103.265C330.355 100.738 330.282 100.329 332.11 98.4206L336.021 94.3376C337.735 92.5469 337.109 91.1544 334.844 90.7532L324.995 89.0083C323.616 88.7647 322.979 88.567 323.207 90.1867" fill="#C7007D"/>
<path d="M317.936 78.8511L312.047 86.4101L304.316 85.0443C302.393 84.7047 301.537 85.6951 302.327 87.7403L305.419 95.7146L298.031 105.188C297.258 106.118 297.297 107.438 298.689 107.684L306.192 109.009L314.43 96.2621C315.457 94.5665 317.857 96.258 316.538 98.0505L311.211 106.822C309.63 108.742 310.121 110.013 312.388 110.413L320.789 111.897C322.943 112.278 322.948 111.108 322.631 108.777L320.012 89.6058C319.99 89.3128 320.055 89.0199 320.199 88.764C320.343 88.508 320.56 88.3005 320.822 88.1677C321.084 88.0349 321.379 87.9827 321.671 88.0177C321.963 88.0527 322.237 88.1734 322.461 88.3644C323.171 89.1105 322.451 87.1133 322.329 86.5129L320.84 79.1722C320.474 77.3635 319.089 77.3525 317.936 78.839" fill="#A2D45E"/>
<path d="M283.929 110.717L283.301 114.274L286.478 114.835L286.834 112.82C286.894 112.538 286.906 112.247 286.869 111.96C286.84 111.759 286.742 111.574 286.592 111.436C286.419 111.294 286.217 111.193 286 111.138C285.751 111.068 285.443 110.996 285.084 110.921L283.929 110.717ZM288.244 116.456C288.242 116.537 288.221 116.617 288.183 116.689C288.144 116.761 288.09 116.823 288.024 116.87C287.958 116.918 287.882 116.949 287.801 116.962C287.721 116.975 287.639 116.969 287.561 116.945L281.566 115.886C281.485 115.882 281.405 115.86 281.333 115.82C281.262 115.781 281.201 115.725 281.154 115.658C281.108 115.591 281.077 115.514 281.066 115.433C281.054 115.352 281.062 115.269 281.088 115.192L282.165 109.095C282.166 109.012 282.187 108.931 282.225 108.858C282.264 108.785 282.318 108.722 282.385 108.674C282.452 108.626 282.529 108.594 282.61 108.581C282.692 108.567 282.775 108.573 282.854 108.598L286.056 109.164C286.549 109.245 287.031 109.378 287.495 109.562C287.867 109.705 288.201 109.932 288.472 110.224C288.723 110.513 288.889 110.866 288.953 111.244C289.027 111.732 289.014 112.23 288.914 112.714L288.244 116.456Z" fill="#C7007D"/>
<path d="M296.005 118.212C296.002 118.242 295.991 118.272 295.975 118.298C295.959 118.324 295.938 118.347 295.912 118.364C295.864 118.392 295.807 118.402 295.753 118.392L294.193 118.116C294.163 118.115 294.134 118.107 294.107 118.092C294.081 118.078 294.058 118.057 294.041 118.032C294.024 118.007 294.013 117.979 294.009 117.949C294.005 117.919 294.008 117.888 294.017 117.86L294.75 113.712C294.777 113.562 294.8 113.427 294.809 113.296C294.825 113.174 294.806 113.051 294.756 112.94C294.693 112.818 294.592 112.719 294.468 112.659C294.27 112.564 294.06 112.501 293.843 112.471L291.832 112.115L290.913 117.313C290.91 117.344 290.9 117.373 290.884 117.399C290.868 117.426 290.847 117.448 290.821 117.466C290.772 117.495 290.714 117.505 290.658 117.493L289.112 117.219C289.053 117.211 288.998 117.181 288.959 117.137C288.941 117.112 288.928 117.083 288.923 117.053C288.917 117.023 288.918 116.992 288.926 116.962L290.135 110.118C290.144 110.06 290.177 110.008 290.224 109.973C290.249 109.953 290.277 109.939 290.307 109.932C290.337 109.924 290.369 109.924 290.4 109.929L294.849 110.715C295.162 110.771 295.469 110.859 295.763 110.979C296.032 111.085 296.273 111.251 296.468 111.465C296.664 111.688 296.8 111.956 296.865 112.246C296.937 112.63 296.933 113.024 296.853 113.407L296.005 118.212Z" fill="#C7007D"/>
<path d="M300.424 118.617C300.42 118.699 300.398 118.778 300.359 118.85C300.319 118.922 300.264 118.983 300.196 119.029C300.129 119.076 300.052 119.106 299.971 119.117C299.89 119.128 299.807 119.12 299.73 119.094L296.602 118.541C296.448 118.514 296.385 118.429 296.411 118.282L296.66 116.87C296.665 116.838 296.675 116.807 296.692 116.78C296.708 116.752 296.73 116.728 296.757 116.709C296.781 116.689 296.81 116.676 296.84 116.669C296.871 116.662 296.902 116.661 296.933 116.668L298.669 116.974L299.208 113.921C299.23 113.853 299.237 113.781 299.231 113.71C299.224 113.639 299.204 113.571 299.17 113.508C299.051 113.404 298.901 113.342 298.743 113.331L297.988 113.198C297.958 113.194 297.928 113.183 297.901 113.167C297.874 113.151 297.851 113.13 297.833 113.104C297.817 113.082 297.805 113.056 297.798 113.028C297.792 113.001 297.791 112.973 297.796 112.945L298.05 111.511C298.061 111.453 298.093 111.402 298.14 111.367C298.165 111.346 298.194 111.331 298.225 111.324C298.256 111.316 298.288 111.316 298.32 111.323L299.925 111.607C300.167 111.623 300.402 111.693 300.614 111.81C300.826 111.927 301.01 112.088 301.152 112.284C301.362 112.722 301.411 113.22 301.291 113.69L300.424 118.617Z" fill="#C7007D"/>
<path d="M308.825 119.502C308.791 119.811 308.659 120.1 308.449 120.328C308.357 120.412 308.245 120.473 308.125 120.505C308.004 120.537 307.877 120.538 307.755 120.51L304.963 120.017C304.831 119.993 304.778 119.911 304.804 119.765L305.052 118.363C305.06 118.302 305.088 118.245 305.13 118.2C305.152 118.18 305.178 118.166 305.206 118.159C305.234 118.151 305.263 118.151 305.291 118.157L306.599 118.388C306.784 118.42 306.902 118.397 306.945 118.313C307.007 118.169 307.049 118.017 307.07 117.862L307.413 115.921C307.459 115.662 307.494 115.462 307.509 115.32C307.52 115.263 307.519 115.205 307.506 115.149C307.494 115.093 307.47 115.04 307.437 114.994C307.342 114.905 307.224 114.846 307.096 114.824C306.934 114.784 306.698 114.739 306.385 114.684C306.261 114.647 306.129 114.638 306.001 114.658C305.872 114.679 305.75 114.727 305.642 114.801C305.449 114.977 305.295 115.192 305.191 115.432L303.253 119.593C303.226 119.657 303.187 119.683 303.135 119.687C303.076 119.686 303.017 119.68 302.958 119.669L301.325 119.38C301.295 119.378 301.267 119.364 301.246 119.341C301.225 119.319 301.214 119.289 301.214 119.259C301.209 119.194 301.22 119.128 301.248 119.069L302.873 115.886L301.688 113.137C301.648 113.047 301.642 112.945 301.671 112.85C301.679 112.809 301.695 112.769 301.718 112.734C301.742 112.699 301.773 112.67 301.808 112.648L302.702 112.138C302.819 112.072 302.956 112.053 303.086 112.084C303.147 112.091 303.205 112.115 303.253 112.153C303.301 112.19 303.338 112.241 303.359 112.298L303.934 113.833L304.237 113.351C304.394 113.08 304.63 112.863 304.912 112.727C305.222 112.617 305.556 112.598 305.876 112.673L308.097 113.065C308.339 113.106 308.57 113.189 308.782 113.311C308.98 113.426 309.152 113.581 309.287 113.767C309.429 113.964 309.527 114.189 309.576 114.427C309.631 114.703 309.631 114.986 309.577 115.261L308.825 119.502Z" fill="#C7007D"/>
<path d="M312.763 123.699C312.759 123.727 312.749 123.754 312.734 123.778C312.718 123.801 312.698 123.821 312.674 123.836C312.626 123.866 312.568 123.876 312.512 123.864L310.966 123.591C310.907 123.582 310.853 123.552 310.813 123.507C310.796 123.485 310.783 123.459 310.777 123.432C310.77 123.404 310.77 123.376 310.776 123.348L312.419 114.05C312.429 113.991 312.462 113.939 312.509 113.904C312.534 113.885 312.562 113.871 312.592 113.864C312.622 113.856 312.654 113.855 312.685 113.861L314.231 114.134C314.26 114.139 314.288 114.15 314.312 114.167C314.336 114.184 314.356 114.207 314.37 114.233C314.403 114.282 314.416 114.342 314.406 114.401L312.763 123.699Z" fill="#C7007D"/>
<path d="M315.899 121.726C315.895 121.756 315.886 121.786 315.87 121.812C315.854 121.838 315.833 121.861 315.808 121.878C315.759 121.907 315.7 121.917 315.645 121.905L314.099 121.633C314.04 121.624 313.985 121.594 313.944 121.549C313.926 121.524 313.914 121.496 313.908 121.466C313.902 121.436 313.903 121.404 313.91 121.375L315.119 114.531C315.13 114.473 315.162 114.421 315.21 114.385C315.235 114.366 315.263 114.352 315.294 114.345C315.324 114.337 315.356 114.337 315.387 114.343L316.932 114.616C316.962 114.62 316.99 114.632 317.014 114.649C317.039 114.666 317.059 114.689 317.073 114.715C317.105 114.764 317.118 114.824 317.108 114.882L315.899 121.726Z" fill="#C7007D"/>
<path d="M321.814 122.771C321.81 122.801 321.8 122.83 321.785 122.856C321.769 122.883 321.749 122.905 321.724 122.923C321.671 122.953 321.608 122.961 321.549 122.948L320.006 122.676C319.976 122.674 319.947 122.666 319.921 122.651C319.895 122.637 319.872 122.616 319.856 122.591C319.839 122.566 319.828 122.538 319.824 122.508C319.82 122.478 319.824 122.448 319.833 122.42L320.622 117.955C320.673 117.761 320.668 117.557 320.608 117.366C320.551 117.242 320.388 117.158 320.117 117.11L317.478 116.644C317.449 116.64 317.421 116.63 317.396 116.614C317.372 116.598 317.351 116.577 317.335 116.552C317.319 116.53 317.308 116.504 317.303 116.477C317.297 116.45 317.297 116.422 317.303 116.395L317.556 114.96C317.566 114.903 317.596 114.851 317.642 114.814C317.664 114.794 317.691 114.779 317.72 114.772C317.749 114.764 317.78 114.763 317.81 114.769L321.179 115.365C321.692 115.416 322.167 115.657 322.511 116.04C322.651 116.245 322.745 116.479 322.786 116.723C322.828 116.968 322.816 117.22 322.752 117.46L321.814 122.771Z" fill="#C7007D"/>
<path d="M328.376 121.153C328.304 121.603 328.179 122.044 328.002 122.464C327.869 122.783 327.659 123.064 327.39 123.282C327.12 123.487 326.799 123.613 326.462 123.646C326.024 123.691 325.583 123.67 325.152 123.584L322.814 123.171C322.784 123.17 322.754 123.161 322.728 123.147C322.702 123.133 322.679 123.112 322.662 123.087C322.645 123.063 322.634 123.034 322.63 123.005C322.626 122.975 322.629 122.945 322.638 122.916L322.886 121.515C322.894 121.452 322.924 121.394 322.971 121.351C322.994 121.331 323.022 121.318 323.052 121.31C323.081 121.303 323.112 121.303 323.142 121.31L324.671 121.58C325.007 121.639 325.276 121.679 325.483 121.698C325.649 121.724 325.819 121.703 325.974 121.638C326.108 121.56 326.209 121.435 326.255 121.287C326.337 121.042 326.398 120.791 326.437 120.536L326.576 119.748C326.619 119.518 326.648 119.286 326.662 119.052C326.675 118.887 326.644 118.722 326.572 118.573C326.492 118.435 326.372 118.325 326.227 118.258C326.004 118.159 325.768 118.091 325.527 118.056L323.644 117.724C323.588 117.714 323.538 117.684 323.503 117.639C323.485 117.616 323.472 117.589 323.466 117.561C323.459 117.532 323.459 117.503 323.466 117.474L323.72 116.039C323.73 115.98 323.763 115.928 323.812 115.894C323.834 115.875 323.86 115.861 323.888 115.853C323.917 115.845 323.946 115.843 323.975 115.848L326.626 116.317C327.298 116.397 327.919 116.716 328.376 117.216C328.575 117.492 328.711 117.81 328.772 118.145C328.834 118.48 328.819 118.825 328.731 119.155L328.376 121.153Z" fill="#C7007D"/>
<path d="M333.489 119.197C333.482 119.266 333.456 119.332 333.415 119.387C333.381 119.43 333.319 119.443 333.229 119.428L332.548 119.307C332.269 119.464 332.053 119.713 331.939 120.012C331.807 120.334 331.738 120.677 331.737 121.025L331.771 124.527C331.772 124.558 331.765 124.588 331.751 124.615C331.737 124.642 331.715 124.665 331.689 124.681C331.637 124.71 331.577 124.719 331.518 124.707L329.948 124.43C329.918 124.429 329.888 124.42 329.862 124.406C329.835 124.391 329.812 124.371 329.795 124.346C329.778 124.321 329.767 124.292 329.762 124.262C329.758 124.232 329.762 124.202 329.771 124.173L329.777 121.062C329.773 120.883 329.784 120.703 329.809 120.526C329.836 120.332 329.88 120.14 329.941 119.954C330.004 119.763 330.091 119.581 330.198 119.41C330.307 119.239 330.444 119.086 330.604 118.961L329.48 118.762C329.451 118.758 329.423 118.748 329.398 118.732C329.374 118.717 329.353 118.696 329.337 118.671C329.308 118.625 329.297 118.569 329.308 118.515L329.562 117.079C329.569 117.02 329.599 116.966 329.645 116.928C329.668 116.909 329.695 116.896 329.723 116.889C329.752 116.882 329.782 116.882 329.811 116.889L333.561 117.551C333.588 117.555 333.614 117.566 333.636 117.582C333.659 117.597 333.677 117.618 333.69 117.642C333.718 117.683 333.735 117.73 333.74 117.78L333.489 119.197Z" fill="#C7007D"/>
<g filter="url(#filter1_d_935_3879)">
<path d="M116.591 37.8313L38.6344 51.6023C32.1763 52.7431 27.8657 58.9033 29.0066 65.3615L42.7776 143.318C43.9185 149.776 50.0787 154.087 56.5368 152.946L134.494 139.175C140.952 138.034 145.262 131.874 144.122 125.416L130.35 47.4591C129.21 41.001 123.049 36.6904 116.591 37.8313Z" fill="white"/>
</g>
<path d="M69.4584 119.509C69.2859 119.546 69.1075 119.546 68.9347 119.511C68.7999 119.479 68.6752 119.414 68.5722 119.322C68.4738 119.231 68.3933 119.123 68.3349 119.002C68.273 118.874 68.2295 118.738 68.2057 118.598L67.4626 114.616C67.4583 114.511 67.4306 114.408 67.3816 114.314C67.3327 114.221 67.2636 114.14 67.1795 114.077C67.0326 114 66.8637 113.978 66.7019 114.013L64.7704 114.354L65.5096 119.154C65.5546 119.422 65.499 119.697 65.3534 119.926C65.2672 120.048 65.1556 120.151 65.0263 120.226C64.8969 120.302 64.7528 120.348 64.6038 120.363C64.4591 120.398 64.3085 120.403 64.162 120.376C64.0154 120.349 63.876 120.292 63.7528 120.209C63.6451 120.127 63.5551 120.025 63.4884 119.907C63.4217 119.79 63.3797 119.66 63.365 119.526L62.695 114.692C62.5737 114.716 62.4483 114.71 62.3301 114.673C62.229 114.639 62.1385 114.579 62.0677 114.499C61.9937 114.414 61.9359 114.315 61.8975 114.208C61.8561 114.096 61.8248 113.981 61.8041 113.863C61.7844 113.745 61.7765 113.625 61.7805 113.506C61.784 113.38 61.8129 113.256 61.8655 113.141C61.9172 113.028 61.9915 112.926 62.0839 112.843C62.1992 112.748 62.339 112.688 62.4871 112.67L66.9797 111.876C67.1269 111.857 67.2756 111.85 67.424 111.856C67.5958 111.863 67.7669 111.882 67.936 111.914C68.1137 111.946 68.284 112.01 68.4387 112.103C68.6206 112.199 68.7845 112.325 68.9232 112.477C69.0505 112.62 69.1557 112.781 69.2354 112.956C69.3164 113.136 69.3833 113.322 69.4353 113.513C69.4885 113.706 69.5346 113.914 69.5736 114.134L70.3334 118.211C70.3987 118.495 70.3545 118.793 70.2096 119.046C70.1284 119.177 70.0179 119.287 69.8867 119.368C69.7555 119.449 69.6073 119.498 69.4539 119.511L69.4584 119.509Z" fill="#1E1F1E" fill-opacity="0.3"/>
<path d="M73.0261 116.765L73.2044 116.734C73.3237 116.709 73.4472 116.716 73.5631 116.753C73.6791 116.79 73.7835 116.857 73.8665 116.946C74.0435 117.127 74.1612 117.358 74.204 117.608C74.2545 117.863 74.2102 118.128 74.0795 118.352C74.019 118.462 73.934 118.555 73.8314 118.626C73.7287 118.697 73.611 118.744 73.4875 118.762L72.0927 119.008C71.9689 119.031 71.8412 119.021 71.7226 118.978C71.6041 118.936 71.499 118.862 71.4181 118.766C71.2163 118.542 71.0863 118.263 71.0451 117.965C70.9754 117.564 70.9541 117.155 70.9815 116.748C71.0085 116.327 71.0851 115.909 71.2099 115.505C71.2829 115.279 71.3624 115.046 71.4485 114.809L71.6871 114.113C71.7342 113.969 71.7361 113.878 71.6928 113.841C71.6409 113.794 71.583 113.754 71.5207 113.723L70.5788 113.134C70.43 113.042 70.2902 112.936 70.1613 112.818C70.0296 112.682 69.9455 112.507 69.9218 112.319C69.8926 112.158 69.8965 111.993 69.9331 111.833C69.9697 111.674 70.0383 111.523 70.1348 111.391C70.2313 111.259 70.3537 111.147 70.4944 111.064C70.6352 110.98 70.7915 110.926 70.9538 110.905C71.1368 110.866 71.3265 110.873 71.506 110.926C71.6582 110.976 71.8022 111.048 71.9337 111.139L74.474 112.823L75.5306 110.754C75.6086 110.596 75.7159 110.455 75.8469 110.337C76.0188 110.198 76.2259 110.111 76.445 110.083C76.6579 110.038 76.88 110.071 77.0708 110.176C77.2418 110.271 77.3795 110.417 77.4655 110.593C77.5509 110.771 77.5963 110.965 77.5985 111.162C77.6058 111.351 77.5585 111.539 77.4623 111.702L76.0997 114.005C76.6623 114.464 77.1356 114.874 77.5196 115.235C77.9036 115.596 78.2278 115.911 78.4921 116.18C78.5625 116.251 78.6219 116.332 78.6686 116.42C78.7293 116.526 78.7715 116.64 78.7936 116.76C78.8273 116.921 78.8219 117.088 78.7779 117.246C78.6965 117.506 78.5218 117.726 78.2877 117.864C78.1996 117.917 78.1033 117.954 78.0027 117.975C77.8402 118.007 77.6736 118.01 77.5099 117.986C77.3221 117.941 77.1498 117.847 77.0106 117.713L74.4572 115.523L73.4357 114.829C73.3675 114.97 73.3076 115.114 73.2562 115.262C73.193 115.437 73.1343 115.616 73.0802 115.801C73.0261 115.985 72.9827 116.155 72.95 116.311C72.9235 116.423 72.9096 116.536 72.9084 116.651C72.9238 116.738 72.9631 116.776 73.0261 116.765Z" fill="#1E1F1E" fill-opacity="0.3"/>
<path d="M83.2791 117.03L81.3042 117.379C81.1532 117.407 81.0001 117.423 80.8465 117.427C80.7176 117.43 80.5895 117.405 80.4717 117.352C80.3526 117.295 80.2503 117.208 80.1742 117.1C80.0741 116.958 79.9985 116.799 79.9503 116.632L78.2234 110.944C78.1397 110.68 78.162 110.394 78.2855 110.146C78.3544 110.008 78.4545 109.887 78.5778 109.794C78.7011 109.701 78.8443 109.638 78.9961 109.609C79.2622 109.533 79.5469 109.555 79.7983 109.671C79.9227 109.743 80.0312 109.839 80.1174 109.954C80.2035 110.07 80.2655 110.201 80.2996 110.341L81.7418 115.193L82.9711 114.976C83.2382 114.932 83.4972 114.848 83.74 114.728C83.9562 114.623 84.143 114.466 84.2838 114.271C84.4293 114.054 84.5178 113.803 84.5412 113.543C84.5705 113.184 84.5444 112.823 84.4638 112.473L84.1897 111.145C84.1812 111.084 84.156 111.028 84.117 110.981C84.0996 110.968 84.0778 110.961 84.056 110.963L83.2995 111.097L83.4341 111.698C83.4846 111.834 83.5035 111.98 83.4893 112.124C83.4752 112.269 83.4283 112.408 83.3523 112.532C83.2763 112.655 83.1731 112.76 83.0506 112.838C82.9281 112.916 82.7895 112.965 82.6452 112.982C82.5161 113.013 82.3817 113.015 82.2519 112.987C82.122 112.959 82 112.903 81.8948 112.822C81.6949 112.665 81.562 112.438 81.5226 112.187L81.2651 110.953C81.2267 110.742 81.2166 110.527 81.2352 110.313C81.2512 110.117 81.3104 109.928 81.4084 109.758C81.5065 109.585 81.6435 109.437 81.8084 109.326C82.0043 109.202 82.2237 109.12 82.4527 109.086L84.274 108.764C84.4758 108.726 84.6819 108.716 84.8864 108.735C85.066 108.752 85.2398 108.807 85.3956 108.898C85.5605 108.999 85.6972 109.14 85.7931 109.308C85.919 109.533 86.0027 109.779 86.0401 110.034L86.4552 112.159C86.5975 112.815 86.6106 113.493 86.4936 114.154C86.4016 114.66 86.1933 115.138 85.885 115.55C85.5768 115.963 85.177 116.298 84.7173 116.529C84.2632 116.768 83.7752 116.936 83.2704 117.027L83.2791 117.03Z" fill="#14C4AC"/>
<path d="M93.0251 115.345C92.8549 115.38 92.6794 115.381 92.5092 115.346C92.3753 115.316 92.2499 115.257 92.1423 115.172C92.0455 115.094 91.9665 114.995 91.9106 114.884C91.8551 114.777 91.8166 114.662 91.7964 114.542L91.1297 110.768C91.1015 110.573 91.0423 110.383 90.9543 110.207C90.8955 110.09 90.8058 109.992 90.6951 109.923C90.5961 109.868 90.4837 109.84 90.3702 109.844C90.2509 109.846 90.1321 109.858 90.0146 109.878L87.6861 110.289C87.4285 110.341 87.161 110.291 86.9393 110.15C86.8215 110.071 86.7223 109.968 86.6483 109.847C86.5743 109.726 86.5274 109.591 86.5108 109.45C86.4673 109.196 86.5075 108.936 86.6255 108.707C86.696 108.581 86.7963 108.474 86.9176 108.395C87.0389 108.316 87.1776 108.268 87.3217 108.255L90.2767 107.733C90.5459 107.689 90.818 107.665 91.0908 107.662C91.415 107.659 91.7334 107.748 92.0096 107.918C92.2015 108.027 92.3732 108.169 92.5172 108.336C92.6454 108.489 92.7519 108.658 92.8337 108.84C92.9164 109.025 92.9807 109.218 93.0258 109.415C93.0624 109.623 93.109 109.833 93.1654 110.045L93.8832 114.108C93.9059 114.235 93.9092 114.364 93.8931 114.492C93.877 114.618 93.8332 114.739 93.7649 114.847C93.6894 114.963 93.592 115.064 93.478 115.143C93.3436 115.243 93.189 115.312 93.0251 115.345Z" fill="#14C4AC"/>
<path d="M96.4978 112.618L96.6761 112.587C96.7954 112.563 96.9189 112.569 97.0348 112.607C97.1508 112.644 97.2552 112.71 97.3382 112.799C97.5152 112.981 97.6329 113.212 97.6757 113.462C97.7262 113.717 97.6819 113.981 97.5512 114.206C97.4906 114.315 97.4057 114.409 97.303 114.48C97.2004 114.551 97.0827 114.597 96.9592 114.615L95.5575 114.863C95.4337 114.886 95.306 114.875 95.1874 114.833C95.0689 114.79 94.9638 114.717 94.8829 114.62C94.6811 114.397 94.5511 114.118 94.5099 113.82C94.4402 113.418 94.4189 113.01 94.4463 112.603C94.4733 112.181 94.5499 111.764 94.6747 111.36C94.7477 111.133 94.8272 110.901 94.9133 110.664L95.1519 109.967C95.1989 109.824 95.2009 109.733 95.1576 109.695C95.1101 109.65 95.0572 109.611 94.9999 109.579L94.0529 109.002C93.9041 108.91 93.7643 108.804 93.6354 108.685C93.5037 108.549 93.4196 108.374 93.3959 108.186C93.3667 108.025 93.3706 107.86 93.4072 107.7C93.4438 107.541 93.5125 107.39 93.609 107.258C93.7054 107.126 93.8278 107.014 93.9686 106.931C94.1093 106.847 94.2656 106.793 94.4279 106.772C94.6109 106.733 94.8007 106.74 94.9802 106.793C95.1323 106.843 95.2763 106.915 95.4078 107.006L97.9481 108.69L99.0047 106.622C99.0827 106.464 99.19 106.322 99.321 106.204C99.493 106.066 99.7 105.978 99.9191 105.95C100.132 105.905 100.354 105.938 100.545 106.043C100.716 106.139 100.854 106.284 100.94 106.461C101.025 106.638 101.07 106.832 101.073 107.029C101.08 107.219 101.033 107.406 100.936 107.569L99.5738 109.872C100.136 110.331 100.61 110.741 100.994 111.102C101.378 111.463 101.702 111.778 101.966 112.048C102.037 112.118 102.096 112.199 102.143 112.288C102.203 112.393 102.246 112.508 102.268 112.627C102.301 112.788 102.296 112.955 102.252 113.113C102.171 113.373 101.996 113.593 101.762 113.731C101.674 113.784 101.577 113.822 101.477 113.843C101.314 113.874 101.148 113.878 100.984 113.853C100.796 113.808 100.624 113.714 100.485 113.58L97.9314 111.39L96.8926 110.685C96.8244 110.826 96.7645 110.97 96.7131 111.118C96.6499 111.293 96.5913 111.472 96.5371 111.657C96.483 111.841 96.4401 112.006 96.4084 112.153C96.3819 112.264 96.368 112.378 96.3668 112.492C96.3839 112.589 96.4275 112.631 96.4978 112.618Z" fill="#14C4AC"/>
<path d="M106.821 112.872L104.846 113.221C104.695 113.249 104.542 113.265 104.388 113.269C104.259 113.272 104.131 113.246 104.013 113.194C103.894 113.137 103.792 113.05 103.716 112.942C103.616 112.799 103.54 112.641 103.492 112.474L101.765 106.786C101.681 106.522 101.704 106.235 101.827 105.988C101.896 105.849 101.996 105.729 102.119 105.636C102.243 105.542 102.386 105.479 102.538 105.451C102.804 105.374 103.088 105.396 103.34 105.512C103.464 105.584 103.573 105.681 103.659 105.796C103.745 105.911 103.807 106.043 103.841 106.182L105.283 111.035L106.513 110.818C106.78 110.773 107.039 110.69 107.281 110.57C107.498 110.465 107.685 110.307 107.825 110.112C107.971 109.895 108.059 109.645 108.083 109.384C108.112 109.026 108.086 108.665 108.005 108.314L107.73 106.979C107.721 106.919 107.696 106.862 107.657 106.815C107.64 106.802 107.618 106.796 107.596 106.798L106.858 106.928L106.992 107.529C107.043 107.665 107.062 107.811 107.047 107.956C107.033 108.1 106.986 108.24 106.91 108.363C106.834 108.487 106.731 108.592 106.609 108.67C106.486 108.748 106.348 108.797 106.203 108.813C106.074 108.844 105.94 108.846 105.81 108.818C105.68 108.791 105.558 108.734 105.453 108.653C105.253 108.496 105.12 108.269 105.081 108.018L104.823 106.785C104.785 106.574 104.775 106.358 104.793 106.144C104.809 105.949 104.868 105.759 104.966 105.589C105.065 105.416 105.201 105.268 105.366 105.157C105.562 105.033 105.781 104.951 106.011 104.916L107.836 104.594C108.038 104.556 108.244 104.546 108.448 104.565C108.628 104.582 108.802 104.637 108.957 104.728C109.122 104.829 109.259 104.97 109.355 105.138C109.481 105.363 109.564 105.609 109.602 105.863L110.017 107.989C110.159 108.645 110.172 109.323 110.055 109.983C109.963 110.49 109.755 110.968 109.447 111.38C109.139 111.793 108.739 112.128 108.279 112.359C107.822 112.604 107.33 112.777 106.821 112.872Z" fill="#14C4AC"/>
<path d="M111.131 106.17L111.057 106.183C110.427 106.294 110.053 106.02 109.936 105.359C109.92 105.257 109.912 105.153 109.91 105.05C109.908 104.921 109.933 104.793 109.985 104.675C110.043 104.54 110.132 104.42 110.244 104.324C110.399 104.204 110.584 104.128 110.779 104.104L115.31 103.304C115.575 103.256 115.844 103.237 116.113 103.248C116.362 103.257 116.607 103.324 116.826 103.443C117.059 103.578 117.255 103.768 117.397 103.996C117.586 104.309 117.717 104.653 117.786 105.012L117.943 105.905C118.098 106.613 118.121 107.344 118.01 108.06C117.916 108.655 117.702 109.225 117.382 109.735C117.088 110.193 116.698 110.582 116.239 110.875C115.792 111.162 115.292 111.357 114.769 111.449L113.337 111.702C113.09 111.77 112.826 111.74 112.6 111.619C112.399 111.447 112.248 111.224 112.161 110.974L111.001 108.335C110.969 108.272 110.942 108.207 110.92 108.14C110.892 108.061 110.861 107.98 110.826 107.897C110.792 107.815 110.762 107.731 110.738 107.645L110.702 107.438C110.659 107.219 110.671 106.992 110.736 106.778C110.825 106.55 110.959 106.343 111.131 106.17ZM115.744 105.908C115.728 105.824 115.693 105.746 115.641 105.679C115.589 105.612 115.521 105.559 115.444 105.524C115.322 105.466 115.185 105.445 115.051 105.463L113.142 105.8C112.964 105.998 112.837 106.236 112.773 106.494C112.756 106.614 112.754 106.736 112.768 106.857C112.782 106.931 112.804 107.003 112.834 107.073C112.861 107.16 112.894 107.246 112.933 107.329L113.864 109.509L114.267 109.438C114.504 109.391 114.733 109.308 114.946 109.192C115.192 109.057 115.405 108.869 115.57 108.641C115.764 108.371 115.891 108.059 115.941 107.731C116.002 107.291 115.971 106.844 115.85 106.417L115.744 105.908Z" fill="#14C4AC"/>
<path d="M73.9963 97.3879C74.241 95.3382 74.3699 93.2763 74.3823 91.2121C74.3819 90.99 74.454 90.7738 74.5876 90.5964C74.7213 90.419 74.9092 90.29 75.1228 90.2291L76.1197 89.9443C76.2829 89.9 76.4546 89.8969 76.6194 89.9351C76.7841 89.9733 76.9369 90.0518 77.0639 90.1634C77.191 90.2751 77.2884 90.4165 77.3475 90.5749C77.4066 90.7334 77.4256 90.9041 77.4026 91.0717C77.0972 93.3555 76.6196 95.6129 75.974 97.8247C75.9219 97.9871 75.8303 98.134 75.7074 98.2522C75.5845 98.3703 75.4341 98.4561 75.2698 98.5017C75.1081 98.5441 74.9386 98.5463 74.7759 98.5081C74.6132 98.4699 74.4624 98.3925 74.3365 98.2826C74.2106 98.1727 74.1135 98.0337 74.0536 97.8777C73.9938 97.7216 73.9731 97.5533 73.9932 97.3875L73.9963 97.3879ZM72.4435 82.8934C72.3764 82.6195 72.3668 82.3347 72.4153 82.0569C72.4639 81.7791 72.5694 81.5143 72.7254 81.2794C72.8814 81.0444 73.0843 80.8444 73.3215 80.6918C73.5587 80.5392 73.8249 80.4375 74.1034 80.393C74.3771 80.3417 74.6585 80.3485 74.9295 80.4129C75.2004 80.4773 75.4548 80.5979 75.6761 80.7669C75.8975 80.9358 76.0809 81.1494 76.2145 81.3938C76.348 81.6381 76.4288 81.9078 76.4515 82.1854C76.5095 82.4533 76.5128 82.7302 76.4613 82.9995C76.4098 83.2688 76.3044 83.5249 76.1516 83.7525C75.9988 83.9801 75.8016 84.1745 75.5718 84.324C75.3421 84.4736 75.0845 84.5753 74.8145 84.623C74.5446 84.6707 74.2678 84.6634 74.0007 84.6016C73.7336 84.5398 73.4817 84.4247 73.2601 84.2632C73.0386 84.1018 72.8519 83.8973 72.7112 83.662C72.5706 83.4266 72.4788 83.1654 72.4415 82.8938L72.4435 82.8934Z" fill="#14C4AC"/>
<path d="M98.6315 72.6409C97.4149 72.7241 96.2328 73.0812 95.1736 73.6855C94.9684 73.8 94.792 73.9598 94.658 74.1528C94.524 74.3459 94.4359 74.567 94.4003 74.7992C94.3577 75.0838 94.3963 75.3747 94.5116 75.6383C94.627 75.9019 94.8144 76.1277 95.0524 76.2895C95.2903 76.4513 95.5692 76.5426 95.8567 76.553C96.1443 76.5634 96.429 76.4924 96.678 76.3481C97.3656 75.9497 98.1385 75.7216 98.9322 75.6828C100.131 75.6748 101.295 76.0861 102.223 76.8456C103.15 77.6051 103.783 78.6649 104.012 79.8417C104.401 82.1672 104.984 86.8503 95.4489 96.6281C94.4153 96.1437 93.4553 95.6656 92.5688 95.1937C94.6626 90.8977 95.2674 86.027 94.2877 81.3493C94.0955 80.3142 93.6984 79.328 93.1197 78.4486C92.541 77.5691 91.7924 76.8141 90.9178 76.228C89.5952 75.3376 88.0368 74.8626 86.4424 74.8639C84.848 74.8653 83.2903 75.3429 81.9692 76.2355C80.6481 77.1281 79.6237 78.395 79.0275 79.8738C78.4313 81.3525 78.2905 82.9756 78.623 84.535C79.3183 88.0566 81.1886 91.8826 88.307 96.2818L88.3107 96.3025C88.1731 96.4859 88.0251 96.6661 87.8668 96.843L87.891 96.8134C85.8024 99.1579 81.7462 100.875 75.4579 101.986L75.1624 102.038C74.823 102.09 74.4799 102.113 74.1366 102.107C73.7914 102.109 73.454 102.005 73.1697 101.809C72.8831 101.578 72.6614 101.276 72.5265 100.933C72.3213 100.429 72.1757 99.9018 72.0927 99.3634L71.6055 96.6054C70.9823 93.0771 69.6525 91.0486 67.6164 90.5199L67.6127 90.4992C69.3521 89.3096 69.9098 86.9484 69.2857 83.4155L68.7985 80.6575C68.6919 80.1279 68.6489 79.5875 68.6706 79.0478C68.6825 78.6849 68.7884 78.3313 68.9778 78.0215C69.1776 77.7399 69.459 77.5264 69.7839 77.4098L69.8695 77.3764C70.0708 77.3142 70.2575 77.2122 70.4187 77.0765C70.5798 76.9407 70.7121 76.774 70.8077 76.5862C70.9032 76.3985 70.9601 76.1934 70.975 75.9832C70.9898 75.773 70.9623 75.562 70.8941 75.3627C70.8259 75.1633 70.7184 74.9797 70.578 74.8226C70.4375 74.6656 70.2669 74.5383 70.0764 74.4484C69.8858 74.3585 69.6792 74.3077 69.4686 74.2991C69.2581 74.2906 69.048 74.3243 68.8508 74.3984C68.5773 74.4874 68.317 74.5814 68.0697 74.6806C67.3957 74.9362 66.7964 75.3563 66.3263 75.9028C65.8521 76.4869 65.5362 77.1832 65.4087 77.9247C65.2518 78.911 65.2754 79.9177 65.4785 80.8956L66.0353 84.0476C66.3414 85.3232 66.3264 86.6548 65.9916 87.9232C65.795 88.4073 65.4395 88.8101 64.9836 89.0652C64.6399 89.2772 64.3685 89.5883 64.2049 89.9574C64.0413 90.3266 63.9933 90.7367 64.0671 91.1337C64.1386 91.5406 64.3328 91.9159 64.6235 92.2095C64.9143 92.503 65.2878 92.7008 65.694 92.7762L65.8683 92.8144C66.305 92.9216 66.697 93.1633 66.9888 93.5053C67.3384 93.9328 67.6082 94.4199 67.7852 94.943C68.0473 95.7 68.2433 96.4784 68.3709 97.2692L68.9277 100.421C69.0672 101.344 69.3621 102.236 69.8 103.059C70.1434 103.695 70.6487 104.229 71.2648 104.607C71.8932 104.976 72.6017 105.186 73.3296 105.221C74.1128 105.253 74.8971 105.197 75.6677 105.054L75.9632 105.002C83.7339 103.629 88.5446 101.226 90.9589 97.8448C92.194 98.5113 93.5535 99.1924 95.0538 99.8883L96.0261 100.338L96.7854 99.5824C101.648 94.7865 104.702 90.6482 106.181 86.9456C107.181 84.5966 107.483 82.0091 107.051 79.4929C106.752 77.5078 105.724 75.7054 104.167 74.4383C102.61 73.1711 100.636 72.5302 98.6315 72.6409ZM89.9027 93.6251L89.882 93.6288C82.765 89.1796 81.9743 85.7327 81.6289 83.8181C81.3967 82.5682 81.6492 81.2769 82.335 80.2065C83.0208 79.1361 84.0885 78.3671 85.321 78.0557C85.9702 77.9038 86.6434 77.885 87.3001 78.0003C87.9567 78.1156 88.5833 78.3626 89.1419 78.7266C89.6975 79.0885 90.1731 79.5605 90.5393 80.1134C90.9055 80.6662 91.1545 81.2883 91.2709 81.9411L91.2956 82.081C92.0942 85.9783 91.6054 90.0296 89.9027 93.6251Z" fill="#1E1F1E" fill-opacity="0.3"/>
<g filter="url(#filter2_d_935_3879)">
<path d="M254.72 23.7666H143.761C137.133 23.7666 131.761 29.1392 131.761 35.7666V146.726C131.761 153.353 137.133 158.726 143.761 158.726H254.72C261.347 158.726 266.72 153.353 266.72 146.726V35.7666C266.72 29.1392 261.347 23.7666 254.72 23.7666Z" fill="white"/>
</g>
<path d="M206.574 61.3494C205.102 61.4294 203.595 62.7764 202.498 65.1644C202.498 65.1644 194.216 78.1414 192.323 85.5544C188.207 94.1774 193.596 104.284 202.277 106.524C200.577 107.082 198.811 107.411 197.025 107.502C181.907 108.509 170.907 92.1944 177.39 78.6004C179.948 68.5904 191.135 51.0644 191.135 51.0644C193.935 44.9644 198.708 43.8954 201.413 49.9044L206.574 61.3494Z" fill="#A2D45E"/>
<path d="M151.734 114.422H147.575V122.966H155.962V118.249C155.963 115.476 154.667 114.422 151.734 114.422ZM149.997 120.901V116.487H151.706C152.945 116.487 153.543 117 153.543 118.452V120.901H149.997ZM156.539 114.422V116.487H161.167C160.872 116.763 160.644 117.103 160.498 117.48C160.353 117.857 160.294 118.263 160.327 118.666V122.966H162.748V118.58C162.748 117.199 163.232 116.487 164.471 116.487V114.422H156.539ZM165.687 114.422V116.487H169.175C170.741 116.487 171.354 117.213 171.354 119.036V122.966H173.775V119.036C173.775 115.818 172.365 114.422 169.175 114.422H165.687ZM165.758 118.537V122.966H168.175V118.224L165.758 118.537ZM179.458 114.422V119.622L181.875 119.249V114.422H179.458ZM190.425 120.901V118.549C190.425 115.73 189.215 114.249 186.452 114.249C185.248 114.256 184.068 114.585 183.034 115.203L183.834 116.997C184.504 116.584 185.268 116.349 186.055 116.313C187.308 116.313 188.006 117.224 188.006 118.72V120.899H183.306V122.964H191.394V120.901H190.425ZM191.997 114.422V119.622L194.418 119.252V114.425L191.997 114.422ZM198.411 114.28C197.372 114.266 196.354 114.569 195.492 115.149L196.261 116.844C196.815 116.5 197.447 116.304 198.098 116.274C198.411 116.261 198.723 116.316 199.013 116.435C199.303 116.555 199.563 116.736 199.776 116.967C199.988 117.197 200.149 117.471 200.245 117.769C200.341 118.068 200.372 118.383 200.334 118.695C200.372 119.006 200.341 119.321 200.245 119.62C200.149 119.918 199.988 120.192 199.776 120.422C199.563 120.653 199.303 120.834 199.013 120.954C198.723 121.073 198.411 121.129 198.098 121.116C197.445 121.081 196.811 120.891 196.247 120.561L195.492 122.241C196.354 122.82 197.372 123.123 198.411 123.11C198.998 123.15 199.586 123.062 200.136 122.854C200.686 122.645 201.184 122.32 201.597 121.901C202.009 121.482 202.326 120.978 202.526 120.425C202.726 119.872 202.803 119.282 202.754 118.696C202.804 118.109 202.726 117.519 202.527 116.966C202.327 116.412 202.01 115.908 201.598 115.489C201.185 115.069 200.687 114.744 200.137 114.535C199.586 114.327 198.998 114.239 198.411 114.28ZM210.621 118.552C210.621 115.59 208.898 114.309 206.648 114.309C205.414 114.304 204.202 114.623 203.131 115.235L203.931 116.958C204.634 116.548 205.425 116.314 206.238 116.274C207.548 116.274 208.289 117.143 208.289 118.652V122.967H210.624L210.621 118.552ZM217.377 114.294C216.741 114.292 216.117 114.474 215.582 114.817C215.047 115.161 214.621 115.652 214.358 116.231L213.817 114.423H211.439L213.034 119.079L211.934 122.966H214.326L215.351 119.166C215.921 117.044 216.618 116.432 217.487 116.432C218.413 116.432 219.139 117.201 219.139 118.653C219.139 120.704 218.285 121.472 216.476 120.675L215.949 122.64C219.181 123.893 221.417 122.256 221.417 118.653C221.421 116.088 219.811 114.294 217.375 114.294H217.377ZM226.83 114.422V116.487H232.73V119.049C232.73 120.701 232.33 121 231.52 121C231.147 120.994 230.777 120.936 230.42 120.829L230.149 122.823C230.702 122.992 231.279 123.074 231.858 123.065C233.51 123.065 235.058 122.31 235.058 119.277V114.421L226.83 114.422ZM229.237 118.01L226.902 118.295V125.102H229.237V118.01ZM236.39 122.966H240.475V116.9C240.475 115.205 239.791 114.422 237.997 114.422H236.618V116.487H237.245C237.9 116.487 238.057 116.758 238.057 117.569V120.901H236.39V122.966ZM248.913 120.901V118.549C248.913 115.73 247.703 114.249 244.94 114.249C243.736 114.256 242.556 114.585 241.522 115.203L242.322 116.997C242.992 116.584 243.756 116.349 244.543 116.313C245.796 116.313 246.494 117.224 246.494 118.72V120.899H241.794V122.964H249.882V120.901H248.913Z" fill="#C7007D"/>
<path d="M170.535 130.402H167.926V135.895H173.107V132.873C173.108 131.167 172.339 130.402 170.535 130.402ZM168.787 135.162V131.134H170.526C171.726 131.134 172.247 131.702 172.247 132.934V135.158L168.787 135.162ZM177.072 130.402H174.555V135.895H175.415V131.135H177.071C178.252 131.135 178.792 131.757 178.792 133.021V135.895H179.652V133.02C179.653 131.216 178.829 130.402 177.071 130.402H177.072ZM180.779 135.895H183.187V132.04C183.187 130.951 182.766 130.401 181.741 130.401H180.981V131.133H181.494C182.094 131.133 182.327 131.499 182.327 132.259V135.159H180.78L180.779 135.895ZM187.764 130.32C187.234 130.36 186.732 130.571 186.333 130.921C185.934 131.271 185.658 131.741 185.549 132.261L184.949 130.403H184.098L185.087 133.323L184.387 135.895H185.238L185.938 133.286C186.268 132.078 186.78 131.08 187.796 131.08C188.721 131.08 189.396 131.88 189.396 133.121C189.396 134.86 188.526 135.621 186.906 134.988L186.714 135.688C188.838 136.488 190.214 135.423 190.214 133.125C190.255 132.776 190.222 132.423 190.118 132.088C190.014 131.753 189.841 131.443 189.611 131.179C189.38 130.914 189.096 130.701 188.778 130.553C188.46 130.405 188.115 130.325 187.764 130.319V130.32ZM195.042 130.402H194.182V137.487H195.042V130.402ZM197.413 130.402H196.553V135.895H197.413V130.402ZM203.079 133.057C203.079 131.157 202.026 130.329 200.552 130.329C199.811 130.325 199.082 130.514 198.437 130.878L198.73 131.491C199.243 131.196 199.822 131.035 200.414 131.024C201.549 131.024 202.245 131.701 202.245 133.093V135.893H203.078L203.079 133.057ZM206.045 130.311C205.287 130.295 204.547 130.537 203.945 130.998L204.256 131.575C204.749 131.202 205.353 131.005 205.971 131.015C206.247 131.008 206.521 131.06 206.775 131.167C207.029 131.274 207.258 131.433 207.447 131.634C207.636 131.836 207.78 132.074 207.87 132.335C207.961 132.596 207.995 132.873 207.971 133.148C207.994 133.424 207.959 133.703 207.867 133.965C207.775 134.227 207.629 134.467 207.438 134.668C207.247 134.87 207.015 135.028 206.759 135.134C206.502 135.239 206.225 135.289 205.948 135.281C205.441 135.292 204.941 135.155 204.511 134.887L204.227 135.5C204.771 135.835 205.401 136.004 206.04 135.985C206.416 136.006 206.793 135.948 207.145 135.812C207.497 135.677 207.816 135.468 208.081 135.2C208.346 134.931 208.55 134.609 208.68 134.255C208.811 133.901 208.864 133.524 208.837 133.148C208.864 132.772 208.811 132.395 208.681 132.041C208.551 131.687 208.347 131.365 208.083 131.097C207.819 130.828 207.5 130.619 207.149 130.483C206.797 130.348 206.421 130.288 206.045 130.31V130.311ZM212.745 131.135V130.403H209.523V131.135H211.308C209.99 131.584 209.953 133.259 210.878 135.895H211.784C210.512 132.342 210.988 131.134 212.745 131.134V131.135ZM217.057 130.403V129.488H216.197V131.136H219.703L217.826 135.858V135.895H218.732L220.837 130.495V130.403H217.057ZM227.108 130.403V132.911C227.137 133.22 227.098 133.532 226.996 133.825C226.893 134.118 226.728 134.385 226.513 134.609C226.297 134.833 226.036 135.007 225.747 135.121C225.458 135.234 225.148 135.284 224.838 135.267C224.528 135.283 224.218 135.233 223.929 135.12C223.64 135.006 223.379 134.831 223.164 134.607C222.949 134.384 222.785 134.116 222.682 133.823C222.58 133.53 222.542 133.219 222.571 132.91V130.402H221.711V132.892C221.677 133.31 221.735 133.731 221.88 134.125C222.026 134.519 222.255 134.876 222.553 135.173C222.85 135.469 223.209 135.697 223.604 135.84C223.998 135.984 224.419 136.039 224.838 136.004C225.257 136.04 225.678 135.985 226.074 135.842C226.469 135.699 226.829 135.471 227.127 135.175C227.425 134.879 227.655 134.521 227.801 134.126C227.947 133.732 228.005 133.311 227.971 132.892V130.402L227.108 130.403ZM225.268 130.403H224.408V133.735L225.268 133.552V130.403Z" fill="#474747"/>
<defs>
<filter id="filter0_d_935_3879" x="223.211" y="14.8393" width="171.195" height="171.195" filterUnits="userSpaceOnUse" color-interpolation-filters="sRGB">
<feFlood flood-opacity="0" result="BackgroundImageFix"/>
<feColorMatrix in="SourceAlpha" type="matrix" values="0 0 0 0 0 0 0 0 0 0 0 0 0 0 0 0 0 0 127 0" result="hardAlpha"/>
<feOffset dy="4.97442"/>
<feGaussianBlur stdDeviation="13.9284"/>
<feColorMatrix type="matrix" values="0 0 0 0 0.796078 0 0 0 0 0 0 0 0 0 0.482353 0 0 0 0.161 0"/>
<feBlend mode="normal" in2="BackgroundImageFix" result="effect1_dropShadow_935_3879"/>
<feBlend mode="normal" in="SourceGraphic" in2="effect1_dropShadow_935_3879" result="shape"/>
</filter>
<filter id="filter1_d_935_3879" x="0.966957" y="14.7658" width="171.195" height="171.195" filterUnits="userSpaceOnUse" color-interpolation-filters="sRGB">
<feFlood flood-opacity="0" result="BackgroundImageFix"/>
<feColorMatrix in="SourceAlpha" type="matrix" values="0 0 0 0 0 0 0 0 0 0 0 0 0 0 0 0 0 0 127 0" result="hardAlpha"/>
<feOffset dy="4.97442"/>
<feGaussianBlur stdDeviation="13.9284"/>
<feColorMatrix type="matrix" values="0 0 0 0 0.796078 0 0 0 0 0 0 0 0 0 0.482353 0 0 0 0.161 0"/>
<feBlend mode="normal" in2="BackgroundImageFix" result="effect1_dropShadow_935_3879"/>
<feBlend mode="normal" in="SourceGraphic" in2="effect1_dropShadow_935_3879" result="shape"/>
</filter>
<filter id="filter2_d_935_3879" x="103.761" y="0.766602" width="190.959" height="190.959" filterUnits="userSpaceOnUse" color-interpolation-filters="sRGB">
<feFlood flood-opacity="0" result="BackgroundImageFix"/>
<feColorMatrix in="SourceAlpha" type="matrix" values="0 0 0 0 0 0 0 0 0 0 0 0 0 0 0 0 0 0 127 0" result="hardAlpha"/>
<feOffset dy="5"/>
<feGaussianBlur stdDeviation="14"/>
<feColorMatrix type="matrix" values="0 0 0 0 0.796078 0 0 0 0 0 0 0 0 0 0.482353 0 0 0 0.161 0"/>
<feBlend mode="normal" in2="BackgroundImageFix" result="effect1_dropShadow_935_3879"/>
<feBlend mode="normal" in="SourceGraphic" in2="effect1_dropShadow_935_3879" result="shape"/>
</filter>
</defs>
</svg>
