<svg xmlns="http://www.w3.org/2000/svg" width="37.597" height="37" viewBox="0 0 37.597 37"><defs><style>.a{opacity:0.85;}.b{fill:#c7007d;}.c{fill:#a2d45e;}.d,.e{fill:none;stroke-linecap:round;stroke-linejoin:round;stroke-width:2px;}.d{stroke:#c7007d;}.e{stroke:#fff;}</style></defs><g class="a" transform="translate(-6.752 -3.804)"><g transform="translate(6.752 4.804)"><path class="b" d="M7.177,4H36.42A3.986,3.986,0,0,1,40.6,7.761v26.33a3.986,3.986,0,0,1-4.177,3.761H7.177A3.986,3.986,0,0,1,3,34.092V7.761A3.986,3.986,0,0,1,7.177,4Z" transform="translate(-3 -1.853)"/><path class="c" d="M37.6,8.743H0V3.657A3.947,3.947,0,0,1,4.177,0H33.42A3.947,3.947,0,0,1,37.6,3.657V8.742Z" transform="translate(0 2.058)"/><path class="d" d="M16,2V7.759" transform="translate(12.959 -2)"/><path class="d" d="M8,2V7.759" transform="translate(0.638 -2)"/></g><rect class="e" width="6" height="6" transform="translate(30.5 22)"/></g></svg>