<svg xmlns="http://www.w3.org/2000/svg" xmlns:xlink="http://www.w3.org/1999/xlink" width="92.116" height="115.338" viewBox="0 0 92.116 115.338"><defs><style>.a{fill:url(#a);}.b{fill:#e066b0;}.c{fill:#e3eeff;}.d{fill:#fff;}.e{fill:#311e69;}.f{fill:#c7007d;}.g{mix-blend-mode:multiply;fill:url(#b);}.g,.h,.i,.j{isolation:isolate;}.h,.i,.j{mix-blend-mode:color-dodge;}.h{fill:url(#c);}.i{fill:url(#d);}.j{fill:url(#e);}</style><linearGradient id="a" x1="0.155" y1="1.107" x2="0.863" y2="-0.18" gradientUnits="objectBoundingBox"><stop offset="0" stop-color="#fbbae2"/><stop offset="0.128" stop-color="#fbc5e5"/><stop offset="0.422" stop-color="#fcd9eb"/><stop offset="0.714" stop-color="#fce5ee"/><stop offset="1" stop-color="#fdeaf0"/></linearGradient><linearGradient id="b" x1="-6.076" y1="4.081" x2="-3.267" y2="3.862" gradientUnits="objectBoundingBox"><stop offset="0" stop-color="#fff"/><stop offset="0.301" stop-color="#ebebeb"/><stop offset="0.723" stop-color="#d6d6d6"/><stop offset="1" stop-color="#cfcfcf"/></linearGradient><linearGradient id="c" x1="-52.156" y1="1.035" x2="-51.492" y2="2.063" gradientUnits="objectBoundingBox"><stop offset="0" stop-color="#4d4d4d"/><stop offset="1"/></linearGradient><linearGradient id="d" x1="0" y1="0.5" x2="1" y2="0.5" xlink:href="#c"/><linearGradient id="e" x1="0.697" y1="0.014" x2="0.415" y2="0.943" xlink:href="#c"/></defs><g transform="translate(-229.5 -273.102)"><path class="a" d="M321.616,378.409a15.741,15.741,0,0,1-15.741,15.742H245.243A15.742,15.742,0,0,1,229.5,378.409V317.776a15.742,15.742,0,0,1,15.743-15.741h60.633a15.741,15.741,0,0,1,15.741,15.741Z" transform="translate(0 -5.711)"/><g transform="translate(288.094 273.102) rotate(28)"><g transform="translate(0 0)"><path class="b" d="M.405,0,0,93.575a10.358,10.358,0,0,0,20.716.09L21.122.09Z" transform="translate(1.898 10.518)"/><path class="c" d="M.405,0,0,93.575a10.389,10.389,0,0,0,10.314,10.4h.045A10.389,10.389,0,0,0,20.717,93.664L21.122.09ZM19.018,93.657a8.69,8.69,0,0,1-8.66,8.623h-.038a8.689,8.689,0,0,1-8.623-8.7L2.1.9l17.32.075Z" transform="translate(1.898 10.518)"/><g transform="translate(2.147 38.783)"><path class="d" d="M20.657,15.046A56.551,56.551,0,0,1,0,15.046C0,10.053.034,4.992.034,0a56.731,56.731,0,0,0,20.69,0C20.724,4.992,20.657,10.053,20.657,15.046Z"/></g><path class="e" d="M0,1.9c1.234.513,4.58,1.639,10.588,1.891,5.551.232,8.738-.582,10.126-1.076L20.725.036,12.2,0H.009Z" transform="translate(2.295 10.572)"/><g transform="translate(5.166 57.498)"><path class="f" d="M14.18,45.512A7.09,7.09,0,0,1,0,45.451L.2,0l14.18.061Z" transform="translate(0 1.158)"/><path class="f" d="M14.18,1.219c0,.657-3.179,1.175-7.094,1.158S0,1.815,0,1.158,3.179-.017,7.1,0,14.183.563,14.18,1.219Z" transform="translate(0.197 0)"/></g><path class="g" d="M12.673,93.611,13.078.036,4.559,0,4.191,84.8A45.454,45.454,0,0,1,0,103.659a10.27,10.27,0,0,0,2.27.265A10.388,10.388,0,0,0,12.673,93.611Z" transform="translate(9.942 10.572)"/><path class="h" d="M.368,0S1.983.594,2.7.762A29.409,29.409,0,0,0,6.382,1.4L5.969,96.268S2.336,97.208.6,90.673a18.772,18.772,0,0,1-.6-4.9Z" transform="translate(3.194 13.406)"/><path class="f" d="M25.291,5.771,25.269,0,0,.092l.021,5.77A1.122,1.122,0,0,0,0,6.06C.01,8.068,5.681,9.676,12.669,9.65S25.318,7.976,25.31,5.967A1.053,1.053,0,0,0,25.291,5.771Z" transform="translate(0.019 3.591)"/><path class="f" d="M25.308,3.591c.008,2.009-5.652,3.658-12.641,3.683S.008,5.692,0,3.683,5.652.026,12.641,0,25.3,1.583,25.308,3.591Z"/><path class="i" d="M.978,4.591a1.432,1.432,0,0,1-.4-2.5C1.687,1.256,3.881.306,8.168.1,16.1-.266,18.857.4,19.752,1.288,20.533,2.064,5.954,6.276.978,4.591Z" transform="translate(1.305 0.516)"/></g><g transform="translate(6.034 18.184)"><ellipse class="j" cx="1.491" cy="1.491" rx="1.491" ry="1.491" transform="translate(6.71 44.733)"/><ellipse class="j" cx="1.491" cy="1.491" rx="1.491" ry="1.491" transform="translate(5.219 10.438)"/><ellipse class="j" cx="1.491" cy="1.491" rx="1.491" ry="1.491" transform="translate(1.491 64.117)"/><ellipse class="j" cx="1.118" cy="1.491" rx="1.118" ry="1.491" transform="translate(8.201 72.318)"/><ellipse class="j" cx="0.373" cy="0.746" rx="0.373" ry="0.746" transform="translate(9.692 57.407)"/><ellipse class="j" cx="0.746" cy="0.746" rx="0.746" ry="0.746" transform="translate(8.201 0)"/><ellipse class="j" cx="0.746" cy="0.746" rx="0.746" ry="0.746" transform="translate(0.746 47.715)"/><ellipse class="j" cx="0.373" cy="0.373" rx="0.373" ry="0.373" transform="translate(4.473 83.501)"/><ellipse class="j" cx="0.373" cy="0.373" rx="0.373" ry="0.373" transform="translate(11.183 65.608)"/><ellipse class="j" cx="0.373" cy="0.373" rx="0.373" ry="0.373" transform="translate(5.219 58.153)"/><ellipse class="j" cx="0.373" cy="0.373" rx="0.373" ry="0.373" transform="translate(0 59.644)"/><ellipse class="j" cx="0.373" cy="0.373" rx="0.373" ry="0.373" transform="translate(11.929 41.751)"/><ellipse class="j" cx="0.373" cy="0.373" rx="0.373" ry="0.373" transform="translate(10.438 16.402)"/></g></g></g></svg>