<svg xmlns="http://www.w3.org/2000/svg" xmlns:xlink="http://www.w3.org/1999/xlink" width="420.479" height="218.96" viewBox="0 0 420.479 218.96"><defs><style>.a{fill:none;}.b{fill:#c7007d;}.c{fill:#fff;}.d{clip-path:url(#c);}.e{fill:#a2d45e;}.f{clip-path:url(#f);}.g{isolation:isolate;}.h{fill:#474747;}.i{stroke:rgba(0,0,0,0);fill:url(#i);}.j{filter:url(#g);}.k{filter:url(#d);}.l{filter:url(#a);}</style><filter id="a" x="219.939" y="15.175" width="200.54" height="203.785" filterUnits="userSpaceOnUse"><feOffset dy="5" input="SourceAlpha"/><feGaussianBlur stdDeviation="14" result="b"/><feFlood flood-color="#cb007b" flood-opacity="0.161"/><feComposite operator="in" in2="b"/><feComposite in="SourceGraphic"/></filter><clipPath id="c"><rect class="a" width="52.42" height="56.164" transform="translate(0 -0.42)"/></clipPath><filter id="d" x="0" y="15.174" width="200.54" height="203.785" filterUnits="userSpaceOnUse"><feOffset dy="5" input="SourceAlpha"/><feGaussianBlur stdDeviation="14" result="e"/><feFlood flood-color="#cb007b" flood-opacity="0.161"/><feComposite operator="in" in2="e"/><feComposite in="SourceGraphic"/></filter><clipPath id="f"><path class="b" d="M94.344,100.294a7.86,7.86,0,0,1-6.471,4.044,7.77,7.77,0,0,1-.979,0,7.933,7.933,0,0,1-6.6-11.158c.989-3.863,5.3-10.628,5.3-10.628a4,4,0,0,1,1.313-1.7,1.456,1.456,0,0,1,1.369-.192,2.579,2.579,0,0,1,1.282,1.449l4.251,9.42a10.961,10.961,0,0,1,1.512,4.529A7.808,7.808,0,0,1,94.344,100.294Z" transform="translate(-79.564 -80.568)"/></clipPath><filter id="g" x="100.76" y="0" width="218.959" height="218.959" filterUnits="userSpaceOnUse"><feOffset dy="5" input="SourceAlpha"/><feGaussianBlur stdDeviation="14" result="h"/><feFlood flood-color="#cb007b" flood-opacity="0.161"/><feComposite operator="in" in2="h"/><feComposite in="SourceGraphic"/></filter><linearGradient id="i" x1="0.105" y1="0.937" x2="1.099" y2="-0.161" gradientUnits="objectBoundingBox"><stop offset="0" stop-color="#32ba46"/><stop offset="1" stop-color="#30e341"/></linearGradient></defs><g transform="translate(784.24 11440.479)"><g transform="matrix(0.985, 0.174, -0.174, 0.985, -1591.48, -16.337)"><g class="l" transform="matrix(0.98, -0.17, 0.17, 0.98, -1188.8, -11390.76)"><rect class="c" width="100" height="104" rx="12" transform="matrix(0.98, 0.17, -0.17, 0.98, 280, 52.17)"/></g><g class="d" transform="translate(-882.174 -11364.564)"><path class="b" d="M-2891.72,114.888l.922-1.022-.831-.76-.591.654a.59.59,0,0,0-.132.215.361.361,0,0,0-.008.195.46.46,0,0,0,.094.186,1.415,1.415,0,0,0,.177.187Zm-.047-2.116a.142.142,0,0,1,.228-.012l1.074.982a.146.146,0,0,1,.012.234l-1.128,1.249a.146.146,0,0,1-.233.012l-.454-.417a2.207,2.207,0,0,1-.283-.311.823.823,0,0,1-.145-.31.622.622,0,0,1,.02-.319.974.974,0,0,1,.214-.342Zm-1.605.906a.063.063,0,0,1-.044.016.051.051,0,0,1-.042-.017l-.616-.67a1.3,1.3,0,0,1-.155-.208.528.528,0,0,1-.072-.218.464.464,0,0,1,.044-.234.823.823,0,0,1,.2-.252l.97-.9a.051.051,0,0,1,.082,0l.139.151a.062.062,0,0,1,.018.041.054.054,0,0,1-.022.043l-.9.843a1.421,1.421,0,0,0-.124.127.3.3,0,0,0-.064.117.17.17,0,0,0,.016.122.637.637,0,0,0,.11.153l.622.667a.062.062,0,0,1,.014.042.064.064,0,0,1-.02.045Zm1.14-1.551a.053.053,0,0,1,.084,0l.136.149a.052.052,0,0,1,0,.085l-.72.67a.054.054,0,0,1-.086,0l-.137-.151a.053.053,0,0,1,0-.084Zm-2.017-1.07a.05.05,0,0,1,.046-.01.07.07,0,0,1,.037.022l.121.164a.068.068,0,0,1,.015.047.055.055,0,0,1-.021.042l-.841.631a.056.056,0,0,1-.046.011.064.064,0,0,1-.044-.026l-.122-.163a.061.061,0,0,1-.008-.044.058.058,0,0,1,.024-.042Zm-.666-2.456a.053.053,0,0,1,.049-.008.077.077,0,0,1,.037.031l.109.164a.07.07,0,0,1,.013.047.054.054,0,0,1-.027.042l-1.11.747a.289.289,0,0,0-.15.192.4.4,0,0,0,.084.239l.359.541,1.27-.854a.14.14,0,0,1,.22.042l.254.383a.052.052,0,0,1-.017.081l-.166.111a.05.05,0,0,1-.08-.016l-.162-.244-1.141.767.122.183a.053.053,0,0,1-.019.082l-.162.109a.062.062,0,0,1-.045.011.046.046,0,0,1-.039-.024l-.73-1.1a.5.5,0,0,1-.09-.41.594.594,0,0,1,.261-.337Zm-.416-.714a.05.05,0,0,1,.049,0,.061.061,0,0,1,.03.03l.094.179a.078.078,0,0,1,.008.049.049.049,0,0,1-.031.039l-1.667.881a.059.059,0,0,1-.047,0,.059.059,0,0,1-.038-.033l-.1-.179a.053.053,0,0,1,0-.045.062.062,0,0,1,.027-.039Zm-.964-2.024a.053.053,0,0,1,.047,0,.071.071,0,0,1,.032.033l.083.183a.075.075,0,0,1,.007.048.056.056,0,0,1-.034.034l-1.12.521c-.061.029-.114.056-.158.082a.271.271,0,0,0-.1.089.2.2,0,0,0-.021.124.626.626,0,0,0,.058.179l.321.7,1.479-.686a.052.052,0,0,1,.048,0,.067.067,0,0,1,.03.029l.086.186a.08.08,0,0,1,0,.049.056.056,0,0,1-.033.036l-1.71.793a.046.046,0,0,1-.048,0,.051.051,0,0,1-.036-.033l-.43-.935a1.228,1.228,0,0,1-.083-.246.561.561,0,0,1,0-.234.453.453,0,0,1,.114-.212.79.79,0,0,1,.26-.179Zm-1.27-.859a.058.058,0,0,1,.05,0,.068.068,0,0,1,.032.04l.149.441a.207.207,0,0,1,.013.119.121.121,0,0,1-.043.073.217.217,0,0,1-.076.045c-.028.012-.06.022-.09.033l-.765.265a.061.061,0,0,1-.044,0,.053.053,0,0,1-.033-.035l-.282-.835a.74.74,0,0,1-.017-.52.63.63,0,0,1,.414-.322l.531-.182a1.852,1.852,0,0,1,.358-.087.577.577,0,0,1,.27.028.459.459,0,0,1,.2.164,1.158,1.158,0,0,1,.156.319l.259.771c.014.041,0,.069-.035.082l-.189.064q-.054.018-.076-.044l-.25-.741a.775.775,0,0,0-.1-.2.246.246,0,0,0-.116-.1.281.281,0,0,0-.156-.009,1.8,1.8,0,0,0-.22.062l-.462.158c-.07.024-.126.046-.175.069a.25.25,0,0,0-.1.082.193.193,0,0,0-.029.124.75.75,0,0,0,.044.2l.19.564.478-.162-.107-.319a.057.057,0,0,1,.036-.082Zm-.882-3.4a1.451,1.451,0,0,1,.448-.047.69.69,0,0,1,.331.11.719.719,0,0,1,.233.266,1.7,1.7,0,0,1,.156.426,2.166,2.166,0,0,1,.068.47.859.859,0,0,1-.065.366.669.669,0,0,1-.219.266,1.133,1.133,0,0,1-.4.17l-1.076.265a.058.058,0,0,1-.046-.01.064.064,0,0,1-.029-.042l-.048-.19a.059.059,0,0,1,.009-.047.056.056,0,0,1,.037-.03l1.059-.26a.807.807,0,0,0,.3-.131.4.4,0,0,0,.136-.2.625.625,0,0,0,.017-.256,2.141,2.141,0,0,0-.056-.306,1.489,1.489,0,0,0-.088-.271.463.463,0,0,0-.141-.188.484.484,0,0,0-.228-.085,1,1,0,0,0-.344.036l-1,.246a.083.083,0,0,1-.045,0,.045.045,0,0,1-.029-.034l-.051-.208a.049.049,0,0,1,.01-.044.09.09,0,0,1,.039-.023Zm.4.817a.053.053,0,0,1,.046.009.057.057,0,0,1,.025.035l.049.2a.06.06,0,0,1-.006.046.057.057,0,0,1-.038.025l-1.21.3a.06.06,0,0,1-.046-.006.057.057,0,0,1-.03-.038l-.047-.2a.057.057,0,0,1,.01-.044.056.056,0,0,1,.037-.03Zm-.074-3.354a.377.377,0,0,1,.242.042.2.2,0,0,1,.1.171l.061.743a.069.069,0,0,1-.012.045.053.053,0,0,1-.042.023l-.2.016a.059.059,0,0,1-.046-.013.072.072,0,0,1-.018-.043l-.046-.56c0-.05-.018-.078-.044-.085a.516.516,0,0,0-.131,0l-.879.074a.52.52,0,0,0-.167.036.194.194,0,0,0-.089.076.242.242,0,0,0-.032.111.839.839,0,0,0,0,.141l.023.293a1.051,1.051,0,0,0,.016.11.241.241,0,0,0,.044.086.219.219,0,0,0,.079.06.425.425,0,0,0,.134.032l1.412.127a.04.04,0,0,1,.034.028c0,.016.005.031.008.047l.019.246a.029.029,0,0,1-.024.034.109.109,0,0,1-.052,0l-1.172-.137-.576.434a.061.061,0,0,1-.044.015.053.053,0,0,1-.037-.018l-.123-.194a.064.064,0,0,1,.008-.088l.411-.281-.167-.049a.4.4,0,0,1-.212-.138.483.483,0,0,1-.079-.25l-.04-.489a.549.549,0,0,1,.018-.2.421.421,0,0,1,.083-.168.457.457,0,0,1,.153-.123.623.623,0,0,1,.219-.059Zm-.606-1.79a.049.049,0,0,1,.043.021.055.055,0,0,1,.015.04v.2a.066.066,0,0,1-.017.046.05.05,0,0,1-.042.02l-1.05,0a.062.062,0,0,1-.044-.021.07.07,0,0,1-.019-.046v-.2a.053.053,0,0,1,.02-.04.056.056,0,0,1,.042-.021Zm.849-1.367a.142.142,0,0,1,.142.178l-.082.744c0,.04-.026.057-.066.052l-.2-.021c-.039,0-.055-.025-.052-.066l.064-.581-1.151-.127a.542.542,0,0,0-.082,0,.2.2,0,0,0-.07.016.1.1,0,0,0-.052.048.247.247,0,0,0-.028.1l-.031.287a.059.059,0,0,1-.02.04.06.06,0,0,1-.046.013l-.2-.02a.065.065,0,0,1-.04-.023.058.058,0,0,1-.015-.044l.035-.328a.453.453,0,0,1,.161-.346.544.544,0,0,1,.378-.067Zm-1.748-.643a.074.074,0,0,1-.041-.022.056.056,0,0,1-.012-.046l.089-.613a1.163,1.163,0,0,1,.066-.262.529.529,0,0,1,.128-.2.455.455,0,0,1,.209-.115.774.774,0,0,1,.318-.007l1.049.153.027-.194a.047.047,0,0,1,.025-.04.051.051,0,0,1,.042-.011l.2.028a.054.054,0,0,1,.049.069l-.213,1.477a.052.052,0,0,1-.067.05l-.2-.029a.065.065,0,0,1-.037-.022.058.058,0,0,1-.013-.047l.14-.963-.966-.141a.487.487,0,0,0-.308.032.367.367,0,0,0-.137.281l-.079.6a.055.055,0,0,1-.025.042.068.068,0,0,1-.047.007Zm2.223-1.982a.051.051,0,0,1,.039.027.071.071,0,0,1,.009.043l-.042.2a.075.075,0,0,1-.023.043.054.054,0,0,1-.049.01l-1.847-.369a.068.068,0,0,1-.038-.029.054.054,0,0,1-.01-.05l.039-.2a.064.064,0,0,1,.028-.037.062.062,0,0,1,.046-.01Zm1.109-1.512a.054.054,0,0,1,.034.032.073.073,0,0,1,0,.042l-.061.2a.077.077,0,0,1-.028.041.044.044,0,0,1-.044.005l-2.445-.762a.063.063,0,0,1-.034-.034.056.056,0,0,1-.005-.049l.06-.2a.055.055,0,0,1,.031-.033.067.067,0,0,1,.047-.006Zm-.434-2.661a1.282,1.282,0,0,1,.343.218.571.571,0,0,1,.165.256.639.639,0,0,1,.01.311,2.2,2.2,0,0,1-.119.381,2.206,2.206,0,0,1-.184.35.7.7,0,0,1-.224.223.561.561,0,0,1-.3.076,1.063,1.063,0,0,1-.394-.1l-1.122-.462a.064.064,0,0,1-.033-.031.049.049,0,0,1,0-.047l.076-.189a.056.056,0,0,1,.033-.031.055.055,0,0,1,.048,0l1.127.465a.707.707,0,0,0,.242.061.3.3,0,0,0,.177-.044.451.451,0,0,0,.135-.149,1.925,1.925,0,0,0,.12-.249,1.558,1.558,0,0,0,.086-.268.445.445,0,0,0,0-.2.306.306,0,0,0-.1-.152.856.856,0,0,0-.216-.122l-.885-.364-.122.3.3.5a.057.057,0,0,1-.021.086l-.168.1a.055.055,0,0,1-.048.01.066.066,0,0,1-.037-.034l-.338-.558a.327.327,0,0,1-.024-.071.139.139,0,0,1,.01-.079l.215-.528a.142.142,0,0,1,.212-.083Zm1.389-1.32a.052.052,0,0,1,.024.08l-.1.18a.061.061,0,0,1-.032.03.057.057,0,0,1-.047-.007l-1.176-.636a.3.3,0,0,0-.238-.046.358.358,0,0,0-.165.176l-.343.642a.052.052,0,0,1-.08.024l-.172-.094a.063.063,0,0,1-.03-.034.05.05,0,0,1,0-.048l.39-.732a.484.484,0,0,1,.32-.273.591.591,0,0,1,.415.075Zm-.966-1.584.794.525a.415.415,0,0,0,.376.095l0,0a.905.905,0,0,0,.29-.325.89.89,0,0,0,.178-.394.311.311,0,0,0-.059-.153.64.64,0,0,0-.174-.157l-.791-.527Zm1.581-.682a1.027,1.027,0,0,1,.272.259.575.575,0,0,1,.1.28,1.135,1.135,0,0,1-.229.613,1.121,1.121,0,0,1-.468.456.678.678,0,0,1-.639-.132l-.927-.612a.142.142,0,0,1-.052-.222l.786-1.209a.144.144,0,0,1,.228-.046Zm.965-1.583a.044.044,0,0,1,.021.042.059.059,0,0,1-.013.041l-.129.159a.074.074,0,0,1-.04.026.049.049,0,0,1-.046-.012l-.812-.668a.058.058,0,0,1-.02-.042.06.06,0,0,1,.014-.05l.128-.158a.054.054,0,0,1,.041-.017.057.057,0,0,1,.045.011Zm1.392-1.37a1.146,1.146,0,0,1,.191.245.713.713,0,0,1,.1.268.607.607,0,0,1-.022.273.654.654,0,0,1-.163.263l-.227.234a.067.067,0,0,1-.042.021.054.054,0,0,1-.045-.018l-.141-.139a.052.052,0,0,1-.019-.042.065.065,0,0,1,.02-.044l.21-.217a.366.366,0,0,0,.108-.181.305.305,0,0,0-.007-.167.482.482,0,0,0-.079-.146,1.349,1.349,0,0,0-.107-.121l-.628-.615-.7.725a.144.144,0,0,1-.232,0l-.556-.546a.049.049,0,0,1-.018-.044.069.069,0,0,1,.022-.044l.136-.142a.07.07,0,0,1,.042-.022.053.053,0,0,1,.044.018l.441.433.705-.729a.142.142,0,0,1,.227,0Zm1.119-.049a.051.051,0,0,1,.017.046.075.075,0,0,1-.019.037l-.15.139a.071.071,0,0,1-.044.022.057.057,0,0,1-.044-.019l-1.278-1.393a.062.062,0,0,1-.014-.046.061.061,0,0,1,.021-.046l.149-.138a.049.049,0,0,1,.042-.013.058.058,0,0,1,.043.018Zm1.7-1.44a.052.052,0,0,1,.014.045.061.061,0,0,1-.023.041l-.153.128a.074.074,0,0,1-.045.018.069.069,0,0,1-.042-.024l-.788-.954a1.375,1.375,0,0,0-.121-.133.254.254,0,0,0-.109-.069.2.2,0,0,0-.125.008.633.633,0,0,0-.156.1l-.589.492,1.041,1.26a.048.048,0,0,1,.014.046.065.065,0,0,1-.021.039l-.156.131a.074.074,0,0,1-.045.018.051.051,0,0,1-.043-.023l-1.2-1.457a.061.061,0,0,1-.013-.045.059.059,0,0,1,.023-.045l.787-.659a1.166,1.166,0,0,1,.212-.145.556.556,0,0,1,.226-.062.437.437,0,0,1,.233.056.768.768,0,0,1,.238.206Zm.614-2.377.722,1.173.954-.594-.461-.751a.582.582,0,0,0-.168-.187.371.371,0,0,0-.184-.062.452.452,0,0,0-.2.041,1.588,1.588,0,0,0-.226.117Zm2.036.538a.145.145,0,0,1-.052.224l-1.235.769a.143.143,0,0,1-.225-.053l-.882-1.435a.147.147,0,0,1,.053-.229l.523-.325a2.023,2.023,0,0,1,.374-.187.8.8,0,0,1,.337-.055.6.6,0,0,1,.3.107.982.982,0,0,1,.267.3Zm.444-.989a.048.048,0,0,1,0,.046.055.055,0,0,1-.029.032l-.183.088a.068.068,0,0,1-.048.007.048.048,0,0,1-.036-.03l-.456-.952a.055.055,0,0,1,0-.048.065.065,0,0,1,.033-.038l.183-.087a.047.047,0,0,1,.044,0,.053.053,0,0,1,.035.03Zm1.452-1.565c.015.041.006.069-.032.085l-.2.085.629,1.512a.052.052,0,0,1-.032.078l-.187.079a.051.051,0,0,1-.075-.033l-.631-1.512-.845.356a.051.051,0,0,1-.076-.033l-.076-.18a.072.072,0,0,1,0-.047.051.051,0,0,1,.031-.035l1.344-.566a.055.055,0,0,1,.045,0,.048.048,0,0,1,.028.026Zm2.108.308a1.131,1.131,0,0,1,.055.307.728.728,0,0,1-.04.281.622.622,0,0,1-.146.233.689.689,0,0,1-.267.154l-.31.1a.058.058,0,0,1-.048,0,.06.06,0,0,1-.03-.037l-.06-.19a.053.053,0,0,1,0-.047.077.077,0,0,1,.04-.029l.288-.093a.367.367,0,0,0,.179-.108.339.339,0,0,0,.071-.151.537.537,0,0,0,0-.167,1.327,1.327,0,0,0-.04-.158l-.267-.84-.959.309a.146.146,0,0,1-.207-.106l-.238-.746a.055.055,0,0,1,.006-.047.075.075,0,0,1,.041-.03l.186-.06a.072.072,0,0,1,.047,0,.059.059,0,0,1,.031.037l.186.59.963-.31a.142.142,0,0,1,.2.111Zm.807-.276a.051.051,0,0,1-.008.047.055.055,0,0,1-.034.025l-.2.052a.065.065,0,0,1-.048,0,.051.051,0,0,1-.03-.037l-.266-1.021a.055.055,0,0,1,.007-.046.064.064,0,0,1,.039-.031l.2-.052a.053.053,0,0,1,.044.008.063.063,0,0,1,.03.037Zm.311-1.195a.078.078,0,0,1,.009-.044.048.048,0,0,1,.041-.026l.608-.094a1.136,1.136,0,0,1,.269-.013.523.523,0,0,1,.225.064.468.468,0,0,1,.171.169.836.836,0,0,1,.1.3l.159,1.053.192-.03a.06.06,0,0,1,.047.011.061.061,0,0,1,.021.038l.03.2a.053.053,0,0,1-.05.069l-1.464.226a.051.051,0,0,1-.067-.05l-.032-.2a.06.06,0,0,1,.009-.041.054.054,0,0,1,.04-.025l.957-.149-.148-.971a.489.489,0,0,0-.121-.287.359.359,0,0,0-.307-.05l-.59.1a.066.066,0,0,1-.047-.011.075.075,0,0,1-.021-.043Zm2.965-.369a.059.059,0,0,1,.016-.044.052.052,0,0,1,.039-.022l.905-.06a1.218,1.218,0,0,1,.258.01.556.556,0,0,1,.215.081.461.461,0,0,1,.153.182.808.808,0,0,1,.073.311l.087,1.327c0,.041-.016.062-.054.065l-.2.012a.057.057,0,0,1-.044-.011.057.057,0,0,1-.018-.044l-.081-1.237a1.577,1.577,0,0,0-.021-.18.3.3,0,0,0-.05-.121.19.19,0,0,0-.106-.065.626.626,0,0,0-.188-.01l-.905.067a.064.064,0,0,1-.042-.016.059.059,0,0,1-.021-.044Zm.48,1.869a.053.053,0,0,1-.054.064l-.2.012a.053.053,0,0,1-.064-.055l-.062-.985a.054.054,0,0,1,.055-.065l.2-.013a.053.053,0,0,1,.063.056Zm3.136-.7a1.808,1.808,0,0,1-.048.367.6.6,0,0,1-.122.245.475.475,0,0,1-.227.133,1.158,1.158,0,0,1-.353.032l-.617-.024c-.041,0-.062-.023-.058-.063l.007-.2c0-.039.023-.057.065-.054l.584.022a.8.8,0,0,0,.223-.014.245.245,0,0,0,.133-.075.279.279,0,0,0,.063-.143,1.806,1.806,0,0,0,.022-.225l.019-.5q0-.108,0-.186a.279.279,0,0,0-.039-.125.2.2,0,0,0-.106-.071.689.689,0,0,0-.2-.027l-.684-.029a.05.05,0,0,1-.042-.019.079.079,0,0,1-.011-.046l.008-.2a.078.078,0,0,1,.016-.043.047.047,0,0,1,.044-.019l.7.029a.688.688,0,0,1,.487.178.654.654,0,0,1,.151.51Zm.857.014a.055.055,0,0,1-.026.04.057.057,0,0,1-.041.011l-.2-.026a.069.069,0,0,1-.044-.022.05.05,0,0,1-.014-.044l.133-1.048a.061.061,0,0,1,.025-.04.064.064,0,0,1,.048-.013l.2.026a.05.05,0,0,1,.038.024.062.062,0,0,1,.015.045Zm2.257,1.013a.381.381,0,0,1-.1.225.2.2,0,0,1-.187.048l-.73-.133a.071.071,0,0,1-.042-.022.059.059,0,0,1-.01-.048l.035-.2a.055.055,0,0,1,.026-.04.068.068,0,0,1,.047-.007l.549.1c.048.009.079,0,.093-.023a.489.489,0,0,0,.036-.126l.158-.872a.543.543,0,0,0,.008-.172.2.2,0,0,0-.049-.108.223.223,0,0,0-.1-.06,1.088,1.088,0,0,0-.135-.033l-.288-.052a.616.616,0,0,0-.109-.012.2.2,0,0,0-.094.017.226.226,0,0,0-.079.063.4.4,0,0,0-.065.122l-.488,1.34c-.009.017-.019.026-.035.025a.192.192,0,0,1-.048-.006l-.242-.043a.03.03,0,0,1-.025-.034.106.106,0,0,1,.012-.051l.434-1.1-.268-.671a.065.065,0,0,1,0-.048.057.057,0,0,1,.025-.032l.219-.069a.061.061,0,0,1,.082.032l.164.473.091-.152a.406.406,0,0,1,.187-.17.476.476,0,0,1,.259-.011l.48.086a.556.556,0,0,1,.185.068.435.435,0,0,1,.14.125.455.455,0,0,1,.076.18.517.517,0,0,1,0,.227Zm2.176.974a.057.057,0,0,1-.031.037.078.078,0,0,1-.049,0l-.187-.061a.072.072,0,0,1-.039-.03.056.056,0,0,1-.006-.049l.419-1.277a.28.28,0,0,0,0-.244.378.378,0,0,0-.211-.137l-.615-.2-.48,1.462a.14.14,0,0,1-.2.1l-.434-.144a.052.052,0,0,1-.035-.076l.062-.189a.051.051,0,0,1,.073-.038l.277.091.43-1.311-.208-.069a.052.052,0,0,1-.035-.075l.061-.188a.069.069,0,0,1,.027-.035.051.051,0,0,1,.047-.005l1.246.414a.489.489,0,0,1,.322.268.6.6,0,0,1,0,.426Zm.719.316a.054.054,0,0,1-.033.036.074.074,0,0,1-.043,0l-.189-.074a.083.083,0,0,1-.039-.032.06.06,0,0,1,0-.049l.684-1.768a.066.066,0,0,1,.033-.034.074.074,0,0,1,.05,0l.188.073a.052.052,0,0,1,.03.033.063.063,0,0,1,0,.049Z" transform="translate(2904.53 -75.057)"/><path class="b" d="M-2838.184,79.724a.059.059,0,0,1,.024-.038.033.033,0,0,1,.039,0l.192.108a.046.046,0,0,1,.028.036.119.119,0,0,1,0,.049l-.439,1.63.147.084a.4.4,0,0,0,.2.06.308.308,0,0,0,.158-.051.48.48,0,0,0,.122-.113,1.251,1.251,0,0,0,.088-.137l.554-1a.061.061,0,0,1,.035-.032.055.055,0,0,1,.047.005l.177.1a.063.063,0,0,1,.026.035.058.058,0,0,1,0,.049l-.558,1a1.1,1.1,0,0,1-.188.249.743.743,0,0,1-.233.161.6.6,0,0,1-.269.051.654.654,0,0,1-.291-.09l-.808-.456a.051.051,0,0,1-.022-.08l.1-.174a.051.051,0,0,1,.079-.023l.357.2Zm1.168,2.885a.05.05,0,0,1-.042.027.062.062,0,0,1-.04-.008l-.172-.108a.067.067,0,0,1-.03-.038.053.053,0,0,1,.006-.05l1.005-1.6a.057.057,0,0,1,.04-.026.058.058,0,0,1,.05.008l.17.108a.057.057,0,0,1,.024.04.059.059,0,0,1-.006.046Zm1.138-.217a.048.048,0,0,1-.041.022.054.054,0,0,1-.041-.011l-.166-.117a.073.073,0,0,1-.029-.04.053.053,0,0,1,.009-.047l.606-.861a.052.052,0,0,1,.04-.023.061.061,0,0,1,.051.01l.166.117a.055.055,0,0,1,.021.04.068.068,0,0,1-.008.045Zm1.174-.093-.589.751c-.116.149-.16.271-.126.368v0a.913.913,0,0,0,.295.319.9.9,0,0,0,.375.212.287.287,0,0,0,.156-.046.6.6,0,0,0,.17-.161l.591-.747Zm.536,1.644a1,1,0,0,1-.28.251.556.556,0,0,1-.287.076,1.1,1.1,0,0,1-.585-.283,1.093,1.093,0,0,1-.411-.509.688.688,0,0,1,.185-.629l.688-.877a.141.141,0,0,1,.224-.033l1.125.894a.147.147,0,0,1,.027.233Zm1.429,1.269a1.183,1.183,0,0,1-.239.2.734.734,0,0,1-.264.1.619.619,0,0,1-.274-.019.661.661,0,0,1-.263-.16l-.236-.225a.061.061,0,0,1-.022-.041.053.053,0,0,1,.017-.046l.135-.144a.049.049,0,0,1,.043-.019.061.061,0,0,1,.043.019l.22.209a.367.367,0,0,0,.181.105.313.313,0,0,0,.165-.01.446.446,0,0,0,.144-.081c.045-.038.084-.074.12-.111l.6-.643-.731-.695a.146.146,0,0,1-.009-.233l.534-.57a.053.053,0,0,1,.044-.019.071.071,0,0,1,.044.022l.143.136a.06.06,0,0,1,.023.041.061.061,0,0,1-.017.044l-.423.452.737.7a.143.143,0,0,1,0,.227Zm2.282,1.293c-.035.027-.066.025-.089-.007l-.115-.148a.372.372,0,0,0-.252.019.615.615,0,0,0-.229.179l-.783.835a.037.037,0,0,1-.043.016.079.079,0,0,1-.041-.026l-.124-.16a.08.08,0,0,1-.015-.047.059.059,0,0,1,.025-.04l.721-.745a1.367,1.367,0,0,1,.1-.1.9.9,0,0,1,.131-.093.779.779,0,0,1,.15-.065.535.535,0,0,1,.165-.019l-.226-.294a.055.055,0,0,1-.014-.045.061.061,0,0,1,.023-.04l.156-.121a.059.059,0,0,1,.045-.013.055.055,0,0,1,.041.024l.533.693a.049.049,0,0,1,.011.044.072.072,0,0,1-.018.035Zm.226,2.02a1.773,1.773,0,0,1-.321.183.553.553,0,0,1-.269.048.455.455,0,0,1-.241-.1,1.235,1.235,0,0,1-.237-.265l-.353-.511a.055.055,0,0,1,.014-.086l.165-.113c.03-.023.059-.017.082.018l.332.484a.975.975,0,0,0,.147.172.244.244,0,0,0,.139.061.281.281,0,0,0,.151-.036,1.659,1.659,0,0,0,.19-.118l.413-.288a1.411,1.411,0,0,0,.146-.112.229.229,0,0,0,.076-.106.2.2,0,0,0-.007-.127.762.762,0,0,0-.1-.176l-.39-.567a.048.048,0,0,1-.01-.046.072.072,0,0,1,.029-.038l.163-.114a.087.087,0,0,1,.043-.014.049.049,0,0,1,.041.025l.4.585a.717.717,0,0,1,.152.5.654.654,0,0,1-.315.429Zm.26,1.966a.053.053,0,0,1-.082-.023l-.1-.179a.058.058,0,0,1-.006-.043.058.058,0,0,1,.031-.038l1.171-.646a.3.3,0,0,0,.168-.174.359.359,0,0,0-.058-.236l-.347-.639a.054.054,0,0,1,.024-.081l.171-.094a.067.067,0,0,1,.045-.007.047.047,0,0,1,.037.027l.4.73a.5.5,0,0,1,.056.419.6.6,0,0,1-.29.308Zm1.2,2.055a.388.388,0,0,1-.244.034.207.207,0,0,1-.144-.131l-.285-.688a.07.07,0,0,1,0-.048.057.057,0,0,1,.035-.035l.183-.077a.053.053,0,0,1,.047,0,.058.058,0,0,1,.029.037l.217.517c.02.045.042.068.07.067a.44.44,0,0,0,.124-.039l.812-.342a.512.512,0,0,0,.15-.087.2.2,0,0,0,.062-.1.279.279,0,0,0,0-.116,1.147,1.147,0,0,0-.047-.132l-.114-.271a.561.561,0,0,0-.049-.1.224.224,0,0,0-.066-.069.229.229,0,0,0-.094-.031.4.4,0,0,0-.138.011l-1.384.317a.034.034,0,0,1-.039-.014.357.357,0,0,1-.022-.043l-.095-.229a.03.03,0,0,1,.013-.038.1.1,0,0,1,.051-.019l1.156-.234.413-.592a.071.071,0,0,1,.039-.027.045.045,0,0,1,.04,0l.178.146a.064.064,0,0,1,.019.087l-.306.4.176-.006a.392.392,0,0,1,.244.063.479.479,0,0,1,.151.214l.188.452a.558.558,0,0,1,.045.194.436.436,0,0,1-.028.184.469.469,0,0,1-.108.164.586.586,0,0,1-.189.123Zm1.671-.072a.065.065,0,0,1,.048,0,.056.056,0,0,1,.031.032l.277.871a1.138,1.138,0,0,1,.052.252.515.515,0,0,1-.025.231.46.46,0,0,1-.137.194.8.8,0,0,1-.284.145l-1.259.407a.053.053,0,0,1-.075-.035l-.061-.2a.054.054,0,0,1,0-.045.058.058,0,0,1,.036-.03l1.174-.379a1.372,1.372,0,0,0,.168-.063.268.268,0,0,0,.1-.078.177.177,0,0,0,.038-.118.639.639,0,0,0-.036-.186l-.282-.868a.052.052,0,0,1,0-.044.06.06,0,0,1,.038-.032Zm-1.684.921a.052.052,0,0,1-.075-.038l-.061-.194a.054.054,0,0,1,.038-.077l.933-.3a.056.056,0,0,1,.077.04l.061.194a.055.055,0,0,1-.039.077Z" transform="translate(2875.727 -77.248)"/><path class="b" d="M-2838.253,112.961l6.509,19.869c.677,2.083.791,3.661-2.8,4.173,3.582-.01,5.424-.019,9-.029,2.555-.008,2.985-1.1,1.894-3.3l-4.563-9.205c-1.169-2.359-1.312-2.749.156-4.946l3.141-4.7c1.376-2.061.517-3.323-1.783-3.324l-10-.005c-1.4,0-2.061-.084-1.555,1.471" transform="translate(2875.371 -92.239)"/><path class="e" d="M-2865.582,93.693l-4.483,8.466-7.849,0c-1.952,0-2.623,1.124-1.489,3l4.431,7.313-5.626,10.612c-.6,1.05-.331,2.342,1.082,2.342h7.617l5.893-13.982c.717-1.848,3.373-.6,2.387,1.394l-3.719,9.562c-1.223,2.165-.519,3.331,1.783,3.331l8.529,0c2.187,0,1.988-1.153,1.271-3.392l-5.913-18.419a1.486,1.486,0,0,1,2.195-1.648c.829.611-.227-1.23-.451-1.8l-2.743-6.968c-.675-1.717-2.04-1.487-2.917.177" transform="translate(2895.538 -83.211)"/><path class="b" d="M-2906.755,163.734v3.611h3.226V165.3a2.55,2.55,0,0,0-.115-.853.882.882,0,0,0-.364-.468,1.513,1.513,0,0,0-.635-.19c-.257-.026-.573-.043-.939-.055Zm5.246,4.9a.526.526,0,0,1-.587.6h-6.086a.528.528,0,0,1-.592-.6v-6.19a.531.531,0,0,1,.592-.609h3.251a7.024,7.024,0,0,1,1.486.142,2.613,2.613,0,0,1,1.077.482,2.082,2.082,0,0,1,.651.92,4.182,4.182,0,0,1,.217,1.454Z" transform="translate(2908.773 -115.965)"/><path class="b" d="M-2886.311,169.012a.211.211,0,0,1-.065.166.232.232,0,0,1-.152.055h-1.583a.194.194,0,0,1-.218-.222V164.8c0-.152,0-.289-.014-.42a.667.667,0,0,0-.114-.341.636.636,0,0,0-.333-.226,2.114,2.114,0,0,0-.648-.077h-2.042v5.277a.214.214,0,0,1-.064.166.226.226,0,0,1-.156.055h-1.57a.253.253,0,0,1-.165-.055.209.209,0,0,1-.063-.166v-6.948a.228.228,0,0,1,.063-.159.215.215,0,0,1,.165-.073h4.517a4.541,4.541,0,0,1,.946.1,1.9,1.9,0,0,1,.779.356,1.772,1.772,0,0,1,.526.7,2.979,2.979,0,0,1,.19,1.145Z" transform="translate(2901.521 -115.965)"/><path class="b" d="M-2875.017,168.643a.525.525,0,0,1-.6.59h-3.176c-.156,0-.233-.073-.233-.222v-1.433a.239.239,0,0,1,.067-.176.214.214,0,0,1,.166-.071h1.763v-3.1a.535.535,0,0,0-.11-.4.726.726,0,0,0-.451-.1h-.766a.222.222,0,0,1-.169-.065.206.206,0,0,1-.064-.15v-1.456a.237.237,0,0,1,.064-.158.209.209,0,0,1,.169-.074h1.63a1.663,1.663,0,0,1,1.326.453,2.073,2.073,0,0,1,.381,1.361Z" transform="translate(2894.648 -115.965)"/><path class="b" d="M-2862.773,167.969a1.446,1.446,0,0,1-.227.878.766.766,0,0,1-.651.3h-2.835c-.134,0-.2-.072-.2-.22v-1.423a.3.3,0,0,1,.049-.175.181.181,0,0,1,.151-.07h1.327c.188,0,.3-.044.328-.134a1.719,1.719,0,0,0,.045-.466v-1.97c0-.263,0-.466-.01-.609a.422.422,0,0,0-.128-.308.663.663,0,0,0-.365-.108c-.166-.011-.407-.014-.724-.014a.872.872,0,0,0-.711.244,1.872,1.872,0,0,0-.335.7l-1.184,4.433c-.016.068-.049.1-.1.113a.991.991,0,0,1-.177.013h-1.658a.12.12,0,0,1-.13-.1.374.374,0,0,1,0-.193l1.046-3.416-1.644-2.5a.408.408,0,0,1-.067-.28.3.3,0,0,1,.1-.223l.791-.657a.529.529,0,0,1,.369-.12.331.331,0,0,1,.306.163l.833,1.411.214-.527a1.571,1.571,0,0,1,.556-.732,1.715,1.715,0,0,1,.94-.221h2.255a2.052,2.052,0,0,1,.717.123,1.634,1.634,0,0,1,.576.361,1.725,1.725,0,0,1,.4.6,2.165,2.165,0,0,1,.146.821Z" transform="translate(2890.829 -115.881)"/><path class="b" d="M-2848.409,171.5a.189.189,0,0,1-.064.15.221.221,0,0,1-.154.056h-1.57a.255.255,0,0,1-.165-.056.191.191,0,0,1-.064-.15v-9.44a.23.23,0,0,1,.064-.159.216.216,0,0,1,.165-.073h1.57a.191.191,0,0,1,.154.073.228.228,0,0,1,.064.159Z" transform="translate(2881.072 -115.965)"/><path class="b" d="M-2843.183,169.012a.215.215,0,0,1-.063.166.23.23,0,0,1-.156.055h-1.569a.259.259,0,0,1-.167-.055.214.214,0,0,1-.064-.166v-6.948a.236.236,0,0,1,.064-.159.219.219,0,0,1,.167-.073h1.569a.2.2,0,0,1,.156.073.236.236,0,0,1,.063.159Z" transform="translate(2878.59 -115.965)"/><path class="b" d="M-2834.942,169.012a.226.226,0,0,1-.062.166.252.252,0,0,1-.168.055h-1.566a.193.193,0,0,1-.215-.222v-4.533a1.061,1.061,0,0,0-.116-.577c-.078-.112-.253-.167-.528-.167h-2.679a.2.2,0,0,1-.157-.065.205.205,0,0,1-.059-.149v-1.457a.239.239,0,0,1,.059-.159.192.192,0,0,1,.157-.073h3.421a2.072,2.072,0,0,1,1.429.433,1.734,1.734,0,0,1,.484,1.356Z" transform="translate(2876.354 -115.965)"/><path class="b" d="M-2823.111,166.278a5.678,5.678,0,0,1-.14,1.356,2.094,2.094,0,0,1-.46.912,1.832,1.832,0,0,1-.851.519,4.385,4.385,0,0,1-1.3.167h-2.374a.193.193,0,0,1-.217-.22v-1.423a.267.267,0,0,1,.055-.176.2.2,0,0,1,.162-.07h1.552c.341,0,.613-.008.82-.025a.9.9,0,0,0,.473-.145.615.615,0,0,0,.215-.394,4.53,4.53,0,0,0,.049-.771v-.8a5.74,5.74,0,0,0-.036-.7.935.935,0,0,0-.173-.456.763.763,0,0,0-.394-.25,2.656,2.656,0,0,0-.724-.077h-1.912a.225.225,0,0,1-.153-.059.19.19,0,0,1-.065-.156v-1.457a.225.225,0,0,1,.065-.159.2.2,0,0,1,.153-.073h2.691a2.821,2.821,0,0,1,1.879.581,2.293,2.293,0,0,1,.687,1.847Z" transform="translate(2870.702 -115.965)"/><path class="b" d="M-2813.052,163.464a.384.384,0,0,1-.04.2c-.026.048-.085.072-.176.072h-.691a1.362,1.362,0,0,0-.477.8,2.679,2.679,0,0,0-.023,1.032l.642,3.442a.175.175,0,0,1-.053.166.248.248,0,0,1-.164.055h-1.594a.194.194,0,0,1-.219-.222l-.535-3.064a3.327,3.327,0,0,1-.062-.533,3.261,3.261,0,0,1,.03-.586,2.528,2.528,0,0,1,.159-.58,1.789,1.789,0,0,1,.321-.513h-1.141a.2.2,0,0,1-.156-.065.211.211,0,0,1-.056-.149v-1.457a.239.239,0,0,1,.056-.164.191.191,0,0,1,.156-.067h3.808a.175.175,0,0,1,.142.067.292.292,0,0,1,.073.127Z" transform="translate(2865.337 -115.965)"/></g></g><g transform="matrix(0.985, -0.174, 0.174, 0.985, 2388.476, -359.292)"><g class="k" transform="matrix(0.98, 0.17, -0.17, 0.98, -1200.29, -11463.78)"><rect class="c" width="100" height="104" rx="12" transform="matrix(0.98, -0.17, 0.17, 0.98, 42, 69.54)"/></g><g transform="translate(-1155.836 -11364.913) rotate(-1)"><g transform="translate(18.474)"><path class="e" d="M72.855,65.627c-.974.053-1.971.944-2.7,2.525,0,0-5.481,8.588-6.734,13.494a10.088,10.088,0,0,0,6.587,13.878,13.358,13.358,0,0,1-3.476.647c-10.008.666-17.287-10.131-12.994-19.126,1.693-6.625,9.1-18.223,9.1-18.223,1.851-4.037,5.012-4.744,6.8-.768Z" transform="translate(-52.283 -55.408)"/><g class="f" transform="translate(14.96 13.816)"><path class="b" d="M15.531-3949.8c2.331-1.792,1.864-2.571,4.525-1.561s3.623,1.949,5.565,1.561,2.723-.639,3.86,1.282,2.755.124,4.174,1.178,1.365,2.377,1.31,4.75,0,27.924,0,27.924H10.729l.34-35.133A3.581,3.581,0,0,0,15.531-3949.8Z" transform="translate(-14.506 3949.787)"/></g></g><g transform="translate(0 45.229)"><g class="g"><path class="b" d="M-83.648-14.685H-86.4V-9.03h5.551V-12.15C-80.849-13.987-81.706-14.685-83.648-14.685ZM-84.8-10.4v-2.921h1.131c.82,0,1.216.339,1.216,1.3V-10.4Zm4.33-4.288v1.366H-77.4a1.781,1.781,0,0,0-.556,1.442V-9.03h1.6v-2.9c0-.914.32-1.385,1.14-1.385v-1.366Zm6.054,0v1.366H-72.1c1.037,0,1.442.481,1.442,1.687v2.6h1.6v-2.6c0-2.13-.933-3.053-3.044-3.053Zm.047,2.724V-9.03h1.6v-3.138Zm9.064-2.724v3.44l1.6-.245v-3.195Zm7.261,4.288v-1.555c0-1.866-.8-2.846-2.629-2.846a4.467,4.467,0,0,0-2.262.631l.528,1.187a3.072,3.072,0,0,1,1.47-.452c.829,0,1.291.6,1.291,1.593V-10.4h-3.11V-9.03H-57.4V-10.4ZM-57-14.685v3.44l1.6-.245v-3.195Zm4.245-.094a3.381,3.381,0,0,0-1.932.575l.509,1.121a2.534,2.534,0,0,1,1.216-.377,1.431,1.431,0,0,1,1.48,1.6,1.431,1.431,0,0,1-1.48,1.6,2.709,2.709,0,0,1-1.225-.368l-.5,1.112a3.381,3.381,0,0,0,1.932.575,2.7,2.7,0,0,0,2.874-2.921A2.7,2.7,0,0,0-52.756-14.779Zm8.08,2.827A2.48,2.48,0,0,0-47.3-14.76a4.654,4.654,0,0,0-2.328.613l.528,1.14a3.368,3.368,0,0,1,1.527-.452c.867,0,1.357.575,1.357,1.574V-9.03h1.546ZM-40.2-14.77a2.19,2.19,0,0,0-2,1.282l-.358-1.2h-1.574l1.056,3.082L-43.8-9.03h1.583l.679-2.516c.377-1.4.839-1.809,1.414-1.809.613,0,1.093.509,1.093,1.47,0,1.357-.565,1.866-1.762,1.338l-.349,1.3c2.139.829,3.619-.254,3.619-2.639A2.646,2.646,0,0,0-40.2-14.77Zm6.256.085v1.366h3.9v1.7c0,1.093-.264,1.291-.8,1.291a2.653,2.653,0,0,1-.726-.113l-.179,1.319a3.647,3.647,0,0,0,1.131.16c1.093,0,2.12-.5,2.12-2.507v-3.214Zm1.593,2.375-1.546.188v4.5h1.546Zm4.735,3.28h2.7v-4.015c0-1.121-.452-1.64-1.64-1.64h-.914v1.366h.415c.434,0,.537.179.537.716V-10.4h-1.1Zm8.288-1.366v-1.555c0-1.866-.8-2.846-2.629-2.846a4.467,4.467,0,0,0-2.262.631l.528,1.187a3.072,3.072,0,0,1,1.47-.452c.829,0,1.291.6,1.291,1.593V-10.4h-3.11V-9.03h5.353V-10.4Z" transform="translate(86.399 14.798)"/></g><g class="g" transform="translate(13.468 10.083)"><path class="h" d="M-49.118-10.275h-1.727V-6.64h3.429v-2C-47.416-9.766-47.924-10.275-49.118-10.275Zm-1.157,3.15V-9.79h1.151c.794,0,1.139.376,1.139,1.193v1.472Zm5.483-3.15h-1.666V-6.64h.569V-9.79h1.1c.782,0,1.139.412,1.139,1.248v1.9h.569v-1.9C-43.084-9.736-43.629-10.275-44.792-10.275Zm2.454,3.635h1.593V-9.191c0-.721-.279-1.084-.957-1.084h-.5v.485h.339c.4,0,.551.242.551.745v1.92h-1.024Zm4.623-3.69a1.624,1.624,0,0,0-1.466,1.284l-.394-1.23h-.563l.654,1.933-.466,1.7h.563l.466-1.727c.218-.8.557-1.46,1.23-1.46.612,0,1.06.527,1.06,1.351,0,1.151-.576,1.654-1.648,1.236l-.127.46c1.406.527,2.314-.176,2.314-1.7A1.663,1.663,0,0,0-37.716-10.33Zm4.816.055h-.569v4.689h.569Zm1.569,0H-31.9V-6.64h.569Zm3.75,1.757a1.574,1.574,0,0,0-1.672-1.805,2.823,2.823,0,0,0-1.4.364l.194.406a2.329,2.329,0,0,1,1.115-.309c.751,0,1.212.448,1.212,1.369V-6.64h.551Zm1.963-1.818A2.215,2.215,0,0,0-27-9.881l.206.382a1.84,1.84,0,0,1,1.133-.37,1.3,1.3,0,0,1,1.327,1.412,1.3,1.3,0,0,1-1.339,1.412,1.724,1.724,0,0,1-.951-.261l-.188.406a2.16,2.16,0,0,0,1.2.321A1.754,1.754,0,0,0-23.77-8.457,1.754,1.754,0,0,0-25.618-10.336Zm4.435.545v-.485h-2.133v.485h1.181c-.872.3-.9,1.406-.285,3.15h.6C-22.661-8.991-22.346-9.79-21.183-9.79Zm2.853-.485v-.606H-18.9V-9.79h2.32L-17.82-6.664v.024h.6l1.393-3.574v-.061Zm6.652,0v1.66a1.429,1.429,0,0,1-1.5,1.563,1.429,1.429,0,0,1-1.5-1.563v-1.66h-.569v1.648a1.913,1.913,0,0,0,2.072,2.06,1.913,1.913,0,0,0,2.072-2.06v-1.648Zm-1.218,0h-.569V-8.07l.569-.121Z" transform="translate(50.845 10.881)"/></g></g></g></g><g transform="translate(409.521 -1.479)"><g class="j" transform="matrix(1, 0, 0, 1, -1193.76, -11439)"><rect class="c" width="134.959" height="134.959" rx="12" transform="translate(142.76 37)"/></g></g><g transform="translate(-618.185 -11380.19)"><path class="c" d="M12.813,65.725,9.526,80.6l19.56-5.764Z"/><circle class="c" cx="40" cy="40" r="40" transform="translate(3.945 3.56)"/><path class="i" d="M319.812,436.292a43.753,43.753,0,0,1-21.918-5.9l-17.121,5.9,3.518-18.132a43.437,43.437,0,0,1-8.424-25.813,43.945,43.945,0,1,1,43.945,43.946ZM298.684,423.2l1.324.83a37.464,37.464,0,1,0-9.655-8.695l.917,1.174-1.923,9.907Z" transform="translate(-275.867 -348.402)"/><path class="i" d="M347.683,429.757s2.578-4.507,4.679-4.764,4.809-.259,5.538,1.115,3.992,9.359,3.992,9.359a3.14,3.14,0,0,1-.3,2.7,26.717,26.717,0,0,1-2.788,3.263,2.385,2.385,0,0,0,0,2.833,51.677,51.677,0,0,0,6.182,7.584c3.438,3.441,10.043,5.9,10.043,5.9a2.013,2.013,0,0,0,1.546-.474c.6-.6,3.863-4.678,3.863-4.678a2.293,2.293,0,0,1,2.791-.557c1.737.794,9.271,4.549,9.271,4.549a1.632,1.632,0,0,1,.88,1.652c0,1.331-.538,4.587-1.64,5.688s-4.321,4.495-9.156,4.495-16.357-3.937-22.495-10.073-11.59-12.365-12.877-18.031S346.095,432.091,347.683,429.757Z" transform="translate(-325.923 -402.696)"/></g></g></svg>