<svg xmlns="http://www.w3.org/2000/svg" xmlns:xlink="http://www.w3.org/1999/xlink" width="218.959" height="218.959" viewBox="0 0 218.959 218.959"><defs><style>.a{fill:#fff;}.b{fill:#a2d45e;}.c{fill:#c7007d;}.d{fill:#7e7e7e;}.e{fill:#474747;}.f{mix-blend-mode:color-dodge;isolation:isolate;fill:url(#e);}.g{filter:url(#k);}.h{filter:url(#i);}.i{filter:url(#c);}.j{filter:url(#a);}</style><filter id="a" x="0" y="0" width="218.959" height="218.959" filterUnits="userSpaceOnUse"><feOffset dy="5" input="SourceAlpha"/><feGaussianBlur stdDeviation="14" result="b"/><feFlood flood-color="#cb007b" flood-opacity="0.161"/><feComposite operator="in" in2="b"/><feComposite in="SourceGraphic"/></filter><filter id="c" x="76.187" y="80.9" width="105.593" height="105.593" filterUnits="userSpaceOnUse"><feOffset dy="3" input="SourceAlpha"/><feGaussianBlur stdDeviation="3" result="d"/><feFlood flood-opacity="0.161"/><feComposite operator="in" in2="d"/><feComposite in="SourceGraphic"/></filter><linearGradient id="e" x1="0.697" y1="0.014" x2="0.415" y2="0.943" gradientUnits="objectBoundingBox"><stop offset="0" stop-color="#4d4d4d"/><stop offset="1"/></linearGradient><filter id="i" x="147.749" y="128.411" width="36.176" height="26.416" filterUnits="userSpaceOnUse"><feOffset dy="3" input="SourceAlpha"/><feGaussianBlur stdDeviation="3" result="j"/><feFlood flood-opacity="0.161"/><feComposite operator="in" in2="j"/><feComposite in="SourceGraphic"/></filter><filter id="k" x="152.977" y="115.963" width="64.346" height="61.71" filterUnits="userSpaceOnUse"><feOffset dy="3" input="SourceAlpha"/><feGaussianBlur stdDeviation="3" result="l"/><feFlood flood-opacity="0.161"/><feComposite operator="in" in2="l"/><feComposite in="SourceGraphic"/></filter></defs><g transform="translate(344 11455)"><g transform="translate(339.24 -14.435)"><g transform="translate(409.521 -1.479)"><g class="j" transform="matrix(1, 0, 0, 1, -1092.76, -11439.09)"><rect class="a" width="134.959" height="134.959" rx="12" transform="translate(42 37)"/></g><g transform="translate(-1053.675 -11391.086)"><g transform="translate(27.914)"><path class="b" d="M109.177,83.671c-2.695.146-4.984,2.613-7.46,6.982,0,0-15.159,23.752-18.623,37.32-7.533,15.783,2.331,34.281,18.218,38.381a36.944,36.944,0,0,1-9.613,1.79c-27.677,1.843-47.809-28.018-35.937-52.9,7.92-17.917,25.158-50.4,25.158-50.4C86.037,53.685,94.78,51.729,99.73,62.727Z" transform="translate(-52.283 -55.408)"/><path class="c" d="M120.439,135.122a21.739,21.739,0,0,1-17.9,11.184,21.49,21.49,0,0,1-2.708.01c-14.708-.916-24.768-17.181-18.246-30.86,2.736-10.684,14.671-29.392,14.671-29.392,1.147-1.772,2.012-3.5,3.63-4.713a4.027,4.027,0,0,1,3.787-.531c1.321.511,2.56,1.821,3.546,4.007l11.756,26.053c1.873,3.964,4.1,7.792,4.183,12.527A21.592,21.592,0,0,1,120.439,135.122Z" transform="translate(-38.191 -42.359)"/></g></g></g></g><g transform="translate(0 1)"><g transform="translate(-69.728 -11110.374) rotate(-52)"><g transform="translate(48.716 -279.518)"><g transform="translate(0)"><g transform="translate(0 1.504)"><g class="i" transform="matrix(0.62, 0.79, -0.79, 0.62, 54.78, -150.9)"><path class="d" d="M50.42-234.939A31.236,31.236,0,0,1,67-275.832a31.236,31.236,0,0,1,40.893,16.577,31.237,31.237,0,0,1-16.577,40.893A31.237,31.237,0,0,1,50.42-234.939Zm3.555-1.5a27.372,27.372,0,0,0,35.834,14.526,27.372,27.372,0,0,0,14.527-35.834A27.373,27.373,0,0,0,68.5-272.277,27.372,27.372,0,0,0,53.975-236.443Z" transform="translate(274.97 345.2) rotate(-52)"/></g></g><g transform="translate(5.102 41.947)"><path class="c" d="M0,4.359Z" transform="matrix(0.878, -0.478, 0.478, 0.878, 0, 0)"/></g><g transform="translate(3.555)"><path class="e" d="M54.642-236.726a31.237,31.237,0,0,1,16.577-40.893,31.237,31.237,0,0,1,40.893,16.577,31.236,31.236,0,0,1-16.577,40.893A31.237,31.237,0,0,1,54.642-236.726Zm3.555-1.5A27.373,27.373,0,0,0,94.032-223.7a27.373,27.373,0,0,0,14.526-35.834,27.373,27.373,0,0,0-35.834-14.527A27.374,27.374,0,0,0,58.2-238.229Z" transform="translate(-52.176 280.085)"/></g></g><g transform="matrix(-0.951, -0.309, 0.309, -0.951, 46.284, 59.342)"><path class="c" d="M2.04.665A10.378,10.378,0,0,1,6.068,0c6.054.12,6.7,3.771,4.256,7.2-1.9,2.659-2.178,3.752-5.725,3.942C2.3,11.269-2.852,1.523,2.04.665Z" transform="translate(23.658 20.845)"/><path class="c" d="M5.53,2.257S4.795-1.2,1.934.443-.69,8.638,3.153,7.87,5.53,2.257,5.53,2.257Z" transform="translate(23.154 7.136)"/><path class="c" d="M3.011.992S1.975-.911.582.555.472,5.828,2.6,4.7,3.011.992,3.011.992Z" transform="translate(34.822 12.002)"/><path class="c" d="M3.011.992S1.975-.911.582.555.472,5.827,2.6,4.7,3.011.992,3.011.992Z" transform="translate(31.155 21.303)"/><path class="c" d="M4.056.282A2.713,2.713,0,0,0,.107,2.439c-.753,3.59,2.637,7.9,4.817,6.533S7.976,3.384,4.056.282Z" transform="translate(15.52 31.959)"/><path class="c" d="M4.078,2.094S4.17-.4,1.4.056s-.819,5.593.786,4.791A3.409,3.409,0,0,0,4.078,2.094Z" transform="translate(28.937 10.73)"/><path class="c" d="M16.377.21C10.81-2.018-2.805,13.947.515,26.8a33.431,33.431,0,0,0,4.11,9.6C8.379,42.312,26.967,4.447,16.377.21Z" transform="translate(0 0)"/><g transform="translate(4.125 2.111)"><path class="f" d="M9.332,0C14.486,0,19,2.691,19,6.831s-4.516,8.16-9.67,8.16S0,11.635,0,7.5,4.178,0,9.332,0Z" transform="matrix(0.788, -0.616, 0.616, 0.788, 0, 11.699)"/><path class="f" d="M6.25,0a6.277,6.277,0,0,1,6.476,6.351c0,3.849-3.024,7.587-6.476,7.587S0,10.818,0,6.969,2.8,0,6.25,0Z" transform="matrix(0.966, -0.259, 0.259, 0.966, 13.67, 26.806)"/><path class="f" d="M3.375,0a3.389,3.389,0,0,1,3.5,3.429c0,2.078-1.633,4.1-3.5,4.1A3.584,3.584,0,0,1,0,3.763,3.584,3.584,0,0,1,3.375,0Z" transform="matrix(0.966, -0.259, 0.259, 0.966, 3.517, 23.697)"/></g></g></g><g transform="translate(50.514 -277.095)"><path class="f" d="M20.558,0c11.354,0,21.3,8.23,21.3,20.889s-9.948,24.954-21.3,24.954S0,35.581,0,22.922,9.2,0,20.558,0Z" transform="translate(42.252 3.108) rotate(61)"/></g></g><g class="h" transform="matrix(1, 0, 0, 1, -344, -11456)"><rect class="e" width="3.934" height="17.764" transform="translate(174.93 139.03) rotate(105.07)"/></g><g class="g" transform="matrix(1, 0, 0, 1, -344, -11456)"><path class="e" d="M103.7-202.158h0a7.061,7.061,0,0,0-3.893,9.165l10.354,25.648a7.063,7.063,0,0,0,9.166,3.893h0a7.062,7.062,0,0,0,3.893-9.165l-.533-1.319-9.822-24.329A7.062,7.062,0,0,0,103.7-202.158Z" transform="translate(260.55 344.24) rotate(-52)"/></g></g></g></svg>