<svg xmlns="http://www.w3.org/2000/svg" xmlns:xlink="http://www.w3.org/1999/xlink" width="118.731" height="104.264" viewBox="0 0 118.731 104.264"><defs><style>.a{fill:url(#a);}.b{fill:#c2e07b;}.c{fill:#7bbc48;}.d{fill:#fff;}.e{fill:#f6f6f6;mix-blend-mode:multiply;isolation:isolate;}.f{fill:none;stroke:#c7007d;stroke-linecap:round;stroke-width:3px;}.g{fill:#a2d45e;}</style><linearGradient id="a" x1="0.155" y1="1.107" x2="0.863" y2="-0.18" gradientUnits="objectBoundingBox"><stop offset="0" stop-color="#fbbae2"/><stop offset="0.128" stop-color="#fbc5e5"/><stop offset="0.422" stop-color="#fcd9eb"/><stop offset="0.714" stop-color="#fce5ee"/><stop offset="1" stop-color="#fdeaf0"/></linearGradient></defs><g transform="translate(-213.886 -333.771)"><path class="a" d="M321.616,378.409a15.741,15.741,0,0,1-15.741,15.742H245.243A15.742,15.742,0,0,1,229.5,378.409V317.776a15.742,15.742,0,0,1,15.743-15.741h60.633a15.741,15.741,0,0,1,15.741,15.741Z" transform="translate(11 31.736)"/><g transform="translate(213.886 352.548)"><rect class="b" width="100.178" height="56.747" transform="translate(0.235 28.624)"/><path class="c" d="M264.6,55.856l50.316,28.613L264.6,112.926l-50.012-28.4Z" transform="translate(-214.585 -55.856)"/><rect class="d" width="67.971" height="27.147" transform="translate(16.213 7.52)"/><path class="d" d="M230.8,93.735v-18.5l20.46-11.73h26.781l20.73,11.789V93.6L264.6,112.928Z" transform="translate(-214.798 -55.856)"/><path class="e" d="M0,0H31.948L9.26,35.6.069,30.373Z" transform="translate(16.213 7.52)"/><g transform="translate(9.5 1.787)"><line class="f" x1="16" y2="16" transform="translate(32.5 20.723)"/><line class="f" x2="16" y2="16" transform="translate(32.5 20.723)"/></g><path class="g" d="M264.761,112.672l50.315,28.613-100.326.058Z" transform="translate(-214.585 -55.856)"/></g></g></svg>