<svg xmlns="http://www.w3.org/2000/svg" xmlns:xlink="http://www.w3.org/1999/xlink" width="118.731" height="104.264" viewBox="0 0 118.731 104.264"><defs><style>.a{fill:url(#a);}.b{fill:#c2e07b;}.c{fill:#7bbc48;}.d{fill:#fff;}.e{fill:#f6f6f6;mix-blend-mode:multiply;isolation:isolate;}.f{fill:#a2d45e;}.g{fill:#c7007d;}</style><linearGradient id="a" x1="0.155" y1="1.107" x2="0.863" y2="-0.18" gradientUnits="objectBoundingBox"><stop offset="0" stop-color="#fbbae2"/><stop offset="0.128" stop-color="#fbc5e5"/><stop offset="0.422" stop-color="#fcd9eb"/><stop offset="0.714" stop-color="#fce5ee"/><stop offset="1" stop-color="#fdeaf0"/></linearGradient></defs><g transform="translate(-213.886 -333.771)"><path class="a" d="M321.616,378.409a15.741,15.741,0,0,1-15.741,15.742H245.243A15.742,15.742,0,0,1,229.5,378.409V317.776a15.742,15.742,0,0,1,15.743-15.741h60.633a15.741,15.741,0,0,1,15.741,15.741Z" transform="translate(11 31.736)"/><g transform="translate(213.886 352.548)"><rect class="b" width="100.178" height="56.747" transform="translate(0.235 28.624)"/><path class="c" d="M264.6,55.856l50.316,28.613L264.6,112.926l-50.012-28.4Z" transform="translate(-214.585 -55.856)"/><rect class="d" width="67.971" height="27.147" transform="translate(16.213 7.52)"/><path class="d" d="M230.8,93.735v-18.5l20.46-11.73h26.781l20.73,11.789V93.6L264.6,112.928Z" transform="translate(-214.585 -55.856)"/><path class="e" d="M0,0H31.948L9.26,35.6.069,30.373Z" transform="translate(16.213 7.52)"/><path class="f" d="M264.761,112.672l50.315,28.613-100.326.058Z" transform="translate(-214.585 -55.856)"/><g transform="translate(29.462 23.062)"><path class="g" d="M254.649,93.006a.687.687,0,0,1-.307-.613.73.73,0,0,1,.136-.409c0-.023.068-.1.2-.239l2.445-2.248-3.338-.376-.272-.066a.61.61,0,0,1-.409-.376.711.711,0,0,1-.1-.376.628.628,0,0,1,.035-.2l.613-1.806a.61.61,0,0,1,.376-.409.71.71,0,0,1,.376-.1.546.546,0,0,1,.175.035l.272.136,2.929,1.67-.681-3.3-.035-.272a.736.736,0,0,1,.222-.512.7.7,0,0,1,.524-.239h1.874a.7.7,0,0,1,.524.239.744.744,0,0,1,.222.512l-.035.272-.681,3.3,2.969-1.67.272-.136a.373.373,0,0,1,.175-.035.929.929,0,0,1,.494.136.506.506,0,0,1,.255.376l.613,1.806.035.2a.788.788,0,0,1-.154.459.7.7,0,0,1-.391.29l-.239.068-3.373.376,2.487,2.248c.136.136.2.217.2.239a.73.73,0,0,1,.136.409.687.687,0,0,1-.307.613l-1.5,1.125a.979.979,0,0,1-.444.1.666.666,0,0,1-.613-.272.1.1,0,0,0-.035-.068.763.763,0,0,1-.1-.175l-1.43-3.1-1.43,3.1a.765.765,0,0,1-.1.175.1.1,0,0,0-.035.068.668.668,0,0,1-.613.272.979.979,0,0,1-.444-.1Zm15.2,0a.687.687,0,0,1-.307-.613.729.729,0,0,1,.136-.409c0-.023.068-.1.2-.239l2.445-2.248-3.338-.376-.272-.068a.61.61,0,0,1-.409-.376.712.712,0,0,1-.1-.376.628.628,0,0,1,.035-.2l.613-1.806a.6.6,0,0,1,.388-.405.709.709,0,0,1,.375-.1.545.545,0,0,1,.175.035l.272.136,2.929,1.67-.681-3.3-.035-.272a.736.736,0,0,1,.222-.512.7.7,0,0,1,.524-.239h1.874a.7.7,0,0,1,.524.239.744.744,0,0,1,.222.512l-.033.272-.681,3.3,2.969-1.67.272-.136a.373.373,0,0,1,.175-.035.929.929,0,0,1,.494.136.506.506,0,0,1,.255.376L279.7,88.1l.035.2a.789.789,0,0,1-.154.459.7.7,0,0,1-.391.29l-.239.068-3.373.376,2.487,2.248c.136.136.2.217.2.239a.731.731,0,0,1,.136.409.687.687,0,0,1-.307.613l-1.5,1.125a.979.979,0,0,1-.444.1.666.666,0,0,1-.613-.272.1.1,0,0,0-.033-.068.762.762,0,0,1-.1-.175l-1.43-3.1-1.43,3.1a.767.767,0,0,1-.1.175.1.1,0,0,0-.035.068.668.668,0,0,1-.613.272.979.979,0,0,1-.444-.1Zm15.2,0a.687.687,0,0,1-.307-.613.73.73,0,0,1,.136-.409c0-.023.068-.1.2-.239l2.445-2.248-3.338-.376-.272-.068a.61.61,0,0,1-.409-.376.711.711,0,0,1-.1-.376.628.628,0,0,1,.035-.2l.613-1.806a.61.61,0,0,1,.375-.409.709.709,0,0,1,.375-.1.545.545,0,0,1,.175.035l.272.136,2.929,1.67-.681-3.3-.035-.272a.736.736,0,0,1,.222-.512.7.7,0,0,1,.524-.239h1.874a.7.7,0,0,1,.524.239.743.743,0,0,1,.222.512l-.035.272-.681,3.3,2.969-1.67.272-.136a.373.373,0,0,1,.175-.035.929.929,0,0,1,.494.136.506.506,0,0,1,.255.376l.613,1.806.035.2a.789.789,0,0,1-.154.459.7.7,0,0,1-.391.29l-.239.068-3.373.376,2.487,2.248c.136.136.2.217.2.239a.729.729,0,0,1,.136.409.687.687,0,0,1-.307.613l-1.5,1.125a.979.979,0,0,1-.444.1.667.667,0,0,1-.613-.272.1.1,0,0,0-.035-.068.767.767,0,0,1-.1-.175l-1.441-3.1-1.43,3.1a.765.765,0,0,1-.1.175.1.1,0,0,0-.035.068.668.668,0,0,1-.613.272.979.979,0,0,1-.444-.1Z" transform="translate(-253.005 -83.295)"/></g></g></g></svg>