<svg xmlns="http://www.w3.org/2000/svg" xmlns:xlink="http://www.w3.org/1999/xlink" width="165" height="142" viewBox="0 0 165 142">
  <defs>
    <clipPath id="clip-path">
      <rect id="Rectangle_811" data-name="Rectangle 811" width="165" height="142" transform="translate(43 114)" fill="#fff" stroke="#707070" stroke-width="1"/>
    </clipPath>
    <clipPath id="clip-path-2">
      <rect id="Rectangle_819" data-name="Rectangle 819" width="34" height="34" transform="translate(-0.019 0.154)" fill="#4caf51"/>
    </clipPath>
  </defs>
  <g id="exists_appointment" data-name="exists appointment" transform="translate(-43 -114)" clip-path="url(#clip-path)">
    <g id="Group_890" data-name="Group 890" transform="translate(43.003 114.061)">
      <g id="Group_921" data-name="Group 921" transform="matrix(0.995, -0.105, 0.105, 0.995, 68.939, 12.078)">
        <path id="Path_2806" data-name="Path 2806" d="M1145.542,402.948c9.22,5.479,20.3,6.828,31.277,5.765,4.333-.409,7.666.162,11.856-.881,2.31-.572,4.375-3.146,5.377-4.353,10.957-13.063,10.9-29.727,14.845-47.553,1.267-5.683-4.6-5.24-6.089-.64-1.8,5.54-4.5,19.86-14.132,29.775-1.779,1.819-3.25,5.111-6.031,5.479a58.246,58.246,0,0,1-9.874.45c-4.886-.164-9.71-.838-15.291-1.574-2.371-.327-6.664-1.431-10.855-1.819Z" transform="translate(-1145.542 -321.701)" fill="#ff9e9e" stroke="rgba(0,0,0,0)" stroke-width="1"/>
        <path id="Path_2784" data-name="Path 2784" d="M1153.826,347.536a21.377,21.377,0,0,0,2.329-17.8,3.4,3.4,0,0,0-2.81-2.7c-1.49-.155-2.587,1.127-3.323,2.4a19.232,19.232,0,0,0-2.649,11.015c-.447-1.1-.817-2.323-1.262-3.414-.207-.507-.562-1.157-1.145-1.053s-.669.664-.641,1.234c.214,4.614,1.9,7.955,4.942,11.408C1150.8,348.305,1152.312,347.957,1153.826,347.536Z" transform="translate(-1116.203 -211.659) rotate(-5)" fill="#ff9e9e" stroke="rgba(0,0,0,0)" stroke-width="1"/>
        <path id="Path_2807" data-name="Path 2807" d="M1165.02,374.522c9.219,5.479,21.8,6.342,32.775,5.278-.077-.119-3.371-4.889-3.608-5.278-3.486-5.65-2.077-8.072-1.937-11.959-4.886-.164-9.71-.838-15.291-1.574-2.371-.327-6.664-1.431-10.855-1.819Z" transform="translate(-1159.02 -293.276)" fill="#f68895" stroke="rgba(0,0,0,0)" stroke-width="1"/>
      </g>
      <g id="Group_889" data-name="Group 889" transform="translate(1 98.925)">
        <path id="Path_2764" data-name="Path 2764" d="M1200.776,412.068c.016,1.007.037,2,.055,2.992.055.988.119,1.964.174,2.931s.17,1.92.269,2.863.188,1.871.34,2.793.28,1.815.42,2.707.341,1.766.506,2.618c.09.433.175.859.264,1.283s.2.84.3,1.257q.307,1.241.6,2.444c.216.8.459,1.571.689,2.348s.435,1.515.689,2.245.5,1.444.745,2.142c.124.349.23.7.37,1.033l.4,1c.531,1.321,1.016,2.575,1.579,3.744s1.034,2.269,1.586,3.282,1.034,1.955,1.531,2.807,1,1.622,1.455,2.306c.23.349.444.669.664.969s.439.573.641.831a16.328,16.328,0,0,0,1.124,1.265c.676.665,1.209.969,1.59.873s.6-.578.689-1.409a9.966,9.966,0,0,0,.025-1.5c0-.291-.03-.6-.055-.937s-.044-.684-.064-1.06q-.083-1.126-.23-2.468c-.09-.9-.156-1.873-.26-2.911s-.17-2.154-.274-3.327-.145-2.412-.216-3.709c-.016-.323-.034-.653-.051-.983s-.016-.669-.021-1.007q-.024-1.019-.051-2.074c-.025-.7,0-1.424,0-2.154s0-1.473.021-2.229.064-1.526.09-2.3c.021-.387.026-.782.051-1.177s.055-.791.085-1.192c.06-.8.1-1.611.17-2.433s.17-1.651.25-2.487.2-1.69.305-2.543.2-1.721.361-2.594.276-1.746.416-2.636.335-1.777.51-2.678c.719-3.589,1.609-7.275,2.666-11.012s2.319-7.331,3.594-10.789c.329-.859.646-1.716.965-2.562s.676-1.674,1.013-2.494c.154-.41.324-.813.5-1.222s.354-.813.524-1.222c.344-.8.65-1.6,1.016-2.374s.689-1.548,1.021-2.309.689-1.5,1.039-2.24c.055-.117.105-.239.161-.349a74.377,74.377,0,0,1-19-6.432c-.179.316-.366.637-.55.957-.46.813-.931,1.637-1.379,2.48s-.869,1.709-1.294,2.582-.821,1.773-1.22,2.678-.809,1.822-1.149,2.765-.715,1.887-1.064,2.847-.634,1.941-.954,2.927c-.75,2.479-1.4,5.027-1.94,7.63-.324,1.557-.6,3.142-.841,4.73A87.85,87.85,0,0,0,1200.776,412.068Z" transform="translate(-1198.776 -372.98)" fill="#ff9e9e" stroke="rgba(0,0,0,0)" stroke-width="1"/>
      </g>
      <path id="Path_2765" data-name="Path 2765" d="M1200.777,402.723c7.094-15.4,19.564-14.019,23.616-13.084.166-.535.337-1.071.5-1.609.329-1.055.62-2.105.968-3.126s.657-2.039.973-3.041.657-1.979.99-2.949c.052-.154.1-.315.153-.46a58.836,58.836,0,0,1-18.108-8.469c-.171.416-.349.839-.524,1.259-.438,1.071-.887,2.156-1.314,3.266s-.828,2.25-1.233,3.4-.782,2.335-1.163,3.525-.771,2.4-1.1,3.64-.681,2.484-1.014,3.748-.6,2.556-.909,3.854C1201.912,395.939,1201.287,399.292,1200.777,402.723Z" transform="translate(-1216.624 -206.925) rotate(-3)" fill="#f68895" stroke="rgba(0,0,0,0)" stroke-width="1"/>
      <path id="Path_2766" data-name="Path 2766" d="M1185.142,337.416a20.19,20.19,0,0,1-.5,14.2,64.982,64.982,0,0,1-2.16-11.084,3.1,3.1,0,0,1,.31-2.1A3.172,3.172,0,0,1,1185.142,337.416Z" transform="translate(-1113.751 -313.33)" fill="#311649" stroke="rgba(0,0,0,0)" stroke-width="1"/>
      <path id="Path_2773" data-name="Path 2773" d="M1167.384,395.562a30.224,30.224,0,0,0,20.65,11.031l4.319-10.36c.021.186.046.375.071.556.765,5.615,1.421,13.169,1.979,21.374.855,12.693,1.462,26.928,1.811,37.882.1,3.02.17,5.789.23,8.2a231.357,231.357,0,0,0,47.208,1.93q7.229-.448,14.414-1.34c-1.326-6.29-2.454-12.463-3.4-18.448q-.5-3.127-.931-6.164c-.149-1.055-.294-2.11-.439-3.151-.974-7.265-3.921-31.989-6.024-50.5,6.093,1.436,12.321.209,18.579.3,3.1-13.805.646-22.327.646-22.327-9.1-2.3-28.957-2.555-29.222-2.574h0c-4.286-1.949-8.584-3.907-12.428-5.856-3.321,1.34,1.449,4.521-1.869,5.856l-1.729,3.884h-4.826l-8.957-1.685a29.92,29.92,0,0,0-19.43,4.21c-10.377,6.068-13.024,13.366-15.343,16.667A36.793,36.793,0,0,0,1167.384,395.562Z" transform="translate(-1160.424 -289.052)" fill="#a2d45e" stroke="rgba(0,0,0,0)" stroke-width="1"/>
      <path id="Path_2774" data-name="Path 2774" d="M1204.045,372.854a46.972,46.972,0,0,1-19.928.646,27.867,27.867,0,0,0,1.88-10.639v-.149a28.942,28.942,0,0,0-1.928-9.646,28.371,28.371,0,0,0-2.406-4.776,26.073,26.073,0,0,1,3.764-.1c6.511.285,13.019,2.875,16.219,7.674a37.172,37.172,0,0,0-.14,4.55c.02.669.06,1.331.119,1.99.069.869.174,1.731.31,2.581.042.3.094.609.15.919q.179,1.038.434,2.068A36.972,36.972,0,0,0,1204.045,372.854Z" transform="translate(-1129.87 -299.377)" fill="#ff9e9e" stroke="rgba(0,0,0,0)" stroke-width="1"/>
      <path id="Path_2775" data-name="Path 2775" d="M1200.706,364.968c.042.3.094.609.15.919-14.52.526-18.34-16.91-18.34-16.91l1.685-.8c6.511.285,13.02,2.875,16.218,7.674a37.146,37.146,0,0,0-.14,4.55c.02.669.06,1.331.12,1.99C1200.465,363.254,1200.571,364.111,1200.706,364.968Z" transform="translate(-1128.64 -299.354)" fill="#f68895" stroke="rgba(0,0,0,0)" stroke-width="1"/>
      <path id="Path_2776" data-name="Path 2776" d="M1200.289,338.027a30.249,30.249,0,0,0,4.259,18.616c1.914,3.135,4.509,6.23,4.419,9.905-.115,4.826-5.3,8.425-10.131,8.154a17.775,17.775,0,0,1-12.118-7.2,33.308,33.308,0,0,1-7.189-24.835A36.751,36.751,0,0,1,1200.289,338.027Z" transform="translate(-1129.368 -312.668)" fill="#ff9e9e" stroke="rgba(0,0,0,0)" stroke-width="1"/>
      <path id="Path_2777" data-name="Path 2777" d="M1181.509,349.676a9.991,9.991,0,0,0,3.925-1.305.431.431,0,0,1,.589.156.452.452,0,0,1,.052.163,2.635,2.635,0,0,1-.579,2.1,3.105,3.105,0,0,1-2.723,1.034c-.8-.11-1.241-.8-1.609-1.531a.428.428,0,0,1,.191-.575A.409.409,0,0,1,1181.509,349.676Z" transform="translate(-1110.682 -299.184)" fill="#f9dee4" stroke="rgba(0,0,0,0)" stroke-width="1"/>
      <path id="Path_2780" data-name="Path 2780" d="M1181.642,350.812h0a3.617,3.617,0,0,1,.765-.894,7.345,7.345,0,0,1,1.106-.809,8.479,8.479,0,0,1,1.524-.689c.085-.03.175-.06.264-.085.179-.051.361-.1.549-.14h0c.264-.06.54-.1.816-.14a7.744,7.744,0,0,1,1.365-.025l.1.014a3.016,3.016,0,0,1,.055-.885,3.08,3.08,0,0,1,.671-1.379,4.3,4.3,0,0,1,2.556-1.441,4.59,4.59,0,0,1,1.494.039,3.874,3.874,0,0,1,1.246.506,2.55,2.55,0,0,1,1.075-.66l.1-.025a3.083,3.083,0,0,1,1.4-.014,2.969,2.969,0,0,1,.623-1.011,4.239,4.239,0,0,1,1.232-.919h0a4.446,4.446,0,0,1,.69-.271,4.782,4.782,0,0,1,.69-.14,4.892,4.892,0,0,1,1,.014,2.863,2.863,0,0,1,.485.09,3.409,3.409,0,0,1,.921.37h0a2.576,2.576,0,0,1,.43.28,3.42,3.42,0,0,1,.97,1.149,3.816,3.816,0,0,1,.46,1.409,3.71,3.71,0,0,1-.74,2.721l-.043.055a3.459,3.459,0,0,1-1.131.919,3.866,3.866,0,0,1-.616.246,5.06,5.06,0,0,1-.77.154,3.893,3.893,0,0,1-2.73-.8,4.249,4.249,0,0,1-1.59-2.409,3.593,3.593,0,0,1-.069-1.041,4,4,0,0,0-.991.09l-.08.025a2.18,2.18,0,0,0-.659.315,3.468,3.468,0,0,1,.489.65,3.588,3.588,0,0,1,.51,1.39,3.712,3.712,0,0,1-.671,2.8,3.444,3.444,0,0,1-1.859,1.289,3.722,3.722,0,0,1-.6.131,3.843,3.843,0,0,1-2.758-.69,4.23,4.23,0,0,1-1.666-2.255l-.23.014a10.545,10.545,0,0,0-1.232.154,10.88,10.88,0,0,0-1.149.276l-.042.014h0c-.094.025-.181.06-.276.09a10.813,10.813,0,0,0-1.1.446l-.294.136-.228.131h0a8.413,8.413,0,0,0-.834.49l-.421.285a5.339,5.339,0,0,1-.46.294.591.591,0,0,1-.124.055.233.233,0,0,1-.1.014.269.269,0,0,1-.105-.041l-.051-.071v-.064A.3.3,0,0,1,1181.642,350.812Zm15.78-4.946a3.473,3.473,0,0,0,3.466,2.785,2.76,2.76,0,0,0,.549-.1,2.9,2.9,0,0,0,1.5-1.046,1.88,1.88,0,0,0,.209-.336h0a3.045,3.045,0,0,0-.071-3.02,2.486,2.486,0,0,0-.77-.85l-.129-.085h0a2.812,2.812,0,0,0-.86-.384h0l-.05-.014a3.309,3.309,0,0,0-1.166-.06,2.31,2.31,0,0,0-.54.115,3.058,3.058,0,0,0-.556.209h-.017l-.268.149a.99.99,0,0,0-.161.1l-.085.069a1.3,1.3,0,0,0-.23.179,2.56,2.56,0,0,0-.706,1.011l-.05.154a1.044,1.044,0,0,0-.042.17,2.532,2.532,0,0,0-.021.949ZM1189,348.282a.773.773,0,0,0,.035.184l.016.06a3.483,3.483,0,0,0,3.567,2.581,2.587,2.587,0,0,0,.435-.094,2.919,2.919,0,0,0,1.56-1.135,3.078,3.078,0,0,0,0-3.374,2.964,2.964,0,0,0-.5-.586,1.859,1.859,0,0,0-.31-.23,2.962,2.962,0,0,0-1.064-.439,3.3,3.3,0,0,0-1.556.076,3.939,3.939,0,0,0-.715.289l-.26.156a1.353,1.353,0,0,0-.156.12l-.085.064a1.249,1.249,0,0,0-.216.184c-.055.051-.1.1-.149.154l-.046.055a2.356,2.356,0,0,0-.515.991,2.251,2.251,0,0,0-.042.942Z" transform="translate(-1129.995 -307.61)" fill="#311649" stroke="rgba(0,0,0,0)" stroke-width="1"/>
      <path id="Path_2781" data-name="Path 2781" d="M1194.165,346.7a1.988,1.988,0,0,0-1.82-1.859,2.579,2.579,0,0,0-2.356,1.335,3.741,3.741,0,0,0-.276,2.774,6.789,6.789,0,0,0,1.349,2.494,6.445,6.445,0,0,0,3.39,2.411,3.416,3.416,0,0,0,3.718-1.356C1196.353,350.815,1194.158,349.177,1194.165,346.7Z" transform="translate(-1142.156 -303.692)" fill="#ff9e9e" stroke="rgba(0,0,0,0)" stroke-width="1"/>
      <path id="Path_2782" data-name="Path 2782" d="M1189.695,362.674a17.381,17.381,0,0,0-1.264-15.345,25.624,25.624,0,0,0,12.07.43,13.826,13.826,0,0,0,9.558-6.279,9.566,9.566,0,0,0,.6-7.55,90.831,90.831,0,0,0-12.781,3.13,31.355,31.355,0,0,0-11.491,6.665,3.908,3.908,0,0,0-4.39,2.88,8.672,8.672,0,0,0,.575,5.589A26.471,26.471,0,0,0,1189.695,362.674Z" transform="translate(-1137.248 -317.856)" fill="#462261" stroke="rgba(0,0,0,0)" stroke-width="1"/>
      <path id="Path_2783" data-name="Path 2783" d="M1212.022,413.021a13.35,13.35,0,0,0,6.959,3.084,4.426,4.426,0,0,1,1.519.34,1.261,1.261,0,0,1,.749,1.25c-.135.756-1.124,1.009-1.88.88a4.862,4.862,0,0,0-2.266-.209,2.112,2.112,0,0,0-1.271,1.986,6.3,6.3,0,0,0,.609,2.42l2.909,7.239a4.385,4.385,0,0,1,.311,3.76,3.822,3.822,0,0,1-3.71,1.345,13.455,13.455,0,0,1-10.259-20.79A17.072,17.072,0,0,1,1212.022,413.021Z" transform="translate(-1197.249 -243.308)" fill="#ff9e9e" stroke="rgba(0,0,0,0)" stroke-width="1"/>
      <path id="Path_2870" data-name="Path 2870" d="M-14436.947-11364.767c10.031-2.061-10.75,9.732-10.75,9.732S-14446.984-11362.7-14436.947-11364.767Z" transform="translate(14492.213 11384.142)" fill="#4caf51"/>
      <g id="zm_logo" data-name="zm logo" transform="translate(45.016 92.786)" clip-path="url(#clip-path-2)">
        <path id="Path_2872" data-name="Path 2872" d="M-2894.854,99.276l.566-.621-.51-.462-.362.4a.351.351,0,0,0-.082.131.22.22,0,0,0,0,.118.278.278,0,0,0,.058.113.835.835,0,0,0,.109.114Zm-.028-1.287a.087.087,0,0,1,.14-.007l.66.6a.089.089,0,0,1,.008.142l-.693.76a.09.09,0,0,1-.143.007l-.279-.253a1.337,1.337,0,0,1-.174-.189.5.5,0,0,1-.089-.189.381.381,0,0,1,.011-.194.594.594,0,0,1,.132-.208Zm-.986.551a.038.038,0,0,1-.027.01.031.031,0,0,1-.026-.011l-.378-.408a.729.729,0,0,1-.1-.127.33.33,0,0,1-.044-.133.279.279,0,0,1,.027-.142.5.5,0,0,1,.121-.153l.6-.55a.031.031,0,0,1,.05,0l.085.092a.039.039,0,0,1,.01.025.034.034,0,0,1-.013.026l-.556.513a.928.928,0,0,0-.076.078.172.172,0,0,0-.039.071.1.1,0,0,0,.009.074.408.408,0,0,0,.068.093l.382.406a.037.037,0,0,1,.009.025.042.042,0,0,1-.012.028Zm.7-.944a.033.033,0,0,1,.052,0l.084.091a.032.032,0,0,1,0,.051l-.442.408a.033.033,0,0,1-.052,0l-.084-.092a.032.032,0,0,1,0-.051Zm-1.238-.651a.031.031,0,0,1,.028-.006.046.046,0,0,1,.022.014l.074.1a.048.048,0,0,1,.01.028.035.035,0,0,1-.013.026l-.517.384a.035.035,0,0,1-.028.006.038.038,0,0,1-.027-.016l-.074-.1a.034.034,0,0,1-.005-.027.037.037,0,0,1,.014-.025Zm-.409-1.494a.033.033,0,0,1,.03,0,.048.048,0,0,1,.023.019l.066.1a.043.043,0,0,1,.009.028.035.035,0,0,1-.017.025l-.682.454a.178.178,0,0,0-.092.117.238.238,0,0,0,.052.145l.22.329.78-.52a.086.086,0,0,1,.135.025l.156.233a.032.032,0,0,1-.01.05l-.1.068a.031.031,0,0,1-.049-.01l-.1-.148-.7.466.074.112a.032.032,0,0,1-.011.05l-.1.066a.04.04,0,0,1-.027.006.028.028,0,0,1-.024-.014l-.448-.669a.3.3,0,0,1-.055-.25.364.364,0,0,1,.16-.2Zm-.256-.434a.032.032,0,0,1,.031,0,.038.038,0,0,1,.018.018l.058.109a.046.046,0,0,1,.005.03.031.031,0,0,1-.019.023l-1.023.536a.036.036,0,0,1-.029,0,.037.037,0,0,1-.023-.02l-.058-.109a.03.03,0,0,1,0-.028.036.036,0,0,1,.017-.023Zm-.592-1.231a.033.033,0,0,1,.029,0,.049.049,0,0,1,.021.02l.05.111a.049.049,0,0,1,0,.029.036.036,0,0,1-.021.021l-.687.317c-.038.018-.07.034-.1.05a.165.165,0,0,0-.059.054.119.119,0,0,0-.013.075.382.382,0,0,0,.036.109l.2.426.908-.417a.033.033,0,0,1,.03,0,.041.041,0,0,1,.019.018l.052.113a.045.045,0,0,1,0,.03.033.033,0,0,1-.02.022l-1.05.482a.03.03,0,0,1-.03,0,.032.032,0,0,1-.022-.02l-.264-.569a.751.751,0,0,1-.051-.15.338.338,0,0,1,0-.142.278.278,0,0,1,.069-.129.49.49,0,0,1,.16-.109Zm-.78-.523a.036.036,0,0,1,.031,0,.038.038,0,0,1,.02.024l.092.268a.135.135,0,0,1,.008.072.076.076,0,0,1-.027.045.131.131,0,0,1-.046.028l-.056.02-.469.161a.04.04,0,0,1-.028,0,.032.032,0,0,1-.02-.022l-.173-.508a.449.449,0,0,1-.011-.316.389.389,0,0,1,.255-.2l.326-.111a1.134,1.134,0,0,1,.22-.053.359.359,0,0,1,.166.017.285.285,0,0,1,.125.1.691.691,0,0,1,.1.194l.159.469c.009.025,0,.042-.021.05l-.116.039c-.022.007-.038,0-.047-.027l-.153-.451a.465.465,0,0,0-.059-.124.154.154,0,0,0-.071-.059.176.176,0,0,0-.1-.005,1.108,1.108,0,0,0-.135.038l-.284.1c-.043.015-.077.028-.107.042a.157.157,0,0,0-.063.05.116.116,0,0,0-.018.076.462.462,0,0,0,.027.119l.117.343.294-.1-.066-.194a.035.035,0,0,1,.022-.05Zm-.541-2.068a.9.9,0,0,1,.275-.028.424.424,0,0,1,.2.067.434.434,0,0,1,.144.162,1.066,1.066,0,0,1,.1.259,1.372,1.372,0,0,1,.042.286.522.522,0,0,1-.04.223.416.416,0,0,1-.134.162.707.707,0,0,1-.244.1l-.661.161a.035.035,0,0,1-.028-.006.04.04,0,0,1-.019-.025l-.029-.115a.037.037,0,0,1,.005-.029.036.036,0,0,1,.024-.018l.65-.158a.493.493,0,0,0,.183-.079.243.243,0,0,0,.084-.121.384.384,0,0,0,.01-.156,1.351,1.351,0,0,0-.034-.186.973.973,0,0,0-.054-.165.284.284,0,0,0-.086-.114.3.3,0,0,0-.14-.052.622.622,0,0,0-.211.022l-.612.15a.053.053,0,0,1-.028,0,.027.027,0,0,1-.017-.021l-.032-.126a.032.032,0,0,1,.006-.027.063.063,0,0,1,.024-.014Zm.247.5a.034.034,0,0,1,.03.005.036.036,0,0,1,.016.022l.03.12a.038.038,0,0,1,0,.028.035.035,0,0,1-.024.015l-.742.181a.037.037,0,0,1-.028,0,.033.033,0,0,1-.019-.023l-.03-.12a.033.033,0,0,1,.006-.027.037.037,0,0,1,.023-.018Zm-.044-2.04a.234.234,0,0,1,.148.025.126.126,0,0,1,.06.1l.037.452a.046.046,0,0,1-.007.028.033.033,0,0,1-.025.014l-.121.01a.037.037,0,0,1-.028-.008.045.045,0,0,1-.011-.026l-.029-.341c0-.03-.01-.047-.027-.051a.318.318,0,0,0-.08,0l-.54.045a.323.323,0,0,0-.1.022.119.119,0,0,0-.055.046.149.149,0,0,0-.019.068.463.463,0,0,0,0,.086l.015.178a.455.455,0,0,0,.009.067.142.142,0,0,0,.027.052.138.138,0,0,0,.049.036.267.267,0,0,0,.083.019l.867.077c.013,0,.019.008.021.017s0,.019.005.029l.011.15a.017.017,0,0,1-.014.021.068.068,0,0,1-.032,0l-.72-.084-.353.264a.038.038,0,0,1-.027.009.033.033,0,0,1-.022-.011l-.076-.118a.039.039,0,0,1,.005-.054l.253-.171-.1-.03a.252.252,0,0,1-.13-.084.294.294,0,0,1-.048-.152l-.025-.3a.331.331,0,0,1,.011-.12.257.257,0,0,1,.051-.1.277.277,0,0,1,.095-.075.38.38,0,0,1,.135-.036Zm-.372-1.089a.032.032,0,0,1,.027.013.035.035,0,0,1,.009.024v.124a.041.041,0,0,1-.01.028.03.03,0,0,1-.025.012l-.645,0a.038.038,0,0,1-.027-.013.043.043,0,0,1-.011-.028V88.6a.032.032,0,0,1,.013-.024.033.033,0,0,1,.026-.013Zm.521-.831a.087.087,0,0,1,.088.108l-.05.453a.032.032,0,0,1-.041.032l-.121-.013c-.024,0-.034-.015-.032-.04l.039-.353-.707-.077a.338.338,0,0,0-.051,0,.123.123,0,0,0-.042.01.061.061,0,0,0-.032.029.138.138,0,0,0-.017.059l-.019.175a.036.036,0,0,1-.013.024.038.038,0,0,1-.028.008l-.12-.012a.039.039,0,0,1-.024-.014.034.034,0,0,1-.009-.027l.021-.2a.277.277,0,0,1,.1-.211.337.337,0,0,1,.232-.041Zm-1.073-.391a.046.046,0,0,1-.024-.013.032.032,0,0,1-.008-.028l.055-.373a.692.692,0,0,1,.04-.159.334.334,0,0,1,.079-.121.283.283,0,0,1,.128-.07.483.483,0,0,1,.2,0l.643.093.017-.118a.03.03,0,0,1,.016-.024.032.032,0,0,1,.025-.006l.121.017a.033.033,0,0,1,.031.042l-.131.9a.032.032,0,0,1-.041.031l-.121-.017a.041.041,0,0,1-.023-.013.033.033,0,0,1-.008-.028l.086-.586-.593-.086a.3.3,0,0,0-.189.019.222.222,0,0,0-.083.171l-.049.363a.032.032,0,0,1-.015.026.042.042,0,0,1-.029,0Zm1.365-1.206a.03.03,0,0,1,.024.017.04.04,0,0,1,.005.026l-.025.121a.048.048,0,0,1-.014.026.033.033,0,0,1-.03.006l-1.134-.224a.04.04,0,0,1-.023-.018.03.03,0,0,1-.006-.03l.024-.121a.04.04,0,0,1,.017-.022.04.04,0,0,1,.028-.006Zm.681-.92a.033.033,0,0,1,.02.019.036.036,0,0,1,0,.026l-.036.119a.05.05,0,0,1-.017.025.027.027,0,0,1-.027,0l-1.5-.463a.039.039,0,0,1-.02-.021.033.033,0,0,1,0-.03l.037-.119a.034.034,0,0,1,.019-.02.042.042,0,0,1,.029,0Zm-.267-1.619a.775.775,0,0,1,.21.133.352.352,0,0,1,.1.156.383.383,0,0,1,.005.189,1.338,1.338,0,0,1-.073.232,1.451,1.451,0,0,1-.113.213.432.432,0,0,1-.138.136.343.343,0,0,1-.182.046.662.662,0,0,1-.242-.058l-.688-.281a.039.039,0,0,1-.02-.019.029.029,0,0,1,0-.029l.047-.115a.036.036,0,0,1,.02-.019.037.037,0,0,1,.031,0l.691.283a.44.44,0,0,0,.148.037.187.187,0,0,0,.109-.027.268.268,0,0,0,.083-.09,1.159,1.159,0,0,0,.074-.151.924.924,0,0,0,.052-.163.27.27,0,0,0,0-.123.194.194,0,0,0-.06-.092.529.529,0,0,0-.132-.074l-.543-.221-.075.181.184.305a.034.034,0,0,1-.012.052l-.1.061a.035.035,0,0,1-.03.006.039.039,0,0,1-.022-.021l-.208-.34a.252.252,0,0,1-.015-.043.093.093,0,0,1,.006-.048l.132-.321a.088.088,0,0,1,.131-.05Zm.852-.8a.032.032,0,0,1,.015.049l-.059.109a.038.038,0,0,1-.02.018.036.036,0,0,1-.03,0l-.722-.387a.183.183,0,0,0-.146-.028.222.222,0,0,0-.1.107l-.211.391a.031.031,0,0,1-.048.014l-.106-.057a.039.039,0,0,1-.019-.021.029.029,0,0,1,0-.029l.24-.445a.3.3,0,0,1,.2-.166.366.366,0,0,1,.255.046Zm-.593-.963.488.319a.256.256,0,0,0,.231.058h0a.554.554,0,0,0,.178-.2.537.537,0,0,0,.109-.24.187.187,0,0,0-.036-.093.392.392,0,0,0-.107-.1l-.486-.321Zm.97-.415a.617.617,0,0,1,.167.158.35.35,0,0,1,.063.17.693.693,0,0,1-.141.373.691.691,0,0,1-.287.277.42.42,0,0,1-.393-.08l-.569-.372a.086.086,0,0,1-.032-.135l.483-.735a.089.089,0,0,1,.14-.028Zm.593-.963a.025.025,0,0,1,.013.025.034.034,0,0,1-.008.025l-.079.1a.046.046,0,0,1-.025.016.03.03,0,0,1-.028-.007l-.5-.407a.035.035,0,0,1-.013-.025.037.037,0,0,1,.008-.03l.079-.1a.033.033,0,0,1,.025-.011.036.036,0,0,1,.028.007Zm.855-.834a.725.725,0,0,1,.118.149.424.424,0,0,1,.059.163.372.372,0,0,1-.014.166.4.4,0,0,1-.1.16l-.139.142a.044.044,0,0,1-.027.013.032.032,0,0,1-.027-.011l-.087-.085a.03.03,0,0,1-.011-.026.035.035,0,0,1,.013-.027l.128-.132a.221.221,0,0,0,.066-.11.184.184,0,0,0,0-.1.3.3,0,0,0-.048-.089.843.843,0,0,0-.065-.074l-.386-.374-.431.441a.09.09,0,0,1-.143,0l-.341-.332a.029.029,0,0,1-.011-.027.038.038,0,0,1,.013-.027l.083-.086a.043.043,0,0,1,.026-.013.033.033,0,0,1,.027.011l.271.263.432-.444a.088.088,0,0,1,.14,0Zm.687-.03a.029.029,0,0,1,.01.028.04.04,0,0,1-.011.023l-.092.085a.043.043,0,0,1-.027.013.034.034,0,0,1-.028-.012l-.785-.847a.038.038,0,0,1-.009-.028.036.036,0,0,1,.013-.028l.092-.084a.029.029,0,0,1,.025-.008.038.038,0,0,1,.027.011Zm1.043-.876a.031.031,0,0,1,.009.027.036.036,0,0,1-.014.025l-.094.078a.049.049,0,0,1-.028.011.039.039,0,0,1-.026-.014l-.484-.581a.964.964,0,0,0-.074-.081.162.162,0,0,0-.067-.042.123.123,0,0,0-.077.005.394.394,0,0,0-.1.064l-.362.3.639.767a.031.031,0,0,1,.009.028.044.044,0,0,1-.013.023l-.1.079a.048.048,0,0,1-.028.011.032.032,0,0,1-.027-.014l-.74-.886a.04.04,0,0,1-.008-.027.035.035,0,0,1,.015-.027l.483-.4a.7.7,0,0,1,.13-.088.343.343,0,0,1,.139-.038.269.269,0,0,1,.143.034.463.463,0,0,1,.146.125Zm.376-1.446.444.713.586-.361-.283-.457a.352.352,0,0,0-.1-.114.231.231,0,0,0-.113-.038.278.278,0,0,0-.125.025.947.947,0,0,0-.139.071Zm1.25.327a.087.087,0,0,1-.032.136l-.759.468a.088.088,0,0,1-.138-.033l-.542-.873a.089.089,0,0,1,.033-.139l.32-.2a1.258,1.258,0,0,1,.23-.114.489.489,0,0,1,.206-.033.375.375,0,0,1,.185.065.6.6,0,0,1,.163.184Zm.273-.6a.03.03,0,0,1,0,.028.032.032,0,0,1-.018.019l-.112.053a.043.043,0,0,1-.03,0,.028.028,0,0,1-.021-.018l-.28-.579a.034.034,0,0,1,0-.029.042.042,0,0,1,.021-.023l.113-.053a.027.027,0,0,1,.026,0,.033.033,0,0,1,.022.018Zm.891-.952c.009.025,0,.042-.02.052l-.123.051.387.92a.031.031,0,0,1-.02.047l-.115.048a.032.032,0,0,1-.047-.02l-.387-.92-.519.217a.032.032,0,0,1-.047-.02l-.047-.11a.057.057,0,0,1,0-.029.032.032,0,0,1,.019-.021l.825-.344a.033.033,0,0,1,.027,0,.027.027,0,0,1,.017.016Zm1.294.188a.653.653,0,0,1,.034.187.467.467,0,0,1-.024.171.372.372,0,0,1-.091.142.42.42,0,0,1-.164.094l-.189.06a.037.037,0,0,1-.03,0,.035.035,0,0,1-.019-.023l-.036-.116a.03.03,0,0,1,0-.028.046.046,0,0,1,.024-.017l.177-.057a.226.226,0,0,0,.11-.066.217.217,0,0,0,.044-.092.37.37,0,0,0,0-.1.986.986,0,0,0-.025-.1l-.165-.511-.588.188a.09.09,0,0,1-.127-.064l-.146-.454a.034.034,0,0,1,0-.029.043.043,0,0,1,.025-.018l.113-.037a.048.048,0,0,1,.03,0,.037.037,0,0,1,.019.023l.114.359.591-.188a.087.087,0,0,1,.122.067Zm.5-.168a.031.031,0,0,1,0,.029.034.034,0,0,1-.021.015l-.121.032a.04.04,0,0,1-.029,0,.031.031,0,0,1-.019-.022l-.163-.621a.033.033,0,0,1,0-.028.039.039,0,0,1,.025-.019l.12-.032a.034.034,0,0,1,.028.005.04.04,0,0,1,.019.023Zm.192-.727a.04.04,0,0,1,.005-.027.028.028,0,0,1,.025-.016l.373-.057a.705.705,0,0,1,.165-.008.326.326,0,0,1,.138.039.286.286,0,0,1,.1.1.514.514,0,0,1,.062.185l.1.641.118-.018a.035.035,0,0,1,.028.007.036.036,0,0,1,.013.023l.018.12a.032.032,0,0,1-.031.042l-.9.138a.032.032,0,0,1-.041-.03l-.02-.12a.035.035,0,0,1,.006-.025.032.032,0,0,1,.025-.015l.587-.09-.091-.591a.3.3,0,0,0-.074-.174.222.222,0,0,0-.188-.03l-.363.06a.041.041,0,0,1-.029-.007.047.047,0,0,1-.014-.026Zm1.819-.224a.04.04,0,0,1,.01-.027.033.033,0,0,1,.025-.013l.555-.037a.749.749,0,0,1,.158.006.344.344,0,0,1,.133.049.279.279,0,0,1,.093.111.493.493,0,0,1,.045.189l.053.807c0,.025-.009.038-.033.04l-.125.007a.036.036,0,0,1-.027-.006.036.036,0,0,1-.011-.027l-.05-.753c0-.042-.007-.078-.013-.109a.179.179,0,0,0-.031-.074.118.118,0,0,0-.064-.04.391.391,0,0,0-.115-.006l-.556.041a.039.039,0,0,1-.026-.01.035.035,0,0,1-.013-.027Zm.295,1.137a.032.032,0,0,1-.033.039l-.124.007a.033.033,0,0,1-.04-.033l-.039-.6a.033.033,0,0,1,.035-.039l.124-.008a.033.033,0,0,1,.039.034Zm1.926-.426a1.044,1.044,0,0,1-.03.224.358.358,0,0,1-.074.149.29.29,0,0,1-.139.081.718.718,0,0,1-.216.019l-.379-.015a.033.033,0,0,1-.036-.039l.005-.122c0-.024.014-.035.039-.033l.359.013a.5.5,0,0,0,.138-.008.148.148,0,0,0,.081-.045.165.165,0,0,0,.039-.087.968.968,0,0,0,.013-.137l.011-.307q0-.066,0-.113a.158.158,0,0,0-.024-.076.118.118,0,0,0-.064-.043.431.431,0,0,0-.122-.016l-.42-.018a.028.028,0,0,1-.025-.012.044.044,0,0,1-.008-.028l0-.121a.046.046,0,0,1,.009-.026.03.03,0,0,1,.028-.011l.433.018a.425.425,0,0,1,.3.108.394.394,0,0,1,.093.31Zm.527.009a.036.036,0,0,1-.016.024.036.036,0,0,1-.025.006l-.124-.016a.044.044,0,0,1-.027-.013.035.035,0,0,1-.009-.027l.082-.638a.035.035,0,0,1,.016-.024.039.039,0,0,1,.029-.008l.124.016a.032.032,0,0,1,.023.015.036.036,0,0,1,.009.027Zm1.386.616a.235.235,0,0,1-.063.137.123.123,0,0,1-.114.029l-.449-.081a.044.044,0,0,1-.025-.013.035.035,0,0,1-.006-.029l.022-.119a.032.032,0,0,1,.016-.024.041.041,0,0,1,.028,0l.338.061c.029.005.048,0,.056-.014a.278.278,0,0,0,.023-.077l.1-.531a.336.336,0,0,0,0-.1.116.116,0,0,0-.03-.066.135.135,0,0,0-.061-.036.69.69,0,0,0-.083-.02l-.177-.032a.391.391,0,0,0-.067-.007.131.131,0,0,0-.058.011.147.147,0,0,0-.048.039.239.239,0,0,0-.04.074l-.3.815c-.005.011-.011.016-.021.015a.116.116,0,0,1-.03,0l-.149-.026c-.01,0-.015-.009-.015-.021a.062.062,0,0,1,.007-.031l.267-.672-.164-.408a.036.036,0,0,1,0-.029.036.036,0,0,1,.016-.019l.135-.042a.038.038,0,0,1,.05.019l.1.288.055-.093a.256.256,0,0,1,.115-.1.3.3,0,0,1,.159-.006l.294.052a.351.351,0,0,1,.114.042.275.275,0,0,1,.085.076.275.275,0,0,1,.047.11.307.307,0,0,1,0,.138Zm1.336.592a.037.037,0,0,1-.02.022.048.048,0,0,1-.03,0l-.115-.037a.047.047,0,0,1-.024-.018.032.032,0,0,1,0-.03l.257-.777a.169.169,0,0,0,0-.148.231.231,0,0,0-.129-.083l-.377-.124-.294.89a.086.086,0,0,1-.123.063l-.267-.088a.032.032,0,0,1-.021-.046l.037-.115a.032.032,0,0,1,.046-.023l.169.056.264-.8-.128-.042a.031.031,0,0,1-.022-.045l.037-.115a.042.042,0,0,1,.017-.022.031.031,0,0,1,.029,0l.765.252a.3.3,0,0,1,.2.163.362.362,0,0,1,0,.259Zm.442.192a.033.033,0,0,1-.021.022.045.045,0,0,1-.026,0l-.116-.045a.049.049,0,0,1-.024-.019.034.034,0,0,1,0-.03l.421-1.075a.041.041,0,0,1,.02-.021.047.047,0,0,1,.031,0l.115.044a.03.03,0,0,1,.018.02.035.035,0,0,1,0,.03Z" transform="translate(2903.647 -74.84)" fill="#4caf51"/>
        <path id="Path_2873" data-name="Path 2873" d="M-2838.565,79.707a.035.035,0,0,1,.014-.023.021.021,0,0,1,.024,0l.117.066a.03.03,0,0,1,.018.022.068.068,0,0,1,0,.03l-.27.992.091.051a.246.246,0,0,0,.125.037.188.188,0,0,0,.1-.031.3.3,0,0,0,.075-.069.872.872,0,0,0,.054-.083l.34-.609a.037.037,0,0,1,.021-.019.035.035,0,0,1,.029,0l.109.061a.042.042,0,0,1,.016.021.037.037,0,0,1,0,.03l-.343.61a.664.664,0,0,1-.115.151.463.463,0,0,1-.143.1.375.375,0,0,1-.165.031.4.4,0,0,1-.179-.055l-.5-.277a.031.031,0,0,1-.014-.049l.06-.106a.032.032,0,0,1,.048-.014l.219.123Zm.717,1.755a.03.03,0,0,1-.026.017.035.035,0,0,1-.024-.005l-.106-.066a.043.043,0,0,1-.018-.023.031.031,0,0,1,0-.03l.616-.975a.035.035,0,0,1,.025-.016.035.035,0,0,1,.03,0l.1.066a.033.033,0,0,1,.015.024.037.037,0,0,1,0,.028Zm.7-.132a.031.031,0,0,1-.025.014.034.034,0,0,1-.025-.006l-.1-.071a.043.043,0,0,1-.017-.024.028.028,0,0,1,.005-.028l.372-.524a.032.032,0,0,1,.024-.014.038.038,0,0,1,.031.006l.1.071a.033.033,0,0,1,.013.024.04.04,0,0,1,0,.028Zm.721-.057-.361.457c-.072.09-.1.165-.078.224l0,0a.549.549,0,0,0,.181.194.544.544,0,0,0,.231.129.178.178,0,0,0,.1-.028.383.383,0,0,0,.1-.1l.363-.454Zm.329,1a.61.61,0,0,1-.172.153.341.341,0,0,1-.176.046.681.681,0,0,1-.36-.172.671.671,0,0,1-.252-.31.413.413,0,0,1,.113-.382l.423-.533a.087.087,0,0,1,.137-.02l.691.544a.089.089,0,0,1,.017.142Zm.878.772a.732.732,0,0,1-.148.12.451.451,0,0,1-.162.062.383.383,0,0,1-.168-.011.41.41,0,0,1-.162-.1l-.145-.137a.036.036,0,0,1-.013-.025.033.033,0,0,1,.01-.028l.083-.088a.03.03,0,0,1,.027-.012.038.038,0,0,1,.027.012l.135.127a.223.223,0,0,0,.112.064.191.191,0,0,0,.1-.006.266.266,0,0,0,.088-.05.865.865,0,0,0,.074-.068l.369-.391-.449-.423a.088.088,0,0,1-.006-.142l.328-.347a.033.033,0,0,1,.027-.012.041.041,0,0,1,.026.013l.088.083a.042.042,0,0,1,.014.025.039.039,0,0,1-.011.027l-.259.275.452.424a.086.086,0,0,1,0,.138Zm1.4.787c-.021.016-.041.015-.054,0l-.07-.09a.231.231,0,0,0-.155.012.38.38,0,0,0-.14.109l-.481.508a.023.023,0,0,1-.026.01.05.05,0,0,1-.025-.016l-.076-.1a.057.057,0,0,1-.01-.029.039.039,0,0,1,.016-.024l.443-.453a.723.723,0,0,1,.063-.064.506.506,0,0,1,.08-.056.5.5,0,0,1,.093-.04.326.326,0,0,1,.1-.012l-.138-.179a.036.036,0,0,1-.009-.028.038.038,0,0,1,.015-.024l.1-.074a.037.037,0,0,1,.028-.008.033.033,0,0,1,.025.014l.327.422a.028.028,0,0,1,.007.027.042.042,0,0,1-.01.022Zm.139,1.229a1.087,1.087,0,0,1-.2.112.343.343,0,0,1-.165.029.28.28,0,0,1-.148-.06.752.752,0,0,1-.146-.161l-.217-.311a.033.033,0,0,1,.009-.052l.1-.069a.031.031,0,0,1,.05.011l.2.294a.6.6,0,0,0,.091.1.148.148,0,0,0,.085.037.174.174,0,0,0,.093-.022,1,1,0,0,0,.116-.072l.254-.175a.88.88,0,0,0,.089-.068.145.145,0,0,0,.047-.064.126.126,0,0,0,0-.078.474.474,0,0,0-.06-.107l-.24-.345a.03.03,0,0,1-.006-.028.042.042,0,0,1,.019-.023l.1-.069a.052.052,0,0,1,.027-.008.032.032,0,0,1,.025.015l.247.356a.433.433,0,0,1,.094.3.4.4,0,0,1-.193.261Zm.16,1.2a.033.033,0,0,1-.051-.014l-.059-.109a.035.035,0,0,1,0-.026.037.037,0,0,1,.019-.023l.719-.393c.061-.033.095-.069.1-.106a.216.216,0,0,0-.035-.143l-.214-.389a.032.032,0,0,1,.015-.049l.105-.057a.041.041,0,0,1,.028,0,.028.028,0,0,1,.022.017l.244.444a.3.3,0,0,1,.034.255.369.369,0,0,1-.178.188Zm.738,1.25a.241.241,0,0,1-.15.021.127.127,0,0,1-.088-.08l-.175-.419a.041.041,0,0,1,0-.029.037.037,0,0,1,.022-.021l.112-.047a.032.032,0,0,1,.029,0,.037.037,0,0,1,.018.022l.133.314c.012.027.026.041.043.041a.275.275,0,0,0,.076-.023l.5-.208a.309.309,0,0,0,.092-.053.119.119,0,0,0,.038-.061.165.165,0,0,0,0-.07.606.606,0,0,0-.029-.08l-.071-.165a.3.3,0,0,0-.029-.061.149.149,0,0,0-.041-.042.143.143,0,0,0-.058-.019.243.243,0,0,0-.084.007l-.85.193a.02.02,0,0,1-.023-.009.211.211,0,0,1-.013-.026l-.058-.139a.018.018,0,0,1,.008-.023.058.058,0,0,1,.031-.012l.709-.142.253-.36a.044.044,0,0,1,.024-.016.028.028,0,0,1,.024,0l.11.089a.04.04,0,0,1,.011.053l-.187.241.108,0a.242.242,0,0,1,.15.039.289.289,0,0,1,.092.13l.116.275a.343.343,0,0,1,.028.118.257.257,0,0,1-.017.112.28.28,0,0,1-.066.1.359.359,0,0,1-.116.075Zm1.026-.044a.041.041,0,0,1,.03,0,.033.033,0,0,1,.018.02l.17.53a.7.7,0,0,1,.032.153.312.312,0,0,1-.016.14.282.282,0,0,1-.084.118.488.488,0,0,1-.174.088l-.774.247a.032.032,0,0,1-.046-.022l-.038-.119a.037.037,0,0,1,0-.028.036.036,0,0,1,.022-.018l.721-.23a.884.884,0,0,0,.1-.039.17.17,0,0,0,.063-.048.107.107,0,0,0,.023-.072.366.366,0,0,0-.022-.113l-.173-.528a.033.033,0,0,1,0-.027.037.037,0,0,1,.023-.019Zm-1.034.56a.032.032,0,0,1-.046-.023l-.038-.118a.033.033,0,0,1,.024-.047l.573-.183a.034.034,0,0,1,.047.024l.037.118a.033.033,0,0,1-.024.047Z" transform="translate(2862.546 -77.994)" fill="#4caf51"/>
        <path id="Path_2874" data-name="Path 2874" d="M-2838.318,112.385l4,12.087c.416,1.267.486,2.227-1.719,2.539l5.528-.018c1.569,0,1.833-.668,1.163-2.008l-2.8-5.6c-.718-1.435-.806-1.672.1-3.009l1.928-2.861c.845-1.254.317-2.021-1.1-2.022l-6.139,0c-.86,0-1.266-.051-.955.895" transform="translate(2862.038 -99.572)" fill="#4caf51"/>
        <path id="Path_2875" data-name="Path 2875" d="M-2871.493,93.161l-2.753,5.15-4.819,0c-1.2,0-1.61.684-.914,1.823l2.721,4.449-3.454,6.455c-.369.638-.2,1.424.664,1.424h4.677l3.619-8.505c.44-1.124,2.071-.367,1.466.848l-2.284,5.817c-.751,1.317-.319,2.026,1.1,2.026l5.237,0c1.343,0,1.221-.7.78-2.063l-3.631-11.2a.91.91,0,0,1,1.348-1c.509.371-.14-.748-.277-1.092l-1.685-4.238c-.414-1.044-1.252-.9-1.791.107" transform="translate(2890.815 -86.577)" fill="#4caf51"/>
        <path id="Path_2876" data-name="Path 2876" d="M-2907.534,162.989v2.2h1.98v-1.244a1.53,1.53,0,0,0-.071-.519.537.537,0,0,0-.223-.285.934.934,0,0,0-.39-.116c-.158-.016-.352-.026-.577-.033Zm3.22,2.979a.321.321,0,0,1-.36.366h-3.737a.322.322,0,0,1-.363-.366V162.2a.324.324,0,0,1,.363-.37h2a4.355,4.355,0,0,1,.913.086,1.608,1.608,0,0,1,.661.293,1.265,1.265,0,0,1,.4.56,2.531,2.531,0,0,1,.133.884Z" transform="translate(2909.702 -133.723)" fill="#4caf51"/>
        <path id="Path_2877" data-name="Path 2877" d="M-2889.086,166.2a.128.128,0,0,1-.04.1.144.144,0,0,1-.093.034h-.972a.118.118,0,0,1-.133-.135v-2.563c0-.092,0-.176-.008-.256a.4.4,0,0,0-.071-.207.388.388,0,0,0-.2-.138,1.308,1.308,0,0,0-.4-.047h-1.254v3.21a.129.129,0,0,1-.04.1.138.138,0,0,1-.1.034h-.964a.156.156,0,0,1-.1-.034.124.124,0,0,1-.039-.1v-4.226a.135.135,0,0,1,.039-.1.132.132,0,0,1,.1-.044h2.773a2.811,2.811,0,0,1,.581.059,1.178,1.178,0,0,1,.479.216,1.075,1.075,0,0,1,.323.429,1.8,1.8,0,0,1,.117.7Z" transform="translate(2899.353 -133.723)" fill="#4caf51"/>
        <path id="Path_2878" data-name="Path 2878" d="M-2876.564,165.975a.321.321,0,0,1-.367.359h-1.95c-.1,0-.144-.044-.144-.135v-.872a.145.145,0,0,1,.042-.107.133.133,0,0,1,.1-.043h1.082v-1.885a.323.323,0,0,0-.068-.245.446.446,0,0,0-.276-.058h-.471a.137.137,0,0,1-.1-.04.122.122,0,0,1-.039-.091v-.885a.14.14,0,0,1,.039-.1.129.129,0,0,1,.1-.045h1a1.027,1.027,0,0,1,.814.275,1.251,1.251,0,0,1,.234.828Z" transform="translate(2889.547 -133.723)" fill="#4caf51"/>
        <path id="Path_2879" data-name="Path 2879" d="M-2865.94,165.5a.88.88,0,0,1-.139.534.474.474,0,0,1-.4.183h-1.74c-.083,0-.124-.044-.124-.134v-.866a.179.179,0,0,1,.031-.107.111.111,0,0,1,.093-.042h.814c.115,0,.182-.027.2-.081a1.023,1.023,0,0,0,.028-.283v-1.2c0-.16,0-.284-.006-.37a.257.257,0,0,0-.078-.187.412.412,0,0,0-.225-.066c-.1-.007-.25-.009-.445-.009a.54.54,0,0,0-.437.148,1.136,1.136,0,0,0-.206.423l-.727,2.7c-.01.041-.03.064-.063.068a.615.615,0,0,1-.109.008h-1.018a.074.074,0,0,1-.08-.062.239.239,0,0,1,0-.117l.643-2.078-1.01-1.523a.252.252,0,0,1-.042-.17.187.187,0,0,1,.064-.135l.485-.4a.327.327,0,0,1,.226-.073.2.2,0,0,1,.188.1l.51.858.132-.321a.954.954,0,0,1,.342-.445,1.059,1.059,0,0,1,.576-.134h1.386a1.269,1.269,0,0,1,.44.075,1.009,1.009,0,0,1,.354.22,1.052,1.052,0,0,1,.244.364,1.321,1.321,0,0,1,.09.5Z" transform="translate(2884.095 -133.603)" fill="#4caf51"/>
        <path id="Path_2880" data-name="Path 2880" d="M-2849.188,167.716a.117.117,0,0,1-.039.091.14.14,0,0,1-.1.034h-.964a.155.155,0,0,1-.1-.034.116.116,0,0,1-.041-.091v-5.743a.14.14,0,0,1,.041-.1.132.132,0,0,1,.1-.044h.964a.12.12,0,0,1,.1.044.141.141,0,0,1,.039.1Z" transform="translate(2870.173 -133.723)" fill="#4caf51"/>
        <path id="Path_2881" data-name="Path 2881" d="M-2843.962,166.2a.131.131,0,0,1-.039.1.141.141,0,0,1-.1.034h-.963a.159.159,0,0,1-.1-.034.128.128,0,0,1-.04-.1v-4.226a.14.14,0,0,1,.04-.1.135.135,0,0,1,.1-.044h.963a.121.121,0,0,1,.1.044.144.144,0,0,1,.039.1Z" transform="translate(2866.633 -133.723)" fill="#4caf51"/>
        <path id="Path_2882" data-name="Path 2882" d="M-2837.085,166.2a.137.137,0,0,1-.038.1.154.154,0,0,1-.1.034h-.961a.118.118,0,0,1-.132-.135v-2.758a.648.648,0,0,0-.072-.351c-.048-.068-.156-.1-.324-.1h-1.644a.125.125,0,0,1-.1-.04.125.125,0,0,1-.036-.091v-.886a.146.146,0,0,1,.036-.1.119.119,0,0,1,.1-.044h2.1a1.277,1.277,0,0,1,.877.263,1.048,1.048,0,0,1,.3.825Z" transform="translate(2863.442 -133.723)" fill="#4caf51"/>
        <path id="Path_2883" data-name="Path 2883" d="M-2825.225,164.537a3.45,3.45,0,0,1-.085.825,1.274,1.274,0,0,1-.283.555,1.129,1.129,0,0,1-.522.316,2.717,2.717,0,0,1-.8.1h-1.458a.118.118,0,0,1-.134-.134v-.865a.164.164,0,0,1,.034-.107.126.126,0,0,1,.1-.042h.952q.313,0,.5-.015a.557.557,0,0,0,.291-.088.372.372,0,0,0,.132-.24,2.683,2.683,0,0,0,.031-.469v-.484a3.453,3.453,0,0,0-.022-.424.57.57,0,0,0-.106-.278.467.467,0,0,0-.242-.152,1.642,1.642,0,0,0-.444-.047h-1.174a.137.137,0,0,1-.094-.036.114.114,0,0,1-.041-.095v-.886a.135.135,0,0,1,.041-.1.121.121,0,0,1,.094-.044h1.653a1.742,1.742,0,0,1,1.153.353,1.385,1.385,0,0,1,.422,1.124Z" transform="translate(2855.375 -133.723)" fill="#4caf51"/>
        <path id="Path_2884" data-name="Path 2884" d="M-2814.687,162.825a.232.232,0,0,1-.024.121c-.016.029-.052.044-.107.044h-.424a.825.825,0,0,0-.293.489,1.6,1.6,0,0,0-.014.628l.395,2.094a.107.107,0,0,1-.033.1.152.152,0,0,1-.1.034h-.98a.119.119,0,0,1-.134-.135l-.329-1.864a1.992,1.992,0,0,1-.038-.324,1.98,1.98,0,0,1,.018-.357,1.538,1.538,0,0,1,.1-.353,1.092,1.092,0,0,1,.2-.312h-.7a.123.123,0,0,1-.1-.04.13.13,0,0,1-.035-.091v-.886a.147.147,0,0,1,.035-.1.12.12,0,0,1,.1-.041h2.338a.107.107,0,0,1,.087.041.176.176,0,0,1,.045.077Z" transform="translate(2847.719 -133.723)" fill="#4caf51"/>
      </g>
      <path id="Path_2885" data-name="Path 2885" d="M-4838.18-11289.754c.981-2.41,3.75-10.541,3.75-10.541v41.918l-.652,6.157S-4836.988-11287.8-4838.18-11289.754Z" transform="translate(4869.997 11396.939)" fill="#311e69" opacity="0.1"/>
      <path id="Path_2886" data-name="Path 2886" d="M-4816.644-11329.924c-5.389,1.308-13.591,5.231-13.591,5.231a25.752,25.752,0,0,0,21.557,5.43c13.172-2.5,13.934-7.814,13.934-7.814s-9.468-2.932-13.934-2.847S-4811.254-11331.231-4816.644-11329.924Z" transform="matrix(1, 0.017, -0.017, 1, 4677.301, 11482.205)" fill="#ff9e9e"/>
      <path id="Intersection_10" data-name="Intersection 10" d="M4955.392,11431.078h-.026a27.881,27.881,0,0,1-5.369-.652,1.1,1.1,0,0,1-.206-.1l-.847-4.717a27.2,27.2,0,0,0,9.848,2.666c6.052.561,9.967.982,9.967.982l-.1.546c-.059.279-.12.562-.184.845l-.707.043c-1.838,0-3.675.1-5.5.2-1.272.07-2.542.142-3.808.178-.61.011-1.205.018-1.768.018C4956.232,11431.091,4955.8,11431.087,4955.392,11431.078Z" transform="translate(-4863.037 -11332.874)" fill="#311e69" opacity="0.1"/>
    </g>
  </g>
</svg>
