<svg xmlns="http://www.w3.org/2000/svg" xmlns:xlink="http://www.w3.org/1999/xlink" width="274.54" height="178.026" viewBox="0 0 274.54 178.026"><defs><style>.a{fill:#c7007d;}.b{fill:#a2d45e;}.c{fill:#fbbae2;}.d{fill:url(#a);}.e{clip-path:url(#b);}.f{fill:#ff9e9e;}.g{fill:#f68895;}.h{fill:#474747;}.i{fill:#cb077b;}.j{fill:#af0569;}.k{fill:#462261;}.l{fill:#311649;}.m{fill:#f9dee4;}.n{fill:#4caf51;}.o{fill:#d5d3db;}</style><linearGradient id="a" x1="-0.02" y1="0.922" x2="0.985" y2="0.353" gradientUnits="objectBoundingBox"><stop offset="0" stop-color="#fbbae2"/><stop offset="0.128" stop-color="#fbc5e5"/><stop offset="0.422" stop-color="#fcd9eb"/><stop offset="0.714" stop-color="#fce5ee"/><stop offset="1" stop-color="#fdeaf0"/></linearGradient><clipPath id="b"><path class="a" d="M95.928,102.408a8.7,8.7,0,0,1-7.164,4.478,8.6,8.6,0,0,1-1.084,0,8.783,8.783,0,0,1-7.3-12.354c1.1-4.277,5.873-11.767,5.873-11.767A4.424,4.424,0,0,1,87.7,80.882a1.612,1.612,0,0,1,1.516-.212,2.855,2.855,0,0,1,1.42,1.6L95.344,92.7c.75,1.587,1.641,3.119,1.675,5.015A8.644,8.644,0,0,1,95.928,102.408Z" transform="translate(-79.564 -80.568)"/></clipPath></defs><g transform="translate(-898.219 -163.189)"><g transform="translate(898.219 163.189)"><path class="b" d="M75.06,66.722c-1.079.058-2.183,1.046-2.987,2.8,0,0-6.069,9.509-7.456,14.941-3.016,6.318.933,13.724,7.293,15.365a14.79,14.79,0,0,1-3.849.717c-11.08.738-19.14-11.217-14.387-21.176,1.874-7.335,10.072-20.176,10.072-20.176,2.049-4.47,5.549-5.253,7.531-.85Z" transform="translate(63.225 -55.408)"/><g transform="translate(0 176.119)"><path class="c" d="M1172.759,271.739a26.907,26.907,0,0,1-4.135.235l-.413.01q-.661.019-1.412.035c-.082,0-.165,0-.248,0q-1.615.037-3.615.072c-.367.007-.743.014-1.129.018-.044,0-.088,0-.132,0-.091,0-.182,0-.276.005-1.128.019-2.336.037-3.619.054l-3.962.049h-.014c-.165,0-.332,0-.5.007l-1.718.018c-.209,0-.422,0-.634.007q-4.011.047-8.661.084l-6.772.053c-25.038.184-60.592.3-100.034.3-24.425,0-47.359-.044-67.229-.121-5.451-.021-10.672-.046-15.628-.072-6.336-.033-12.244-.07-17.651-.111q-3.051-.021-5.887-.046-1.837-.018-3.578-.032l-.058,0h0q-2.274-.021-4.381-.044-2.567-.024-4.873-.054l-1.04-.012c-.119,0-.239,0-.358,0l-.926-.012c-.063,0-.123,0-.186,0q-.7-.011-1.372-.019l-.211,0h-.046c-1.152-.019-2.238-.033-3.255-.049l-2.159-.039c-.218-.005-.434-.009-.643-.012l-2.161-.046h-.007a43.52,43.52,0,0,1-5.62-.274,39.715,39.715,0,0,1,5.211-.26l.573-.012c.494-.012,1.015-.023,1.569-.035.343-.007.694-.012,1.056-.021l1.744-.03q1.436-.024,3.06-.047l.04,0,.948-.012c.237-.005.474-.009.715-.012l.3,0c.1,0,.195,0,.293,0,.5-.005,1.013-.014,1.535-.019.169,0,.339-.005.511-.005l4.17-.049q2.358-.024,4.942-.049h.058l1.4-.014c2.514-.021,5.175-.044,7.97-.065,6.157-.047,12.972-.091,20.344-.128,5.562-.028,11.441-.053,17.593-.076,18.925-.068,40.431-.109,63.236-.109,39.772,0,75.595.119,100.665.306q3.331.029,6.4.054,4.588.04,8.561.083l.494.005,1.463.016.861.01h.014l4.244.053q1.894.029,3.557.053h.007c.074,0,.148,0,.221.005.4.005.792.012,1.174.019,1.3.023,2.484.046,3.533.07.055,0,.107,0,.158,0l1.214.03c.253.005.5.012.733.019A26.377,26.377,0,0,1,1172.759,271.739Z" transform="translate(-898.219 -270.785)"/></g><path class="d" d="M1146.03,339.4q-.061.482-.13.964c-.165,0-.332,0-.5.007l-1.718.018c-.209,0-.422,0-.634.007q-4.011.047-8.661.084l-6.772.053c-25.038.184-60.592.3-100.034.3-24.425,0-47.359-.044-67.229-.121-5.451-.021-10.672-.046-15.628-.072-6.336-.033-12.244-.07-17.651-.111q-3.051-.021-5.887-.046-1.837-.018-3.578-.032-.287-.567-.573-1.135a84.113,84.113,0,0,1-6.944-17.755c-2.122-8.662-2.126-18.623,1.657-26.3,3.241-6.582,8.829-10.758,12.283-17.16,5.662-10.491,4.522-24.483,6.762-36.915,4.494-24.952,25-43.329,44.817-40.158,10,1.6,19.42,7.924,29.5,8.091,18.194.3,32.752-18.92,50.057-26.124,7.415-3.087,16.19-3.645,22.4,2.4,9.569,9.3,8.5,28.924,16.569,40.338,6.057,8.571,15.738,10.554,24.392,13.822s18.056,10.214,19.039,21.711c1.116,13.063-9.419,25.377-6.159,37.832,1.929,7.362,8,11.45,11.51,17.781C1146.575,323.454,1147.065,331.343,1146.03,339.4Z" transform="translate(-890.315 -162.807)"/></g><g transform="translate(1030.29 178.485)"><g class="e" transform="translate(0 0)"><path class="a" d="M16.045-3949.589c2.581-1.983,2.063-2.845,5.01-1.728s4.011,2.157,6.162,1.728,3.015-.707,4.274,1.42,3.05.137,4.622,1.3,1.511,2.632,1.45,5.259,0,30.916,0,30.916H10.729l.376-38.9A3.966,3.966,0,0,0,16.045-3949.589Z" transform="translate(-14.911 3949.57)"/></g></g><g transform="translate(951.875 187.275)"><g transform="translate(0 0.368)"><path class="f" d="M996.291,194.542c-.054.459-3.077,10.042-4.331,11.572s-2.632,3.083-4.13,4.63-3.116,3.082-4.849,4.578c-.216.189-.437.375-.657.561s-.439.37-.661.55-.441.362-.664.539-.443.355-.668.529c-.448.35-.894.691-1.35,1.025-.227.168-.457.332-.687.5l-.354.248-.182.125-.205.139a3.638,3.638,0,0,1-.646.346c-.079.032-.162.064-.245.091a3.724,3.724,0,0,1-.973.184l-.2.011h0a51.79,51.79,0,0,1-5.562.254,42.909,42.909,0,0,1-5.114-.337,37.823,37.823,0,0,1-4.506-.839,28.838,28.838,0,0,1-3.764-1.232c-.279-.114-.552-.23-.812-.346s-.514-.245-.759-.368a15.255,15.255,0,0,1-1.348-.753,13.339,13.339,0,0,1-1.118-.775,9.928,9.928,0,0,1-.884-.782,5.491,5.491,0,0,1-.643-.768,3.658,3.658,0,0,1-.4-.736,1.847,1.847,0,0,1-.07-1.311,1.948,1.948,0,0,1,.87-.987,3.815,3.815,0,0,1,.743-.343,7.352,7.352,0,0,1,.928-.245,10.071,10.071,0,0,1,1.1-.152c.393-.032.818-.062,1.262-.066s.918,0,1.412.014c.246.007.5.023.759.037s.525.029.8.048c1.082.084,2.259.195,3.516.348,1.26.136,2.6.323,4.026.495.746.095,1.514.193,2.3.289.716.089,1.448.177,2.2.257,1.266.139,2.58.275,3.933.391h0c.446-.307.9-.627,1.357-.952.211-.148.421-.3.63-.452s.423-.305.634-.461.425-.309.638-.468.427-.312.639-.475c1.691-1.266,3.319-2.544,4.865-3.815s3.016-2.53,4.387-3.764,5.252-5.154,5.582-5.514c.168-.179.32-.355.468-.523s.293-.323.43-.471a15.153,15.153,0,0,1,1.357-1.337c.357-.284.623-.4.787-.311S996.339,194.082,996.291,194.542Z" transform="translate(-915.041 -183.9)"/><path class="g" d="M976.907,210.181c-.079.032-.162.064-.245.091a3.723,3.723,0,0,1-.973.184l-.2.011h0a51.786,51.786,0,0,1-5.562.254,42.913,42.913,0,0,1-5.114-.337,37.829,37.829,0,0,1-4.506-.839,28.837,28.837,0,0,1-3.764-1.232c-.279-.114-.552-.23-.812-.346s-.514-.245-.759-.368a15.251,15.251,0,0,1-1.348-.753,13.329,13.329,0,0,1-1.118-.775,9.933,9.933,0,0,1-.884-.782,5.493,5.493,0,0,1-.643-.768,3.658,3.658,0,0,1-.4-.736,1.847,1.847,0,0,1-.07-1.31,1.948,1.948,0,0,1,.87-.987,3.814,3.814,0,0,1,.743-.343,7.349,7.349,0,0,1,.928-.245,10.067,10.067,0,0,1,1.1-.152c.393-.032.818-.062,1.262-.066s.918,0,1.412.014c.246.007.5.023.759.038s.525.029.8.048c1.082.084,2.259.195,3.516.348,1.26.136,2.6.323,4.026.495.746.095,1.514.193,2.3.289a6.793,6.793,0,0,0,1.487,4.215,10.69,10.69,0,0,0,4.478,3.182A21.1,21.1,0,0,0,976.907,210.181Z" transform="translate(-915.041 -174.201)"/><path class="f" d="M955.586,206.29a4.389,4.389,0,0,1-.236.932c-.057.154-.125.309-.2.462-.037.077-.077.154-.12.23s-.084.159-.128.237a7.131,7.131,0,0,1-.643.937c-.248.305-.525.618-.829.928s-.646.609-1,.928c-.178.157-.366.314-.561.468l-.3.23-.3.239c-.82.634-1.741,1.275-2.73,1.957-.246.173-.5.343-.761.516s-.514.357-.782.536c-.132.089-.266.18-.4.27l-.4.286q-.4.281-.83.566c-.279.193-.552.4-.837.6l-.432.3c-.141.105-.286.211-.428.316-.288.211-.582.423-.873.643s-.577.452-.873.678-.591.464-.885.7q-.1.091-.214.177c-.223.184-.45.368-.668.562-.082.07-.164.141-.245.211.3.209.6.42.907.618l.932.646c.309.211.6.432.9.641s.593.416.878.625l1.664,1.225c.268.2.53.4.784.6s.511.387.761.575.486.382.721.566.469.364.693.548.445.359.659.534.421.345.623.514c.807.677,1.518,1.307,2.123,1.884.15.145.295.286.432.425s.27.268.393.4c.247.261.464.511.652.743.754.93,1.023,1.627.766,1.971a.8.8,0,0,1-.734.221,3.324,3.324,0,0,1-.611-.111c-.227-.061-.479-.148-.757-.25a21.137,21.137,0,0,1-1.928-.88c-.364-.187-.754-.386-1.162-.6s-.835-.45-1.289-.693-.923-.5-1.414-.762-1.007-.536-1.537-.816-1.084-.564-1.66-.845c-.286-.143-.575-.286-.87-.434s-.6-.282-.905-.425c-.609-.287-1.237-.575-1.887-.852l-.98-.421c-.33-.141-.671-.27-1.012-.407s-.684-.264-1.03-.4l-.523-.2c-.177-.064-.354-.123-.532-.186q-1.068-.378-2.169-.736a3.177,3.177,0,0,1-1.721-4.683l.387-.634c.186-.3.37-.6.557-.905.095-.152.188-.3.282-.455s.2-.3.3-.452c.259-.389.525-.768.78-1.155s.537-.748.805-1.118.55-.723.83-1.077.55-.711.841-1.043.573-.671.859-1,.589-.636.879-.95c.146-.155.289-.312.436-.464s.3-.3.448-.443c.3-.293.6-.578.891-.861s.6-.543.9-.805c.15-.132.3-.262.448-.389s.305-.245.455-.364c.186-.152.371-.3.557-.446.112-.089.225-.177.338-.264.3-.223.6-.436.9-.643s.588-.414.887-.6.591-.361.88-.532a19.3,19.3,0,0,1,1.714-.9,15.1,15.1,0,0,1,1.635-.661c.132-.046.262-.089.393-.132s.255-.08.386-.114c.255-.068.507-.129.752-.18a8.083,8.083,0,0,1,2.651-.17,4.458,4.458,0,0,1,1.968.677,3.026,3.026,0,0,1,1.141,1.357A3.342,3.342,0,0,1,955.586,206.29Z" transform="translate(-930.604 -172.813)"/><path class="g" d="M951.091,206.29a4.4,4.4,0,0,1-.236.932c-.057.154-.125.309-.2.462-.037.077-.077.154-.12.23s-.084.159-.128.237a7.125,7.125,0,0,1-.643.937c-.248.305-.525.618-.829.928s-.646.609-1,.928c-.179.157-.366.314-.561.468l-.3.23-.3.239c-.819.634-1.741,1.275-2.73,1.957-.246.173-.5.343-.761.516s-.514.357-.782.536c-.132.089-.266.18-.4.27l-.4.286q-.4.281-.83.566c-.279.193-.552.4-.838.6l-.432.3c-.141.105-.286.211-.428.316-.288.211-.582.423-.873.643s-.577.452-.873.678-.591.464-.885.7q-.1.091-.214.177c3.967-7.022.905-12.757.905-12.757.112-.089.225-.177.338-.264.3-.223.6-.436.9-.643s.588-.414.887-.6.591-.361.88-.532a19.29,19.29,0,0,1,1.714-.9,15.1,15.1,0,0,1,1.635-.661c.132-.046.262-.089.393-.132s.255-.08.386-.114c.255-.068.507-.129.752-.18a8.083,8.083,0,0,1,2.651-.17,4.457,4.457,0,0,1,1.968.677,3.025,3.025,0,0,1,1.141,1.357A3.343,3.343,0,0,1,951.091,206.29Z" transform="translate(-926.109 -172.813)"/><path class="h" d="M943.971,266.222a15.613,15.613,0,0,0-2.416,8.861,52.768,52.768,0,0,0,9.425.1c.4-1.459-.227-2.964-.755-4.38a8.073,8.073,0,0,1-.773-4.4C947.682,266.292,945.743,266.165,943.971,266.222Z" transform="translate(-922.009 -122.732)"/><path class="h" d="M953.946,265.413a21.33,21.33,0,0,1-.464,9.783,39.689,39.689,0,0,0,13.468.543,2.124,2.124,0,0,0-.221-2.509,4.4,4.4,0,0,0-2.228-1.321,16.323,16.323,0,0,1-2.5-.812,4.976,4.976,0,0,1-2.653-4.987A9.291,9.291,0,0,0,953.946,265.413Z" transform="translate(-912.635 -123.451)"/><path class="i" d="M970.427,300.825v0l-.17.868,0,0-.246,1.25a17.184,17.184,0,0,1-6.583.555,13.605,13.605,0,0,1-1.794-.295l.266-2.362,0-.02a237.559,237.559,0,0,0-.679-48.805c-.516-4.487-1.11-8.581-1.718-12.209q-.431,6.452-.939,12.17c-2.125,24.118-5.087,38.764-7.4,47.211l-1.016,4.224c-5.272,1.625-8.306-.541-8.306-.541l.752-5.612c2.221-18.39,3.214-33.2,3.55-44.8q.107-3.835.132-7.206.024-3.739-.036-6.926c-.012-.643-.025-1.269-.041-1.88q-.022-.854-.048-1.664c-.055-1.652-.123-3.167-.2-4.558-.018-.316-.036-.628-.053-.932-.013-.193-.023-.38-.034-.566s-.023-.346-.036-.516q-.075-1.133-.157-2.135c0-.077-.013-.155-.018-.232-.037-.416-.07-.816-.1-1.2-.168-1.787-.336-3.173-.471-4.174l14.518.307,9.449.2c.066.384.136.766.2,1.153.013.086.03.175.043.264.122.721.237,1.441.354,2.159q.375,2.354.7,4.674a.513.513,0,0,1,.009.052c.141,1.009.273,2.012.4,3.012v0c.152,1.161.289,2.312.42,3.458.045.395.087.791.132,1.182l0,.016q.169,1.564.32,3.108c.15,1.562.287,3.112.411,4.64q.321,4.108.511,8.04A256.042,256.042,0,0,1,970.427,300.825Z" transform="translate(-921.779 -158.65)"/><path class="j" d="M955.656,295.995a13.605,13.605,0,0,1-1.794-.295l.266-2.362,0-.02a237.559,237.559,0,0,0-.679-48.805c-.516-4.487-1.111-8.581-1.718-12.209l5.954-2.269S961.317,274.627,955.656,295.995Z" transform="translate(-914.008 -151.144)"/><path class="j" d="M969.88,236.945c-7.756-6.479-21.143-7.49-25.408-7.645-.013-.193-.023-.38-.034-.566s-.023-.346-.036-.516q-.075-1.133-.157-2.135c0-.077-.013-.155-.018-.232-.037-.416-.07-.816-.1-1.2-.168-1.787-.336-3.173-.471-4.174l14.518.307,9.449.2c.066.384.136.766.2,1.153.013.086.03.175.043.264.122.721.237,1.441.353,2.159q.375,2.354.7,4.674a.5.5,0,0,1,.009.052q.212,1.513.4,3.012v0c.152,1.161.289,2.312.42,3.458C969.793,236.158,969.836,236.554,969.88,236.945Z" transform="translate(-920.355 -158.65)"/><path class="b" d="M977.847,212.384a36.189,36.189,0,0,1-7.8-.966c.882,7.77,2.121,18.569,2.528,21.618.061.437.121.88.184,1.323.122.852.252,1.712.393,2.587.4,2.512.869,5.1,1.427,7.743q-3.018.375-6.051.562a97.067,97.067,0,0,1-19.817-.811c-.025-1.014-.055-2.176-.1-3.444-.146-4.6-.4-10.573-.761-15.9-.105-1.553-.491-5.906-.886-10.213l-4.9,2.957c-2.605-1.857-4.485-5.322-4.923-9.42,4.906-3.837,12.909-6.171,16.644-7.1l.014,0c.421-.105.787-.193,1.089-.262.489-.112.805-.179.9-.2l.029-.005h0c.309-.055.493-.079.541-.084l.011,0v0l.07-.029c1.234-.5,2.466-.989,3.7-1.487.159-.062.318-.127.477-.191l.416.211c1.378.689,2.88,1.375,4.389,2.06l.414.187s8.42.525,12.266,1.5C978.118,203.012,979.148,206.589,977.847,212.384Z" transform="translate(-925.462 -175.478)"/><g transform="translate(26.516 0.803)"><path class="k" d="M945.865,191.656q.854,2.93,1.707,5.858a6.529,6.529,0,0,0,2.01,3.66,3.312,3.312,0,0,0,3.678.08,12.751,12.751,0,0,1-3.6-5.347,14.017,14.017,0,0,0-1.1-2.878A2.969,2.969,0,0,0,945.865,191.656Z" transform="translate(-945.134 -182.102)"/><path class="f" d="M956.688,205.551a20.79,20.79,0,0,1-8.8-.107,12.248,12.248,0,0,0,1.037-4.649c0-.021,0-.046,0-.068a12.769,12.769,0,0,0-.127-2.053,12.466,12.466,0,0,0-1.5-4.389c3.376-.177,7.09,1.13,8.661,3.73a16.355,16.355,0,0,0-.15,2c0,.295,0,.587.013.882.016.38.045.762.086,1.143.048.443.114.886.2,1.323A16.783,16.783,0,0,0,956.688,205.551Z" transform="translate(-944.006 -180.038)"/><path class="l" d="M953.15,189.208a7.191,7.191,0,0,1-.384,5.954c-.252-1.432-.507-2.8-.759-4.237a2.151,2.151,0,0,1,.277-1.919.621.621,0,0,1,.553-.2C953.039,188.849,953.251,189.03,953.15,189.208Z" transform="translate(-940.381 -184.34)"/><path class="g" d="M955.824,200.9c.016.38.045.762.086,1.143a7.335,7.335,0,0,1-2.094-.452,7.445,7.445,0,0,1-3.667-3.007,8.17,8.17,0,0,0-1.162-1.712,2.022,2.022,0,0,0-.718-.434,12.347,12.347,0,0,0-.968-2.153c3.376-.177,7.09,1.13,8.661,3.73a16.355,16.355,0,0,0-.15,2C955.808,200.313,955.811,200.605,955.824,200.9Z" transform="translate(-944.006 -180.038)"/><path class="f" d="M956.431,188.725a13.361,13.361,0,0,0,1.514,8.3c.782,1.419,1.866,2.835,1.755,4.451-.146,2.132-2.5,3.612-4.626,3.4a7.836,7.836,0,0,1-5.2-3.412,14.693,14.693,0,0,1-2.683-11.088A16.223,16.223,0,0,1,956.431,188.725Z" transform="translate(-944.246 -184.489)"/><path class="k" d="M949.09,199.392a10.778,10.778,0,0,0,.448-6.19,7.89,7.89,0,0,0,6.253-.282,7.7,7.7,0,0,0,3.974-4.735,17.281,17.281,0,0,0-7.329-1.882,5.615,5.615,0,0,0-3.135.639,3.438,3.438,0,0,0-1.455,3.726,2.051,2.051,0,0,0-2.151,1.361,4.146,4.146,0,0,0-.021,2.707A8.115,8.115,0,0,0,949.09,199.392Z" transform="translate(-945.455 -186.299)"/><path class="f" d="M948.479,193.918a.877.877,0,0,0-.764-.855,1.139,1.139,0,0,0-1.064.543,1.644,1.644,0,0,0-.178,1.218,3.033,3.033,0,0,0,.546,1.127,2.853,2.853,0,0,0,1.448,1.128,1.5,1.5,0,0,0,1.664-.525C949.365,195.773,948.429,195.011,948.479,193.918Z" transform="translate(-944.691 -180.991)"/><path class="m" d="M952.059,195.105a4.41,4.41,0,0,0,1.757-.5.188.188,0,0,1,.277.152,1.164,1.164,0,0,1-.3.916,1.368,1.368,0,0,1-1.22.4c-.35-.064-.532-.375-.677-.707A.187.187,0,0,1,952.059,195.105Z" transform="translate(-940.406 -179.791)"/></g><path class="f" d="M942.709,218.387a8.366,8.366,0,0,1,5.947-1.884,2.155,2.155,0,0,1,1.573.645,2.217,2.217,0,0,1,.312,1.525,10.887,10.887,0,0,1-.453,2.494,2.964,2.964,0,0,1-.455.98,1.217,1.217,0,0,1-.921.5,2.414,2.414,0,0,1-1.053-.395,3.933,3.933,0,0,0-2.342-.371c-.523.079-1.027.264-1.55.346a2.02,2.02,0,0,1-1.521-.271,1.034,1.034,0,0,1-.282-1.4A4.133,4.133,0,0,0,942.709,218.387Z" transform="translate(-921.814 -161.792)"/><path class="f" d="M957.446,204.8a4.187,4.187,0,0,1-2.169,1.635,6.18,6.18,0,0,1-8.315-5.433,15.456,15.456,0,0,1,1.707-.329l.012,0v0l.068-.029c1.236-.5,2.466-.989,3.7-1.487.3.014.6.02.893.02,1.378.689,2.88,1.375,4.39,2.06.05.177.095.357.13.539A4.2,4.2,0,0,1,957.446,204.8Z" transform="translate(-917.755 -175.393)"/><path class="f" d="M976.617,194.9a9.277,9.277,0,0,1,3.2-8.392,1.871,1.871,0,0,1,1.876-.536c.636.3.779,1.132.771,1.835a11.008,11.008,0,0,1-1.55,5.513c.457-.4.862-.852,1.319-1.25.214-.186.53-.377.752-.2s.118.495,0,.734a8.013,8.013,0,0,1-4.73,4.021C977.726,196.045,977.153,195.486,976.617,194.9Z" transform="translate(-917.45 42.451) rotate(-13)"/><path class="g" d="M981.562,191.916a.5.5,0,0,0-.429-.252.657.657,0,0,0-.234.037,1.079,1.079,0,0,0-.362.225l-.277.246-.284.241-.155.127a9.642,9.642,0,0,0,.839-2.648,9.385,9.385,0,0,0,.077-2.509,2.414,2.414,0,0,0-.279-.952,1.208,1.208,0,0,0-.562-.509.856.856,0,0,0-.475-.064c-.107.023-.155.057-.152.066s.059.005.159.007a.932.932,0,0,1,.405.118,1.122,1.122,0,0,1,.448.48,2.286,2.286,0,0,1,.2.877,10.073,10.073,0,0,1-1.114,5.237c-.059.118-.127.23-.189.345l-.025.043-.011.021-.007.011,0,.005-.007.012-.009.018a.212.212,0,0,0,.018.187.208.208,0,0,0,.159.095.2.2,0,0,0,.1-.016.15.15,0,0,0,.038-.021l.018-.013,0,0,.018-.016.146-.129.589-.5c.1-.082.193-.166.287-.25s.189-.173.273-.25a.757.757,0,0,1,.245-.162.242.242,0,0,1,.2,0,.177.177,0,0,1,.091.152.687.687,0,0,1-.041.264,1.294,1.294,0,0,1-.055.136l-.068.143c-.044.095-.1.184-.143.273a6.552,6.552,0,0,1-.634.932,6.991,6.991,0,0,1-1.18,1.141c-.311.236-.495.355-.48.379a1.6,1.6,0,0,0,.561-.262,5.819,5.819,0,0,0,1.294-1.091,6.332,6.332,0,0,0,.7-.948c.05-.093.109-.184.157-.282l.077-.148a1.243,1.243,0,0,0,.071-.166.987.987,0,0,0,.066-.4A.562.562,0,0,0,981.562,191.916Z" transform="matrix(0.978, -0.208, 0.208, 0.978, -916.114, 24.713)"/></g><g transform="translate(85.384 0)"><path class="f" d="M1026.042,214.149a3.981,3.981,0,0,1-.36.755,5.545,5.545,0,0,1-.577.788,9.147,9.147,0,0,1-.791.8,12.132,12.132,0,0,1-1,.8,13.067,13.067,0,0,1-1.209.773c-.17.1-.343.2-.522.3l-.157.082c-.235.119-.479.238-.729.356a23.753,23.753,0,0,1-3.378,1.265,30.086,30.086,0,0,1-4.043.861,33.724,33.724,0,0,1-4.588.346c-.37,0-.746,0-1.125-.006-1.256-.022-2.547-.1-3.863-.255h0l-.181-.011a2.982,2.982,0,0,1-.875-.189,3.15,3.15,0,0,1-.8-.449l-.186-.143-.162-.128c-.106-.084-.211-.169-.317-.255-.208-.169-.415-.337-.618-.509-.407-.343-.809-.693-1.211-1.052-.2-.178-.4-.359-.6-.543s-.4-.367-.594-.553-.4-.374-.594-.564-.4-.381-.59-.575c-1.554-1.536-3.005-3.114-4.349-4.7s-2.582-3.182-3.707-4.752-2.137-3.114-3.031-4.6c-.226-.37-3.766-7.373-3.993-7.921s-.409-1.081-.581-1.563c-.088-.24-.163-.475-.232-.7s-.133-.44-.192-.645a10.524,10.524,0,0,1-.413-1.95c-.045-.473,0-.759.149-.847s.384.027.7.319,10.361,12.29,11.591,13.555,2.547,2.56,3.936,3.863,2.849,2.617,4.367,3.917c.189.167.381.326.572.488s.381.324.572.48.38.317.569.473.378.312.566.464c.41.334.817.662,1.219.977h0c1.216-.119,2.393-.258,3.529-.4q.894-.113,1.751-.233c.785-.108,1.547-.222,2.286-.328,1.277-.176,2.48-.368,3.61-.508,1.128-.158,2.183-.271,3.156-.357.242-.02.481-.037.714-.049s.458-.031.681-.038.426-.013.631-.015.431,0,.636,0c.4,0,.778.035,1.131.068a7.955,7.955,0,0,1,.987.156,5.989,5.989,0,0,1,.833.251,3.264,3.264,0,0,1,.665.352,1.927,1.927,0,0,1,.78,1.014A2.139,2.139,0,0,1,1026.042,214.149Z" transform="translate(-972.548 -184.382)"/><path class="g" d="M1013,207.884l-.175.08q-.394.174-.812.346a28.954,28.954,0,0,1-3.765,1.232,37.763,37.763,0,0,1-4.507.839,42.917,42.917,0,0,1-5.113.337c-.412,0-.832,0-1.253-.005,2.7-2.728,2.81-6.956,2.714-8.772.875-.105,1.725-.216,2.548-.32,1.423-.171,2.764-.359,4.024-.495,1.257-.154,2.434-.264,3.517-.348.27-.02.536-.036.8-.048s.511-.03.759-.038.475-.012.7-.014Z" transform="translate(-964.5 -173.832)"/><g transform="translate(68.184 37.325)"><path class="f" d="M1029.847,229.8c-.007.557-.016,1.107-.023,1.653-.023.546-.05,1.086-.073,1.619s-.072,1.062-.112,1.582-.079,1.034-.143,1.541-.118,1-.177,1.5-.143.977-.212,1.45c-.038.239-.073.475-.111.709s-.084.464-.127.695q-.129.686-.254,1.35c-.091.441-.193.873-.287,1.3s-.182.837-.293,1.241-.211.8-.312,1.184c-.052.193-.1.384-.156.571l-.168.554c-.223.73-.427,1.423-.662,2.069s-.434,1.255-.666,1.814-.434,1.08-.643,1.552-.421.9-.611,1.275c-.1.189-.186.37-.279.536s-.184.316-.27.459a8.34,8.34,0,0,1-.471.7c-.284.368-.507.536-.668.486s-.253-.32-.286-.778a7.248,7.248,0,0,1-.011-.83c0-.161.012-.334.023-.518s.018-.379.027-.586q.035-.621.1-1.364c.037-.5.066-1.036.109-1.609s.072-1.191.114-1.839.061-1.334.091-2.05c.007-.179.014-.361.021-.543s.007-.37.009-.557q.011-.562.021-1.146c.011-.387,0-.787,0-1.191s0-.814-.009-1.232-.027-.843-.038-1.273c-.009-.214-.011-.432-.021-.65s-.023-.437-.036-.659c-.025-.443-.043-.891-.071-1.344s-.071-.912-.105-1.375-.084-.934-.129-1.405-.086-.952-.152-1.434-.116-.968-.175-1.457-.141-.982-.214-1.48c-.3-1.984-.673-4.021-1.119-6.087s-.973-4.055-1.509-5.963c-.138-.475-.271-.948-.405-1.416s-.284-.925-.425-1.378c-.064-.227-.136-.45-.209-.673s-.148-.45-.22-.673c-.145-.443-.273-.884-.427-1.312s-.289-.855-.429-1.277-.293-.83-.436-1.237c-.023-.064-.045-.132-.068-.2a26.484,26.484,0,0,0,7.976-3.555c.075.175.153.352.23.529.191.45.391.905.577,1.371s.364.945.543,1.427.345.98.512,1.48.339,1.007.482,1.528.3,1.043.446,1.573.266,1.073.4,1.618c.314,1.369.589,2.778.814,4.217.136.861.253,1.734.353,2.614A63.744,63.744,0,0,1,1029.847,229.8Z" transform="translate(-1017.151 -206.548)"/></g><path class="g" d="M1029.131,220.291c-3.125-6.463-8.617-5.881-10.4-5.492-.073-.225-.148-.45-.22-.673-.145-.443-.273-.884-.427-1.312s-.289-.855-.429-1.277-.293-.83-.436-1.237c-.023-.064-.045-.132-.068-.2a26.484,26.484,0,0,0,7.976-3.555c.075.175.153.352.23.529.191.45.391.905.577,1.371s.364.945.543,1.427.345.98.512,1.48.339,1.007.482,1.528.3,1.043.446,1.573.266,1.073.4,1.618C1028.631,217.443,1028.906,218.852,1029.131,220.291Z" transform="translate(-948.967 -169.223)"/><path class="l" d="M1007.672,188.95a8.477,8.477,0,0,0,.211,5.962,27.2,27.2,0,0,0,.907-4.653,1.294,1.294,0,0,0-.13-.882A1.33,1.33,0,0,0,1007.672,188.95Z" transform="translate(-956.759 -183.045)"/><path class="h" d="M1019.656,266.222a15.612,15.612,0,0,1,2.414,8.861,52.767,52.767,0,0,1-9.425.1c-.395-1.459.228-2.964.757-4.38a8.069,8.069,0,0,0,.771-4.4C1015.944,266.292,1017.883,266.165,1019.656,266.222Z" transform="translate(-952.604 -122.363)"/><path class="h" d="M1011.54,265.413A21.375,21.375,0,0,0,1012,275.2a39.685,39.685,0,0,1-13.468.543,2.127,2.127,0,0,1,.221-2.509,4.41,4.41,0,0,1,2.228-1.321,16.2,16.2,0,0,0,2.5-.812,4.981,4.981,0,0,0,2.655-4.987A9.284,9.284,0,0,1,1011.54,265.413Z" transform="translate(-963.84 -123.082)"/><path class="b" d="M1029.184,302.638q-2.279.233-4.619.387a1.906,1.906,0,0,1-1.948-1.346c-2.392-7.931-5.767-23.016-8.117-49.7q-.5-5.723-.939-12.171c-.609,3.628-1.2,7.722-1.719,12.209a237.577,237.577,0,0,0-.65,49.1,1.909,1.909,0,0,1-1.978,2.084q-2.418-.1-4.771-.282a1.908,1.908,0,0,1-1.737-1.623,255.678,255.678,0,0,1-2.189-48.55q.193-3.932.511-8.04.185-2.3.411-4.64.15-1.543.32-3.108.067-.6.134-1.2.2-1.719.42-3.458v0q.193-1.5.4-3.012l.007-.052q.324-2.319.7-4.674c.114-.718.23-1.437.354-2.159.012-.087.028-.179.041-.266.068-.386.136-.768.2-1.152l9.449-.2,14.518-.309c-.136,1-.3,2.389-.471,4.176-.034.384-.066.782-.1,1.2-.007.077-.016.155-.018.234q-.083,1-.159,2.134l-.034.514q-.046.723-.087,1.5-.118,2.086-.2,4.556-.027.812-.05,1.666c-.016.611-.029,1.237-.041,1.88q-.056,3.19-.034,6.926.021,3.374.13,7.206c.357,12.268,1.448,28.14,3.951,48.041A1.9,1.9,0,0,1,1029.184,302.638Z" transform="translate(-962.273 -158.283)"/><path class="n" d="M1006.821,294.99a1.9,1.9,0,0,0,1.128-1.923,237.113,237.113,0,0,1,.65-49.1c.516-4.487,1.111-8.581,1.718-12.209l-4.108-1.025S1001.625,268.528,1006.821,294.99Z" transform="translate(-959.028 -150.228)"/><path class="n" d="M1026.883,220.477c-.136,1-.3,2.389-.471,4.176-.034.384-.066.782-.1,1.2-.007.077-.016.155-.018.234q-.083,1-.159,2.134l-.034.514q-.046.723-.087,1.5-.118,2.086-.2,4.556-.027.812-.05,1.666c-.016.611-.029,1.237-.041,1.88-6.753-8.4-20.233-9.079-24.1-9.1q.324-2.319.7-4.674c.114-.718.23-1.437.354-2.159.013-.087.029-.179.041-.266.068-.386.136-.768.2-1.152l9.449-.2Z" transform="translate(-961.168 -158.283)"/><path class="o" d="M1012.222,199.164l-1.423-.532.525,2.795Z" transform="translate(-953.956 -175.441)"/><path class="i" d="M1041.1,215.612a12.68,12.68,0,0,1-8.668,4.628l-1.812-4.349c-.009.079-.02.157-.03.234-.321,2.357-.6,5.528-.83,8.972-.359,5.328-.614,11.3-.76,15.9-.041,1.268-.071,2.43-.1,3.444a97.067,97.067,0,0,1-19.817.811q-3.035-.187-6.051-.562c.557-2.641,1.03-5.231,1.428-7.743.139-.875.27-1.735.391-2.587.062-.443.123-.886.184-1.323.409-3.05,1.646-13.848,2.528-21.618a36.188,36.188,0,0,1-7.8.966c-1.3-5.8-.271-9.372-.271-9.372,3.819-.968,12.156-1.493,12.266-1.5h0c1.8-.818,3.6-1.635,5.217-2.459,1.394.562,2.785,1.118,4.178,1.678l.07.029v0l.011,0c.271.03,4.931.6,11.991,4.6l.014.007.012.009a10.2,10.2,0,0,1,2.4,1.894,34.452,34.452,0,0,1,3.212,3.924A15.448,15.448,0,0,1,1041.1,215.612Z" transform="translate(-963.139 -175.109)"/><path class="f" d="M1006.823,205.121a19.718,19.718,0,0,0,8.365.271,11.7,11.7,0,0,1-.789-4.465c0-.021,0-.043,0-.062a11.9,11.9,0,0,1,.209-1.946,11.743,11.743,0,0,1,.6-2.1,11.987,11.987,0,0,1,1.011-2.005,11.09,11.09,0,0,0-1.58-.041c-2.734.12-5.465,1.207-6.808,3.221a15.5,15.5,0,0,1,.059,1.91c-.009.28-.025.559-.05.836-.029.364-.073.727-.13,1.084-.018.127-.039.255-.062.382q-.075.437-.182.868A15.245,15.245,0,0,1,1006.823,205.121Z" transform="translate(-957.079 -178.484)"/><path class="g" d="M1007.346,201.815c-.018.127-.039.255-.062.382,6.1.221,7.7-7.1,7.7-7.1l-.707-.334c-2.734.12-5.465,1.207-6.808,3.221a15.513,15.513,0,0,1,.059,1.91c-.009.28-.025.559-.05.836C1007.448,201.1,1007.4,201.458,1007.346,201.815Z" transform="translate(-956.717 -178.479)"/><path class="f" d="M1009.191,189.272a12.7,12.7,0,0,1-1.787,7.818c-.8,1.316-1.893,2.616-1.855,4.158.048,2.03,2.225,3.537,4.253,3.423a7.458,7.458,0,0,0,5.087-3.025,13.978,13.978,0,0,0,3.017-10.425A15.434,15.434,0,0,0,1009.191,189.272Z" transform="translate(-958.081 -182.834)"/><path class="m" d="M1008.458,195.41a4.186,4.186,0,0,1-1.648-.548.181.181,0,0,0-.27.134,1.107,1.107,0,0,0,.243.882,1.3,1.3,0,0,0,1.143.434c.336-.046.521-.334.673-.643A.18.18,0,0,0,1008.458,195.41Z" transform="translate(-957.309 -178.421)"/><path class="j" d="M1014.194,198.93s-1.264,3.219-5.9,3.385l1.646,3.9a9.868,9.868,0,0,0,5.606-5.076Z" transform="translate(-955.928 -175.207)"/><path class="j" d="M1009.934,201.936a3.087,3.087,0,0,1-1.977-2.523l-1.762,1.818s-.08,3.225,1.121,4.285Z" transform="translate(-957.573 -174.827)"/><path class="l" d="M1016.3,195.106v0a1.508,1.508,0,0,0-.321-.375,3.073,3.073,0,0,0-.464-.339,3.609,3.609,0,0,0-.639-.291c-.036-.013-.073-.025-.111-.036-.075-.021-.152-.043-.23-.059h0c-.111-.025-.227-.043-.343-.059a3.3,3.3,0,0,0-.573-.011l-.043.005a1.217,1.217,0,0,0-.023-.371,1.281,1.281,0,0,0-.282-.58,1.809,1.809,0,0,0-1.073-.605,1.937,1.937,0,0,0-.627.016,1.651,1.651,0,0,0-.523.212,1.073,1.073,0,0,0-.452-.277l-.043-.011a1.311,1.311,0,0,0-.589-.005,1.264,1.264,0,0,0-.261-.425,1.789,1.789,0,0,0-.518-.386h0a1.9,1.9,0,0,0-.287-.114,2.1,2.1,0,0,0-.291-.059,2.068,2.068,0,0,0-.421.005,1.275,1.275,0,0,0-.2.037,1.456,1.456,0,0,0-.387.155l0,0a1.079,1.079,0,0,0-.18.118,1.434,1.434,0,0,0-.407.48,1.582,1.582,0,0,0-.189.591,1.553,1.553,0,0,0,.311,1.143l.018.023a1.458,1.458,0,0,0,.475.386,1.639,1.639,0,0,0,.259.1,2.031,2.031,0,0,0,.323.064,1.631,1.631,0,0,0,1.146-.336,1.774,1.774,0,0,0,.668-1.011,1.479,1.479,0,0,0,.029-.437,1.685,1.685,0,0,1,.416.038l.034.011a.921.921,0,0,1,.277.132,1.5,1.5,0,0,0-.205.273,1.53,1.53,0,0,0-.214.584,1.559,1.559,0,0,0,.282,1.177,1.445,1.445,0,0,0,.78.541,1.547,1.547,0,0,0,.25.055,1.608,1.608,0,0,0,1.161-.286,1.767,1.767,0,0,0,.7-.946l.1.005a4.745,4.745,0,0,1,.518.064,4.637,4.637,0,0,1,.482.116l.016.005,0,0c.039.011.077.025.116.037a4.665,4.665,0,0,1,.462.187l.123.057.1.055,0,0a3.942,3.942,0,0,1,.35.205l.177.12a1.928,1.928,0,0,0,.193.123.2.2,0,0,0,.052.023.087.087,0,0,0,.041.005.121.121,0,0,0,.045-.018l.021-.03v-.027A.124.124,0,0,0,1016.3,195.106Zm-6.624-2.076a1.455,1.455,0,0,1-1.455,1.169,1.118,1.118,0,0,1-.23-.043,1.219,1.219,0,0,1-.628-.439.8.8,0,0,1-.087-.141v0a1.282,1.282,0,0,1,.03-1.268,1.063,1.063,0,0,1,.323-.357l.054-.036h0a1.209,1.209,0,0,1,.361-.161l0,0,.021-.005a1.409,1.409,0,0,1,.489-.025,1.029,1.029,0,0,1,.227.048,1.319,1.319,0,0,1,.234.087l.007,0,.112.062a.394.394,0,0,1,.068.043l.036.029a.527.527,0,0,1,.1.075.882.882,0,0,1,.084.082.978.978,0,0,1,.212.343l.021.064a.461.461,0,0,1,.018.071A1.033,1.033,0,0,1,1009.675,193.03Zm3.535,1.014c0,.027-.009.054-.014.077l-.007.025a1.462,1.462,0,0,1-1.5,1.084,1.068,1.068,0,0,1-.182-.039,1.218,1.218,0,0,1-.655-.477,1.29,1.29,0,0,1,0-1.416,1.234,1.234,0,0,1,.209-.246.8.8,0,0,1,.13-.095,1.248,1.248,0,0,1,.446-.184,1.39,1.39,0,0,1,.653.032,1.7,1.7,0,0,1,.3.121l.109.066a.7.7,0,0,1,.066.05l.036.027a.558.558,0,0,1,.091.077c.023.021.043.043.062.064l.02.023a1,1,0,0,1,.216.416A.929.929,0,0,1,1013.21,194.044Z" transform="translate(-957.097 -181.178)"/><path class="f" d="M1012.773,193.743a.835.835,0,0,1,.764-.78,1.084,1.084,0,0,1,.989.561,1.564,1.564,0,0,1,.116,1.164,2.846,2.846,0,0,1-.566,1.046,2.7,2.7,0,0,1-1.423,1.012,1.433,1.433,0,0,1-1.56-.57C1011.855,195.47,1012.777,194.783,1012.773,193.743Z" transform="translate(-953.725 -179.896)"/><path class="k" d="M1015.9,199.132a7.3,7.3,0,0,1,.53-6.442,10.74,10.74,0,0,1-5.067.18,5.806,5.806,0,0,1-4.012-2.635,4.018,4.018,0,0,1-.252-3.169,38.185,38.185,0,0,1,5.365,1.314,13.151,13.151,0,0,1,4.824,2.8,1.64,1.64,0,0,1,1.842,1.209,3.638,3.638,0,0,1-.241,2.346A11.093,11.093,0,0,1,1015.9,199.132Z" transform="translate(-957.032 -184.525)"/><path class="f" d="M1022.5,229.8a5.6,5.6,0,0,1-2.921,1.294,1.877,1.877,0,0,0-.638.143.529.529,0,0,0-.314.525c.057.318.471.423.789.37a2.057,2.057,0,0,1,.952-.088.887.887,0,0,1,.534.834,2.619,2.619,0,0,1-.255,1.016l-1.221,3.039a1.846,1.846,0,0,0-.13,1.578,1.6,1.6,0,0,0,1.557.564,5.647,5.647,0,0,0,4.306-8.727A7.176,7.176,0,0,0,1022.5,229.8Z" transform="translate(-947.816 -150.958)"/><path class="f" d="M985.591,194.72a9.282,9.282,0,0,0-3.2-8.392,1.874,1.874,0,0,0-1.878-.536c-.634.3-.779,1.132-.771,1.835a11.011,11.011,0,0,0,1.552,5.513c-.457-.4-.864-.852-1.321-1.25-.212-.186-.53-.379-.75-.2s-.12.5,0,.734a8.013,8.013,0,0,0,4.73,4.024C984.482,195.863,985.055,195.3,985.591,194.72Z" transform="translate(-973.86 -185.606)"/><path class="g" d="M979.031,191.708a.52.52,0,0,1,.429-.252.7.7,0,0,1,.234.037,1.076,1.076,0,0,1,.362.225l.277.246.284.241.155.129a9.68,9.68,0,0,1-.839-2.648,9.314,9.314,0,0,1-.075-2.509,2.372,2.372,0,0,1,.277-.952,1.194,1.194,0,0,1,.564-.509.834.834,0,0,1,.473-.064c.107.021.155.055.152.064s-.059.005-.157.009a.892.892,0,0,0-.407.118,1.107,1.107,0,0,0-.448.479,2.331,2.331,0,0,0-.2.878,10.06,10.06,0,0,0,1.114,5.235c.059.118.127.232.189.345l.025.043.013.021.005.011,0,.005.005.012.009.018a.216.216,0,0,1-.018.189.208.208,0,0,1-.159.095.227.227,0,0,1-.1-.016.255.255,0,0,1-.037-.023l-.016-.013,0,0-.02-.016-.146-.129-.589-.5c-.1-.082-.193-.166-.288-.25s-.189-.173-.273-.25a.785.785,0,0,0-.245-.162.244.244,0,0,0-.2,0,.181.181,0,0,0-.093.152.678.678,0,0,0,.041.264,1.436,1.436,0,0,0,.055.137l.068.141c.045.095.1.184.143.273a6.583,6.583,0,0,0,.634.932,7,7,0,0,0,1.18,1.141c.311.237.495.355.48.38a1.57,1.57,0,0,1-.559-.264,5.82,5.82,0,0,1-1.3-1.091,6.4,6.4,0,0,1-.7-.946c-.052-.093-.109-.186-.159-.284l-.077-.146c-.025-.054-.05-.109-.071-.168a.979.979,0,0,1-.066-.395A.563.563,0,0,1,979.031,191.708Z" transform="translate(-973.985 -185.558)"/></g></g></g></svg>