<svg xmlns="http://www.w3.org/2000/svg" width="64.001" height="61.5" viewBox="0 0 64.001 61.5"><defs><style>.a{fill:#c7007d;}.b{fill:#a2d45e;}.c,.d,.e{fill:none;stroke-linecap:round;}.c{stroke:#c7007d;stroke-width:3px;}.c,.e{stroke-linejoin:round;}.d,.e{stroke:#fff;stroke-width:2px;}</style></defs><g transform="translate(-160.999 -168.5)"><g transform="translate(160.999 170)"><g transform="translate(0 0)"><g transform="translate(0 0)"><path class="a" d="M10.111,4H59.889C63.816,4,67,6.885,67,10.444V55.555C67,59.114,63.816,62,59.889,62H10.111C6.184,62,3,59.114,3,55.555V10.444C3,6.885,6.184,4,10.111,4Z" transform="translate(-2.999 -2)"/><path class="b" d="M0,12V6.394C0,2.862,3.184,0,7.111,0H56.891C60.818,0,64,2.862,64,6.394V12Z" transform="translate(0 1.999)"/><path class="c" d="M16,2v8" transform="translate(33.297 -2)"/><path class="c" d="M8,2v8" transform="translate(6.705 -2)"/></g><g transform="translate(0 -1)"><g transform="translate(44.5 31.5)"><line class="d" x1="4" y2="4"/><line class="d" x2="4" y2="4"/></g><rect class="e" width="16" height="16" transform="translate(38.5 25.5)"/></g></g></g></g></svg>