<svg xmlns="http://www.w3.org/2000/svg" xmlns:xlink="http://www.w3.org/1999/xlink" width="274.54" height="137.918" viewBox="0 0 274.54 137.918"><defs><style>.a{fill:url(#a);}.b{fill:#fbbae2;}.c{fill:#c7007d;}</style><linearGradient id="a" x1="-0.02" y1="0.922" x2="0.985" y2="0.353" gradientUnits="objectBoundingBox"><stop offset="0" stop-color="#fbbae2"/><stop offset="0.128" stop-color="#fbc5e5"/><stop offset="0.422" stop-color="#fcd9eb"/><stop offset="0.714" stop-color="#fce5ee"/><stop offset="1" stop-color="#fdeaf0"/></linearGradient></defs><g transform="translate(-898.219 -203.297)"><g transform="translate(898.219 163.189)"><path class="a" d="M1150.95,317.42q-.062.415-.133.831c-.169,0-.339,0-.507.006l-1.754.015c-.213,0-.43,0-.647.006q-4.094.041-8.84.073l-6.912.045c-25.557.159-61.848.259-102.107.259-24.932,0-48.341-.038-68.623-.1-5.564-.018-10.893-.039-15.952-.062-6.468-.029-12.5-.061-18.017-.1q-3.115-.018-6.009-.039-1.875-.016-3.652-.027-.293-.488-.585-.978a66.19,66.19,0,0,1-7.088-15.3c-2.166-7.462-2.17-16.043,1.691-22.656,3.308-5.671,9.012-9.268,12.537-14.782,5.779-9.038,4.615-21.092,6.9-31.8,4.587-21.5,25.52-37.327,45.746-34.6,10.212,1.382,19.823,6.827,30.114,6.97,18.571.26,33.431-16.3,51.095-22.5,7.569-2.659,16.525-3.14,22.866,2.064,9.767,8.015,8.681,24.917,16.913,34.749,6.183,7.384,16.064,9.092,24.9,11.907s18.43,8.8,19.434,18.7c1.139,11.253-9.615,21.862-6.287,32.591,1.969,6.342,8.164,9.864,11.749,15.318C1151.505,303.683,1152.006,310.48,1150.95,317.42Z" transform="translate(-892.78 -140.628)"/><g transform="translate(0 176.119)"><path class="b" d="M1172.759,271.739a26.907,26.907,0,0,1-4.135.235l-.413.01q-.661.019-1.412.035c-.082,0-.165,0-.248,0q-1.615.037-3.615.072c-.367.007-.743.014-1.129.018-.044,0-.088,0-.132,0-.091,0-.182,0-.276.005-1.128.019-2.336.037-3.619.054l-3.962.049h-.014c-.165,0-.332,0-.5.007l-1.718.018c-.209,0-.422,0-.634.007q-4.011.047-8.661.084l-6.772.053c-25.038.184-60.592.3-100.034.3-24.425,0-47.359-.044-67.229-.121-5.451-.021-10.672-.046-15.628-.072-6.336-.033-12.244-.07-17.651-.111q-3.051-.021-5.887-.046-1.837-.018-3.578-.032l-.058,0h0q-2.274-.021-4.381-.044-2.567-.024-4.873-.054l-1.04-.012c-.119,0-.239,0-.358,0l-.926-.012c-.063,0-.123,0-.186,0q-.7-.011-1.372-.019l-.211,0h-.046c-1.152-.019-2.238-.033-3.255-.049l-2.159-.039c-.218-.005-.434-.009-.643-.012l-2.161-.046h-.007a43.52,43.52,0,0,1-5.62-.274,39.715,39.715,0,0,1,5.211-.26l.573-.012c.494-.012,1.015-.023,1.569-.035.343-.007.694-.012,1.056-.021l1.744-.03q1.436-.024,3.06-.047l.04,0,.948-.012c.237-.005.474-.009.715-.012l.3,0c.1,0,.195,0,.293,0,.5-.005,1.013-.014,1.535-.019.169,0,.339-.005.511-.005l4.17-.049q2.358-.024,4.942-.049h.058l1.4-.014c2.514-.021,5.175-.044,7.97-.065,6.157-.047,12.972-.091,20.344-.128,5.562-.028,11.441-.053,17.593-.076,18.925-.068,40.431-.109,63.236-.109,39.772,0,75.595.119,100.665.306q3.331.029,6.4.054,4.588.04,8.561.083l.494.005,1.463.016.861.01h.014l4.244.053q1.894.029,3.557.053h.007c.074,0,.148,0,.221.005.4.005.792.012,1.174.019,1.3.023,2.484.046,3.533.07.055,0,.107,0,.158,0l1.214.03c.253.005.5.012.733.019A26.377,26.377,0,0,1,1172.759,271.739Z" transform="translate(-898.219 -270.785)"/></g></g><path class="c" d="M-52.24-37.917a2.123,2.123,0,0,1-.947-1.893,2.262,2.262,0,0,1,.421-1.262q0-.105.631-.736l7.572-6.941-10.306-1.157-.841-.21a1.871,1.871,0,0,1-1.262-1.157,2.206,2.206,0,0,1-.316-1.157,1.985,1.985,0,0,1,.105-.631l1.893-5.574A1.871,1.871,0,0,1-54.133-59.9a2.206,2.206,0,0,1,1.157-.316,1.73,1.73,0,0,1,.526.105l.841.421,9.044,5.153-2.1-10.2-.105-.841a2.287,2.287,0,0,1,.684-1.577,2.15,2.15,0,0,1,1.63-.736h5.784a2.15,2.15,0,0,1,1.63.736,2.287,2.287,0,0,1,.684,1.577l-.105.841-2.1,10.2,9.15-5.153.841-.421a1.171,1.171,0,0,1,.526-.105,2.852,2.852,0,0,1,1.525.421,1.576,1.576,0,0,1,.789,1.157l1.893,5.574.105.631a2.461,2.461,0,0,1-.473,1.42,2.173,2.173,0,0,1-1.209.894l-.736.21L-34.572-48.75l7.677,6.941q.631.631.631.736a2.262,2.262,0,0,1,.421,1.262,2.123,2.123,0,0,1-.947,1.893l-4.627,3.471a3.014,3.014,0,0,1-1.367.316,2.053,2.053,0,0,1-1.893-.841.3.3,0,0,0-.105-.21,2.434,2.434,0,0,1-.315-.526l-4.417-9.57-4.417,9.57a2.434,2.434,0,0,1-.315.526.3.3,0,0,0-.105.21,2.053,2.053,0,0,1-1.893.841,3.014,3.014,0,0,1-1.367-.316Zm46.9,0a2.123,2.123,0,0,1-.947-1.893,2.262,2.262,0,0,1,.421-1.262q0-.105.631-.736L2.342-48.75-7.965-49.906l-.841-.21a1.871,1.871,0,0,1-1.262-1.157,2.206,2.206,0,0,1-.316-1.157,1.985,1.985,0,0,1,.105-.631l1.893-5.574A1.871,1.871,0,0,1-7.229-59.9a2.206,2.206,0,0,1,1.157-.316,1.73,1.73,0,0,1,.526.105l.841.421L4.34-54.534l-2.1-10.2-.105-.841a2.287,2.287,0,0,1,.684-1.577,2.15,2.15,0,0,1,1.63-.736h5.784a2.15,2.15,0,0,1,1.63.736,2.287,2.287,0,0,1,.684,1.577l-.105.841-2.1,10.2,9.15-5.153.841-.421a1.171,1.171,0,0,1,.526-.105,2.852,2.852,0,0,1,1.525.421,1.576,1.576,0,0,1,.789,1.157l1.893,5.574.105.631a2.461,2.461,0,0,1-.473,1.42,2.173,2.173,0,0,1-1.209.894l-.736.21L12.333-48.75l7.677,6.941q.631.631.631.736a2.262,2.262,0,0,1,.421,1.262,2.123,2.123,0,0,1-.947,1.893l-4.627,3.471a3.014,3.014,0,0,1-1.367.316,2.053,2.053,0,0,1-1.893-.841.3.3,0,0,0-.105-.21,2.434,2.434,0,0,1-.315-.526L7.39-45.279l-4.417,9.57a2.434,2.434,0,0,1-.316.526.3.3,0,0,0-.105.21,2.053,2.053,0,0,1-1.893.841,3.014,3.014,0,0,1-1.367-.316Zm46.9,0a2.123,2.123,0,0,1-.946-1.893,2.262,2.262,0,0,1,.421-1.262q0-.105.631-.736l7.572-6.941L38.94-49.906l-.841-.21a1.871,1.871,0,0,1-1.262-1.157,2.206,2.206,0,0,1-.316-1.157,1.985,1.985,0,0,1,.105-.631l1.893-5.574A1.871,1.871,0,0,1,39.676-59.9a2.206,2.206,0,0,1,1.157-.316,1.73,1.73,0,0,1,.526.105l.841.421,9.044,5.153-2.1-10.2-.105-.841a2.287,2.287,0,0,1,.684-1.577,2.15,2.15,0,0,1,1.63-.736h5.784a2.15,2.15,0,0,1,1.63.736,2.287,2.287,0,0,1,.684,1.577l-.105.841-2.1,10.2,9.15-5.153.841-.421a1.171,1.171,0,0,1,.526-.105,2.852,2.852,0,0,1,1.525.421,1.576,1.576,0,0,1,.789,1.157l1.893,5.574.105.631a2.461,2.461,0,0,1-.473,1.42,2.173,2.173,0,0,1-1.209.894l-.736.21L59.237-48.75l7.677,6.941q.631.631.631.736a2.262,2.262,0,0,1,.421,1.262,2.123,2.123,0,0,1-.947,1.893l-4.627,3.471a3.014,3.014,0,0,1-1.367.316,2.053,2.053,0,0,1-1.893-.841.3.3,0,0,0-.105-.21,2.434,2.434,0,0,1-.316-.526l-4.417-9.57-4.417,9.57a2.434,2.434,0,0,1-.315.526.3.3,0,0,0-.105.21,2.053,2.053,0,0,1-1.893.841,3.014,3.014,0,0,1-1.367-.316Z" transform="translate(1027.736 334.236)"/></g></svg>