<svg xmlns="http://www.w3.org/2000/svg" xmlns:xlink="http://www.w3.org/1999/xlink" width="289.235" height="168.666" viewBox="0 0 289.235 168.666"><defs><style>.a{fill:#fbbae2;}.b{opacity:0.5;fill:url(#a);}.c{fill:#ff9e9e;}.d{fill:#474747;}.e{fill:#fff;}.f{fill:#cb077b;}.g{fill:#af0369;}.h{fill:#f17785;}.i{fill:#f4e4eb;}.j{fill:#a2d45e;}.k,.l{opacity:0.35;}.k,.o{mix-blend-mode:screen;}.k,.l,.o{isolation:isolate;}.k{fill:url(#b);}.l{fill:#4caf51;mix-blend-mode:multiply;}.m{fill:#ffb3c0;}.n{fill:#54254f;}.o{fill:#c2e4fb;}.p{fill:url(#c);}</style><linearGradient id="a" x1="-0.02" y1="0.922" x2="0.985" y2="0.353" gradientUnits="objectBoundingBox"><stop offset="0" stop-color="#fbbae2"/><stop offset="0.128" stop-color="#fbc5e5"/><stop offset="0.422" stop-color="#fcd9eb"/><stop offset="0.714" stop-color="#fce5ee"/><stop offset="1" stop-color="#fdeaf0"/></linearGradient><linearGradient id="b" x1="-1.489" y1="-1.672" x2="-0.664" y2="-3.422" gradientUnits="objectBoundingBox"><stop offset="0" stop-color="#ff7a83"/><stop offset="0.124" stop-color="#fe8983"/><stop offset="0.493" stop-color="#feb284"/><stop offset="0.784" stop-color="#fecb84"/><stop offset="0.959" stop-color="#fed585"/></linearGradient><linearGradient id="c" x1="4.741" y1="-58.647" x2="-1.382" y2="-69.983" gradientUnits="objectBoundingBox"><stop offset="0" stop-color="#567b0d"/><stop offset="0.24" stop-color="#5d8713"/><stop offset="0.673" stop-color="#66981b"/><stop offset="1" stop-color="#6a9e1e"/></linearGradient></defs><g transform="translate(-62.383 -110)"><g transform="translate(62.383 110)"><g transform="translate(0 166.656)"><path class="a" d="M1187.454,271.79a28.342,28.342,0,0,1-4.356.248l-.435.011q-.7.02-1.488.037c-.087,0-.174,0-.261,0q-1.7.039-3.809.076c-.387.007-.783.015-1.19.018-.046,0-.093,0-.139,0-.1,0-.192,0-.291.006-1.188.02-2.461.039-3.812.057l-4.174.052h-.015c-.174,0-.35,0-.524.007l-1.81.019c-.22,0-.444,0-.668.007q-4.225.05-9.124.089l-7.135.056c-26.378.194-63.835.316-105.388.316-25.733,0-49.894-.046-70.828-.128-5.743-.022-11.243-.048-16.464-.076-6.676-.035-12.9-.074-18.6-.117q-3.215-.022-6.2-.048-1.935-.019-3.77-.033l-.061,0h0q-2.4-.022-4.616-.046-2.7-.025-5.134-.057l-1.1-.013c-.126,0-.252,0-.378,0l-.975-.013c-.067,0-.13,0-.2,0q-.738-.011-1.445-.02l-.222,0H912.8c-1.214-.02-2.358-.035-3.429-.052l-2.275-.041c-.229-.006-.457-.009-.677-.013l-2.276-.048h-.007a45.841,45.841,0,0,1-5.921-.289,41.842,41.842,0,0,1,5.489-.274l.6-.013c.52-.013,1.07-.024,1.653-.037.361-.007.731-.013,1.112-.022.587-.011,1.2-.02,1.838-.031q1.513-.025,3.224-.05l.043,0,1-.013c.25-.006.5-.009.753-.013l.313,0c.1,0,.205,0,.309,0,.529-.006,1.068-.015,1.617-.02.178,0,.357-.006.539-.006l4.394-.052q2.485-.025,5.206-.052h.061l1.477-.015c2.648-.022,5.452-.046,8.4-.068,6.487-.05,13.666-.1,21.433-.135,5.859-.03,12.054-.056,18.535-.08,19.938-.072,42.595-.115,66.621-.115,41.9,0,79.641.126,106.053.322q3.509.03,6.746.057,4.833.042,9.019.087l.52.006,1.542.017.907.011h.015q2.362.031,4.471.056,2,.031,3.748.056h.007c.078,0,.156,0,.233.006.424.006.835.013,1.236.02,1.373.024,2.617.048,3.722.074.057,0,.113,0,.167,0l1.279.031c.267.006.526.013.772.02A27.793,27.793,0,0,1,1187.454,271.79Z" transform="translate(-898.219 -270.785)"/></g><path class="b" d="M1158.735,347.892c-.043.339-.089.677-.137,1.016-.174,0-.35,0-.524.007l-1.81.019c-.22,0-.444,0-.668.007q-4.225.05-9.124.089l-7.135.055c-26.379.194-63.836.316-105.388.316-25.733,0-49.894-.046-70.828-.128-5.743-.022-11.243-.048-16.464-.076-6.676-.035-12.9-.074-18.6-.117q-3.215-.022-6.2-.048-1.935-.019-3.77-.033-.3-.6-.6-1.2A88.619,88.619,0,0,1,910.17,329.1c-2.236-9.126-2.239-19.62,1.745-27.707,3.415-6.935,9.3-11.334,12.94-18.078,5.965-11.053,4.764-25.794,7.124-38.891,4.734-26.288,26.34-45.648,47.216-42.308,10.54,1.69,20.46,8.349,31.081,8.524,19.168.318,34.505-19.932,52.737-27.522,7.812-3.252,17.056-3.84,23.6,2.524,10.081,9.8,8.959,30.472,17.456,42.5,6.381,9.03,16.581,11.119,25.7,14.562s19.022,10.76,20.058,22.873c1.175,13.762-9.923,26.736-6.489,39.857,2.032,7.756,8.426,12.063,12.126,18.733C1159.309,331.093,1159.825,339.4,1158.735,347.892Z" transform="translate(-889.333 -180.736)"/></g><g transform="translate(140.232 125.616)"><path class="c" d="M668.448,388.591a15.425,15.425,0,0,1,2.606,3.856l-2.285,1.234-2.62-3.782Z" transform="translate(-591.082 -360.794)"/><path class="d" d="M669.448,410.781a11.252,11.252,0,0,0,3.126,5.027c3.364,3.1,8.4,4.293,13.121,3.8a19.282,19.282,0,0,0,4.058-.863,14.961,14.961,0,0,0,3.682-1.8,10.5,10.5,0,0,0,4.5-6.365c.833-4.047-1.361-8.191-.681-12.263.589-3.486,3.214-6.462,3.829-9.945a9.17,9.17,0,0,0-3.386-8.7c-2.122-1.5-6.877-1.084-9.276-.5s-4.667,2.2-5.19,4.462c-.385,1.663.207,3.375.1,5.068-.2,3.3-2.935,5.961-5.724,8s-5.917,3.942-7.533,6.891A9.347,9.347,0,0,0,669.448,410.781Z" transform="translate(-629.157 -378.372)"/><path class="e" d="M668.9,380.483h0a3.2,3.2,0,0,1,1-.686,7.919,7.919,0,0,1,1.264-.523,14.672,14.672,0,0,1,1.745-.415,19.166,19.166,0,0,1,4.62-.277,8.359,8.359,0,0,1,2.717.6,6.3,6.3,0,0,1,2.332,1.9,9.617,9.617,0,0,1,2.022,5.361,8.785,8.785,0,0,1-.2,2.52,12.217,12.217,0,0,1-.7,2.067,30.914,30.914,0,0,1-1.413,2.78,4.539,4.539,0,0,1-.606.971,3.87,3.87,0,0,1,.393-1.076c.29-.675.761-1.629,1.228-2.836a12.911,12.911,0,0,0,.6-2.014,8.544,8.544,0,0,0,.133-2.374,9.307,9.307,0,0,0-1.939-5.018,5.8,5.8,0,0,0-2.1-1.737,8.045,8.045,0,0,0-2.52-.584,20.818,20.818,0,0,0-4.509.147,12.754,12.754,0,0,0-4.067,1.2h0l0-.006Z" transform="translate(-612.239 -378.543)"/><path class="d" d="M682,431.169a3.6,3.6,0,0,0,1.6,3.6,26.9,26.9,0,0,0,3.71,1.931,4.815,4.815,0,0,1,2.7,3.021,31.5,31.5,0,0,1-13.422-.188,22.317,22.317,0,0,1,1.3-9.245C679.416,429.816,680.4,431.186,682,431.169Z" transform="translate(-638.657 -287.315)"/><path class="d" d="M667.477,431.479a3.235,3.235,0,0,0,1.367,3.27,24.237,24.237,0,0,0,3.3,1.812,4.335,4.335,0,0,1,2.368,2.772,26.409,26.409,0,0,1-11.649-.443,20.047,20.047,0,0,1,1.358-8.288C665.6,430.209,666.041,431.459,667.477,431.479Z" transform="translate(-585.278 -286.723)"/><path class="f" d="M663.51,488.5a15.023,15.023,0,0,0,4.943,2.263,281.888,281.888,0,0,0,27.943-66.45l.006-.025a207.67,207.67,0,0,1,6.346,68.06c1.671.141,2.966.26,4.639.4,6.824-28.319,6.235-58.464-2.694-86.163l-.008-.025-2.174-7.093-.653-2.13-6.91-.158-3.259-.077-2.064-.047-3.284,5.914a24.7,24.7,0,0,0-1.657,3.242c-1.986,4.719-2.681,9.851-3.417,14.924-.039.274-.077.551-.119.822C677.787,444.759,672.213,467.155,663.51,488.5Z" transform="translate(-624.74 -345.847)"/><path class="c" d="M679.439,396.951a6.959,6.959,0,0,1-4.321,1.292,6.47,6.47,0,0,1-4-1.715,32.007,32.007,0,0,0,.3-3.253c.008-.249.017-.5.022-.75l0-.022c.006-.288.006-.578,0-.871a31.837,31.837,0,0,0-.277-3.873c-.008-.078-.019-.155-.033-.227l0-.014c-.044-.368-.1-.722-.166-1.09v0a32.431,32.431,0,0,0-.86-3.638,17.479,17.479,0,0,1,5.859,3.085c.086.755.2,1.5.343,2.244.025.124.047.243.075.36.086.437.183.863.285,1.292l.028.1c.08.329.166.65.26.971.039.147.083.293.124.434.028.094.058.188.089.279l.008.033A29.914,29.914,0,0,0,679.439,396.951Z" transform="translate(-610.388 -371.045)"/><path class="f" d="M666.733,397.054a7.684,7.684,0,0,0,4.423,4.042c.177.053.824.29,1.015.321.26-.2,1.225-1.477,2.567-2.659l.838,1.488c.075.113.158.227.235.337.739,1.043,1.524,2.072,2.235,3.132a30.847,30.847,0,0,1,4.672,12.139,26.523,26.523,0,0,0,6.938.841,26.856,26.856,0,0,0,5.289-.542l.006-.014c.011-.053.025-.1.033-.149s.03-.119.047-.2c.479-2.133,2.694-13.223-.658-21.234l.83-2.113c-1.947-3.1-5.937-4.645-7.588-5.176l-.008,0c-.169-.041-.327-.08-.479-.113-.083-.036-.169-.064-.252-.1l0,0h0a9.568,9.568,0,0,0-1.618-.183c-1.967-.058-3.66-.561-5.621-.445a11.419,11.419,0,0,0-1.737.235l-.011,0C677.635,386.827,670.667,391.245,666.733,397.054Z" transform="translate(-617.838 -364.648)"/><path class="c" d="M669.669,386.662a11.656,11.656,0,0,0,5.231,5.148,5.573,5.573,0,0,0,2.2.636,2.765,2.765,0,0,0,2.105-.777,2.953,2.953,0,0,0,.382-3.073,5.928,5.928,0,0,0-.943-1.541,10.18,10.18,0,0,0-1.621-.183c-1.97-.058-3.657-.564-5.624-.445A11.087,11.087,0,0,0,669.669,386.662Z" transform="translate(-609.612 -364.649)"/><path class="g" d="M672.4,476.3c5.937-20.009-1.964-70.155-1.964-70.155l-4.376,2.094A207.6,207.6,0,0,1,672.4,476.3Z" transform="translate(-594.396 -329.794)"/><path class="h" d="M677.927,391.274a8.06,8.06,0,0,1-2.476-.692,8.218,8.218,0,0,1-3.472-3.065c-.044-.368-.1-.722-.166-1.09v0a32.431,32.431,0,0,0-.86-3.638,17.479,17.479,0,0,1,5.859,3.085c.086.755.2,1.5.343,2.244.025.124.047.243.075.36.086.437.183.863.285,1.292l.028.1c.08.329.166.65.26.971C677.841,390.986,677.885,391.133,677.927,391.274Z" transform="translate(-611.245 -371.045)"/><path class="c" d="M670.471,388.827c.16.476.332.954.448,1.441a5.163,5.163,0,0,1,.105.548l.171.219a7.168,7.168,0,0,0,3.773,2.636,3.91,3.91,0,0,0,4.15-1.452,4.66,4.66,0,0,0,.08-4.166c-.534-1.339-1.389-2.531-1.972-3.851a6.832,6.832,0,0,1-.575-2.119,3.953,3.953,0,0,1,.2-1.735,7.222,7.222,0,0,1-1.654,1.309c-1.035.625-2.161,1.1-3.14,1.806a4.491,4.491,0,0,0-1.986,2.913A5.645,5.645,0,0,0,670.471,388.827Z" transform="translate(-610.459 -375.354)"/><path class="i" d="M670.7,383.895a4.629,4.629,0,0,0,1.9-.393.2.2,0,0,1,.282.183,1.246,1.246,0,0,1-.385.946,1.451,1.451,0,0,1-1.322.332c-.365-.094-.534-.437-.661-.8A.2.2,0,0,1,670.7,383.895Z" transform="translate(-604.937 -369.813)"/><path class="c" d="M674.549,383.552c-.1-.288-.277-.6-.578-.65a.775.775,0,0,0-.716.456,1.9,1.9,0,0,0,2.3,2.736C675.268,385.25,674.845,384.39,674.549,383.552Z" transform="translate(-614.564 -370.853)"/><ellipse class="e" cx="0.714" cy="0.714" rx="0.714" ry="0.714" transform="translate(59.206 14.48)"/><g transform="translate(0 8.784)"><g transform="translate(-13.087 4)"><rect class="j" width="35.557" height="153.828" transform="translate(18.511 73.805) rotate(-104.594)"/><path class="k" d="M636.738,420.708l2.917,11.192,34.506-8.985,3.247-.846,111.111-28.93L785.6,381.947,674.254,410.941l-2.535.66Z" transform="translate(-627.188 -381.313)"/><rect class="l" width="11.565" height="153.828" transform="matrix(-0.252, -0.968, 0.968, -0.252, 18.511, 73.805)"/><path class="m" d="M627.542,381.947l15.464,4.863,3.583,1.126L659.5,392l-9.289,9.843-2.578,2.73L636.5,416.358C621.2,400.9,627.542,381.947,627.542,381.947Z" transform="translate(-469.125 -381.313)"/><path class="n" d="M626.416,384.112l12.91,4.061-9.289,9.843a18.893,18.893,0,0,1-3.621-13.9Z" transform="translate(-448.953 -377.489)"/><rect class="o" width="35.558" height="11.396" transform="translate(18.511 73.805) rotate(-104.594)"/><path class="f" d="M697.918,395.959h0l8.96,34.408h0a12.762,12.762,0,0,1-15.569-9.135l-2.528-9.7A12.766,12.766,0,0,1,697.918,395.959Z" transform="translate(-688.366 -356.563)"/></g><path class="c" d="M667.7,402a4.2,4.2,0,0,0-3.458-.738,3.657,3.657,0,0,0-2.4,2.4,4.154,4.154,0,0,0,3.541.918A3.518,3.518,0,0,0,667.7,402Z" transform="translate(-575.82 -347.397)"/><path class="p" d="M626.416,384.112l12.91,4.061-9.289,9.843a18.893,18.893,0,0,1-3.621-13.9Z" transform="translate(-462.04 -373.489)"/></g><path class="c" d="M688.027,416.876c-.105.116-.3.133-.595.066a5,5,0,0,1-1.118-.473,14.942,14.942,0,0,1-1.557-1.01c-.293-.21-.6-.445-.913-.7s-.65-.534-.985-.838-.686-.622-1.04-.971-.711-.716-1.079-1.106c-.728-.777-1.466-1.652-2.2-2.6a40.2,40.2,0,0,1-4.161-6.634l-.008-.008a4.968,4.968,0,0,1-.2-3.881c.4-1.087.858-2.327,1.115-2.9a34.772,34.772,0,0,1,1.629-3.209c.357-.611.725-1.19,1.1-1.737.138-.2.274-.393.409-.581.072.135.155.288.255.456.033.055.066.113.1.172s.053.091.083.138c.105.158.216.329.343.5l.05.072c.052.072.111.144.166.219a7.278,7.278,0,0,0,2.185,1.912c.105.058.213.113.321.166a5.805,5.805,0,0,0,.88.326c.094.025.313.105.528.18-.329.5-.68,1.01-1.037,1.546-.985,1.45-2.075,3.029-3.2,4.728l0,.006c1.018,2.177,2.089,4.21,3.145,6.036.553.954,1.1,1.856,1.621,2.692.26.42.512.827.766,1.212s.487.761.722,1.115c.465.711.888,1.355,1.264,1.931s.692,1.079.935,1.516a5.66,5.66,0,0,1,.506,1.068C688.135,416.558,688.132,416.763,688.027,416.876Z" transform="translate(-629.48 -357.8)"/><path class="h" d="M680.916,394.427c-.329.5-.68,1.01-1.037,1.546-.985,1.45-2.075,3.029-3.2,4.728a9.173,9.173,0,0,0-1.09-9.834c.138-.2.274-.393.409-.581.072.135.155.288.255.456.033.055.066.113.1.172s.053.091.083.138c.105.158.216.329.343.5l.05.072c.052.072.111.144.166.219a7.279,7.279,0,0,0,2.185,1.912c.105.058.213.113.321.166a5.808,5.808,0,0,0,.88.326C680.481,394.272,680.7,394.352,680.916,394.427Z" transform="translate(-627.069 -357.8)"/><path class="c" d="M674.075,398.706a14.132,14.132,0,0,0,4.918.371c.033.3-.916.811-1.214.822s-.631-.044-.858.147a.67.67,0,0,0-.119.775,1.978,1.978,0,0,0,.542.634l1.461,1.283a1.77,1.77,0,0,1,.73,1.073A1.392,1.392,0,0,1,678.8,405a3.5,3.5,0,0,1-3.247.213,4.709,4.709,0,0,1-2.332-2.357,7.182,7.182,0,0,1-.6-3.3C673.052,399.251,673.641,399.008,674.075,398.706Z" transform="translate(-617.446 -342.927)"/></g></g></svg>