<svg width="123" height="126" viewBox="0 0 123 126" fill="none" xmlns="http://www.w3.org/2000/svg">
<path d="M104.116 109.597C104.116 111.664 103.709 113.711 102.918 115.621C102.127 117.531 100.968 119.266 99.5059 120.728C98.0442 122.19 96.3089 123.349 94.399 124.141C92.4892 124.932 90.4422 125.339 88.375 125.339H27.743C25.6756 125.339 23.6285 124.932 21.7185 124.141C19.8085 123.35 18.073 122.19 16.6111 120.729C15.1492 119.267 13.9896 117.531 13.1984 115.621C12.4072 113.711 12 111.664 12 109.597V48.9639C12.0001 46.8966 12.4074 44.8496 13.1987 42.9398C13.9899 41.0299 15.1496 39.2946 16.6114 37.8329C18.0733 36.3712 19.8088 35.2118 21.7187 34.4208C23.6287 33.6298 25.6757 33.2228 27.743 33.2229H88.376C92.5508 33.2229 96.5546 34.8813 99.5066 37.8333C102.459 40.7854 104.117 44.7891 104.117 48.9639L104.116 109.597Z" fill="url(#paint0_linear_396_2)"/>
<path d="M37.252 59.951V57.279C37.252 56.2161 37.6742 55.1966 38.4259 54.445C39.1775 53.6933 40.197 53.271 41.26 53.271H101.374V45.256C101.375 44.464 101.611 43.6901 102.052 43.032C102.493 42.3738 103.118 41.8609 103.85 41.5578C104.582 41.2547 105.387 41.175 106.164 41.3288C106.941 41.4826 107.655 41.863 108.216 42.422L121.574 55.781C122.326 56.5327 122.748 57.5521 122.748 58.615C122.748 59.678 122.326 60.6974 121.574 61.449L108.216 74.809C107.655 75.3686 106.941 75.7494 106.164 75.9035C105.387 76.0576 104.581 75.978 103.849 75.6748C103.117 75.3716 102.492 74.8584 102.051 74.2C101.611 73.5415 101.375 72.7673 101.374 71.975V63.959H41.26C40.197 63.959 39.1775 63.5368 38.4259 62.7851C37.6742 62.0335 37.252 61.014 37.252 59.951V59.951ZM118.74 85.333H58.626V77.317C58.6245 76.525 58.3886 75.7511 57.9479 75.093C57.5073 74.4348 56.8816 73.9218 56.1499 73.6188C55.4181 73.3157 54.613 73.236 53.836 73.3898C53.0591 73.5436 52.345 73.924 51.784 74.483L38.426 87.842C37.6744 88.5937 37.2521 89.6131 37.2521 90.676C37.2521 91.739 37.6744 92.7584 38.426 93.51L51.784 106.869C52.3449 107.429 53.0589 107.809 53.8361 107.963C54.6132 108.118 55.4185 108.038 56.1505 107.735C56.8824 107.432 57.5082 106.918 57.9488 106.26C58.3893 105.602 58.625 104.827 58.626 104.035V96.02H118.74C119.267 96.0206 119.789 95.9172 120.276 95.7158C120.763 95.5144 121.205 95.219 121.578 94.8465C121.95 94.4739 122.246 94.0316 122.447 93.5447C122.649 93.0578 122.752 92.536 122.752 92.009V89.34C122.752 88.8135 122.648 88.2921 122.446 87.8056C122.244 87.3192 121.949 86.8773 121.576 86.5052C121.204 86.1331 120.761 85.838 120.275 85.6369C119.788 85.4358 119.267 85.3325 118.74 85.333V85.333Z" fill="url(#paint1_radial_396_2)"/>
<defs>
<linearGradient id="paint0_linear_396_2" x1="26.2781" y1="135.195" x2="91.4959" y2="16.6414" gradientUnits="userSpaceOnUse">
<stop stop-color="#FBBAE2"/>
<stop offset="0.128" stop-color="#FBC5E5"/>
<stop offset="0.422" stop-color="#FCD9EB"/>
<stop offset="0.714" stop-color="#FCE5EE"/>
<stop offset="1" stop-color="#FDEAF0"/>
</linearGradient>
<radialGradient id="paint1_radial_396_2" cx="0" cy="0" r="1" gradientUnits="userSpaceOnUse" gradientTransform="translate(80.002 74.6463) scale(42.75 33.3938)">
<stop stop-color="#A2D45E"/>
<stop offset="1" stop-color="#4CAF51"/>
</radialGradient>
</defs>
</svg>
