<svg xmlns="http://www.w3.org/2000/svg" xmlns:xlink="http://www.w3.org/1999/xlink" width="165" height="142" viewBox="0 0 165 142"><defs><style>.a{fill:#fff;stroke:#707070;}.b{clip-path:url(#a);}.c{fill:#ff9e9e;}.c,.d,.e,.f,.g,.h,.i{stroke:rgba(0,0,0,0);}.d{fill:#f68895;}.e{fill:#311649;}.f{fill:#a2d45e;}.g{fill:#f9dee4;}.h{fill:#4caf51;}.i{fill:#462261;}</style><clipPath id="a"><rect class="a" width="165" height="142" transform="translate(43 114)"/></clipPath></defs><g class="b" transform="translate(-43 -114)"><g transform="translate(43.003 114.061)"><g transform="matrix(0.995, -0.105, 0.105, 0.995, 68.939, 12.078)"><path class="c" d="M1145.542,402.948c9.22,5.479,20.3,6.828,31.277,5.765,4.333-.409,7.666.162,11.856-.881,2.31-.572,4.375-3.146,5.377-4.353,10.957-13.063,17.437-21.281,21.383-39.106,1.267-5.683,1.819-19.461.2-26.33-.511-2.167-2.473-9.158-3.966-4.559-1.8,5.54-1.737,12.225-3.373,18.01a76.152,76.152,0,0,1-19.625,33.566c-1.779,1.819-3.25,5.111-6.031,5.479a58.246,58.246,0,0,1-9.874.45c-4.886-.164-9.71-.838-15.291-1.574-2.371-.327-6.664-1.431-10.855-1.819Z" transform="translate(-1145.542 -321.701)"/><path class="c" d="M1154.1,348.125a21.99,21.99,0,0,0,2.4-18.306,3.5,3.5,0,0,0-2.891-2.78c-1.533-.159-2.662,1.159-3.418,2.471a19.783,19.783,0,0,0-2.725,11.331c-.46-1.132-.84-2.39-1.3-3.512-.213-.521-.579-1.19-1.178-1.083s-.689.683-.66,1.269c.221,4.747,1.958,8.183,5.084,11.736C1150.988,348.916,1152.541,348.559,1154.1,348.125Z" transform="translate(-1083.891 -326.842)"/><path class="d" d="M1146.146,335.99a1.162,1.162,0,0,1,.969-.01,1.333,1.333,0,0,1,.419.321,2.579,2.579,0,0,1,.456.742c.1.243.192.487.289.711s.219.509.3.7.106.237.176.392a15.619,15.619,0,0,1,1.018-5.5,21.857,21.857,0,0,1,2.637-4.614,5.909,5.909,0,0,1,1.546-1.423,2.909,2.909,0,0,1,1.586-.368,1.737,1.737,0,0,1,.945.337c.186.1.278.217.229.276s-.129-.086-.317-.141a1.91,1.91,0,0,0-.881-.178,2.6,2.6,0,0,0-1.347.433,5.73,5.73,0,0,0-1.325,1.37,23.251,23.251,0,0,0-2.42,4.565,16.465,16.465,0,0,0-.936,5.877c0,.26.029.623.041.777s.006.065.01.123a.5.5,0,0,1,0,.055.1.1,0,0,1,0,.027c0,.012,0,0,0,.012l0,.031c0,.029.006-.025,0,.053a.46.46,0,0,1-.2.3.49.49,0,0,1-.368.01.425.425,0,0,1-.165-.125.206.206,0,0,1-.051-.08c-.025-.041,0,0-.023-.045h0c-.022-.045.016.041-.029-.067s-.053-.139-.165-.395-.47-1.09-.6-1.4-.211-.5-.313-.746-.2-.495-.276-.709a1.835,1.835,0,0,0-.3-.532.492.492,0,0,0-.37-.2.311.311,0,0,0-.317.168,1.307,1.307,0,0,0-.159.493,2.162,2.162,0,0,0-.022.309c0,.149,0,.1,0,.337s0,.192.014.673a17.515,17.515,0,0,0,.284,2.228,17.89,17.89,0,0,0,1.057,3.03c.258.478.7,1.045.558,1.124s-.576-.642-.769-.93a13.283,13.283,0,0,1-1.362-3.109,13.7,13.7,0,0,1-.4-2.328,6.847,6.847,0,0,1-.031-.713,2.737,2.737,0,0,1,0-.362,2.384,2.384,0,0,1,.03-.384,2.022,2.022,0,0,1,.233-.734A.916.916,0,0,1,1146.146,335.99Z" transform="translate(-1085.556 -326.936)"/><path class="d" d="M1165.02,374.522c9.219,5.479,21.8,6.342,32.775,5.278-.077-.119-3.371-4.889-3.608-5.278-3.486-5.65-2.077-8.072-1.937-11.959-4.886-.164-9.71-.838-15.291-1.574-2.371-.327-6.664-1.431-10.855-1.819Z" transform="translate(-1159.02 -293.276)"/></g><g transform="translate(0 98.925)"><path class="c" d="M1200.776,412.068c.016,1.007.037,2,.055,2.992.055.988.119,1.964.174,2.931s.17,1.92.269,2.863.188,1.871.34,2.793.28,1.815.42,2.707.341,1.766.506,2.618c.09.433.175.859.264,1.283s.2.84.3,1.257q.307,1.241.6,2.444c.216.8.459,1.571.689,2.348s.435,1.515.689,2.245.5,1.444.745,2.142c.124.349.23.7.37,1.033l.4,1c.531,1.321,1.016,2.575,1.579,3.744s1.034,2.269,1.586,3.282,1.034,1.955,1.531,2.807,1,1.622,1.455,2.306c.23.349.444.669.664.969s.439.573.641.831a16.328,16.328,0,0,0,1.124,1.265c.676.665,1.209.969,1.59.873s.6-.578.689-1.409a9.966,9.966,0,0,0,.025-1.5c0-.291-.03-.6-.055-.937s-.044-.684-.064-1.06q-.083-1.126-.23-2.468c-.09-.9-.156-1.873-.26-2.911s-.17-2.154-.274-3.327-.145-2.412-.216-3.709c-.016-.323-.034-.653-.051-.983s-.016-.669-.021-1.007q-.024-1.019-.051-2.074c-.025-.7,0-1.424,0-2.154s0-1.473.021-2.229.064-1.526.09-2.3c.021-.387.026-.782.051-1.177s.055-.791.085-1.192c.06-.8.1-1.611.17-2.433s.17-1.651.25-2.487.2-1.69.305-2.543.2-1.721.361-2.594.276-1.746.416-2.636.335-1.777.51-2.678c.719-3.589,1.609-7.275,2.666-11.012s2.319-7.331,3.594-10.789c.329-.859.646-1.716.965-2.562s.676-1.674,1.013-2.494c.154-.41.324-.813.5-1.222s.354-.813.524-1.222c.344-.8.65-1.6,1.016-2.374s.689-1.548,1.021-2.309.689-1.5,1.039-2.24c.055-.117.105-.239.161-.349a74.377,74.377,0,0,1-19-6.432c-.179.316-.366.637-.55.957-.46.813-.931,1.637-1.379,2.48s-.869,1.709-1.294,2.582-.821,1.773-1.22,2.678-.809,1.822-1.149,2.765-.715,1.887-1.064,2.847-.634,1.941-.954,2.927c-.75,2.479-1.4,5.027-1.94,7.63-.324,1.557-.6,3.142-.841,4.73A87.85,87.85,0,0,0,1200.776,412.068Z" transform="translate(-1198.776 -372.98)"/></g><path class="d" d="M1200.777,402.723c7.094-15.4,19.564-14.019,23.616-13.084.166-.535.337-1.071.5-1.609.329-1.055.62-2.105.968-3.126s.657-2.039.973-3.041.657-1.979.99-2.949c.052-.154.1-.315.153-.46a58.836,58.836,0,0,1-18.108-8.469c-.171.416-.349.839-.524,1.259-.438,1.071-.887,2.156-1.314,3.266s-.828,2.25-1.233,3.4-.782,2.335-1.163,3.525-.771,2.4-1.1,3.64-.681,2.484-1.014,3.748-.6,2.556-.909,3.854C1201.912,395.939,1201.287,399.292,1200.777,402.723Z" transform="translate(-1217.624 -206.925) rotate(-3)"/><path class="e" d="M1185.142,337.416a20.19,20.19,0,0,1-.5,14.2,64.982,64.982,0,0,1-2.16-11.084,3.1,3.1,0,0,1,.31-2.1A3.172,3.172,0,0,1,1185.142,337.416Z" transform="translate(-1113.751 -313.33)"/><path class="f" d="M1189.022,356.6l3.39-1.269-1.25,6.665Z" transform="translate(-1135.148 -290.069)"/><path class="f" d="M1167.384,395.562a30.224,30.224,0,0,0,20.65,11.031l4.319-10.36c.021.186.046.375.071.556.765,5.615,1.421,13.169,1.979,21.374.855,12.693,1.462,26.928,1.811,37.882.1,3.02.17,5.789.23,8.2a231.357,231.357,0,0,0,47.208,1.93q7.229-.448,14.414-1.34c-1.326-6.29-2.454-12.463-3.4-18.448q-.5-3.127-.931-6.164c-.149-1.055-.294-2.11-.439-3.151-.974-7.265-3.921-31.989-6.024-50.5,6.093,1.436,12.321.209,18.579.3,3.1-13.805.646-22.327.646-22.327-9.1-2.3-28.957-2.555-29.222-2.574h0c-4.286-1.949-8.584-3.907-12.428-5.856-3.321,1.34-6.635,2.664-9.954,4l-.165.069h-.025c-.646.071-11.749,1.43-28.567,10.965l-.035.016-.03.021a24.246,24.246,0,0,0-5.725,4.514,82.184,82.184,0,0,0-7.653,9.349A36.793,36.793,0,0,0,1167.384,395.562Z" transform="translate(-1160.424 -289.052)"/><path class="c" d="M1204.045,372.854a46.972,46.972,0,0,1-19.928.646,27.867,27.867,0,0,0,1.88-10.639v-.149a28.942,28.942,0,0,0-1.928-9.646,28.371,28.371,0,0,0-2.406-4.776,26.073,26.073,0,0,1,3.764-.1c6.511.285,13.019,2.875,16.219,7.674a37.172,37.172,0,0,0-.14,4.55c.02.669.06,1.331.119,1.99.069.869.174,1.731.31,2.581.042.3.094.609.15.919q.179,1.038.434,2.068A36.972,36.972,0,0,0,1204.045,372.854Z" transform="translate(-1129.87 -299.377)"/><path class="d" d="M1200.706,364.968c.042.3.094.609.15.919-14.52.526-18.34-16.91-18.34-16.91l1.685-.8c6.511.285,13.02,2.875,16.218,7.674a37.146,37.146,0,0,0-.14,4.55c.02.669.06,1.331.12,1.99C1200.465,363.254,1200.571,364.111,1200.706,364.968Z" transform="translate(-1128.64 -299.354)"/><path class="c" d="M1200.289,338.027a30.249,30.249,0,0,0,4.259,18.616c1.914,3.135,4.509,6.23,4.419,9.905-.115,4.826-5.3,8.425-10.131,8.154a17.775,17.775,0,0,1-12.118-7.2,33.308,33.308,0,0,1-7.189-24.835A36.751,36.751,0,0,1,1200.289,338.027Z" transform="translate(-1129.368 -312.668)"/><path class="g" d="M1181.509,349.676a9.991,9.991,0,0,0,3.925-1.305.431.431,0,0,1,.589.156.452.452,0,0,1,.052.163,2.635,2.635,0,0,1-.579,2.1,3.105,3.105,0,0,1-2.723,1.034c-.8-.11-1.241-.8-1.609-1.531a.428.428,0,0,1,.191-.575A.409.409,0,0,1,1181.509,349.676Z" transform="translate(-1110.682 -299.184)"/><path class="h" d="M1187.587,355.887s3.01,7.669,14.065,8.064l-3.921,9.3a23.515,23.515,0,0,1-13.355-12.093Z" transform="translate(-1133.711 -289.351)"/><path class="h" d="M1180.5,362.791a7.351,7.351,0,0,0,4.709-6.01l4.187,4.337s.191,7.681-2.67,10.209Z" transform="translate(-1112.563 -288.19)"/><path class="e" d="M1181.642,350.812h0a3.617,3.617,0,0,1,.765-.894,7.345,7.345,0,0,1,1.106-.809,8.479,8.479,0,0,1,1.524-.689c.085-.03.175-.06.264-.085.179-.051.361-.1.549-.14h0c.264-.06.54-.1.816-.14a7.744,7.744,0,0,1,1.365-.025l.1.014a3.016,3.016,0,0,1,.055-.885,3.08,3.08,0,0,1,.671-1.379,4.3,4.3,0,0,1,2.556-1.441,4.59,4.59,0,0,1,1.494.039,3.874,3.874,0,0,1,1.246.506,2.55,2.55,0,0,1,1.075-.66l.1-.025a3.083,3.083,0,0,1,1.4-.014,2.969,2.969,0,0,1,.623-1.011,4.239,4.239,0,0,1,1.232-.919h0a4.446,4.446,0,0,1,.69-.271,4.782,4.782,0,0,1,.69-.14,4.892,4.892,0,0,1,1,.014,2.863,2.863,0,0,1,.485.09,3.409,3.409,0,0,1,.921.37h0a2.576,2.576,0,0,1,.43.28,3.42,3.42,0,0,1,.97,1.149,3.816,3.816,0,0,1,.46,1.409,3.71,3.71,0,0,1-.74,2.721l-.043.055a3.459,3.459,0,0,1-1.131.919,3.866,3.866,0,0,1-.616.246,5.06,5.06,0,0,1-.77.154,3.893,3.893,0,0,1-2.73-.8,4.249,4.249,0,0,1-1.59-2.409,3.593,3.593,0,0,1-.069-1.041,4,4,0,0,0-.991.09l-.08.025a2.18,2.18,0,0,0-.659.315,3.468,3.468,0,0,1,.489.65,3.588,3.588,0,0,1,.51,1.39,3.712,3.712,0,0,1-.671,2.8,3.444,3.444,0,0,1-1.859,1.289,3.722,3.722,0,0,1-.6.131,3.843,3.843,0,0,1-2.758-.69,4.23,4.23,0,0,1-1.666-2.255l-.23.014a10.545,10.545,0,0,0-1.232.154,10.88,10.88,0,0,0-1.149.276l-.042.014h0c-.094.025-.181.06-.276.09a10.813,10.813,0,0,0-1.1.446l-.294.136-.228.131h0a8.413,8.413,0,0,0-.834.49l-.421.285a5.339,5.339,0,0,1-.46.294.591.591,0,0,1-.124.055.233.233,0,0,1-.1.014.269.269,0,0,1-.105-.041l-.051-.071v-.064A.3.3,0,0,1,1181.642,350.812Zm15.78-4.946a3.473,3.473,0,0,0,3.466,2.785,2.76,2.76,0,0,0,.549-.1,2.9,2.9,0,0,0,1.5-1.046,1.88,1.88,0,0,0,.209-.336h0a3.045,3.045,0,0,0-.071-3.02,2.486,2.486,0,0,0-.77-.85l-.129-.085h0a2.812,2.812,0,0,0-.86-.384h0l-.05-.014a3.309,3.309,0,0,0-1.166-.06,2.31,2.31,0,0,0-.54.115,3.058,3.058,0,0,0-.556.209h-.017l-.268.149a.99.99,0,0,0-.161.1l-.085.069a1.3,1.3,0,0,0-.23.179,2.56,2.56,0,0,0-.706,1.011l-.05.154a1.044,1.044,0,0,0-.042.17,2.532,2.532,0,0,0-.021.949ZM1189,348.282a.773.773,0,0,0,.035.184l.016.06a3.483,3.483,0,0,0,3.567,2.581,2.587,2.587,0,0,0,.435-.094,2.919,2.919,0,0,0,1.56-1.135,3.078,3.078,0,0,0,0-3.374,2.964,2.964,0,0,0-.5-.586,1.859,1.859,0,0,0-.31-.23,2.962,2.962,0,0,0-1.064-.439,3.3,3.3,0,0,0-1.556.076,3.939,3.939,0,0,0-.715.289l-.26.156a1.353,1.353,0,0,0-.156.12l-.085.064a1.249,1.249,0,0,0-.216.184c-.055.051-.1.1-.149.154l-.046.055a2.356,2.356,0,0,0-.515.991,2.251,2.251,0,0,0-.042.942Z" transform="translate(-1129.995 -307.61)"/><path class="c" d="M1194.165,346.7a1.988,1.988,0,0,0-1.82-1.859,2.579,2.579,0,0,0-2.356,1.335,3.741,3.741,0,0,0-.276,2.774,6.789,6.789,0,0,0,1.349,2.494,6.445,6.445,0,0,0,3.39,2.411,3.416,3.416,0,0,0,3.718-1.356C1196.353,350.815,1194.158,349.177,1194.165,346.7Z" transform="translate(-1142.156 -303.692)"/><path class="i" d="M1189.695,362.674a17.381,17.381,0,0,0-1.264-15.345,25.624,25.624,0,0,0,12.07.43,13.826,13.826,0,0,0,9.558-6.279,9.566,9.566,0,0,0,.6-7.55,90.831,90.831,0,0,0-12.781,3.13,31.355,31.355,0,0,0-11.491,6.665,3.908,3.908,0,0,0-4.39,2.88,8.672,8.672,0,0,0,.575,5.589A26.471,26.471,0,0,0,1189.695,362.674Z" transform="translate(-1137.248 -317.856)"/><path class="c" d="M1212.022,413.021a13.35,13.35,0,0,0,6.959,3.084,4.426,4.426,0,0,1,1.519.34,1.261,1.261,0,0,1,.749,1.25c-.135.756-1.124,1.009-1.88.88a4.862,4.862,0,0,0-2.266-.209,2.112,2.112,0,0,0-1.271,1.986,6.3,6.3,0,0,0,.609,2.42l2.909,7.239a4.385,4.385,0,0,1,.311,3.76,3.822,3.822,0,0,1-3.71,1.345,13.455,13.455,0,0,1-10.259-20.79A17.072,17.072,0,0,1,1212.022,413.021Z" transform="translate(-1197.249 -243.308)"/></g></g></svg>