<svg width="93" height="120" viewBox="0 0 93 120" fill="none" xmlns="http://www.w3.org/2000/svg">
<path d="M92.116 88.5969C92.1161 90.6641 91.7091 92.7111 90.9181 94.621C90.1271 96.5309 88.9676 98.2663 87.5059 99.7281C86.0442 101.19 84.3089 102.349 82.399 103.141C80.4892 103.932 78.4422 104.339 76.375 104.339H15.743C13.6756 104.339 11.6285 103.932 9.71849 103.141C7.80847 102.35 6.07297 101.19 4.61108 99.7285C3.1492 98.2667 1.98955 96.5313 1.19838 94.6213C0.407207 92.7114 -4.1712e-09 90.6642 0 88.5969V27.9639C0.000131318 25.8966 0.407439 23.8496 1.19867 21.9398C1.9899 20.0299 3.14956 18.2946 4.61143 16.8329C6.07331 15.3712 7.80876 14.2118 9.71872 13.4208C11.6287 12.6298 13.6757 12.2228 15.743 12.2229H76.376C80.5508 12.2229 84.5546 13.8813 87.5066 16.8333C90.4586 19.7854 92.117 23.7891 92.117 27.9639L92.116 88.5969Z" fill="url(#paint0_linear_2335_5688)"/>
<path d="M42.16 88.72C41.36 88.72 40.68 88.44 40.12 87.88C39.56 87.32 39.28 86.64 39.28 85.84V30.88C39.28 30.08 39.56 29.4 40.12 28.84C40.68 28.28 41.36 28 42.16 28H51.88C52.76 28 53.44 28.28 53.92 28.84C54.48 29.32 54.76 30 54.76 30.88V85.84C54.76 86.64 54.48 87.32 53.92 87.88C53.44 88.44 52.76 88.72 51.88 88.72H42.16ZM41.44 112C40.64 112 39.96 111.72 39.4 111.16C38.84 110.6 38.56 109.92 38.56 109.12V97.96C38.56 97.08 38.84 96.36 39.4 95.8C39.96 95.24 40.64 94.96 41.44 94.96H52.6C53.48 94.96 54.2 95.24 54.76 95.8C55.32 96.36 55.6 97.08 55.6 97.96V109.12C55.6 109.92 55.32 110.6 54.76 111.16C54.2 111.72 53.48 112 52.6 112H41.44Z" fill="#C7087D"/>
<defs>
<linearGradient id="paint0_linear_2335_5688" x1="14.2781" y1="114.195" x2="79.4959" y2="-4.35858" gradientUnits="userSpaceOnUse">
<stop stop-color="#FBBAE2"/>
<stop offset="0.128" stop-color="#FBC5E5"/>
<stop offset="0.422" stop-color="#FCD9EB"/>
<stop offset="0.714" stop-color="#FCE5EE"/>
<stop offset="1" stop-color="#FDEAF0"/>
</linearGradient>
</defs>
</svg>