<svg xmlns="http://www.w3.org/2000/svg" xmlns:xlink="http://www.w3.org/1999/xlink" width="159.658" height="125.339" viewBox="0 0 159.658 125.339"><defs><style>.a{fill:url(#a);}.b{fill:none;}.c{fill:#fbcce7;}.d,.f{fill:#af0569;}.e{fill:#fff;}.g{fill:#c7007d;}.h{fill:#a2d45e;stroke:rgba(0,0,0,0);}.i,.j,.k{stroke:none;}.j{fill:#af056a;}.k{fill:#c7007d;}</style><linearGradient id="a" x1="0.155" y1="1.107" x2="0.863" y2="-0.18" gradientUnits="objectBoundingBox"><stop offset="0" stop-color="#fbbae2"/><stop offset="0.128" stop-color="#fbc5e5"/><stop offset="0.422" stop-color="#fcd9eb"/><stop offset="0.714" stop-color="#fce5ee"/><stop offset="1" stop-color="#fdeaf0"/></linearGradient></defs><g transform="translate(-201.253 -302.035)"><path class="a" d="M321.616,378.409a15.741,15.741,0,0,1-15.741,15.742H245.243A15.742,15.742,0,0,1,229.5,378.409V317.776a15.742,15.742,0,0,1,15.743-15.741h60.633a15.741,15.741,0,0,1,15.741,15.741Z" transform="translate(11.386 33.223)"/><g transform="translate(229.5 302.035)"><path class="b" d="M344.271,397.193a19.612,19.612,0,0,1-19.612,19.613H249.114A19.614,19.614,0,0,1,229.5,397.193V321.648a19.613,19.613,0,0,1,19.614-19.613h75.544a19.612,19.612,0,0,1,19.612,19.613Z" transform="translate(-229.5 -302.035)"/></g><path class="c" d="M4,0H74a4.1,4.1,0,0,1,4,4.2V64H0V4.2A4.1,4.1,0,0,1,4,0Z" transform="translate(266.886 329.035)"/><g class="d" transform="translate(263.322 319.243)"><path class="i" d="M 97.08912658691406 79.50487518310547 L 0.5000045895576477 79.50487518310547 L 0.5000045895576477 5.246228694915771 C 0.5000045895576477 2.629153966903687 2.520742177963257 0.5000039339065552 5.00456714630127 0.5000039339065552 L 92.58456420898438 0.5000039339065552 C 95.06838989257812 0.5000039339065552 97.08912658691406 2.629153966903687 97.08912658691406 5.246228694915771 L 97.08912658691406 43.80262756347656 L 97.08912658691406 79.50487518310547 Z"/><path class="j" d="M 5.004570007324219 1 C 2.796432495117188 1 0.9999923706054688 2.904853820800781 0.9999923706054688 5.246231079101562 L 0.9999923706054688 79.0048828125 L 96.58912658691406 79.0048828125 L 96.58912658691406 5.246231079101562 C 96.58912658691406 2.904853820800781 94.79268646240234 1 92.58456420898438 1 L 5.004570007324219 1 M 5.004570007324219 0 L 92.58456420898438 0 C 95.3485107421875 0 97.58912658691406 2.34881591796875 97.58912658691406 5.246231079101562 L 97.58912658691406 80.0048828125 L -7.62939453125e-06 80.0048828125 L -7.62939453125e-06 5.246231079101562 C -7.62939453125e-06 2.34881591796875 2.240623474121094 0 5.004570007324219 0 Z"/></g><g class="e" transform="translate(262.069 319.243)"><path class="i" d="M 96.08914184570312 77.31508636474609 L 1.500007152557373 75.70596313476562 L 1.500007152557373 5.004570007324219 C 1.500007152557373 3.0721435546875 3.072140455245972 1.499996781349182 5.00456714630127 1.499996781349182 L 92.58456420898438 1.499996781349182 C 94.51699066162109 1.499996781349182 96.08914184570312 3.0721435546875 96.08914184570312 5.004570007324219 L 96.08914184570312 41.78499603271484 L 96.08914184570312 77.31508636474609 Z"/><path class="k" d="M 5.004570007324219 2.999992370605469 C 3.899246215820312 2.999992370605469 3 3.899238586425781 3 5.004562377929688 L 3 74.23125457763672 L 94.58913421630859 75.78935241699219 L 94.58913421630859 5.004562377929688 C 94.58913421630859 3.899238586425781 93.68988800048828 2.999992370605469 92.58456420898438 2.999992370605469 L 5.004570007324219 2.999992370605469 M 5.004570007324219 -7.62939453125e-06 L 92.58456420898438 -7.62939453125e-06 C 95.34850311279297 -7.62939453125e-06 97.58913421630859 2.240623474121094 97.58913421630859 5.004562377929688 L 97.58913421630859 78.84082794189453 L 0 77.18065643310547 L 0 5.004562377929688 C 0 2.240623474121094 2.240631103515625 -7.62939453125e-06 5.004570007324219 -7.62939453125e-06 Z"/></g><path class="f" d="M.031,22.448H0l.031-.008V17.423l25.82-2.23L62.065,5.025h54.642L159.408,0l.236,5.025h.012l-.012,0,0,.09-.535.06-40.4,11.338L97.588,22.448H.651l-.62.067Z" transform="translate(201.254 394.292)"/><path class="g" d="M12.459,0h97.589L69.109,11.492,47.981,17.423H-49.608Z" transform="translate(250.862 394.312)"/><g transform="translate(266.453 313.094)"><path class="h" d="M347.683,429.757s2.578-4.507,4.679-4.764,4.809-.259,5.538,1.115,3.992,9.359,3.992,9.359a3.14,3.14,0,0,1-.3,2.7,26.717,26.717,0,0,1-2.788,3.263,2.385,2.385,0,0,0,0,2.833,51.677,51.677,0,0,0,6.182,7.584c3.438,3.441,10.043,5.9,10.043,5.9a2.013,2.013,0,0,0,1.546-.474c.6-.6,3.863-4.678,3.863-4.678a2.293,2.293,0,0,1,2.791-.557c1.737.794,9.271,4.549,9.271,4.549a1.632,1.632,0,0,1,.88,1.652c0,1.331-.538,4.587-1.64,5.688s-4.321,4.495-9.156,4.495-16.357-3.937-22.495-10.073-11.59-12.365-12.877-18.031S346.095,432.091,347.683,429.757Z" transform="translate(-325.923 -402.696)"/></g></g></svg>