<svg xmlns="http://www.w3.org/2000/svg" xmlns:xlink="http://www.w3.org/1999/xlink" width="119.831" height="125.339" viewBox="0 0 119.831 125.339"><defs><style>.a{fill:url(#a);}.b{fill:none;}.c{fill:#fff;}.d{stroke:rgba(0,0,0,0);fill:url(#b);}</style><linearGradient id="a" x1="0.155" y1="1.107" x2="0.863" y2="-0.18" gradientUnits="objectBoundingBox"><stop offset="0" stop-color="#fbbae2"/><stop offset="0.128" stop-color="#fbc5e5"/><stop offset="0.422" stop-color="#fcd9eb"/><stop offset="0.714" stop-color="#fce5ee"/><stop offset="1" stop-color="#fdeaf0"/></linearGradient><linearGradient id="b" x1="0.105" y1="0.937" x2="1.099" y2="-0.161" gradientUnits="objectBoundingBox"><stop offset="0" stop-color="#32ba46"/><stop offset="1" stop-color="#30e341"/></linearGradient></defs><g transform="translate(-229.5 -302.035)"><path class="a" d="M321.616,378.409a15.741,15.741,0,0,1-15.741,15.742H245.243A15.742,15.742,0,0,1,229.5,378.409V317.776a15.742,15.742,0,0,1,15.743-15.741h60.633a15.741,15.741,0,0,1,15.741,15.741Z" transform="translate(11.386 33.223)"/><g transform="translate(229.5 302.035)"><path class="b" d="M344.271,397.193a19.612,19.612,0,0,1-19.612,19.613H249.114A19.614,19.614,0,0,1,229.5,397.193V321.648a19.613,19.613,0,0,1,19.614-19.613h75.544a19.612,19.612,0,0,1,19.612,19.613Z" transform="translate(-229.5 -302.035)"/></g><g transform="translate(260.941 315.475)"><path class="c" d="M12.813,65.725,9.526,80.6l19.56-5.764Z"/><circle class="c" cx="40" cy="40" r="40" transform="translate(3.945 3.56)"/><path class="d" d="M319.812,436.292a43.753,43.753,0,0,1-21.918-5.9l-17.121,5.9,3.518-18.132a43.437,43.437,0,0,1-8.424-25.813,43.945,43.945,0,1,1,43.945,43.946ZM298.684,423.2l1.324.83a37.464,37.464,0,1,0-9.655-8.695l.917,1.174-1.923,9.907Z" transform="translate(-275.867 -348.402)"/><path class="d" d="M347.683,429.757s2.578-4.507,4.679-4.764,4.809-.259,5.538,1.115,3.992,9.359,3.992,9.359a3.14,3.14,0,0,1-.3,2.7,26.717,26.717,0,0,1-2.788,3.263,2.385,2.385,0,0,0,0,2.833,51.677,51.677,0,0,0,6.182,7.584c3.438,3.441,10.043,5.9,10.043,5.9a2.013,2.013,0,0,0,1.546-.474c.6-.6,3.863-4.678,3.863-4.678a2.293,2.293,0,0,1,2.791-.557c1.737.794,9.271,4.549,9.271,4.549a1.632,1.632,0,0,1,.88,1.652c0,1.331-.538,4.587-1.64,5.688s-4.321,4.495-9.156,4.495-16.357-3.937-22.495-10.073-11.59-12.365-12.877-18.031S346.095,432.091,347.683,429.757Z" transform="translate(-325.923 -402.696)"/></g></g></svg>