<svg xmlns="http://www.w3.org/2000/svg" xmlns:xlink="http://www.w3.org/1999/xlink" width="512" height="400.619" viewBox="0 0 512 400.619"><defs><style>.a,.j{fill:#c7007d;}.a,.d,.g,.l{opacity:0.1;}.b{fill:url(#a);}.c{fill:#efb7b9;}.e{fill:#dce6f2;}.f{fill:#965d7b;}.h{fill:#444053;}.i{fill:#a36468;}.k{opacity:0.05;}.l{fill:#fff;}.m{fill:#a8a8a8;}.n{opacity:0.2;}</style><linearGradient id="a" y1="0.5" x2="1" y2="0.5" gradientUnits="objectBoundingBox"><stop offset="0" stop-color="gray" stop-opacity="0.251"/><stop offset="0.54" stop-color="gray" stop-opacity="0.122"/><stop offset="1" stop-color="gray" stop-opacity="0.102"/></linearGradient></defs><g transform="translate(0.004 -0.003)"><ellipse class="a" cx="89.311" cy="16.919" rx="89.311" ry="16.919" transform="translate(90.288 359.025)"/><path class="a" d="M392.7,111.529c-32.823-1.136-64.085-11.736-93.936-23.329S239.348,63.765,207.31,57.623c-20.606-3.951-44.174-4.514-60.773,6.522-15.981,10.65-21.143,28.984-23.918,46.01-2.09,12.811-3.317,26.3,2.4,38.291,3.976,8.328,11.026,15.326,15.9,23.3,16.975,27.752,4.975,61.975-13.414,89.073-8.622,12.709-18.638,24.851-25.3,38.367s-9.737,29.055-3.91,42.88c5.771,13.693,19.531,23.958,34.436,31.185,30.272,14.682,65.931,18.882,100.727,21.265,77,5.264,154.41,2.987,231.615.7,28.573-.842,57.268-1.7,85.375-6.116,15.61-2.455,31.723-6.35,43.058-15.752,14.383-11.934,17.948-32.139,8.307-47.1-16.168-25.1-60.859-31.337-72.174-58.273-6.218-14.829.167-31.342,9.21-45.092,19.394-29.5,51.9-55.382,53.607-89.1,1.177-23.157-14.449-46.349-38.61-57.309-25.322-11.487-60.443-10.042-79.117,8.972C455.494,105.007,421.687,112.539,392.7,111.529Z" transform="translate(-95.23 -55.03)"/><path class="b" d="M476.455,285.859l-15.534-10.473h0l7.836-11.665-41.029-3.271-14.743,11.4-18.456-10.346-15.392,1.851-.183-4.057a114.513,114.513,0,0,0-1.273-12.628c.066-1.268.112-2.723.107-4.306,0-6.669-.9-15.509-4.869-21.4l.913-8.206-7.4-8.749a55.969,55.969,0,0,1,4.057-6.826c.254-.365.507-.72.781-1.065a18.414,18.414,0,0,0,17.193-18.258,11.683,11.683,0,0,0-.051-1.334,4.827,4.827,0,0,0-.056-.538c.938.507,1.887,1.014,2.835,1.521.178.254.38.507.6.806h0l.046.056.284.35.091.107c.1.122.208.238.314.36l.071.081c.269.3.553.6.857.9a.91.91,0,0,1,.1.1l.38.355.107.1c.325.289.669.568,1.014.832l.112.081.436.3.142.091c.167.1.34.208.507.3l.061.036c.2.107.4.208.6.3l.1.041q.259.112.507.213l.157.056c.178.061.35.117.533.167l.112.03c.223.056.446.1.675.137h.025a5.515,5.515,0,0,0,.649.066h.147a5.574,5.574,0,0,0,.583,0h.127a6.007,6.007,0,0,0,.725-.086,8,8,0,0,0,3.2-1.146,2.789,2.789,0,0,0,.649-.6,2.391,2.391,0,0,0-.1-2.784h0c-.4-.943-2.962-1.608-2.962-1.608s-8.115-3.388-8.115-6.086-2.029-16.7-22.969-19.9c0,0-13.622-.766-17.451,6.527l-.081.852c-1.126.7-2.059,2.12-3.17,2.536a5.179,5.179,0,0,0-1.374.507v-.1h0a1.308,1.308,0,0,0-.309.4,4.057,4.057,0,0,0-.421,1.521,5.729,5.729,0,0,1-.664,1.841,4.09,4.09,0,0,1-.3.467h0l-.086.137a3.7,3.7,0,0,0,1.724-.279,8.585,8.585,0,0,1-.507,2.029,1.684,1.684,0,0,0,1.562-.933v-.041l.066-.091a4.283,4.283,0,0,0,.314-.735l-.056.061c.1-.33.193-.664.3-.989a1.553,1.553,0,0,1,.249-.507,1.227,1.227,0,0,1,1.05-.35l-.208,4.4h.091a6,6,0,0,1-.446.923c-.72,1.166-2.029,1.963-2.51,3.241a4.768,4.768,0,0,0-.233,1.917c0,.38.046.766.076,1.146v-.03a4.277,4.277,0,0,1-.456,2.794c-.375.558-.979.979-1.187,1.613a1.573,1.573,0,0,0-.076.548,6.151,6.151,0,0,0,.345,1.628.071.071,0,0,0,0-.03,2.474,2.474,0,0,1,.086,1.2c-.228,1.014-1.461,1.861-1.4,2.83a1.09,1.09,0,0,0,.056.375,2.054,2.054,0,0,0,1.146,1.014,4.463,4.463,0,0,0,2.576.568,3.388,3.388,0,0,0,.964-.33c-.355.817-.72,1.623-1.09,2.389-.056.122-.117.243-.177.365,0,0-3.134-2.095-4.914,2.176a9.474,9.474,0,0,0-1.1,2.86,6.808,6.808,0,0,1-.375,1.177,7.572,7.572,0,0,1-3.388,3.043c-3.631,1.663-18.3,19.957-18.557,24.694a27.638,27.638,0,0,1-.933,5.467,32.534,32.534,0,0,0-.872,12.927,24.733,24.733,0,0,0,.9,4.123c1.557,4.732,2.6,13.561,2.6,13.561l1.684,15.326a43.612,43.612,0,0,0,.274,6.334c-1.719,1.963-8.622,10.143-5.984,12.37,2.029,1.755,5.579,1.466,7.572,1.106-1.679,4.154-4.321,11.376-4.671,16.336-.507,7.339.867,17.061,3.043,20.794s9.428,13.308,9.428,13.308-.34,13.135,2.252,17.908,3.636,14.672,3.636,14.672,2.419,8.358,1.207,11.431,2.247,5.629-1.385,7.673-8.277,48.109-8.277,48.109-1.871,30.191,0,31.728a1.9,1.9,0,0,0,.32.188v10.143s-1.3,2.13,3.981,2.561c3.616.289,13.866.943,19.947,1.324l4.712.294s11.158,2.221,16.087,0,13.668-2.171,12.37-8.038a16.691,16.691,0,0,0-.69-2.348c-1.425-3.641-3.844-4.057-8.3-5.072-.259-.056-.507-.107-.735-.147-4.7-.817-6.238,1.369-8.87-1.476-2.287-2.46-9.57-5.214-12.05-6.086.061-.183.137-.36.2-.548a3.713,3.713,0,0,1-1.882-.918l6.72.426,4,.249s9.484,1.892,13.693,0,11.614-1.841,10.508-6.826a14.309,14.309,0,0,0-.583-2c-1.212-3.094-3.271-3.434-7.06-4.291-.218-.046-.421-.091-.624-.127-3.991-.695-5.3,1.161-7.536-1.253-1.917-2.059-7.967-4.367-10.143-5.153,0-1.126-1.521-2.729-2.48-4.336-1.126-1.876.953-8.444.953-8.444l1.187-27.25a5.265,5.265,0,0,1,1.42-.406s5.366-5.122,4.154-10.579a35.055,35.055,0,0,1-.385-4.985c1.765-1.638,4.194-4.057,4.884-5.548,1.126-2.429,0-14.2,0-14.2v-45.01l8.977.908,8.145.837,2.48.254,8.145.822,18.719,1.892,16.868-3.2,7.3-1.379,15.007-2.84V288.425ZM352.906,164.186l-1.045-.112C352.206,164.09,352.571,164.156,352.906,164.186Z" transform="translate(-205.066 -102.397)"/><path class="c" d="M520.335,445.924c-5.072,7.257-23.3,3.413-23.3,3.413L482.9,436.116l-1.9-1.79,3.19-6.776s1.014.279,2.754.776C496.078,430.978,524.616,439.823,520.335,445.924Z" transform="translate(-285.355 -238.621)"/><path class="d" d="M486.934,428.326a29.751,29.751,0,0,1-4.032,7.79l-1.9-1.79,3.19-6.776S485.215,427.829,486.934,428.326Z" transform="translate(-285.355 -238.621)"/><path class="e" d="M385.093,278.213s-13.024,5.777-12.385,19.962a233.868,233.868,0,0,0,2.982,27.265s-2.663,21.346,8.424,26.849,21.346,10.027,21.346,10.027,17.345,1.866,19.5,2.637,8.891-11.016,7.648-12.851-17.162-5.685-19.191-8.749-6.72-4.955-6.72-4.955-4.843-2.931-5.173-5.579.948-4.62,1.273-5.782,1.146-12.375,1.146-12.375S409.411,274.749,385.093,278.213Z" transform="translate(-231.973 -164.917)"/><path class="d" d="M398.3,370.39s-17.867,2.992-16.138,9.246A37.879,37.879,0,0,1,398.3,370.39Z" transform="translate(-236.587 -210.45)"/><path class="d" d="M406.449,375.38s-9.824,8.018-7.9,8.429S406.449,375.38,406.449,375.38Z" transform="translate(-244.596 -212.91)"/><path class="d" d="M422.183,380.89s-2.632,5.391-1.014,5.026S422.183,380.89,422.183,380.89Z" transform="translate(-255.609 -215.625)"/><path class="d" d="M434.847,355.747l-1.085-.309a3.1,3.1,0,0,0,.142-2.216c-1.243-1.836-17.152-5.68-19.176-8.749s-6.72-4.955-6.72-4.955-4.843-2.931-5.173-5.579.948-4.62,1.273-5.782,1.146-12.38,1.146-12.38,5.452-39.908-18.866-36.444c0,0-13.024,5.782-12.39,19.967a233.228,233.228,0,0,0,2.987,27.265s-2.663,21.346,8.424,26.849,21.346,10.027,21.346,10.027,17.34,1.861,19.5,2.637c.817.294,2.292-1.222,3.738-3.307l.822.766,14.129,13.217s18.232,3.849,23.3-3.408C472.534,367.239,444,358.394,434.847,355.747Z" transform="translate(-232.609 -165.469)"/><path class="f" d="M379.4,170.606a4.311,4.311,0,0,0-1.4.543c-.507.421-.507,1.141-.634,1.77a5.822,5.822,0,0,1-1.014,2.424,3.646,3.646,0,0,0,1.689-.279,8.692,8.692,0,0,1-.507,2.029,1.643,1.643,0,0,0,1.521-.928,9.769,9.769,0,0,0,.634-1.78,1.466,1.466,0,0,1,.243-.507c.467-.553,1.334-.3,2.054-.233a3.373,3.373,0,0,0,3.083-1.481c.766-1.161.811-4.133-1.014-4.448C382.147,167.4,380.96,170.027,379.4,170.606Z" transform="translate(-233.779 -110.551)"/><g class="g" transform="translate(142.647 60.465)"><path d="M378.721,175.006c.046-.249.076-.507.132-.756h0a2.975,2.975,0,0,0-.634,1.77,5.576,5.576,0,0,1-.3,1.07A5.811,5.811,0,0,0,378.721,175.006Z" transform="translate(-377.2 -174.25)"/><path d="M378.184,182.029a8.435,8.435,0,0,0,.507-2.029,3.631,3.631,0,0,1-1.608.279,5.869,5.869,0,0,1-.583,1.014,3.611,3.611,0,0,0,1.684-.274,8.433,8.433,0,0,1-.507,2.029,1.648,1.648,0,0,0,1.521-.928,3.783,3.783,0,0,0,.3-.725,1.521,1.521,0,0,1-1.319.634Z" transform="translate(-376.5 -177.084)"/><path d="M386.244,175.993c-.72-.071-1.592-.32-2.059.233a1.567,1.567,0,0,0-.243.507c-.046.132-.086.269-.122.406.482-.38,1.263-.178,1.917-.112a3.388,3.388,0,0,0,3.084-1.481,2.81,2.81,0,0,0,.34-.8,3.378,3.378,0,0,1-2.916,1.243Z" transform="translate(-380.108 -174.496)"/></g><path class="e" d="M314.692,201l7.734,9.3-1.009,9.388-9.347-14.632Z" transform="translate(-153.803 -99.059)"/><path class="d" d="M322.421,210.3l-.948,8.83-.061.558-8.434-13.206-.908-1.425.264-.411L314.687,201l.522.629Z" transform="translate(-153.803 -99.059)"/><path class="c" d="M404.5,217.918c-2.617.751-5.117,3.327-7.293,6.456a55.1,55.1,0,0,0-3.936,6.765c-.715,1.43-1.344,2.8-1.866,4l-.365.852c-.882,2.084-1.374,3.479-1.374,3.479S369.63,224.41,372.8,223.4c1.065-.34,2.465-2.622,3.849-5.5l.172-.365c.877-1.846,1.74-3.905,2.505-5.842,1.567-3.981,2.729-7.44,2.729-7.44S412.485,215.636,404.5,217.918Z" transform="translate(-231.862 -128.57)"/><path class="h" d="M459.26,202.58s4.625,8.368,10.838,7.227,3.657-4.493,3.657-4.493Z" transform="translate(-274.641 -127.747)"/><path class="i" d="M405.386,754.539c-4.1,1.871-13.364,0-13.364,0l-3.905-.243c-5.072-.325-13.561-.872-16.564-1.116-4.382-.36-3.307-2.155-3.307-2.155V740.176l21.26-5.386s8.4,2.876,10.706,5.386c2.186,2.394,3.464.553,7.364,1.243.193.036.4.076.609.127,3.7.847,5.711,1.182,6.9,4.25a14.254,14.254,0,0,1,.573,1.978C416.752,752.713,409.479,752.677,405.386,754.539Z" transform="translate(-229.728 -390.041)"/><path class="d" d="M415.083,752.237a15.885,15.885,0,0,1-2.394,1.227c-2.789,1.273-5.442,2.825-8.262,4.027a19.322,19.322,0,0,1-8.911,1.831c-1.6-.117-3.231-.507-4.757-.051a10.983,10.983,0,0,0-2.642,1.466c-5.072-.325-13.561-.872-16.564-1.116-4.382-.36-3.307-2.156-3.307-2.156V756.2c.157,0,.335-.046.538-.061a9.576,9.576,0,0,1,3.094.461c2.2.6,4.392,1.187,6.593,1.775a5.208,5.208,0,0,1,2.536-3.236,8.083,8.083,0,0,1,4.088-.938c3.413.046,6.644,1.663,10.052,1.826a5.538,5.538,0,0,0,2.784-.467c.467-.233.877-.573,1.334-.832a9.738,9.738,0,0,1,2.3-.776,50.578,50.578,0,0,0,6.568-2.12c.609-.238,1.319-.669,1.237-1.319-.107-.862-1.461-.964-1.816-1.755a1.015,1.015,0,0,1,.041-.9c.193.036.4.076.609.127C411.888,748.834,413.9,749.168,415.083,752.237Z" transform="translate(-229.728 -396.483)"/><path class="i" d="M390.458,797.943c-4.818,2.2-15.722,0-15.722,0l-4.59-.269c-5.944-.38-15.955-1.014-19.49-1.314-5.158-.426-3.89-2.536-3.89-2.536V781.04l25.018-6.339s9.89,3.383,12.6,6.339c2.571,2.815,4.057.649,8.667,1.461.228.041.467.091.715.147,4.357,1.014,6.72,1.395,8.115,5.006a16.282,16.282,0,0,1,.675,2.328C403.811,795.793,395.276,795.747,390.458,797.943Z" transform="translate(-219.131 -409.711)"/><path class="d" d="M401.869,795.257a18.88,18.88,0,0,1-2.815,1.445c-3.281,1.5-6.405,3.322-9.722,4.737a22.792,22.792,0,0,1-10.488,2.155c-1.876-.137-3.8-.609-5.579-.061a12.932,12.932,0,0,0-3.119,1.745c-5.944-.38-15.955-1.014-19.49-1.314-5.158-.426-3.89-2.536-3.89-2.536v-1.491a6.35,6.35,0,0,1,.634-.071,11.126,11.126,0,0,1,3.641.543l7.754,2.09a6.137,6.137,0,0,1,3.007-3.809,9.464,9.464,0,0,1,4.813-1.106c4.017.056,7.815,1.958,11.827,2.15a6.548,6.548,0,0,0,3.266-.543c.553-.279,1.014-.68,1.572-.979a11.029,11.029,0,0,1,2.7-.913,60.711,60.711,0,0,0,7.689-2.5c.715-.284,1.552-.791,1.456-1.552-.127-1.014-1.719-1.136-2.14-2.069a1.222,1.222,0,0,1,.051-1.055c.228.041.467.091.715.147C398.111,791.251,400.474,791.646,401.869,795.257Z" transform="translate(-219.131 -417.315)"/><path class="h" d="M395.4,647.54,394.046,679.4s-2.029,6.507-.928,8.368,2.957,3.718,2.282,4.818-8.789,13-11.411,8.434-5.208-24.344-5.208-24.344l2.419-24.43Z" transform="translate(-234.977 -347.041)"/><path class="h" d="M415.737,491l3.763,5.031v43.758s1.1,11.665,0,14.074-6.679,7.227-6.679,7.227L408.13,537l1.014-25.485Z" transform="translate(-249.442 -269.892)"/><path class="d" d="M395.4,647.54,394.046,679.4s-2.029,6.507-.928,8.368,2.957,3.718,2.282,4.818-8.789,13-11.411,8.434-5.208-24.344-5.208-24.344l2.419-24.43Z" transform="translate(-234.977 -347.041)"/><path class="d" d="M415.737,491l3.763,5.031v43.758s1.1,11.665,0,14.074-6.679,7.227-6.679,7.227L408.13,537l1.014-25.485Z" transform="translate(-249.442 -269.892)"/><path class="h" d="M379.517,442.372v23.669l-4.225,18.425s-1.354,44.463-.172,49.869-4.057,10.483-4.057,10.483-3.043.34-3.043,2.7-5.072,9.129-5.072,9.129l.167,13.186s2.2,24.683-1.182,29.415,1.182,5.411,1.182,5.411c-4.225,13.861-24.511,10.65-26.342,9.129s0-31.444,0-31.444,4.534-45.644,8.084-47.673.172-4.564,1.354-7.607-1.182-11.325-1.182-11.325-1.014-9.809-3.55-14.54-2.2-17.751-2.2-17.751-7.1-9.469-9.21-13.186-3.469-13.354-2.962-20.626c.345-4.914,2.926-12.07,4.564-16.189.786-1.973,1.354-3.251,1.354-3.251l.482.127,27.7,7.252Z" transform="translate(-209.458 -239.927)"/><path class="d" d="M411.165,217.883c-2.617.751-5.117,3.327-7.293,6.456H403.3a18.116,18.116,0,0,1-15.722-9.093,17.84,17.84,0,0,1-1.592-3.626c1.567-3.981,2.729-7.44,2.729-7.44S419.153,215.6,411.165,217.883Z" transform="translate(-238.53 -128.535)"/><path class="c" d="M420.642,188.568a18.131,18.131,0,1,1-33.919-8.885,17.716,17.716,0,0,1,1.917-2.769,18.347,18.347,0,0,1,4.169-3.662,18.131,18.131,0,0,1,27.808,13.987C420.627,187.685,420.642,188.126,420.642,188.568Z" transform="translate(-237.737 -111.899)"/><path class="d" d="M399.532,261.549l-.061.558-8.434-13.186c-.882,2.084-1.374,3.479-1.374,3.479S369.63,237.317,372.8,236.3c1.065-.34,2.465-2.622,3.849-5.5l.172-.365c1.471,4.382,10.016,13.141,13.572,16.65.411.406.751.74,1.014.984l.543.507.284.284C393.527,250.2,398.984,256.082,399.532,261.549Z" transform="translate(-231.862 -141.477)"/><path class="e" d="M380.222,306.148l-.923,29.7-.162,5.29S368.2,340.127,358,339.012c-8.216-.9-15.96-1.866-17.152-2.434a32.282,32.282,0,0,0-7.354-1.618c-1.988-.269-3.55-.411-3.55-.411s-.583.172-1.481.335c-1.958.355-5.4.644-7.4-1.1-2.561-2.226,4.169-10.316,5.848-12.258l.37-.421-.634-5.858L325,300.062s-1.014-8.749-2.536-13.44a24.79,24.79,0,0,1-.877-4.083,32.7,32.7,0,0,1,.852-12.811,27.933,27.933,0,0,0,.913-5.422c.254-4.691,14.581-22.822,18.131-24.47a7.526,7.526,0,0,0,3.631-3.621,6.918,6.918,0,0,0,.553-1.577c1.521-6.593,5.371-3.976,5.371-3.976.928,5.158,15.3,18.811,15.3,18.811l.284.284c1.425,1.461,7.775,8.317,7.323,14.17a17.178,17.178,0,0,0,.959,6.411,108.406,108.406,0,0,1,5,28.4Z" transform="translate(-206.248 -141.334)"/><path class="d" d="M391.658,310.45s-3.55,8.622-6.213,10.016S392.926,323.408,391.658,310.45Z" transform="translate(-238.041 -180.91)"/><path class="d" d="M395.495,342.2s-8.115,1.014-8.115,2.536S395.495,342.2,395.495,342.2Z" transform="translate(-239.215 -196.557)"/><path class="d" d="M405.083,361.7S393.292,386.8,390,387.565,405.083,361.7,405.083,361.7Z" transform="translate(-240.309 -206.168)"/><path class="d" d="M389.524,251.707l-9.753,4.24L368,238.165a6.917,6.917,0,0,0,.553-1.577c1.521-6.593,5.371-3.976,5.371-3.976.928,5.158,15.3,18.811,15.3,18.811Z" transform="translate(-229.664 -142.295)"/><path class="e" d="M390.524,249.707l-9.753,4.24L369,236.165a6.919,6.919,0,0,0,.553-1.577c1.521-6.593,5.371-3.976,5.371-3.976.928,5.158,15.3,18.811,15.3,18.811Z" transform="translate(-230.157 -141.31)"/><path class="d" d="M384.257,371.542s-10.934-1.014-21.138-2.13l18.308,4.793v5.579c-.8.725-1.5,1.1-1.948.908-2.11-.888-19.328-3.677-19.328-3.677s-10-5.072-20.794-11.158a8.337,8.337,0,0,1-.761-.477,11.989,11.989,0,0,1-3.2-3.2,22.712,22.712,0,0,1-3.388-10.229,44.231,44.231,0,0,1-.264-6.279,51.478,51.478,0,0,1,.649-7.1,233.316,233.316,0,0,1-1.521-27.387c.127-14.2,13.44-19.272,13.44-19.272,24.47-2.155,16.883,37.4,16.883,37.4s-1.415,11.158-1.8,12.3-1.77,3.043-1.582,5.706,4.864,5.848,4.864,5.848,4.564,2.14,6.446,5.31c1.369,2.338,10.265,5.508,15.291,7.77Z" transform="translate(-211.369 -171.734)"/><path class="d" d="M418.786,175.016a5.741,5.741,0,0,1-.507,2.424,14.988,14.988,0,0,1-.9,1.805A8.318,8.318,0,0,1,415.155,182a11.363,11.363,0,0,1-4.057,1.41,5.871,5.871,0,0,0-3.667,2.079,7.272,7.272,0,0,0-.857,2.485,5.346,5.346,0,0,1-1.014,2.4,1.993,1.993,0,0,1-2.374.568,2.4,2.4,0,0,1-.918-1.182,16.947,16.947,0,0,1-.958-4.154,8.837,8.837,0,0,0-1.425-3.981,3.565,3.565,0,0,0-3.743-1.435,3.606,3.606,0,0,0-2.029,1.968,11.279,11.279,0,0,0-.766,2.8q-.943,5.163-2.226,10.265a.943.943,0,0,1-.167.385.73.73,0,0,1-.507.213c-1.136.152-2.226-.644-3.373-.558a1.937,1.937,0,0,0-.35.056,18.121,18.121,0,0,1,1.831-20.692l.091-.025a5.467,5.467,0,0,0,2.029-1.278,21.41,21.41,0,0,0,2.029-2.348l.406-.507a23.132,23.132,0,0,1,3.956-3.758,4.057,4.057,0,0,1,1.349-.73,4,4,0,0,1,1.278-.041,32.242,32.242,0,0,0,5.28.2,33.87,33.87,0,0,1,3.707-.375c3.21.091,5.949,2.358,7.978,4.843A7.5,7.5,0,0,1,418.786,175.016Z" transform="translate(-237.702 -109.605)"/><path class="f" d="M379.245,177.393c-.7,1.156-1.978,1.942-2.455,3.21-.7,1.841.482,4.133-.6,5.777-.36.553-.953.964-1.156,1.6-.345,1.07.6,2.211.355,3.312s-1.694,2.029-1.308,3.1a2.029,2.029,0,0,0,1.116,1.014,4.362,4.362,0,0,0,2.536.563c1.385-.228,2.414-1.587,3.819-1.689,1.141-.081,2.232.71,3.368.563a.761.761,0,0,0,.507-.218.878.878,0,0,0,.167-.385q1.278-5.1,2.232-10.265a11.056,11.056,0,0,1,.761-2.8,3.636,3.636,0,0,1,2.029-1.968,3.577,3.577,0,0,1,3.743,1.435,8.784,8.784,0,0,1,1.43,3.981,17.174,17.174,0,0,0,.953,4.154,2.424,2.424,0,0,0,.923,1.187,1.986,1.986,0,0,0,2.368-.568,5.29,5.29,0,0,0,1.014-2.409,7.243,7.243,0,0,1,.857-2.48,5.884,5.884,0,0,1,3.667-2.079,11.475,11.475,0,0,0,4.057-1.415,8.348,8.348,0,0,0,2.221-2.754,8.108,8.108,0,0,0,1.39-4.235,7.774,7.774,0,0,0-2.079-4.387c-2.029-2.485-4.772-4.752-7.983-4.838a31.546,31.546,0,0,0-3.707.375,31.733,31.733,0,0,1-5.28-.2,4.149,4.149,0,0,0-1.278.046,3.824,3.824,0,0,0-1.344.73A23.141,23.141,0,0,0,387.6,169.5a29.074,29.074,0,0,1-2.445,2.84,5.5,5.5,0,0,1-2.029,1.283c-.507.142-1.014.041-1.5.2C380.138,174.294,379.94,176.247,379.245,177.393Z" transform="translate(-232.627 -109.127)"/><path class="d" d="M470.1,209.8c-4.057.746-7.42-2.536-9.281-4.93a19.884,19.884,0,0,1-1.557-2.292l13.927,2.627.563.107S476.311,208.666,470.1,209.8Z" transform="translate(-274.641 -127.747)"/><g class="g" transform="translate(141.36 64.396)"><path d="M376.3,212.277a4.224,4.224,0,0,0-.294-1.947c0,.051-.046.1-.061.152a3.775,3.775,0,0,0,.264,2.09A1.523,1.523,0,0,0,376.3,212.277Z" transform="translate(-374.902 -195.962)"/><path d="M379.07,197.8a11.269,11.269,0,0,0,.041,2.1A11.3,11.3,0,0,0,379.07,197.8Z" transform="translate(-376.465 -189.787)"/><path d="M411.791,185.271a8.318,8.318,0,0,1-2.221,2.759,11.33,11.33,0,0,1-4.057,1.41,5.858,5.858,0,0,0-3.667,2.079,7.307,7.307,0,0,0-.857,2.485,5.31,5.31,0,0,1-1.014,2.409,1.979,1.979,0,0,1-2.368.568,2.424,2.424,0,0,1-.923-1.187,16.887,16.887,0,0,1-.953-4.154,8.763,8.763,0,0,0-1.43-3.981,3.565,3.565,0,0,0-3.743-1.435,3.621,3.621,0,0,0-2.029,1.968,11.056,11.056,0,0,0-.761,2.8q-.948,5.168-2.231,10.265a.877.877,0,0,1-.167.385.761.761,0,0,1-.507.218c-1.136.147-2.226-.644-3.368-.563-1.4.1-2.434,1.461-3.819,1.684a4.286,4.286,0,0,1-2.536-.563,2.713,2.713,0,0,1-.928-.659,1.369,1.369,0,0,0-.188,1.182,1.978,1.978,0,0,0,1.116,1.014,4.285,4.285,0,0,0,2.536.563c1.385-.223,2.414-1.582,3.819-1.684,1.141-.081,2.232.71,3.368.563a.761.761,0,0,0,.507-.218.877.877,0,0,0,.167-.385q1.278-5.072,2.231-10.265a11.056,11.056,0,0,1,.761-2.8,3.621,3.621,0,0,1,2.029-1.968A3.568,3.568,0,0,1,394.3,189.2a8.784,8.784,0,0,1,1.43,3.981,17.174,17.174,0,0,0,.953,4.154,2.424,2.424,0,0,0,.923,1.187,1.986,1.986,0,0,0,2.368-.568,5.31,5.31,0,0,0,1.014-2.409,7.309,7.309,0,0,1,.857-2.485,5.908,5.908,0,0,1,3.667-2.079,11.567,11.567,0,0,0,4.057-1.41,8.317,8.317,0,0,0,2.221-2.759,8.075,8.075,0,0,0,1.39-4.23,5.443,5.443,0,0,0-.061-.578A9.966,9.966,0,0,1,411.791,185.271Z" transform="translate(-373.964 -182)"/></g><path class="d" d="M420.6,179.722a17.918,17.918,0,0,1,2.257,7.531c-4.519-2.536-8.769-5.32-10.914-6.289-3.738-1.689-17.715-1.435-22.969-1.278a17.717,17.717,0,0,1,1.917-2.769,18.348,18.348,0,0,1,4.184-3.662,18.141,18.141,0,0,1,25.551,6.456Z" transform="translate(-239.999 -111.903)"/><path class="d" d="M471.366,207.652c-2.439.751-6.421-.7-10.549-2.779a19.884,19.884,0,0,1-1.557-2.292l13.927,2.627C474.11,205.836,474.343,206.734,471.366,207.652Z" transform="translate(-274.641 -127.747)"/><path class="h" d="M403.917,154.058s-13.313-.761-17.056,6.466l-.6,6.405-1.014-.112-.2,4.357s20.347-.888,24.978,1.2,19.018,12.618,24.785,10.843-.507-3.423-.507-3.423-7.937-3.362-7.937-6S424.391,157.227,403.917,154.058Z" transform="translate(-238.062 -103.822)"/><path class="d" d="M371.63,622.28s8.495,8.241,12.172,7.607C383.8,629.887,373.405,629,371.63,622.28Z" transform="translate(-231.453 -334.592)"/><path class="d" d="M368.13,629.81s.761,4.24,2.789,3.824S368.13,629.81,368.13,629.81Z" transform="translate(-229.728 -338.303)"/><path class="d" d="M384.412,769.53s-12.06,9.382-10.027,9.636S384.412,769.53,384.412,769.53Z" transform="translate(-232.697 -407.163)"/><path class="j" d="M330.96,341.155l39.051-6.355v36.972l-37.1-1.942Z" transform="translate(-163.112 -165.001)"/><path class="k" d="M330.96,341.155l39.051-6.355v36.972l-37.1-1.942Z" transform="translate(-163.112 -165.001)"/><path class="j" d="M407.96,334.8l46.831,3.5L452.2,370.479l-44.24,1.293Z" transform="translate(-201.061 -165.001)"/><path class="d" d="M407.96,334.8l46.831,3.5L452.2,370.479l-44.24,1.293Z" transform="translate(-201.061 -165.001)"/><path class="j" d="M422.358,312.55l-14.4,11.284,46.831,3.5,7.653-11.548Z" transform="translate(-201.061 -154.036)"/><path class="j" d="M303.08,318.87l35.156-4.28,18.035,10.25-39.051,6.355Z" transform="translate(-149.372 -155.041)"/><path class="j" d="M378.572,350.576v50.549l-18.293-1.876-7.957-.811-2.424-.254-7.952-.817L330.96,396.24V347.33l39.046,2.658Z" transform="translate(-163.112 -171.177)"/><path class="j" d="M463.11,341.71v49.3l-14.662,2.815-7.131,1.369-16.478,3.165V347.806Z" transform="translate(-209.38 -168.407)"/><path class="k" d="M463.11,341.71v49.3l-14.662,2.815-7.131,1.369-16.478,3.165V347.806Z" transform="translate(-209.38 -168.407)"/><path class="j" d="M303.08,357.97l14.14-10.64,47.612,3.246-7.009,11.807Z" transform="translate(-149.372 -171.177)"/><path class="l" d="M303.08,357.97l14.14-10.64,47.612,3.246-7.009,11.807Z" transform="translate(-149.372 -171.177)"/><path class="j" d="M463.11,341.71l-38.27,6.1L437.3,358.964l40.994-6.877Z" transform="translate(-209.38 -168.407)"/><path class="l" d="M463.11,341.71l-38.27,6.1L437.3,358.964l40.994-6.877Z" transform="translate(-209.38 -168.407)"/><path class="l" d="M464.461,433.918l-7.131,1.369V424.754l6.679-1.684Z" transform="translate(-225.393 -208.504)"/><path class="l" d="M381.037,435.96v6.968l-7.957-.811V435.96Z" transform="translate(-183.871 -214.857)"/><path class="l" d="M360.572,440.29V444l-7.952-.817V440.29Z" transform="translate(-173.787 -216.991)"/><path class="d" d="M473.071,463.986c-5.452,6.973-23.456,2.155-23.456,2.155l-13.379-13.957-1.816-1.892,3.55-6.593s1.014.335,2.708.923C449.645,447.757,477.66,458.119,473.071,463.986Z" transform="translate(-262.398 -246.581)"/><path class="c" d="M472.071,461.986c-5.452,6.973-23.456,2.155-23.456,2.155l-13.379-13.957-1.816-1.892,3.55-6.593s1.014.335,2.708.923C448.645,445.757,476.66,456.119,472.071,461.986Z" transform="translate(-261.906 -245.595)"/><path class="d" d="M439.638,442.623a29.982,29.982,0,0,1-4.443,7.562l-1.816-1.892,3.55-6.593S437.95,442.035,439.638,442.623Z" transform="translate(-261.886 -245.595)"/><path class="e" d="M345.318,287.916s-13.313,5.072-13.44,19.272a233.33,233.33,0,0,0,1.521,27.387s-3.8,21.174,6.973,27.26,20.794,11.158,20.794,11.158,17.218,2.789,19.333,3.677,9.464-10.524,8.323-12.425-16.817-6.593-18.679-9.763-6.446-5.3-6.446-5.3-4.676-3.19-4.864-5.853,1.192-4.564,1.582-5.706,1.806-12.3,1.806-12.3S369.789,285.735,345.318,287.916Z" transform="translate(-211.861 -169.761)"/><path class="d" d="M354.165,380.7s-18,2.029-16.609,8.368A37.877,37.877,0,0,1,354.165,380.7Z" transform="translate(-214.622 -215.532)"/><path class="d" d="M362.049,385.7s-10.219,7.481-8.343,7.988S362.049,385.7,362.049,385.7Z" transform="translate(-222.506 -217.996)"/><path class="d" d="M377.657,391.7s-2.916,5.244-1.268,4.97S377.657,391.7,377.657,391.7Z" transform="translate(-233.55 -220.953)"/><path class="j" d="M732.282,167.4s-19.272-1.161-17.02,12.359a3.3,3.3,0,0,0,1.714,3.474s.035-1.014,1.978-.664a8.88,8.88,0,0,0,2.095.1,4.347,4.347,0,0,0,2.566-1.06h0s5.422-2.237,7.531-11.1c0,0,1.562-1.937,1.521-2.434l-3.256,1.395a5.835,5.835,0,0,1,.233,4.3s-.1-4.214-.73-4.118c-.127,0-1.689.817-1.689.817s1.912,4.088.467,7.065c0,0,.548-5.041-1.065-6.771l-2.292,1.339s2.237,4.225.72,7.673c0,0,.391-5.29-1.2-7.349l-2.079,1.618s2.1,4.169.822,7.029c0,0-.167-6.157-1.273-6.624a12.542,12.542,0,0,0-2.089,2.262s1.435,3.043.543,4.62c0,0-.548-4.1-1.014-4.123,0,0-1.811,2.718-2,4.564a9.87,9.87,0,0,1,1.557-4.838,5.432,5.432,0,0,0-2.769,1.435s.279-1.922,3.215-2.09a13.874,13.874,0,0,1,1.9-2.191,11.892,11.892,0,0,0-4.691.543s1.557-1.811,5.229-1.014l2.029-1.674s-3.844-.507-5.477.056c0,0,1.877-1.6,6.03-.436l2.232-1.334a20.037,20.037,0,0,0-5.229-.451s2.059-1.111,5.883.091l1.6-.715s-2.4-.472-3.1-.548-.74-.269-.74-.269a8.3,8.3,0,0,1,4.509.507S732.353,167.609,732.282,167.4Z" transform="translate(-400.719 -110.394)"/><path class="a" d="M847.742,300.736s-19.272-1.161-17.02,12.359a3.3,3.3,0,0,0,1.714,3.474s.036-1.014,1.983-.664a8.877,8.877,0,0,0,2.094.1,4.341,4.341,0,0,0,2.536-1.055h0s5.427-2.242,7.536-11.107c0,0,1.557-1.932,1.5-2.429l-3.256,1.39a5.852,5.852,0,0,1,.238,4.3s-.107-4.215-.73-4.118c-.127,0-1.694.817-1.694.817s1.917,4.093.472,7.065c0,0,.548-5.041-1.07-6.771l-2.267,1.324s2.237,4.225.72,7.673c0,0,.391-5.29-1.2-7.349l-2.074,1.623s2.1,4.164.822,7.024c0,0-.167-6.157-1.273-6.624a12.719,12.719,0,0,0-2.095,2.262s1.44,3.043.548,4.62c0,0-.548-4.1-1.014-4.123,0,0-1.811,2.718-2,4.564a9.9,9.9,0,0,1,1.562-4.838A5.457,5.457,0,0,0,831,311.69s.284-1.922,3.221-2.089a12.661,12.661,0,0,1,1.9-2.191,11.891,11.891,0,0,0-4.691.543s1.557-1.811,5.224-.989l2.029-1.674s-3.849-.507-5.477.056c0,0,1.876-1.6,6.03-.436l2.231-1.334a20.323,20.323,0,0,0-5.234-.451s2.064-1.111,5.888.091l1.6-.715s-2.4-.472-3.109-.548-.74-.269-.74-.269a8.313,8.313,0,0,1,4.514.507S847.8,300.949,847.742,300.736Z" transform="translate(-457.622 -176.11)"/><path class="a" d="M620.828,258.566s4.438-18.811-9.276-18.876a3.294,3.294,0,0,0-3.712,1.1s.979.208.314,2.064a9.025,9.025,0,0,0-.456,2.029,4.356,4.356,0,0,0,.6,2.7h0s1.283,5.731,9.636,9.322c0,0,1.643,1.866,2.14,1.887l-.811-3.444a5.827,5.827,0,0,1-4.28-.507s4.174.614,4.179,0c0-.127-.507-1.805-.507-1.805s-4.357,1.187-7.044-.746c0,0,4.874,1.4,6.857.106l-.913-2.5s-4.564,1.486-7.689-.6c0,0,5.148,1.288,7.45.071l-1.243-2.323s-4.463,1.359-7.065-.391c0,0,6.086.882,6.745-.122a12.6,12.6,0,0,0-1.871-2.45s-3.225.9-4.646-.249c0,0,4.133.157,4.23-.279a13.674,13.674,0,0,0-4.174-2.754,9.94,9.94,0,0,1,4.509,2.363,5.472,5.472,0,0,0-.943-2.977s1.846.609,1.521,3.55a12.631,12.631,0,0,1,1.831,2.242,11.926,11.926,0,0,0,.264-4.717s1.521,1.846.086,5.32l1.3,2.308s1.177-3.7.877-5.406c0,0,1.263,2.12-.6,6.015l.938,2.429a20.309,20.309,0,0,0,1.334-5.072s.745,2.221-1.1,5.787l.436,1.694s.872-2.287,1.065-2.967.391-.685.391-.685a8.308,8.308,0,0,1-1.263,4.362S620.609,258.592,620.828,258.566Z" transform="translate(-347.785 -145.945)"/><path class="a" d="M529.083,285s-15.479-11.578-21.012.964a3.3,3.3,0,0,0-.477,3.844s.578-.817,2.029.538a8.881,8.881,0,0,0,1.694,1.237,4.352,4.352,0,0,0,2.723.507h0s5.761,1.111,12.395-5.132c0,0,2.368-.761,2.592-1.207l-3.494-.614a5.859,5.859,0,0,1-2.166,3.723s2.226-3.581,1.648-3.839c-.117-.056-1.861-.254-1.861-.254s-.649,4.473-3.489,6.162c0,0,3.231-3.91,2.83-6.243l-2.652-.142s-.451,4.762-3.616,6.811c0,0,3.231-4.2,3.043-6.8l-2.627.213s-.532,4.63-3.175,6.314c0,0,3.241-5.234,2.576-6.228a12.749,12.749,0,0,0-2.992.735s-.461,3.317-2.084,4.159c0,0,1.8-3.728,1.435-3.986,0,0-3.007,1.273-4.189,2.723a9.9,9.9,0,0,1,3.966-3.185,5.462,5.462,0,0,0-3.1-.325s1.288-1.45,3.834.025a12.8,12.8,0,0,1,2.789-.786,11.868,11.868,0,0,0-4.22-2.125s2.3-.659,4.914,2.029l2.632-.269s-2.926-2.536-4.6-2.962c0,0,2.45-.309,5.274,2.947l2.6.117a20.245,20.245,0,0,0-4.118-3.256s2.328.2,4.864,3.312l1.729.279s-1.75-1.714-2.3-2.16-.472-.634-.472-.634a8.333,8.333,0,0,1,3.494,2.9S529.017,285.2,529.083,285Z" transform="translate(-298.246 -165.964)"/><path class="a" d="M630.693,72.883s-15.479-11.584-21.012.964a3.3,3.3,0,0,0-.477,3.844s.578-.817,2.029.538a9.023,9.023,0,0,0,1.7,1.232,4.346,4.346,0,0,0,2.723.507h0s5.761,1.111,12.395-5.138c0,0,2.368-.756,2.587-1.207l-3.494-.6a5.834,5.834,0,0,1-2.166,3.723s2.232-3.581,1.653-3.839c-.117-.056-1.861-.254-1.861-.254s-.669,4.483-3.51,6.162c0,0,3.226-3.91,2.83-6.243l-2.652-.142s-.456,4.762-3.616,6.806c0,0,3.231-4.2,3.043-6.8l-2.622.213s-.538,4.635-3.18,6.319c0,0,3.246-5.234,2.581-6.228a12.75,12.75,0,0,0-2.992.735s-.461,3.317-2.084,4.159c0,0,1.8-3.728,1.435-3.991,0,0-3.007,1.278-4.189,2.729a9.859,9.859,0,0,1,3.966-3.185,5.427,5.427,0,0,0-3.109-.325s1.293-1.45,3.839.025A12.526,12.526,0,0,1,617.3,72.1a11.935,11.935,0,0,0-4.22-2.13s2.3-.654,4.909,2.029l2.632-.269s-2.921-2.536-4.605-2.967c0,0,2.45-.3,5.279,2.952l2.6.112a20.037,20.037,0,0,0-4.123-3.251s2.333.2,4.869,3.312l1.724.279s-1.755-1.694-2.3-2.13-.472-.629-.472-.629a8.317,8.317,0,0,1,3.494,2.9A21.9,21.9,0,0,0,630.693,72.883Z" transform="translate(-348.324 -61.425)"/><path class="a" d="M748.768,94.119S742.581,75.805,730.911,83a3.333,3.333,0,0,0-2.571,2.9s.938-.345,1.354,1.582a9.129,9.129,0,0,0,.695,1.983,4.392,4.392,0,0,0,1.948,1.973h0s4.118,4.184,13.125,2.8c0,0,2.379.72,2.815.472l-2.536-2.49a5.834,5.834,0,0,1-3.895,1.836s3.87-1.684,3.55-2.226c-.066-.107-1.39-1.258-1.39-1.258s-3.073,3.312-6.37,3.094c0,0,4.874-1.39,5.868-3.55l-2.1-1.618s-3.073,3.662-6.842,3.55c0,0,5.072-1.628,6.355-3.88l-2.282-1.314s-3.043,3.515-6.2,3.4c0,0,5.64-2.47,5.655-3.667a12.679,12.679,0,0,0-2.881-1.09s-2.262,2.47-4.057,2.247c0,0,3.591-2.054,3.439-2.475a13.607,13.607,0,0,0-5-.127,9.885,9.885,0,0,1,5.072-.38,5.472,5.472,0,0,0-2.379-2.029s1.887-.462,3.149,2.2a12.77,12.77,0,0,1,2.739.933,11.92,11.92,0,0,0-2.267-4.143s2.267.766,2.886,4.473l2.323,1.268s-.959-3.758-2.115-5.072c0,0,2.2,1.136,2.673,5.422l2.079,1.567a20.163,20.163,0,0,0-1.552-5.021s1.805,1.491,2.13,5.493l1.263,1.207s-.467-2.4-.659-3.084-.036-.725-.036-.725a8.363,8.363,0,0,1,1.232,4.372S748.591,94.25,748.768,94.119Z" transform="translate(-407.254 -67.988)"/><path class="a" d="M671.773,108.211s-19.221-2.14-17.634,11.5a3.292,3.292,0,0,0,1.521,3.55s.086-1.014,2.029-.558a9.331,9.331,0,0,0,2.089.208,4.361,4.361,0,0,0,2.612-.928h0s5.533-1.963,8.115-10.711c0,0,1.653-1.851,1.618-2.353l-3.322,1.227a5.656,5.656,0,0,1,0,4.306s.107-4.214-.507-4.149c-.127,0-1.729.73-1.729.73s1.7,4.184.112,7.1c0,0,.8-5.011-.725-6.816l-2.358,1.217s2.029,4.336.33,7.7c0,0,.659-5.264-.827-7.4l-2.155,1.521s1.887,4.265.462,7.06c0,0,.147-6.157-.933-6.679a13.2,13.2,0,0,0-2.206,2.15s1.283,3.094.314,4.641c0,0-.34-4.123-.786-4.164,0,0-1.948,2.622-2.232,4.473a9.874,9.874,0,0,1,1.806-4.757,5.457,5.457,0,0,0-2.84,1.293s.375-1.9,3.317-1.922c0,0,1.6-1.983,2.029-2.089a11.924,11.924,0,0,0-4.717.3s1.648-1.734,5.269-.725l2.135-1.567s-3.86-.781-5.493-.274c0,0,1.958-1.521,6.045-.127l2.3-1.222a20.194,20.194,0,0,0-5.2-.715s2.115-1.014,5.873.391l1.633-.634s-2.379-.593-3.078-.7-.725-.3-.725-.3a8.343,8.343,0,0,1,4.483.73S671.809,108.424,671.773,108.211Z" transform="translate(-370.639 -81.178)"/><path class="a" d="M1003.383,402.381s-19.211-2.14-17.624,11.482a3.292,3.292,0,0,0,1.521,3.55s.086-1.014,2.029-.563a8.773,8.773,0,0,0,2.089.208,4.326,4.326,0,0,0,2.612-.928h0s5.533-1.963,8.089-10.706c0,0,1.653-1.856,1.618-2.353l-3.322,1.222a5.67,5.67,0,0,1,0,4.311s.107-4.22-.507-4.149c-.127,0-1.729.725-1.729.725s1.7,4.184.112,7.1c0,0,.8-5.006-.725-6.816l-2.358,1.222s2.029,4.336.335,7.7c0,0,.654-5.264-.832-7.4l-2.155,1.521s1.887,4.265.461,7.055c0,0,.147-6.157-.933-6.674a13.393,13.393,0,0,0-2.206,2.15s1.288,3.094.314,4.641c0,0-.34-4.123-.786-4.164,0,0-1.948,2.622-2.232,4.473a9.874,9.874,0,0,1,1.805-4.757,5.411,5.411,0,0,0-2.84,1.293s.375-1.907,3.317-1.927c0,0,1.6-1.983,2.029-2.084a11.883,11.883,0,0,0-4.717.3s1.648-1.729,5.275-.72l2.13-1.567s-3.814-.72-5.472-.223c0,0,1.958-1.521,6.045-.132l2.3-1.217a20.2,20.2,0,0,0-5.2-.715s2.115-1.014,5.873.391l1.633-.639s-2.379-.593-3.078-.7-.725-.3-.725-.3a8.312,8.312,0,0,1,4.483.725S1003.434,402.6,1003.383,402.381Z" transform="translate(-534.075 -226.157)"/><path class="a" d="M1061.293,437.762s-19.211-2.135-17.624,11.482a3.3,3.3,0,0,0,1.521,3.55s.086-1.014,2.029-.558a8.954,8.954,0,0,0,2.084.2,4.382,4.382,0,0,0,2.6-.923h0s5.528-1.963,8.084-10.711c0,0,1.658-1.851,1.618-2.353l-3.322,1.222a5.67,5.67,0,0,1,0,4.311s.106-4.215-.507-4.149c-.127,0-1.729.725-1.729.725s1.7,4.184.112,7.1c0,0,.8-5.006-.725-6.811l-2.358,1.217s2.029,4.336.335,7.7c0,0,.654-5.264-.832-7.4l-2.156,1.521s1.887,4.265.467,7.06c0,0,.142-6.162-.938-6.679a13.392,13.392,0,0,0-2.206,2.15s1.288,3.094.314,4.641c0,0-.34-4.123-.786-4.164,0,0-1.947,2.622-2.226,4.473a9.9,9.9,0,0,1,1.8-4.757,5.458,5.458,0,0,0-2.84,1.293s.38-1.907,3.322-1.922c0,0,1.6-1.983,2.029-2.09a11.923,11.923,0,0,0-4.717.3s1.648-1.734,5.274-.725l2.13-1.567s-3.814-.72-5.472-.223c0,0,1.958-1.521,6.045-.127l2.3-1.222a20.2,20.2,0,0,0-5.2-.715s2.115-1.014,5.873.391l1.633-.634s-2.379-.593-3.073-.7-.73-.3-.73-.3a8.342,8.342,0,0,1,4.483.73S1061.344,437.98,1061.293,437.762Z" transform="translate(-562.615 -243.594)"/><path class="a" d="M928.633,135.136s-15.479-11.578-21.012.964a3.3,3.3,0,0,0-.477,3.844s.578-.817,2.029.538a8.881,8.881,0,0,0,1.694,1.237,4.357,4.357,0,0,0,2.724.507h0s5.761,1.111,12.4-5.132c0,0,2.363-.761,2.586-1.207l-3.484-.629a5.859,5.859,0,0,1-2.166,3.723s2.226-3.581,1.648-3.839c-.117-.056-1.856-.254-1.856-.254s-.654,4.473-3.494,6.162c0,0,3.231-3.91,2.83-6.243l-2.652-.142s-.451,4.762-3.616,6.811c0,0,3.236-4.2,3.043-6.8l-2.627.213s-.507,4.63-3.175,6.314c0,0,3.246-5.234,2.576-6.228a12.748,12.748,0,0,0-2.992.735s-.456,3.317-2.079,4.159c0,0,1.8-3.728,1.43-3.986,0,0-3.007,1.273-4.189,2.723a9.9,9.9,0,0,1,3.966-3.185,5.462,5.462,0,0,0-3.1-.325s1.293-1.45,3.839.025a12.751,12.751,0,0,1,2.784-.786,11.868,11.868,0,0,0-4.22-2.125s2.3-.659,4.914,2.029l2.632-.269s-2.921-2.536-4.6-2.962c0,0,2.45-.309,5.274,2.947l2.6.117a20.332,20.332,0,0,0-4.123-3.256s2.333.2,4.864,3.312l1.729.279s-1.75-1.714-2.3-2.161-.467-.593-.467-.593a8.338,8.338,0,0,1,3.489,2.9S928.567,135.344,928.633,135.136Z" transform="translate(-495.16 -92.107)"/><path class="a" d="M954.048,291.714s-5.335-18.577-17.335-11.908a3.3,3.3,0,0,0-2.7,2.774s.953-.3,1.283,1.643a8.988,8.988,0,0,0,.609,2.029,4.357,4.357,0,0,0,1.856,2.069h0s3.925,4.362,12.983,3.388c0,0,2.343.822,2.789.6l-2.4-2.607a5.832,5.832,0,0,1-3.971,1.663s3.936-1.521,3.631-2.064c-.061-.112-1.329-1.324-1.329-1.324s-3.215,3.175-6.5,2.8c0,0,4.935-1.166,6.02-3.266l-2.029-1.714s-3.236,3.52-6.994,3.246c0,0,5.112-1.4,6.522-3.591l-2.221-1.415s-3.22,3.373-6.345,3.119c0,0,5.746-2.216,5.817-3.408a12.661,12.661,0,0,0-2.835-1.217s-2.368,2.363-4.169,2.059c0,0,3.682-1.892,3.55-2.318a13.7,13.7,0,0,0-4.985-.355,9.894,9.894,0,0,1,5.072-.147,5.442,5.442,0,0,0-2.282-2.13s1.907-.38,3.043,2.333a12.656,12.656,0,0,1,2.693,1.055,11.861,11.861,0,0,0-2.079-4.24s2.231.862,2.683,4.595l2.262,1.374s-.791-3.8-1.887-5.143c0,0,2.14,1.232,2.429,5.533l2.029,1.658a20.117,20.117,0,0,0-1.324-5.072s1.74,1.572,1.882,5.579l1.207,1.268s-.355-2.424-.507-3.114,0-.786,0-.786a8.311,8.311,0,0,1,1.04,4.422S953.865,291.835,954.048,291.714Z" transform="translate(-508.617 -165.095)"/><path class="a" d="M717.874,377.835s-10.361-16.32-19.982-6.553a3.28,3.28,0,0,0-1.816,3.423s.837-.558,1.7,1.217a8.684,8.684,0,0,0,1.146,1.755,4.332,4.332,0,0,0,2.358,1.461h0s5,3.084,13.414-.406c0,0,2.48.132,2.845-.208L714.5,376.7a5.83,5.83,0,0,1-3.347,2.713s3.357-2.536,2.906-3c-.086-.091-1.648-.893-1.648-.893s-2.2,3.946-5.452,4.519c0,0,4.407-2.51,4.864-4.833l-2.429-1.07s-2.115,4.286-5.8,5.072c0,0,4.514-2.784,5.249-5.28l-2.536-.73s-2.14,4.143-5.209,4.777c0,0,4.889-3.743,4.62-4.909a12.6,12.6,0,0,0-3.043-.37s-1.608,2.936-3.423,3.149c0,0,3-2.85,2.754-3.226a13.666,13.666,0,0,0-4.884,1.065,9.87,9.87,0,0,1,4.838-1.572,5.442,5.442,0,0,0-2.784-1.4s1.719-.9,3.55,1.385a12.527,12.527,0,0,1,2.886.254,11.674,11.674,0,0,0-3.19-3.484s2.384.2,3.865,3.657l2.561.68s-1.831-3.423-3.256-4.4c0,0,2.4.578,3.885,4.63l2.394,1.014a20.214,20.214,0,0,0-2.7-4.5s2.11,1.014,3.373,4.823l1.521.877s-1.014-2.226-1.374-2.84-.218-.756-.218-.756a8.317,8.317,0,0,1,2.237,3.951S717.737,378.007,717.874,377.835Z" transform="translate(-391.331 -209.355)"/><path class="j" d="M852.257,213.016s-9.854-16.63-19.779-7.166a3.3,3.3,0,0,0-1.917,3.368s.847-.538,1.658,1.263a8.766,8.766,0,0,0,1.09,1.8,4.306,4.306,0,0,0,2.313,1.521h0s4.894,3.236,13.419,0c0,0,2.475.208,2.85-.122l-2.977-1.917a5.831,5.831,0,0,1-3.428,2.607s3.433-2.45,3-2.911c-.091-.1-1.623-.948-1.623-.948s-2.318,3.88-5.579,4.351c0,0,4.483-2.374,5.006-4.676l-2.394-1.126s-2.247,4.225-5.954,4.9c0,0,4.6-2.642,5.411-5.112l-2.505-.811s-2.272,4.057-5.356,4.615c0,0,5-3.591,4.767-4.762a12.525,12.525,0,0,0-3.043-.467s-1.7,2.886-3.52,3.043c0,0,3.089-2.749,2.855-3.134,0,0-3.266.025-4.914.913a9.9,9.9,0,0,1,4.884-1.42,5.452,5.452,0,0,0-2.744-1.491s1.75-.847,3.55,1.491a12.847,12.847,0,0,1,2.876.345,12.131,12.131,0,0,0-3.078-3.581s2.373.274,3.748,3.773l2.536.761s-1.719-3.479-3.119-4.5c0,0,2.384.654,3.743,4.747l2.358,1.1a20.378,20.378,0,0,0-2.536-4.564s2.074,1.08,3.225,4.925l1.486.923s-.953-2.257-1.288-2.881-.193-.761-.193-.761a8.334,8.334,0,0,1,2.115,4.017S852.11,213.184,852.257,213.016Z" transform="translate(-457.617 -127.923)"/><path class="j" d="M734.566,275.374s.507-19.323-12.917-16.6a3.3,3.3,0,0,0-3.418,1.831s1.014,0,.73,1.953a8.9,8.9,0,0,0-.03,2.1,4.336,4.336,0,0,0,1.141,2.536h0s2.419,5.345,11.35,7.161c0,0,1.983,1.5,2.48,1.415l-1.521-3.205a5.854,5.854,0,0,1-4.291.38s4.209-.249,4.093-.867c0-.127-.872-1.669-.872-1.669s-4.027,2.054-7.044.7c0,0,5.072.38,6.73-1.288l-1.415-2.247s-4.149,2.374-7.648.974c0,0,5.3.213,7.308-1.445l-1.689-2.029s-4.093,2.242-6.994,1.055c0,0,6.147-.37,6.593-1.491a13.153,13.153,0,0,0-2.333-2.029s-2.972,1.521-4.595.7c0,0,4.057-.68,4.083-1.131,0,0-2.774-1.719-4.646-1.846a9.874,9.874,0,0,1,4.894,1.4,5.452,5.452,0,0,0-1.521-2.723s1.932.218,2.2,3.144a12.609,12.609,0,0,1,2.252,1.826,11.86,11.86,0,0,0-.7-4.671s1.866,1.5,1.166,5.188l1.74,2s.4-3.865-.238-5.472c0,0,1.664,1.821.639,6.01l1.4,2.186a20.221,20.221,0,0,0,.279-5.244s1.177,2.029.1,5.888l.771,1.572s.391-2.419.441-3.124.243-.751.243-.751a8.327,8.327,0,0,1-.35,4.529S734.343,275.44,734.566,275.374Z" transform="translate(-402.271 -155.312)"/><ellipse class="a" cx="13.658" cy="2.308" rx="13.658" ry="2.308" transform="translate(340.83 360.973)"/><ellipse class="a" cx="13.658" cy="2.308" rx="13.658" ry="2.308" transform="translate(291.042 396.007)"/><ellipse class="a" cx="13.658" cy="2.308" rx="13.658" ry="2.308" transform="translate(33.577 378.059)"/><ellipse class="a" cx="13.658" cy="2.308" rx="13.658" ry="2.308" transform="translate(394.634 393.7)"/><ellipse class="j" cx="20.393" cy="3.449" rx="20.393" ry="3.449" transform="translate(402.12 363.28)"/><path class="j" d="M926.669,757.873a5.889,5.889,0,0,0,1.942-2.931,2.6,2.6,0,0,0-1.354-2.987c-1.248-.477-2.581.385-3.6,1.258s-2.166,1.871-3.489,1.689a5.325,5.325,0,0,0,1.643-4.975,2.084,2.084,0,0,0-.456-1.014c-.695-.74-1.947-.421-2.779.162-2.637,1.856-3.373,5.437-3.388,8.662a16.289,16.289,0,0,1-.046-3.55,3.642,3.642,0,0,0-1.344-3.155,4.012,4.012,0,0,0-2.029-.507,4.237,4.237,0,0,0-3.317.943c-1.014,1.075-.746,2.886.127,4.057a13.118,13.118,0,0,0,3.433,2.749,7.672,7.672,0,0,1,2.455,2.338,2.381,2.381,0,0,1,.177.416h7.435a20.512,20.512,0,0,0,4.585-3.155Z" transform="translate(-495.702 -396.788)"/><path class="m" d="M170.29,779.78s7.785-.238,10.143-1.912,11.984-3.667,12.567-.984,11.705,13.333,2.911,13.4-20.433-1.369-22.777-2.8S170.29,779.78,170.29,779.78Z" transform="translate(-132.225 -410.14)"/><path class="n" d="M196.059,793.435c-8.794.071-20.433-1.369-22.777-2.8-1.785-1.085-2.5-4.985-2.734-6.786h-.259s.507,6.284,2.835,7.709,13.982,2.87,22.777,2.8c2.536,0,3.413-.923,3.368-2.262C198.914,792.913,197.945,793.42,196.059,793.435Z" transform="translate(-132.225 -414.22)"/></g></svg>