<svg width="24" height="22" viewBox="0 0 24 22" fill="none" xmlns="http://www.w3.org/2000/svg">
<path d="M16 20.4594V18.2973C16 17.1504 15.5786 16.0505 14.8284 15.2395C14.0783 14.4286 13.0609 13.973 12 13.973H5C3.93913 13.973 2.92172 14.4286 2.17157 15.2395C1.42143 16.0505 1 17.1504 1 18.2973V20.4594" stroke="#474747" stroke-width="1.5" stroke-linecap="round" stroke-linejoin="round"/>
<path d="M8.5 9.64865C10.7091 9.64865 12.5 7.71258 12.5 5.32432C12.5 2.93607 10.7091 1 8.5 1C6.29086 1 4.5 2.93607 4.5 5.32432C4.5 7.71258 6.29086 9.64865 8.5 9.64865Z" stroke="#474747" stroke-width="1.5" stroke-linecap="round" stroke-linejoin="round"/>
<path d="M20 6.4054V12.8919" stroke="#474747" stroke-width="1.5" stroke-linecap="round" stroke-linejoin="round"/>
<path d="M23 9.64868H17" stroke="#474747" stroke-width="1.5" stroke-linecap="round" stroke-linejoin="round"/>
</svg>
