<svg width="20" height="20" viewBox="0 0 20 20" fill="none" xmlns="http://www.w3.org/2000/svg">
<path d="M14.6168 1.75204C14.8552 1.51361 15.1383 1.32448 15.4498 1.19545C15.7613 1.06641 16.0952 1 16.4324 1C16.7696 1 17.1035 1.06641 17.415 1.19545C17.7265 1.32448 18.0095 1.51361 18.248 1.75204C18.4864 1.99046 18.6755 2.27351 18.8046 2.58503C18.9336 2.89655 19 3.23043 19 3.56761C19 3.90479 18.9336 4.23868 18.8046 4.55019C18.6755 4.86171 18.4864 5.14476 18.248 5.38319L5.99283 17.6383L1 19L2.36168 14.0072L14.6168 1.75204Z" stroke="#474747" stroke-width="1.5" stroke-linecap="round" stroke-linejoin="round"/>
</svg>
