<svg width="20" height="20" viewBox="0 0 20 20" fill="none" xmlns="http://www.w3.org/2000/svg">
<path d="M18.9999 18.9999L14.6499 14.6499" stroke="#7E7E7E" stroke-width="1.5" stroke-linecap="round" stroke-linejoin="round"/>
<path d="M9 17C10.5823 17 12.129 16.5308 13.4445 15.6518C14.7601 14.7727 15.7855 13.5233 16.391 12.0615C16.9965 10.5997 17.155 8.99112 16.8463 7.43927C16.5376 5.88743 15.7757 4.46196 14.6569 3.34314C13.538 2.22432 12.1126 1.4624 10.5607 1.15372C9.00888 0.84504 7.40035 1.00347 5.93854 1.60897C4.47673 2.21447 3.22729 3.23985 2.34824 4.55544C1.46918 5.87103 1 7.41775 1 9C1 11.1217 1.84285 13.1566 3.34314 14.6569C4.84343 16.1572 6.87827 17 9 17Z" stroke="#7E7E7E" stroke-width="1.5" stroke-linecap="round" stroke-linejoin="round"/>
</svg>
