<svg xmlns="http://www.w3.org/2000/svg" width="64" height="59" viewBox="0 0 64 59"><defs><style>.a{fill:#231f20;}.b{fill:#14c4ac;}</style></defs><g transform="translate(0 0)"><path class="a" d="M48.946,138.863a.221.221,0,0,1-.1.024.241.241,0,0,1-.088-.466,4.144,4.144,0,0,0,1.2-.843,3.362,3.362,0,0,0,.92-1.253.8.8,0,0,0-.032-.627,1.357,1.357,0,0,0-1.277-.618,2.57,2.57,0,0,0-.434.036,2.028,2.028,0,0,0-.864.4,1.08,1.08,0,0,0-.47.743.251.251,0,0,1-.5-.06,1.607,1.607,0,0,1,.835-1.177,2.591,2.591,0,0,1,1.438-.4,1.8,1.8,0,0,1,1.687.876,1.028,1.028,0,0,1,.157.546,2.658,2.658,0,0,1-.892,1.707A4.783,4.783,0,0,1,48.946,138.863Z" transform="translate(-28.183 -80.851)"/><path class="a" d="M58.963,138.864a.743.743,0,0,1-.659-.305,1.4,1.4,0,0,1-.229-.426.919.919,0,0,0-.092-.217.915.915,0,0,0-.309.217l-1.129,1.092a.257.257,0,0,1-.169.06.213.213,0,0,1-.173-.072.2.2,0,0,1,0-.341l.851-.855a1.838,1.838,0,0,1,.968-.594.51.51,0,0,1,.478.4,1.771,1.771,0,0,0,.253.534.675.675,0,0,0,.4.024,2.386,2.386,0,0,0,1.2-.763,1.851,1.851,0,0,0,.574-1.245.8.8,0,0,0-.4-.695,1.9,1.9,0,0,0-1.141-.321,2.486,2.486,0,0,0-1.39.4.249.249,0,1,1-.265-.422,3.073,3.073,0,0,1,1.667-.47,2.438,2.438,0,0,1,1.426.4,1.269,1.269,0,0,1,.59,1.092,2.446,2.446,0,0,1-.8,1.683A2.317,2.317,0,0,1,58.963,138.864Z" transform="translate(-33.424 -81.001)"/><path class="a" d="M72.348,138.66a.181.181,0,0,1-.112.036.253.253,0,0,1-.116-.47,2.659,2.659,0,0,0,.859-.743,2.008,2.008,0,0,0,.438-.94,1.225,1.225,0,0,0-.4-1.117,1.836,1.836,0,0,0-.663-.374,2.909,2.909,0,0,0-.888-.161,1.076,1.076,0,0,0-.434.076,17.39,17.39,0,0,1-1.586,3.639.217.217,0,0,1-.341.036.213.213,0,0,1-.036-.341,12.283,12.283,0,0,0,.835-1.667,7.174,7.174,0,0,0,.659-1.8.233.233,0,0,1,.1-.2,1.261,1.261,0,0,1,.8-.229,3.023,3.023,0,0,1,1.1.229,2.332,2.332,0,0,1,.8.442,1.719,1.719,0,0,1,.57,1.285,2.342,2.342,0,0,1-.53,1.346A2.989,2.989,0,0,1,72.348,138.66Z" transform="translate(-41.097 -80.724)"/><path class="a" d="M85.047,135.965a3.485,3.485,0,0,1-1.092,2.289.253.253,0,0,1-.193.088.221.221,0,0,1-.217-.137.225.225,0,0,1,.024-.265,3.122,3.122,0,0,0,.992-1.884,1.2,1.2,0,0,0-.438-.972,1.627,1.627,0,0,0-1.129-.305,3.979,3.979,0,0,0-.522.036q-.1.4-.305,1.2a6.125,6.125,0,0,1-.9,1.972,3.968,3.968,0,0,1-2.076,1.358h-.092a.233.233,0,0,1-.229-.157q-.1-.253.141-.317a3.39,3.39,0,0,0,1.639-.9,4.181,4.181,0,0,0,.8-1.414q.06-.173.482-1.687a6.2,6.2,0,0,0-.763.229.225.225,0,0,1-.317-.145q-.1-.237.125-.317a8.427,8.427,0,0,1,1.068-.265l.08-.378a.245.245,0,1,1,.482.088l-.056.229a3.411,3.411,0,0,1,.4-.024,2.177,2.177,0,0,1,1.5.4A1.691,1.691,0,0,1,85.047,135.965Z" transform="translate(-46.951 -80.363)"/><path class="a" d="M98.561,135.983a3.485,3.485,0,0,1-1.092,2.289.253.253,0,0,1-.193.088.221.221,0,0,1-.217-.137.225.225,0,0,1,.024-.265,3.122,3.122,0,0,0,.992-1.884,1.2,1.2,0,0,0-.4-.96,1.627,1.627,0,0,0-1.129-.305,3.968,3.968,0,0,0-.522.036q-.1.4-.305,1.2a6.124,6.124,0,0,1-.9,1.972,3.968,3.968,0,0,1-2.076,1.358h-.092a.233.233,0,0,1-.229-.157q-.1-.253.141-.317a3.39,3.39,0,0,0,1.639-.9,4.18,4.18,0,0,0,.8-1.414q.06-.173.482-1.687a6.217,6.217,0,0,0-.763.229.225.225,0,0,1-.317-.145q-.1-.237.124-.317a8.431,8.431,0,0,1,1.068-.265l.08-.378a.245.245,0,0,1,.482.088l-.056.229a3.436,3.436,0,0,1,.4-.024,2.177,2.177,0,0,1,1.5.4,1.691,1.691,0,0,1,.558,1.257Z" transform="translate(-55.019 -80.381)"/><path class="a" d="M7.432,112.619a1.434,1.434,0,0,1-.582-.1.928.928,0,0,1-.365-.281,1.205,1.205,0,0,1-.2-.4,1.7,1.7,0,0,1-.064-.474l-.044-4.575a.8.8,0,0,0-.209-.655.8.8,0,0,0-.518-.165H3.231l-.12,5.482a1.241,1.241,0,0,1-.325.827,1.177,1.177,0,0,1-.92.341,1.2,1.2,0,0,1-.916-.333,1.121,1.121,0,0,1-.3-.835l.2-5.506a.843.843,0,0,1-.4-.092.691.691,0,0,1-.257-.245,1.044,1.044,0,0,1-.133-.357,2.257,2.257,0,0,1-.036-.4,2.045,2.045,0,0,1,.044-.4,1.056,1.056,0,0,1,.165-.4,1.032,1.032,0,0,1,.3-.289.887.887,0,0,1,.482-.116H6.175a2.9,2.9,0,0,1,.5.064,4.057,4.057,0,0,1,.558.165,1.683,1.683,0,0,1,.522.309,2.008,2.008,0,0,1,.466.51,2.177,2.177,0,0,1,.253.594,4.273,4.273,0,0,1,.116.659q.032.341.032.719l.044,4.683a1.305,1.305,0,0,1-.3.908,1.121,1.121,0,0,1-.932.37Z" transform="translate(-0.03 -62.315)"/><path class="a" d="M25.837,109.838h.2a.8.8,0,0,1,.695.365,1.414,1.414,0,0,1,.245.8,1.2,1.2,0,0,1-.285.8.916.916,0,0,1-.739.341h-1.6a.8.8,0,0,1-.7-.4,1.7,1.7,0,0,1-.257-.964,5.767,5.767,0,0,1,.169-1.366,6.069,6.069,0,0,1,.5-1.337q.189-.357.4-.727l.4-.727q.12-.221.06-.3a.888.888,0,0,0-.169-.165l-.932-.839a3.144,3.144,0,0,1-.4-.434.988.988,0,0,1-.169-.6,1.366,1.366,0,0,1,1.426-1.37,1.277,1.277,0,0,1,.61.133,1.864,1.864,0,0,1,.434.321l2.494,2.37,1.582-2.093a1.571,1.571,0,0,1,.434-.4,1.345,1.345,0,0,1,.715-.165,1.024,1.024,0,0,1,.683.225,1.088,1.088,0,0,1,.357.542,1.522,1.522,0,0,1,.036.659,1.116,1.116,0,0,1-.257.574L29.8,107.376q.8.932,1.337,1.647t.9,1.237a1.14,1.14,0,0,1,.149.3,1.2,1.2,0,0,1,.072.4,1.161,1.161,0,0,1-.116.538,1.238,1.238,0,0,1-.667.59,1.036,1.036,0,0,1-.337.068,1.659,1.659,0,0,1-.55-.084,1.225,1.225,0,0,1-.5-.4l-2.41-2.932-1-.972a4.545,4.545,0,0,0-.285.446q-.157.273-.3.566t-.245.542a1.735,1.735,0,0,0-.112.37Q25.728,109.838,25.837,109.838Z" transform="translate(-13.928 -61.883)"/><path class="b" d="M50.971,112.348H48.706a3.282,3.282,0,0,1-.518-.036.984.984,0,0,1-.4-.157.875.875,0,0,1-.281-.333,1.775,1.775,0,0,1-.157-.57l-.8-6.659a1.2,1.2,0,0,1,.229-.876,1.125,1.125,0,0,1,.9-.458,1.305,1.305,0,0,1,.88.225,1.2,1.2,0,0,1,.426.843l.651,5.679h1.41a3.109,3.109,0,0,0,.908-.124,1.647,1.647,0,0,0,.695-.4,1.759,1.759,0,0,0,.43-.759,3.948,3.948,0,0,0,.124-1.2l-.044-1.53a.37.37,0,0,0-.048-.2.1.1,0,0,0-.064-.032h-.868l.032.695a1.081,1.081,0,0,1-1.129,1.273,1,1,0,0,1-.8-.325,1.137,1.137,0,0,1-.289-.779l-.044-1.422a2.727,2.727,0,0,1,.092-.719,1.5,1.5,0,0,1,.3-.582,1.453,1.453,0,0,1,.53-.4,1.892,1.892,0,0,1,.763-.141H53.71a2.506,2.506,0,0,1,.687.088,1.4,1.4,0,0,1,.534.281,1.3,1.3,0,0,1,.361.534,2.386,2.386,0,0,1,.133.855l.044,2.446a5.832,5.832,0,0,1-.349,2.225,3.755,3.755,0,0,1-2.442,2.293,5.675,5.675,0,0,1-1.707.269Z" transform="translate(-27.712 -62.084)"/><path class="b" d="M76.158,112.579a1.445,1.445,0,0,1-.574-.1,1.024,1.024,0,0,1-.374-.265.992.992,0,0,1-.2-.366,1.318,1.318,0,0,1-.06-.4v-4.33a2.092,2.092,0,0,0-.084-.659.8.8,0,0,0-.233-.365.7.7,0,0,0-.345-.153,2.662,2.662,0,0,0-.4-.032H71.213a1.153,1.153,0,0,1-.8-.3,1.109,1.109,0,0,1-.333-.864,1.333,1.333,0,0,1,.273-.8,1,1,0,0,1,.864-.365h3.394a6.161,6.161,0,0,1,.92.08,1.952,1.952,0,0,1,.972.466,2.177,2.177,0,0,1,.482.562,2.446,2.446,0,0,1,.253.623,3.5,3.5,0,0,1,.1.683q0,.357.032.727v4.659a1.44,1.44,0,0,1-.064.43.976.976,0,0,1-.213.37,1.2,1.2,0,0,1-.378.273A1.289,1.289,0,0,1,76.158,112.579Z" transform="translate(-41.73 -62.275)"/><path class="b" d="M92.157,109.862h.2a.8.8,0,0,1,.695.366,1.414,1.414,0,0,1,.245.8,1.2,1.2,0,0,1-.285.8.916.916,0,0,1-.739.341H90.671a.8.8,0,0,1-.7-.4,1.7,1.7,0,0,1-.257-.964,5.768,5.768,0,0,1,.169-1.366,6.068,6.068,0,0,1,.5-1.337q.189-.357.4-.727l.4-.727q.12-.221.06-.3a.885.885,0,0,0-.153-.161l-.94-.827a3.141,3.141,0,0,1-.4-.434.988.988,0,0,1-.169-.6A1.365,1.365,0,0,1,91,102.958a1.277,1.277,0,0,1,.61.133,1.865,1.865,0,0,1,.434.321l2.494,2.37,1.582-2.093a1.57,1.57,0,0,1,.434-.4,1.346,1.346,0,0,1,.715-.165,1.024,1.024,0,0,1,.683.225,1.088,1.088,0,0,1,.357.542,1.523,1.523,0,0,1,.036.659,1.116,1.116,0,0,1-.257.574l-1.968,2.293q.8.932,1.337,1.647t.9,1.237a1.14,1.14,0,0,1,.149.3,1.205,1.205,0,0,1,.072.4,1.161,1.161,0,0,1-.116.538,1.238,1.238,0,0,1-.667.59,1.037,1.037,0,0,1-.337.068,1.659,1.659,0,0,1-.55-.084,1.226,1.226,0,0,1-.5-.4L94,108.782l-1.012-.988a4.54,4.54,0,0,0-.285.446q-.157.273-.3.566t-.241.526a1.735,1.735,0,0,0-.112.37Q92.036,109.862,92.157,109.862Z" transform="translate(-53.333 -61.907)"/><path class="b" d="M117.491,112.348h-2.265a3.282,3.282,0,0,1-.518-.036.984.984,0,0,1-.4-.157.875.875,0,0,1-.281-.333,1.776,1.776,0,0,1-.157-.57l-.8-6.659a1.2,1.2,0,0,1,.229-.876,1.125,1.125,0,0,1,.9-.458,1.305,1.305,0,0,1,.88.225,1.2,1.2,0,0,1,.426.843l.651,5.679h1.41a3.109,3.109,0,0,0,.908-.124,1.647,1.647,0,0,0,.695-.4,1.759,1.759,0,0,0,.43-.759,3.948,3.948,0,0,0,.124-1.2l-.044-1.538a.37.37,0,0,0-.048-.2.1.1,0,0,0-.064-.032h-.847l.032.695a1.081,1.081,0,0,1-1.129,1.273,1,1,0,0,1-.8-.325,1.137,1.137,0,0,1-.289-.779l-.044-1.422a2.726,2.726,0,0,1,.092-.719,1.5,1.5,0,0,1,.3-.582,1.454,1.454,0,0,1,.53-.4,1.892,1.892,0,0,1,.763-.141h2.093a2.507,2.507,0,0,1,.687.088,1.4,1.4,0,0,1,.534.281,1.3,1.3,0,0,1,.361.534,2.386,2.386,0,0,1,.133.855l.044,2.446a5.831,5.831,0,0,1-.349,2.225,3.755,3.755,0,0,1-2.442,2.293A5.674,5.674,0,0,1,117.491,112.348Z" transform="translate(-67.236 -62.084)"/><path class="b" d="M137.569,105.929h-.084q-1.084,0-1.084-1.137a2.549,2.549,0,0,1,.032-.349,1,1,0,0,1,.157-.4,1.076,1.076,0,0,1,.357-.333,1.233,1.233,0,0,1,.639-.141h5.2a4.181,4.181,0,0,1,.9.1,1.816,1.816,0,0,1,.755.357,1.844,1.844,0,0,1,.526.727,3.467,3.467,0,0,1,.233,1.2v1.024a6.638,6.638,0,0,1-.349,2.41,5.024,5.024,0,0,1-1.028,1.739,4.254,4.254,0,0,1-1.494,1.044,4.539,4.539,0,0,1-1.747.349h-1.643a1.125,1.125,0,0,1-.8-.237,1.682,1.682,0,0,1-.361-.8L137,108.315a1.484,1.484,0,0,1-.052-.233q-.024-.141-.056-.289a2.38,2.38,0,0,1-.048-.3v-.237a1.546,1.546,0,0,1,.169-.727A2.007,2.007,0,0,1,137.569,105.929Zm5.181.615a.6.6,0,0,0-.257-.486.8.8,0,0,0-.426-.145h-2.189a1.828,1.828,0,0,0-.546.7,1.6,1.6,0,0,0-.076.4,1.128,1.128,0,0,0,.032.253,2.248,2.248,0,0,0,.06.305l.606,2.607h.462a2.7,2.7,0,0,0,.8-.141,2.157,2.157,0,0,0,.8-.49,2.361,2.361,0,0,0,.59-.94,3.616,3.616,0,0,0,.157-1.478Z" transform="translate(-81.205 -62.272)"/><path class="b" d="M41.465,38.047a61.974,61.974,0,0,0,1.643-6.792,1.153,1.153,0,0,1,1.02-.948l1.165-.12a1.157,1.157,0,0,1,1.2,1.506,51.662,51.662,0,0,1-2.916,7.229,1.161,1.161,0,0,1-.916.615h0a1.157,1.157,0,0,1-1.2-1.49Zm1.121-16.423a2.3,2.3,0,0,1,2.338-2.454,2.246,2.246,0,0,1,2.261,2.454,2.3,2.3,0,1,1-4.6,0Z" transform="translate(-24.671 -11.45)"/><path class="a" d="M59.479,3.865a9.137,9.137,0,0,0-4.051.482A1.742,1.742,0,0,0,54.35,5.434,1.726,1.726,0,0,0,56.579,7.6a5.626,5.626,0,0,1,2.637-.3,5.8,5.8,0,0,1,4.836,5.623c-.024,2.663-.3,7.985-12.82,16.985q-1.584-1.113-2.921-2.161c3.5-4.82,4.99-10.965,4.634-15.057A8.92,8.92,0,0,0,50.2,6.34a9.038,9.038,0,0,0-15.3,6.823c.081,4.053,1.41,8.675,8.462,14.965v.024q-.284.265-.6.514l.032-.028c-2.783,2.2-7.631,3.309-14.841,3.309h-.34a6.918,6.918,0,0,1-1.154-.125,1.909,1.909,0,0,1-1.013-.522,2.4,2.4,0,0,1-.543-1.1,7.911,7.911,0,0,1-.174-1.831V25.208q0-6.069-3.24-7.551v-.024q3.241-1.478,3.24-7.551V6.921A7.656,7.656,0,0,1,24.9,5.106a2.366,2.366,0,0,1,.543-1.08A1.905,1.905,0,0,1,26.459,3.5l.1-.02a1.778,1.778,0,1,0-.543-3.514q-.482.068-.924.161a4.879,4.879,0,0,0-2.179,1.02A4.955,4.955,0,0,0,21.5,3.214a9.309,9.309,0,0,0-.506,3.318v3.615a8.958,8.958,0,0,1-.81,4.3,2.6,2.6,0,0,1-1.345,1.072,2.253,2.253,0,0,0-1.426,2.121A2.29,2.29,0,0,0,18.9,19.79l.186.076a2.423,2.423,0,0,1,1.11.988,5.191,5.191,0,0,1,.6,1.755,15.641,15.641,0,0,1,.194,2.7v3.615a9.317,9.317,0,0,0,.45,3.1,4.632,4.632,0,0,0,1.325,2.008,5.084,5.084,0,0,0,2.175,1.088,11.843,11.843,0,0,0,2.633.273h.34c8.911,0,14.732-1.727,18.082-5.012,1.244.984,2.621,2.008,4.152,3.077l.992.691h0l.992-.691c6.351-4.378,10.56-8.374,12.938-12.206a15,15,0,0,0,2.43-8.117A9.106,9.106,0,0,0,59.479,3.865ZM45.651,25.485h-.024c-7.04-6.346-7.243-10.334-7.251-12.531a5.642,5.642,0,0,1,5.237-5.683,5.577,5.577,0,0,1,4.117,1.5,5.48,5.48,0,0,1,1.736,3.993v.161C49.782,16.207,48.527,21.388,45.651,25.485Z" transform="translate(-10.429 0.052)"/></g></svg>