<?xml version="1.0" encoding="utf-8"?>
<!-- Generator: Adobe Illustrator 16.0.0, SVG Export Plug-In . SVG Version: 6.00 Build 0)  -->
<!DOCTYPE svg PUBLIC "-//W3C//DTD SVG 1.1//EN" "http://www.w3.org/Graphics/SVG/1.1/DTD/svg11.dtd">
<svg version="1.1" id="Layer_1" xmlns="http://www.w3.org/2000/svg" xmlns:xlink="http://www.w3.org/1999/xlink" x="0px" y="0px"
	 width="182px" height="67.333px" viewBox="0 0 182 67.333" enable-background="new 0 0 182 67.333" xml:space="preserve">
<circle fill-rule="evenodd" clip-rule="evenodd" fill="#D40E8C" cx="86.759" cy="33.322" r="30.643"/>
<g>
	<path fill-rule="evenodd" clip-rule="evenodd" fill="#FFFFFF" d="M72.009,52.125c0-11.756,0-23.512,0-35.312
		c1.324,0,2.635,0,3.996,0c0-1.365,0-2.69,0-4.016c6.375,0,12.75,0,19.125,0c0.303,0.313,0.598,0.63,0.904,0.937
		c1.736,1.738,3.473,3.479,5.217,5.209c0.188,0.187,0.26,0.371,0.26,0.635c-0.008,9.369-0.006,18.737-0.006,28.106
		c0,0.137,0,0.273,0,0.439c-1.338,0-2.639,0-3.992,0c0,1.354,0,2.678,0,4.002C89.011,52.125,80.511,52.125,72.009,52.125z
		 M76.937,47.183c7.902,0,15.764,0,23.621,0c0-9.117,0-18.209,0-27.329c-2.045,0-4.063,0-6.121,0c0-2.055,0-4.081,0-6.111
		c-5.857,0-11.672,0-17.5,0C76.937,24.898,76.937,36.029,76.937,47.183z M72.944,51.179c7.896,0,15.76,0,23.617,0
		c0-1.027,0-2.031,0-3.059c-6.859,0-13.688,0-20.557,0c0-10.143,0-20.258,0-30.384c-1.043,0-2.045,0-3.061,0
		C72.944,28.891,72.944,40.021,72.944,51.179z M99.751,18.93c-1.453-1.457-2.926-2.933-4.367-4.378c0,1.411,0,2.887,0,4.378
		C96.874,18.93,98.343,18.93,99.751,18.93z"/>
	<path fill-rule="evenodd" clip-rule="evenodd" fill="#FFFFFF" d="M97.337,44.427c-4.088,0-8.15,0-12.24,0c0-0.291,0-0.574,0-0.883
		c4.076,0,8.148,0,12.24,0C97.337,43.833,97.337,44.111,97.337,44.427z"/>
	<path fill-rule="evenodd" clip-rule="evenodd" fill="#FFFFFF" d="M80.163,38.273c0-0.297,0-0.564,0-0.863c4.074,0,8.146,0,12.248,0
		c0,0.268,0,0.553,0,0.863C88.345,38.273,84.272,38.273,80.163,38.273z"/>
	<path fill-rule="evenodd" clip-rule="evenodd" fill="#FFFFFF" d="M80.171,32.127c0-0.303,0-0.579,0-0.874c4.082,0,8.145,0,12.238,0
		c0,0.277,0,0.563,0,0.874C88.347,32.127,84.274,32.127,80.171,32.127z"/>
	<path fill-rule="evenodd" clip-rule="evenodd" fill="#FFFFFF" d="M92.421,25.114c0,0.306,0,0.582,0,0.876
		c-4.082,0-8.143,0-12.236,0c0-0.281,0-0.565,0-0.876C84.251,25.114,88.321,25.114,92.421,25.114z"/>
	<path fill-rule="evenodd" clip-rule="evenodd" fill="#FFFFFF" d="M92.423,18.97c0,0.303,0,0.579,0,0.874c-4.08,0-8.143,0-12.238,0
		c0-0.277,0-0.563,0-0.874C84.247,18.97,88.319,18.97,92.423,18.97z"/>
	<path fill-rule="evenodd" clip-rule="evenodd" fill="#FFFFFF" d="M97.339,41.091c0,0.303,0,0.58,0,0.875c-3.262,0-6.504,0-9.779,0
		c0-0.277,0-0.563,0-0.875C90.802,41.091,94.056,41.091,97.339,41.091z"/>
	<path fill-rule="evenodd" clip-rule="evenodd" fill="#FFFFFF" d="M94.46,38.273c0-1.127,0-2.221,0-3.334c1.113,0,2.207,0,3.33,0
		c0,1.102,0,2.205,0,3.334C96.69,38.273,95.587,38.273,94.46,38.273z M96.88,35.861c-0.508,0-0.998,0-1.494,0
		c0,0.514,0,1.004,0,1.49c0.516,0,1.006,0,1.494,0C96.88,36.841,96.88,36.359,96.88,35.861z"/>
	<path fill-rule="evenodd" clip-rule="evenodd" fill="#FFFFFF" d="M92.423,34.947c0,0.303,0,0.578,0,0.873c-3.262,0-6.504,0-9.779,0
		c0-0.275,0-0.561,0-0.873C85.886,34.947,89.138,34.947,92.423,34.947z"/>
	<path fill-rule="evenodd" clip-rule="evenodd" fill="#FFFFFF" d="M94.458,32.126c0-1.121,0-2.215,0-3.329c1.109,0,2.205,0,3.33,0
		c0,1.095,0,2.198,0,3.329C96.694,32.126,95.593,32.126,94.458,32.126z M96.872,31.215c0-0.517,0-1.006,0-1.491
		c-0.516,0-1.006,0-1.492,0c0,0.511,0,0.992,0,1.491C95.878,31.215,96.36,31.215,96.872,31.215z"/>
	<path fill-rule="evenodd" clip-rule="evenodd" fill="#FFFFFF" d="M92.425,28.803c0,0.3,0,0.576,0,0.872c-3.271,0-6.523,0-9.795,0
		c0-0.292,0-0.568,0-0.872C85.884,28.803,89.138,28.803,92.425,28.803z"/>
	<path fill-rule="evenodd" clip-rule="evenodd" fill="#FFFFFF" d="M94.468,22.648c1.121,0,2.215,0,3.33,0c0,1.11,0,2.205,0,3.329
		c-1.096,0-2.199,0-3.33,0C94.468,24.884,94.468,23.781,94.468,22.648z M96.88,25.074c0-0.524,0-1.006,0-1.502
		c-0.51,0-0.998,0-1.494,0c0,0.513,0,1.003,0,1.502C95.892,25.074,96.374,25.074,96.88,25.074z"/>
	<path fill-rule="evenodd" clip-rule="evenodd" fill="#FFFFFF" d="M92.425,22.658c0,0.298,0,0.574,0,0.871c-3.27,0-6.521,0-9.795,0
		c0-0.291,0-0.567,0-0.871C85.884,22.658,89.136,22.658,92.425,22.658z"/>
	<path fill-rule="evenodd" clip-rule="evenodd" fill="#FFFFFF" d="M82.63,17.379c0-0.303,0-0.579,0-0.874c3.262,0,6.504,0,9.779,0
		c0,0.277,0,0.563,0,0.874C89.167,17.379,85.913,17.379,82.63,17.379z"/>
</g>
</svg>
