<svg xmlns="http://www.w3.org/2000/svg" viewBox="0 0 178 159"><defs><style>.cls-1{fill:#4c554d;}.cls-2{fill:#a2d45e;}.cls-3{fill:#cb007b;}</style></defs><g id="Isolation_Mode" data-name="Isolation Mode"><path class="cls-1" d="M37.41,152.93v-6.84h3c2,0,2.92,1,2.92,3.06v3.78Zm3-8.08H36v9.33h8.79v-5.13C44.74,146.15,43.44,144.85,40.38,144.85Z"/><path class="cls-1" d="M51.47,144.85H47.2v9.33h1.46v-8.09h2.81c2,0,2.93,1.06,2.93,3.2v4.89h1.46v-4.89C55.86,146.23,54.46,144.85,51.47,144.85Z"/><path class="cls-1" d="M57.77,154.18h4.09v-6.55c0-1.85-.72-2.78-2.46-2.78H58.11v1.24H59c1,0,1.42.62,1.42,1.91v4.93H57.77Z"/><path class="cls-1" d="M69.63,144.71c-1.9,0-3.14,1.46-3.76,3.29l-1-3.15H63.41l1.68,5-1.2,4.37h1.45l1.2-4.43C67.1,147.69,68,146,69.69,146s2.72,1.35,2.72,3.47c0,2.95-1.47,4.24-4.23,3.17l-.32,1.18c3.6,1.35,5.94-.45,5.94-4.35C73.8,146.67,72.13,144.71,69.63,144.71Z"/><rect class="cls-1" x="80.53" y="144.85" width="1.46" height="12.03"/><rect class="cls-1" x="84.55" y="144.85" width="1.46" height="9.33"/><path class="cls-1" d="M95.63,149.36c0-3.24-1.78-4.64-4.29-4.64a7.22,7.22,0,0,0-3.59.94l.5,1a6,6,0,0,1,2.86-.79c1.93,0,3.11,1.15,3.11,3.51v4.76h1.41Z"/><path class="cls-1" d="M100.67,144.69a5.7,5.7,0,0,0-3.56,1.17l.53,1a4.72,4.72,0,0,1,2.91-1,3.63,3.63,0,0,1,0,7.24,4.49,4.49,0,0,1-2.45-.66l-.48,1a5.6,5.6,0,0,0,3.08.82,4.82,4.82,0,0,0,0-9.64Z"/><path class="cls-1" d="M112.05,146.09v-1.24h-5.47v1.24h3c-2.24.76-2.3,3.61-.73,8.09h1.54C108.26,148.14,109.06,146.09,112.05,146.09Z"/><polygon class="cls-1" points="119.37 144.85 119.37 143.29 117.91 143.29 117.91 146.09 123.86 146.09 120.68 154.11 120.68 154.18 122.22 154.18 125.79 145 125.79 144.85 119.37 144.85"/><path class="cls-1" d="M133.31,144.85h-1.46v5.66l1.46-.31Zm3.13,0v4.26a3.86,3.86,0,1,1-7.71,0v-4.26h-1.46v4.23a4.9,4.9,0,0,0,5.31,5.28c3.3,0,5.32-2,5.32-5.28v-4.23Z"/><path class="cls-2" d="M101.92,28.34c-2.5.14-6.92,6.48-6.92,6.48S82.15,57.23,77.72,69.44c-5.53,15.25,2.16,31.8,16.9,35.61a34.62,34.62,0,0,1-8.92,1.66c-25.67,1.71-42.05-25-33.34-49.07,6-16.5,23.34-46.76,23.34-46.76C80.45.52,88.56-1.29,93.15,8.91Z"/><path class="cls-3" d="M125.44,88.18a20.17,20.17,0,0,1-16.6,10.37,19.12,19.12,0,0,1-2.51,0C92.68,97.71,84.61,83.15,89.4,69.94,92.89,60.32,103,42.67,103,42.67s1.87-3.25,3.37-4.38a3.74,3.74,0,0,1,3.51-.49,6.6,6.6,0,0,1,3.29,3.72l10.91,24.17c1.73,3.68,3.8,7.23,3.88,11.62A20,20,0,0,1,125.44,88.18Z"/><path class="cls-3" d="M6.25,129.46V122h2.9c2.11,0,3.12.87,3.12,3.34v4.16Zm2.95-11H2.14V133H16.38v-8C16.38,120.25,14.18,118.46,9.2,118.46Z"/><path class="cls-3" d="M17.36,118.46V122h7.86a4.57,4.57,0,0,0-1.43,3.7V133H27.9v-7.44c0-2.35.82-3.56,2.93-3.56v-3.5Z"/><path class="cls-3" d="M33,125.44V133h4.12v-8.05Zm-.12-7V122h5.93c2.66,0,3.7,1.24,3.7,4.33V133h4.11v-6.67c0-5.46-2.4-7.83-7.81-7.83Z"/><polygon class="cls-3" points="56.27 118.46 56.27 127.28 60.38 126.65 60.38 118.46 56.27 118.46"/><path class="cls-3" d="M74.9,129.46v-4c0-4.79-2.06-7.3-6.75-7.3a11.45,11.45,0,0,0-5.8,1.62l1.35,3a7.91,7.91,0,0,1,3.78-1.16c2.12,0,3.31,1.55,3.31,4.09v3.7h-8V133H76.54v-3.5Z"/><polygon class="cls-3" points="77.57 118.46 77.57 127.28 81.68 126.65 81.68 118.46 77.57 118.46"/><path class="cls-3" d="M88.46,118.21a8.68,8.68,0,0,0-5,1.48l1.31,2.88a6.42,6.42,0,0,1,3.12-1c2.42,0,3.8,1.64,3.8,4.11s-1.38,4.11-3.8,4.11a6.89,6.89,0,0,1-3.14-.94l-1.29,2.85a8.68,8.68,0,0,0,5,1.48c4.52,0,7.38-2.91,7.38-7.5S93,118.21,88.46,118.21Z"/><path class="cls-3" d="M109.19,125.47c0-5-2.92-7.21-6.74-7.21a12,12,0,0,0-6,1.57l1.36,2.93a8.65,8.65,0,0,1,3.92-1.16c2.22,0,3.48,1.47,3.48,4V133h4Z"/><path class="cls-3" d="M120.66,118.24a5.61,5.61,0,0,0-5.12,3.29l-.92-3.07h-4l2.71,7.9-1.86,6.6h4.06l1.74-6.45c1-3.6,2.15-4.64,3.63-4.64s2.8,1.3,2.8,3.77c0,3.48-1.45,4.79-4.52,3.43l-.89,3.34c5.49,2.13,9.28-.65,9.28-6.77C127.53,121.29,124.8,118.24,120.66,118.24Z"/><path class="cls-3" d="M140.8,124.55l-4,.48v11.56h4Zm-4.08-6.09V122h10v4.35c0,2.81-.68,3.32-2.06,3.32a6.76,6.76,0,0,1-1.86-.29l-.46,3.38a9.33,9.33,0,0,0,2.9.41c2.81,0,5.44-1.28,5.44-6.43v-8.24Z"/><path class="cls-3" d="M153,133h6.94v-10.3c0-2.87-1.16-4.2-4.21-4.2h-2.34V122h1.06c1.11,0,1.38.46,1.38,1.84v5.66H153Z"/><path class="cls-3" d="M174.21,129.46v-4c0-4.79-2.05-7.3-6.74-7.3a11.4,11.4,0,0,0-5.8,1.62l1.35,3a7.87,7.87,0,0,1,3.77-1.16c2.13,0,3.31,1.55,3.31,4.09v3.7h-8V133h13.74v-3.5Z"/></g></svg>