<svg xmlns="http://www.w3.org/2000/svg" width="24" height="24" viewBox="0 0 24 24"><defs><style>.a{fill:#272932;}.b{fill:none;}</style></defs><path class="a" d="M20.408,5.8,16.557,2,13.329,5.186,10.1,2,4.167,7.858a8.216,8.216,0,0,0,.007,11.718,8.46,8.46,0,0,0,11.862-.006,8.19,8.19,0,0,0,2.391-4.933A5.412,5.412,0,0,0,20.408,13.4,5.331,5.331,0,0,0,20.408,5.8ZM14.6,18.156a6.418,6.418,0,0,1-9,0A6.233,6.233,0,0,1,5.6,9.273l4.5-4.446,1.884,1.861a5.328,5.328,0,0,0,.724,6.718,5.443,5.443,0,0,0,3.605,1.55A6.18,6.18,0,0,1,14.6,18.156Zm4.372-6.168a3.448,3.448,0,0,1-4.835,0,3.348,3.348,0,0,1,0-4.775l2.42-2.389,2.419,2.388A3.354,3.354,0,0,1,18.976,11.988Z" transform="translate(0.286)"/><rect class="b" width="24" height="24"/></svg>