<svg xmlns="http://www.w3.org/2000/svg" xmlns:xlink="http://www.w3.org/1999/xlink" width="90.083" height="119.098" viewBox="0 0 90.083 119.098"><defs><style>.a{fill:#cb007b;}.b{fill:#4c554d;}.c{fill:#a2d45e;}.d{clip-path:url(#a);}</style><clipPath id="a"><path class="a" d="M105.311,114.791a14.046,14.046,0,0,1-12.976,7.025c-9.266-.575-15.6-10.779-11.494-19.364,1.723-6.7,9.241-18.443,9.241-18.443a6.939,6.939,0,0,1,2.287-2.958,2.545,2.545,0,0,1,2.385-.333,4.491,4.491,0,0,1,2.235,2.514l7.4,16.348c1.18,2.488,2.582,4.889,2.635,7.86A13.507,13.507,0,0,1,105.311,114.791Z" transform="translate(-79.564 -80.554)"/></clipPath></defs><g transform="translate(-96 -196.729)"><g transform="translate(96 196.729)"><g transform="translate(0 83.669)"><path class="a" d="M-82.321-12.354a.642.642,0,0,1-.456-.172.579.579,0,0,1-.185-.443V-25.8a.579.579,0,0,1,.185-.443.642.642,0,0,1,.456-.172h5.565A7.514,7.514,0,0,1-71.744-25q1.638,1.416,1.638,4.617v7.388a.619.619,0,0,1-.185.456.619.619,0,0,1-.456.185Zm8.25-3.349v-4.556a2.481,2.481,0,0,0-2.807-2.807h-2.364V-15.7Zm17.263-10.712a.6.6,0,0,1,.443.172.6.6,0,0,1,.172.443v2.093a.656.656,0,0,1-.172.443.562.562,0,0,1-.443.2h-1.157a3.761,3.761,0,0,0-.456,1.244,8.62,8.62,0,0,0-.16,1.736V-12.9a.464.464,0,0,1-.222.382.786.786,0,0,1-.468.16h-2.881a.533.533,0,0,1-.394-.148.533.533,0,0,1-.148-.394v-7.437a5.4,5.4,0,0,1,.493-2.733h-5.615a.579.579,0,0,1-.443-.185.643.643,0,0,1-.172-.456V-25.8a.579.579,0,0,1,.185-.443.612.612,0,0,1,.431-.172ZM-44.3-12.354a.6.6,0,0,1-.443-.172.6.6,0,0,1-.172-.443v-7.289a2.481,2.481,0,0,0-2.807-2.807h-5.59a.619.619,0,0,1-.456-.185.619.619,0,0,1-.185-.456V-25.8a.579.579,0,0,1,.185-.443.642.642,0,0,1,.456-.172H-47.6a7.551,7.551,0,0,1,5.11,1.5,5.909,5.909,0,0,1,1.711,4.679v7.265a.612.612,0,0,1-.172.431.579.579,0,0,1-.443.185Zm-9.013,0a.642.642,0,0,1-.456-.172.579.579,0,0,1-.185-.443v-7.191a.619.619,0,0,1,.185-.456.619.619,0,0,1,.456-.185h2.906a.579.579,0,0,1,.443.185.642.642,0,0,1,.172.456v7.191a.612.612,0,0,1-.172.431.579.579,0,0,1-.443.185Zm27.137.32a.477.477,0,0,1-.456-.172.7.7,0,0,1-.209-.493v-2.463a.7.7,0,0,1,.172-.456,1.214,1.214,0,0,1,.443-.332l.788-.32a4.122,4.122,0,0,0,1.81-1.342,4.12,4.12,0,0,0,.653-2.5,3.314,3.314,0,0,0-.554-2.179,2.636,2.636,0,0,0-2.032-.628h-6.55a.619.619,0,0,1-.456-.185.591.591,0,0,1-.185-.431v-2.29a.536.536,0,0,1,.2-.419.656.656,0,0,1,.443-.172H-24.7q3.2,0,4.593,1.539a6.734,6.734,0,0,1,1.391,4.642,7.241,7.241,0,0,1-1.847,5.122,9.81,9.81,0,0,1-4.6,2.783Zm-5.935,4.383a.642.642,0,0,1-.456-.172.579.579,0,0,1-.185-.443V-20.161a.619.619,0,0,1,.185-.456.619.619,0,0,1,.456-.185H-29.3a.579.579,0,0,1,.443.185.642.642,0,0,1,.172.456V-8.267a.6.6,0,0,1-.172.443.6.6,0,0,1-.443.172Zm24.4-5.319a.513.513,0,0,1-.16.431.619.619,0,0,1-.456.185h-7.9a.642.642,0,0,1-.456-.172.579.579,0,0,1-.185-.443v-2.093a.619.619,0,0,1,.185-.456.619.619,0,0,1,.456-.185h4.088l-.222-4.851a4.152,4.152,0,0,0-.468-2.081,1.731,1.731,0,0,0-1.551-.628h-1.256a.579.579,0,0,1-.443-.185.643.643,0,0,1-.172-.456v-2.044a.642.642,0,0,1,.172-.456.579.579,0,0,1,.443-.185h1.33q3.226,0,4.679,1.453A6.763,6.763,0,0,1-8.05-20.481Zm2.438.616a.591.591,0,0,1-.431-.185.591.591,0,0,1-.185-.431v-2.093a.642.642,0,0,1,.172-.456.579.579,0,0,1,.443-.185H.914v-4.556a2.471,2.471,0,0,0-2.783-2.807H-5.021a.591.591,0,0,1-.431-.185.591.591,0,0,1-.185-.431V-25.8a.579.579,0,0,1,.185-.443.612.612,0,0,1,.431-.172h3.275a8.025,8.025,0,0,1,5.208,1.453q1.761,1.453,1.761,4.7V-15.7h.862a.579.579,0,0,1,.443.185.642.642,0,0,1,.172.456v2.093a.612.612,0,0,1-.172.431.579.579,0,0,1-.443.185Z" transform="translate(83.382 26.588)"/><path class="b" d="M-83.4-9.237a.335.335,0,0,1-.247-.1.335.335,0,0,1-.1-.247v-7.869a.33.33,0,0,1,.1-.255.35.35,0,0,1,.247-.09h2.833q3.792,0,3.792,3.657v4.557a.335.335,0,0,1-.1.247.335.335,0,0,1-.247.1Zm5.336-1.154v-3.672a2.279,2.279,0,0,0-2.578-2.578h-1.874v6.251Zm4.152,1.154a.335.335,0,0,1-.247-.1.335.335,0,0,1-.1-.247v-7.869a.329.329,0,0,1,.1-.255.35.35,0,0,1,.247-.09h2.878a3.948,3.948,0,0,1,2.87.922,3.719,3.719,0,0,1,.937,2.766v4.527a.35.35,0,0,1-.09.247.311.311,0,0,1-.24.1h-.63a.335.335,0,0,1-.247-.1.335.335,0,0,1-.1-.247v-4.482a2.279,2.279,0,0,0-2.578-2.578h-1.844v7.06a.35.35,0,0,1-.09.247.311.311,0,0,1-.24.1Zm13.386-.345a.281.281,0,0,1-.09.247.361.361,0,0,1-.255.1h-3.987a.335.335,0,0,1-.247-.1.335.335,0,0,1-.1-.247v-.465a.335.335,0,0,1,.1-.247.335.335,0,0,1,.247-.1h2.953l-.24-3.822a14.177,14.177,0,0,0-.142-1.417,1.347,1.347,0,0,0-.375-.757,1.234,1.234,0,0,0-.892-.285h-.615a.335.335,0,0,1-.247-.1.335.335,0,0,1-.1-.247v-.465a.335.335,0,0,1,.1-.247.335.335,0,0,1,.247-.1h.615a2.714,2.714,0,0,1,1.649.427,2.219,2.219,0,0,1,.794,1.177,8.956,8.956,0,0,1,.3,1.964Zm6.011-8.214a3.085,3.085,0,0,1,1.649.442,3.04,3.04,0,0,1,1.132,1.267,4.31,4.31,0,0,1,.412,1.949v4.557a.35.35,0,0,1-.09.247.311.311,0,0,1-.24.1h-3.867a.335.335,0,0,1-.247-.1.335.335,0,0,1-.1-.247v-.465a.335.335,0,0,1,.1-.247.335.335,0,0,1,.247-.1h2.893v-3.657a3.266,3.266,0,0,0-.262-1.349,2.136,2.136,0,0,0-.727-.907,1.8,1.8,0,0,0-1.049-.322h-1.6L-57.426-9.6a.407.407,0,0,1-.12.255.347.347,0,0,1-.255.1h-.615a.278.278,0,0,1-.232-.1.342.342,0,0,1-.067-.255l1.2-7.015h-.764a.335.335,0,0,1-.247-.1.335.335,0,0,1-.1-.247v-.495a.335.335,0,0,1,.1-.247.335.335,0,0,1,.247-.1Zm10,10.418a.35.35,0,0,1-.247-.09.33.33,0,0,1-.1-.255v-9.728a.33.33,0,0,1,.1-.255.35.35,0,0,1,.247-.09h.63a.311.311,0,0,1,.24.1.35.35,0,0,1,.09.247v9.728a.35.35,0,0,1-.09.247.311.311,0,0,1-.24.1Zm3.912-1.859a.335.335,0,0,1-.247-.1.335.335,0,0,1-.1-.247v-7.869a.33.33,0,0,1,.1-.255.35.35,0,0,1,.247-.09h.645a.335.335,0,0,1,.247.1.335.335,0,0,1,.1.247v7.869a.335.335,0,0,1-.1.247.335.335,0,0,1-.247.1Zm8.454,0a.335.335,0,0,1-.247-.1.335.335,0,0,1-.1-.247v-4.482a2.279,2.279,0,0,0-2.578-2.578h-1.934a.335.335,0,0,1-.247-.1.335.335,0,0,1-.1-.247v-.465a.335.335,0,0,1,.1-.247.335.335,0,0,1,.247-.1H-35q3.822,0,3.822,3.657v4.557a.335.335,0,0,1-.1.247.335.335,0,0,1-.247.1Zm3.837,0a.335.335,0,0,1-.247-.1.335.335,0,0,1-.1-.247v-.495a.335.335,0,0,1,.1-.247.335.335,0,0,1,.247-.1h2.144a2.547,2.547,0,0,0,1.934-.652A2.866,2.866,0,0,0-23.58-13q.015-.21.015-.525t-.015-.51a2.866,2.866,0,0,0-.66-1.926,2.547,2.547,0,0,0-1.934-.652h-2.144a.335.335,0,0,1-.247-.1.335.335,0,0,1-.1-.247v-.495a.335.335,0,0,1,.1-.247.335.335,0,0,1,.247-.1H-26.1a3.763,3.763,0,0,1,2.818.944,4.066,4.066,0,0,1,.989,2.758q.015.21.015.57t-.015.585a4.066,4.066,0,0,1-.989,2.758,3.763,3.763,0,0,1-2.818.944ZM-16.655-17.8a.311.311,0,0,1,.24.1.35.35,0,0,1,.09.247v.465a.35.35,0,0,1-.09.247.311.311,0,0,1-.24.1h-.914a1.715,1.715,0,0,0-.33.7,4.344,4.344,0,0,0-.12,1.079v5.291a.3.3,0,0,1-.1.24.378.378,0,0,1-.255.09h-.615a.324.324,0,0,1-.24-.09.324.324,0,0,1-.09-.24v-5.381a4.785,4.785,0,0,1,.1-1.034,1.626,1.626,0,0,1,.277-.66h-1.3a.335.335,0,0,1-.247-.1.335.335,0,0,1-.1-.247v-.465a.335.335,0,0,1,.1-.247.335.335,0,0,1,.247-.1Zm8.079,0a5,5,0,0,1,2.173.39A2.35,2.35,0,0,1-5.248-16.17a5.963,5.963,0,0,1,.36,2.286,4.4,4.4,0,0,1-.937,2.99A5.51,5.51,0,0,1-8.276-9.312l-.63.21a.257.257,0,0,1-.1.015A.271.271,0,0,1-9.2-9.163a.269.269,0,0,1-.082-.21v-.645a.439.439,0,0,1,.33-.4l.585-.225a3.544,3.544,0,0,0,1.6-1.139,3.545,3.545,0,0,0,.555-2.158,4.224,4.224,0,0,0-.24-1.581,1.526,1.526,0,0,0-.794-.832,3.691,3.691,0,0,0-1.514-.255h-.51l-1.379-.015a.35.35,0,0,1-.247-.09.311.311,0,0,1-.1-.24v-2.578a.335.335,0,0,1,.1-.247.335.335,0,0,1,.247-.1h.585a.335.335,0,0,1,.247.1.335.335,0,0,1,.1.247V-17.8Zm14.24,0a.345.345,0,0,1,.255.09.345.345,0,0,1,.09.255v4.167a4.559,4.559,0,0,1-.517,2.211A3.516,3.516,0,0,1,4.038-9.62a4.254,4.254,0,0,1-2.151.472H.778A3.376,3.376,0,0,1-.953-9.6a3.24,3.24,0,0,1-1.222-1.267,3.837,3.837,0,0,1-.45-1.881v-4.707a.33.33,0,0,1,.1-.255.35.35,0,0,1,.247-.09h.57a.345.345,0,0,1,.255.09.345.345,0,0,1,.09.255l.045,4.257a2.651,2.651,0,0,0,1.9-.719,2.445,2.445,0,0,0,.54-1.649v-1.889a.335.335,0,0,1,.1-.247.335.335,0,0,1,.247-.1h.585a.311.311,0,0,1,.24.1.35.35,0,0,1,.09.247V-15.5a3.228,3.228,0,0,1-.922,2.361,3.884,3.884,0,0,1-2.676,1.027,2.3,2.3,0,0,0,.877,1.327,2.624,2.624,0,0,0,1.581.472h.495a2.82,2.82,0,0,0,2.218-.809,3.137,3.137,0,0,0,.794-2.248v-4.077a.335.335,0,0,1,.1-.247.335.335,0,0,1,.247-.1Z" transform="translate(83.748 42.807)"/></g><g transform="translate(18.539 0)"><path class="c" d="M88.119,73.142c-1.7.091-3.434,1.639-4.7,4.381,0,0-9.549,14.9-11.73,23.418-4.745,9.9,1.468,21.511,11.475,24.084a23.349,23.349,0,0,1-6.055,1.123C59.677,127.3,47,108.567,54.473,92.957,57.422,81.46,70.32,61.333,70.32,61.333,73.544,54.327,79.049,53.1,82.169,60Z" transform="translate(-52.282 -55.408)"/><g class="d" transform="translate(26.06 23.97)"><path class="a" d="M19.093-3948.332c4.06-3.109,3.246-4.46,7.882-2.708s6.311,3.382,9.695,2.708,4.743-1.107,6.725,2.226,4.8.215,7.272,2.044,2.378,4.125,2.282,8.243,0,48.458,0,48.458H10.729l.592-60.971A6.254,6.254,0,0,0,19.093-3948.332Z" transform="translate(-17.309 3948.307)"/></g></g></g></g></svg>