<svg xmlns="http://www.w3.org/2000/svg" width="20" height="20" fill="#1e88e5" viewBox="0 0 20 20"><defs></defs><g transform="translate(-2 -2)"><path class="a" d="M9,22H5a3,3,0,0,1-3-3V5A3,3,0,0,1,5,2H9A1,1,0,0,1,9,4H5A1,1,0,0,0,4,5V19a1,1,0,0,0,1,1H9a1,1,0,0,1,0,2Z"/><path class="a" d="M21,18a1,1,0,0,0,.707-1.707L17.414,12l4.293-4.293a1,1,0,0,0-1.414-1.414l-5,5a1,1,0,0,0,0,1.414l5,5A1,1,0,0,0,21,18Z" transform="translate(-7)"/><path class="a" d="M9,13H21a1,1,0,0,0,0-2H9a1,1,0,0,0,0,2Z"/></g></svg>