<svg xmlns="http://www.w3.org/2000/svg" width="144" height="23.999" viewBox="0 0 144 23.999">
  <g id="Group_942" data-name="Group 942" transform="translate(-235.886 -48)">
    <g id="profile_img" data-name="profile img" transform="translate(355.886 48)">
      <g id="Group_1038" data-name="Group 1038" transform="translate(2 2)">
        <g id="feedback_icon" data-name="feedback icon" transform="translate(4839.5 11291)">
          <path id="Icon_material-feedback" data-name="Icon material-feedback" d="M3.524.667H17.809a2.86,2.86,0,0,1,2.857,2.857V14.237a2.86,2.86,0,0,1-2.857,2.857H5.753L2.5,20.352a1.071,1.071,0,0,1-1.829-.758L.676,3.523A2.856,2.856,0,0,1,3.524.667ZM17.809,14.952a.724.724,0,0,0,.714-.714V3.524a.724.724,0,0,0-.714-.714H3.524a.711.711,0,0,0-.705.714L2.811,17.006l1.741-1.741a1.071,1.071,0,0,1,.758-.314Z" transform="translate(-4840.167 -11291.667)" fill="#7e7e7e" stroke="#fff" stroke-linecap="round" stroke-width="1"/>
          <rect id="Rectangle_812" data-name="Rectangle 812" width="2" height="5.357" rx="1" transform="translate(-4830.32 -11286.637)" fill="#7e7e7e" stroke="#fff" stroke-width="1"/>
          <rect id="Rectangle_813" data-name="Rectangle 813" width="2" height="2" rx="1" transform="translate(-4830.32 -11281.28)" fill="#7e7e7e" stroke="#fff" stroke-width="1"/>
        </g>
      </g>
    </g>
    <text id="משוב" transform="translate(235.886 50)" fill="#474747" font-size="16" font-family="Rubik-Regular, Rubik"><tspan x="-34.144" y="15">משוב</tspan></text>
  </g>
</svg>
