<svg xmlns="http://www.w3.org/2000/svg" width="19.667" height="19.687" viewBox="0 0 19.667 19.687" fill="#7e7e7e" stroke="#fff" stroke-linejoin="round"><defs></defs><g transform="translate(4840 11291.5)"><path class="a" d="M3.333.667H16.667a2.67,2.67,0,0,1,2.667,2.667v10A2.67,2.67,0,0,1,16.667,16H5.414l-3.04,3.04a1,1,0,0,1-1.707-.708l.008-15A2.665,2.665,0,0,1,3.333.667ZM16.667,14a.676.676,0,0,0,.667-.667v-10a.676.676,0,0,0-.667-.667H3.333a.663.663,0,0,0-.658.667L2.668,15.918l1.625-1.625A1,1,0,0,1,5,14Z" transform="translate(-4840.167 -11291.667)"/><rect class="b" width="2" height="4" rx="1" transform="translate(-4831 -11287)"/><rect class="b" width="2" height="2" rx="1" transform="translate(-4831 -11282)"/></g></svg>