<svg xmlns="http://www.w3.org/2000/svg" xmlns:xlink="http://www.w3.org/1999/xlink" width="203.406" height="306.925" viewBox="0 0 203.406 306.925">
  <defs>
    <clipPath id="clip-path">
      <path id="a" d="M98.7,106.105a10.176,10.176,0,0,1-8.377,5.236,10.063,10.063,0,0,1-1.268,0A10.27,10.27,0,0,1,80.513,96.9c1.281-5,6.868-13.759,6.868-13.759a5.174,5.174,0,0,1,1.7-2.206,1.885,1.885,0,0,1,1.773-.248,3.339,3.339,0,0,1,1.66,1.876l5.5,12.2c.877,1.856,1.919,3.648,1.958,5.864A10.108,10.108,0,0,1,98.7,106.105Z" transform="translate(-79.564 -80.568)" fill="#cb007b"/>
    </clipPath>
  </defs>
  <g id="img-Onboarding_1" data-name="img-Onboarding 1" transform="translate(0.041 -3.9)">
    <path id="bg" d="M190.6,254.4a101.6,101.6,0,0,1-83.4,52.2,88.316,88.316,0,0,1-12.6,0C25.9,302.3-21,226.5,9.4,162.7c12.8-49.8,68.4-137,68.4-137,4.8-10.4,10.7-17.9,16.9-22,5.8-3.8,11.9-4.8,17.7-2.5,6.2,2.4,11.9,8.5,16.5,18.7l54.8,121.5c8.7,18.5,19.1,36.3,19.5,58.4A100.063,100.063,0,0,1,190.6,254.4Z" transform="translate(0 4)" fill="#fd8ad0" opacity="0.15"/>
    <path id="Path_2575" d="M170.4,70h-1.5V28.1A24.22,24.22,0,0,0,144.7,3.9H55.9A24.22,24.22,0,0,0,31.7,28.1V258a24.22,24.22,0,0,0,24.2,24.2h88.8A24.22,24.22,0,0,0,168.9,258h0V99.9h1.5V70Z" fill="#515151"/>
    <path id="Path_2576" d="M163.7,28.3V257.8a18.1,18.1,0,0,1-18.1,18.1H56.4a18.1,18.1,0,0,1-18.1-18.1V28.3A18.1,18.1,0,0,1,56.4,10.2H67.2a8.575,8.575,0,0,0,4.7,11.2,8.662,8.662,0,0,0,3.2.6H126a8.637,8.637,0,0,0,8-11.8h11.6a18.1,18.1,0,0,1,18.1,18.1Z" transform="translate(-0.341)" fill="#fff"/>
    <g id="Group_873" data-name="Group 873" transform="translate(59.959 85.355)">
      <g id="Group_875" data-name="Group 875" transform="translate(21 0)">
        <path id="Path_2321" data-name="Path 2321" d="M78.916,68.638c-1.261.068-2.552,1.223-3.492,3.268,0,0-7.1,11.119-8.718,17.47-3.526,7.388,1.091,16.047,8.528,17.967a17.294,17.294,0,0,1-4.5.838c-12.956.863-22.38-13.116-16.823-24.761C56.1,74.843,65.688,59.828,65.688,59.828c2.4-5.227,6.489-6.142,8.806-.994Z" transform="translate(-52.283 -55.408)" fill="#a2d45e"/>
        <g id="Group_4" data-name="Group 4" transform="translate(19.367 17.886)" clip-path="url(#clip-path)">
          <path id="Path_2356" data-name="Path 2356" d="M16.945-3949.212c3.018-2.32,2.413-3.328,5.858-2.021s4.691,2.523,7.205,2.021,3.525-.827,5,1.66,3.566.16,5.4,1.525,1.767,3.077,1.7,6.149,0,36.15,0,36.15H10.729l.44-45.484A4.637,4.637,0,0,0,16.945-3949.212Z" transform="translate(-15.619 3949.191)" fill="#cb007b"/>
        </g>
      </g>
      <g id="Group_666" data-name="Group 666" transform="translate(0 53.911)">
        <g id="בנק_הדם" data-name="בנק הדם" transform="translate(0 0)" style="isolation: isolate">
          <path id="בנק_מרכיבי_הדם" data-name="בנק מרכיבי הדם" d="M-36.836-6.736h-3.278V0H-33.5V-3.716C-33.5-5.905-34.523-6.736-36.836-6.736Zm-1.37,5.108v-3.48h1.347c.977,0,1.448.4,1.448,1.549v1.931Zm5.158-5.108v1.628H-29.4a2.122,2.122,0,0,0-.662,1.718V0h1.908V-3.458c0-1.089.382-1.65,1.358-1.65V-6.736Zm7.212,0v1.628h2.75c1.235,0,1.718.573,1.718,2.009V0h1.908V-3.1c0-2.537-1.111-3.637-3.626-3.637Zm.056,3.244V0h1.908V-3.738Zm10.8-3.244v4.1l1.908-.292V-6.736Zm8.649,5.108V-3.48c0-2.223-.954-3.39-3.132-3.39a5.321,5.321,0,0,0-2.694.752l.629,1.415A3.659,3.659,0,0,1-9.78-5.243c.988,0,1.538.718,1.538,1.9v1.718h-3.7V0H-5.57V-1.628Zm1.24-5.108v4.1l1.908-.292V-6.736Zm5.057-.112a4.028,4.028,0,0,0-2.3.685l.606,1.336A3.018,3.018,0,0,1-.284-5.276,1.7,1.7,0,0,1,1.479-3.368,1.7,1.7,0,0,1-.284-1.459,3.227,3.227,0,0,1-1.743-1.9L-2.338-.573a4.028,4.028,0,0,0,2.3.685,3.216,3.216,0,0,0,3.424-3.48A3.216,3.216,0,0,0-.037-6.848ZM9.589-3.48c0-2.335-1.358-3.345-3.132-3.345a5.544,5.544,0,0,0-2.773.73l.629,1.358a4.012,4.012,0,0,1,1.819-.539c1.033,0,1.617.685,1.617,1.875V0H9.589Zm5.326-3.357a2.608,2.608,0,0,0-2.38,1.527l-.427-1.426H10.233l1.257,3.671L10.626,0h1.886l.808-3c.449-1.673,1-2.155,1.684-2.155.73,0,1.3.606,1.3,1.751,0,1.617-.674,2.223-2.1,1.594L13.792-.258C16.34.73,18.1-.561,18.1-3.4A3.152,3.152,0,0,0,14.915-6.837Zm7.452.1v1.628h4.648v2.021c0,1.3-.314,1.538-.954,1.538a3.161,3.161,0,0,1-.864-.135L24.983-.112A4.344,4.344,0,0,0,26.33.079c1.3,0,2.526-.595,2.526-2.986V-6.736Zm1.9,2.829-1.841.225V1.684h1.841ZM29.9,0h3.222V-4.782c0-1.336-.539-1.953-1.953-1.953H30.084v1.628h.494c.516,0,.64.213.64.853v2.627H29.9Zm9.873-1.628V-3.48c0-2.223-.954-3.39-3.132-3.39a5.321,5.321,0,0,0-2.694.752L34.579-4.7a3.659,3.659,0,0,1,1.751-.539c.988,0,1.538.718,1.538,1.9v1.718h-3.7V0h6.377V-1.628Z" transform="translate(41 11)" fill="#cb007b"/>
        </g>
        <g id="של_זכרון_מנחם" data-name="של זכרון מנחם" transform="translate(17.66 15.114)" style="isolation: isolate">
          <path id="של_זכרון_מנחם-2" data-name="של זכרון מנחם" d="M-20.629-4.145H-22.6V0h3.91V-2.28C-18.687-3.565-19.268-4.145-20.629-4.145Zm-1.32,3.592v-3.04h1.313c.905,0,1.3.428,1.3,1.361V-.553ZM-15.7-4.145h-1.9V0h.649V-3.592h1.25c.891,0,1.3.47,1.3,1.423V0h.649V-2.169C-13.748-3.53-14.37-4.145-15.7-4.145ZM-12.9,0h1.817V-2.908c0-.822-.318-1.237-1.092-1.237h-.573v.553h.387c.456,0,.629.276.629.85v2.19H-12.9Zm5.271-4.207A1.852,1.852,0,0,0-9.3-2.743l-.449-1.4h-.642l.746,2.2L-10.176,0h.642L-9-1.969c.249-.912.636-1.665,1.4-1.665.7,0,1.209.6,1.209,1.541,0,1.313-.656,1.886-1.879,1.409l-.145.525c1.6.6,2.639-.2,2.639-1.934A1.9,1.9,0,0,0-7.627-4.207Zm5.492.062h-.649V1.2h.649Zm1.789,0H-.995V0h.649Zm4.276,2A1.8,1.8,0,0,0,2.024-4.2a3.22,3.22,0,0,0-1.6.415l.221.463a2.655,2.655,0,0,1,1.271-.352c.857,0,1.382.511,1.382,1.561V0h.629ZM6.169-4.214A2.526,2.526,0,0,0,4.587-3.7l.235.435a2.1,2.1,0,0,1,1.292-.421,1.481,1.481,0,0,1,1.513,1.61A1.485,1.485,0,0,1,6.1-.463a1.966,1.966,0,0,1-1.085-.3L4.8-.3A2.463,2.463,0,0,0,6.169.069,2,2,0,0,0,8.276-2.073,2,2,0,0,0,6.169-4.214Zm5.057.622v-.553H8.794v.553h1.347C9.147-3.254,9.119-1.99,9.817,0H10.5C9.541-2.68,9.9-3.592,11.226-3.592Zm3.254-.553v-.691h-.649v1.244h2.646L15.06-.028V0h.684l1.589-4.076v-.069Zm7.585,0v1.893A1.63,1.63,0,0,1,20.352-.47a1.63,1.63,0,0,1-1.713-1.782V-4.145H17.99v1.879A2.181,2.181,0,0,0,20.352.083a2.181,2.181,0,0,0,2.363-2.349V-4.145Zm-1.389,0h-.649V-1.63l.649-.138Z" transform="translate(23 7)" fill="#4c554d"/>
        </g>
      </g>
    </g>
    <g id="Group_877" data-name="Group 877" transform="translate(63.176 220.937)">
      <g id="logo_ZM" data-name="logo ZM" transform="translate(45.736 0)">
        <path id="Path_2369" data-name="Path 2369" d="M-2838.327,112.32l3.671,11.206c.382,1.175.446,2.065-1.58,2.354l5.078-.016c1.44,0,1.684-.619,1.068-1.861l-2.574-5.192c-.659-1.331-.74-1.55.088-2.79l1.771-2.653c.776-1.162.292-1.874-1.005-1.875l-5.64,0c-.789,0-1.162-.047-.876.83" transform="translate(2859.261 -105.777)" fill="#cb007b"/>
        <path id="Path_2370" data-name="Path 2370" d="M-2872.259,93.1l-2.528,4.775-4.427,0c-1.1,0-1.479.634-.839,1.69l2.5,4.125-3.173,5.985c-.338.592-.187,1.321.61,1.321h4.3l3.323-7.885c.4-1.042,1.9-.34,1.346.786l-2.1,5.393c-.69,1.221-.293,1.879,1.006,1.879l4.81,0c1.233,0,1.121-.65.717-1.913l-3.335-10.388a.838.838,0,0,1,1.238-.929c.468.344-.128-.694-.255-1.013l-1.547-3.93c-.381-.968-1.15-.839-1.645.1" transform="translate(2889.154 -92.333)" fill="#a2d45e"/>
        <path id="Path_2371" data-name="Path 2371" d="M-2907.635,162.9v2.036h1.819v-1.153a1.432,1.432,0,0,0-.065-.481.5.5,0,0,0-.2-.264.854.854,0,0,0-.359-.107c-.145-.015-.323-.024-.53-.031Zm2.959,2.762a.3.3,0,0,1-.331.34h-3.432a.3.3,0,0,1-.334-.34v-3.491a.3.3,0,0,1,.334-.343h1.833a3.962,3.962,0,0,1,.839.08,1.473,1.473,0,0,1,.607.272,1.175,1.175,0,0,1,.368.519,2.37,2.37,0,0,1,.122.82Z" transform="translate(2908.774 -141.108)" fill="#cb007b"/>
        <path id="Path_2372" data-name="Path 2372" d="M-2889.445,165.881a.119.119,0,0,1-.037.094.131.131,0,0,1-.086.031h-.893a.109.109,0,0,1-.123-.125v-2.376c0-.086,0-.163-.008-.237a.379.379,0,0,0-.064-.192.36.36,0,0,0-.188-.128,1.19,1.19,0,0,0-.365-.043h-1.152v2.976a.119.119,0,0,1-.036.094.128.128,0,0,1-.088.031h-.885a.143.143,0,0,1-.094-.031.117.117,0,0,1-.036-.094v-3.919a.128.128,0,0,1,.036-.089.122.122,0,0,1,.094-.041h2.547a2.564,2.564,0,0,1,.533.055,1.075,1.075,0,0,1,.439.2,1,1,0,0,1,.3.4,1.674,1.674,0,0,1,.108.646Z" transform="translate(2898.024 -141.108)" fill="#cb007b"/>
        <path id="Path_2373" data-name="Path 2373" d="M-2876.764,165.673a.3.3,0,0,1-.337.333h-1.792c-.088,0-.132-.041-.132-.125v-.808a.135.135,0,0,1,.038-.1.12.12,0,0,1,.093-.04h.994v-1.747a.3.3,0,0,0-.062-.228.409.409,0,0,0-.254-.054h-.432a.126.126,0,0,1-.1-.037.116.116,0,0,1-.036-.085v-.821a.134.134,0,0,1,.036-.089.118.118,0,0,1,.1-.042h.919a.939.939,0,0,1,.748.255,1.168,1.168,0,0,1,.215.768Z" transform="translate(2887.836 -141.108)" fill="#cb007b"/>
        <path id="Path_2374" data-name="Path 2374" d="M-2866.35,165.216a.818.818,0,0,1-.128.495.433.433,0,0,1-.367.17h-1.6c-.075,0-.113-.041-.113-.124v-.8a.171.171,0,0,1,.028-.1.1.1,0,0,1,.085-.039h.749c.106,0,.166-.025.185-.075a.983.983,0,0,0,.025-.263v-1.111c0-.149,0-.263-.006-.343a.236.236,0,0,0-.072-.174.376.376,0,0,0-.207-.061c-.094-.006-.229-.008-.408-.008a.493.493,0,0,0-.4.137,1.064,1.064,0,0,0-.189.392l-.667,2.5c-.009.038-.028.059-.058.063a.555.555,0,0,1-.1.007h-.936a.067.067,0,0,1-.073-.057.206.206,0,0,1,0-.109l.59-1.927-.927-1.412a.234.234,0,0,1-.038-.158.175.175,0,0,1,.058-.126l.446-.37a.3.3,0,0,1,.208-.068.187.187,0,0,1,.172.092l.469.8.121-.3a.883.883,0,0,1,.314-.413.965.965,0,0,1,.53-.125h1.272a1.156,1.156,0,0,1,.4.069.923.923,0,0,1,.325.2.973.973,0,0,1,.224.337,1.222,1.222,0,0,1,.083.463Z" transform="translate(2882.174 -140.983)" fill="#cb007b"/>
        <path id="Path_2375" data-name="Path 2375" d="M-2849.29,167.287a.109.109,0,0,1-.036.084.126.126,0,0,1-.087.031h-.885a.142.142,0,0,1-.093-.031.107.107,0,0,1-.037-.084v-5.324a.129.129,0,0,1,.037-.089.121.121,0,0,1,.093-.041h.885a.109.109,0,0,1,.087.041.131.131,0,0,1,.036.089Z" transform="translate(2867.711 -141.108)" fill="#cb007b"/>
        <path id="Path_2376" data-name="Path 2376" d="M-2844.063,165.881a.121.121,0,0,1-.036.094.128.128,0,0,1-.088.031h-.885a.145.145,0,0,1-.094-.031.119.119,0,0,1-.037-.094v-3.919a.131.131,0,0,1,.037-.089.123.123,0,0,1,.094-.041h.885a.11.11,0,0,1,.088.041.132.132,0,0,1,.036.089Z" transform="translate(2864.033 -141.108)" fill="#cb007b"/>
        <path id="Path_2377" data-name="Path 2377" d="M-2837.362,165.881a.13.13,0,0,1-.035.094.143.143,0,0,1-.095.031h-.883a.109.109,0,0,1-.122-.125v-2.557a.6.6,0,0,0-.065-.325c-.044-.063-.143-.094-.3-.094h-1.51a.114.114,0,0,1-.089-.037.117.117,0,0,1-.033-.084v-.821a.136.136,0,0,1,.033-.089.109.109,0,0,1,.089-.041h1.929a1.17,1.17,0,0,1,.806.244.978.978,0,0,1,.273.765Z" transform="translate(2860.719 -141.108)" fill="#cb007b"/>
        <path id="Path_2378" data-name="Path 2378" d="M-2825.5,164.339a3.174,3.174,0,0,1-.079.765,1.181,1.181,0,0,1-.26.514,1.034,1.034,0,0,1-.479.293,2.476,2.476,0,0,1-.735.094h-1.339a.109.109,0,0,1-.123-.124v-.8a.152.152,0,0,1,.031-.1.114.114,0,0,1,.091-.039h.876q.287,0,.462-.014a.507.507,0,0,0,.267-.082.344.344,0,0,0,.121-.222,2.547,2.547,0,0,0,.028-.435v-.448a3.239,3.239,0,0,0-.021-.393.523.523,0,0,0-.1-.257.43.43,0,0,0-.222-.141,1.5,1.5,0,0,0-.408-.043h-1.078a.127.127,0,0,1-.086-.033.107.107,0,0,1-.037-.088v-.821a.127.127,0,0,1,.037-.089.112.112,0,0,1,.086-.041h1.518a1.593,1.593,0,0,1,1.06.327,1.293,1.293,0,0,1,.387,1.042Z" transform="translate(2852.34 -141.108)" fill="#cb007b"/>
        <path id="Path_2379" data-name="Path 2379" d="M-2814.9,162.753a.219.219,0,0,1-.022.112c-.015.027-.048.041-.1.041h-.389a.767.767,0,0,0-.269.453,1.5,1.5,0,0,0-.013.582l.362,1.941a.1.1,0,0,1-.03.094.141.141,0,0,1-.092.031h-.9a.11.11,0,0,1-.124-.125l-.3-1.728a1.883,1.883,0,0,1-.035-.3,1.824,1.824,0,0,1,.016-.331,1.43,1.43,0,0,1,.09-.327,1.017,1.017,0,0,1,.181-.289h-.644a.109.109,0,0,1-.087-.037.119.119,0,0,1-.032-.084v-.821a.134.134,0,0,1,.032-.093.106.106,0,0,1,.087-.038h2.148a.1.1,0,0,1,.08.038.169.169,0,0,1,.042.072Z" transform="translate(2844.386 -141.108)" fill="#cb007b"/>
      </g>
      <g id="StartAch_logo" data-name="StartAch logo" transform="translate(0 0.276)">
        <path id="Path_2647" data-name="Path 2647" d="M3.668,108.052A.7.7,0,0,1,3.382,108a.456.456,0,0,1-.18-.138.592.592,0,0,1-.1-.2.835.835,0,0,1-.032-.233l-.022-2.248a.4.4,0,0,0-.1-.322.4.4,0,0,0-.255-.081H1.6l-.059,2.694a.61.61,0,0,1-.16.407.578.578,0,0,1-.452.168.592.592,0,0,1-.45-.164.551.551,0,0,1-.146-.411l.1-2.706a.414.414,0,0,1-.2-.045.339.339,0,0,1-.126-.12.513.513,0,0,1-.065-.176,1.109,1.109,0,0,1-.018-.2,1,1,0,0,1,.022-.2.519.519,0,0,1,.081-.2.507.507,0,0,1,.148-.142.436.436,0,0,1,.237-.057H3.05a1.428,1.428,0,0,1,.245.032,1.993,1.993,0,0,1,.274.081.827.827,0,0,1,.257.152.987.987,0,0,1,.229.251,1.07,1.07,0,0,1,.124.292,2.1,2.1,0,0,1,.057.324q.016.168.016.353l.022,2.3a.642.642,0,0,1-.148.446.551.551,0,0,1-.458.182Z" transform="translate(-0.03 -83.329)" fill="#231f20"/>
        <path id="Path_2648" data-name="Path 2648" d="M24.525,106.318h.1a.4.4,0,0,1,.341.18.7.7,0,0,1,.12.395.592.592,0,0,1-.14.395.45.45,0,0,1-.363.168H23.8a.4.4,0,0,1-.345-.2.833.833,0,0,1-.126-.474,2.835,2.835,0,0,1,.083-.671,2.983,2.983,0,0,1,.245-.657q.093-.176.2-.357l.2-.357q.059-.109.03-.148a.437.437,0,0,0-.083-.081l-.458-.413a1.545,1.545,0,0,1-.2-.213.486.486,0,0,1-.083-.3.671.671,0,0,1,.7-.673.628.628,0,0,1,.3.065.916.916,0,0,1,.213.158L25.7,104.3l.778-1.028a.772.772,0,0,1,.213-.2A.661.661,0,0,1,27.04,103a.5.5,0,0,1,.336.111.535.535,0,0,1,.176.266.748.748,0,0,1,.018.324.549.549,0,0,1-.126.282l-.967,1.127q.395.458.657.809t.44.608a.56.56,0,0,1,.073.148.592.592,0,0,1,.036.2.57.57,0,0,1-.057.264.609.609,0,0,1-.328.29.509.509,0,0,1-.166.034.815.815,0,0,1-.27-.041.6.6,0,0,1-.247-.2l-1.184-1.441-.492-.478a2.235,2.235,0,0,0-.14.219q-.077.134-.148.278t-.12.266a.853.853,0,0,0-.055.182Q24.472,106.318,24.525,106.318Z" transform="translate(-18.672 -82.75)" fill="#231f20"/>
        <path id="Path_2649" data-name="Path 2649" d="M48.715,107.723H47.6a1.612,1.612,0,0,1-.255-.018.483.483,0,0,1-.2-.077.43.43,0,0,1-.138-.164.872.872,0,0,1-.077-.28l-.395-3.273a.592.592,0,0,1,.113-.43.553.553,0,0,1,.44-.225.641.641,0,0,1,.432.111.592.592,0,0,1,.209.415l.32,2.791h.693a1.528,1.528,0,0,0,.446-.061.809.809,0,0,0,.341-.2.865.865,0,0,0,.211-.373,1.94,1.94,0,0,0,.061-.592l-.022-.752a.182.182,0,0,0-.024-.1.049.049,0,0,0-.032-.016H49.3l.016.341a.531.531,0,0,1-.555.626.493.493,0,0,1-.395-.16.559.559,0,0,1-.142-.383l-.022-.7a1.34,1.34,0,0,1,.045-.353.736.736,0,0,1,.148-.286.714.714,0,0,1,.261-.2.93.93,0,0,1,.375-.069h1.026a1.233,1.233,0,0,1,.338.043.689.689,0,0,1,.263.138.639.639,0,0,1,.178.263,1.173,1.173,0,0,1,.065.42l.022,1.2a2.866,2.866,0,0,1-.172,1.094,1.846,1.846,0,0,1-1.2,1.127,2.788,2.788,0,0,1-.839.132Z" transform="translate(-37.284 -83.019)" fill="#14c4ac"/>
        <path id="Path_2650" data-name="Path 2650" d="M73.064,108a.71.71,0,0,1-.282-.049.5.5,0,0,1-.184-.13.488.488,0,0,1-.1-.18.648.648,0,0,1-.03-.2v-2.128a1.029,1.029,0,0,0-.041-.324.4.4,0,0,0-.114-.18.344.344,0,0,0-.17-.075,1.307,1.307,0,0,0-.2-.016H70.634a.566.566,0,0,1-.395-.148.545.545,0,0,1-.164-.424.655.655,0,0,1,.134-.395.493.493,0,0,1,.424-.18H72.3a3.029,3.029,0,0,1,.452.039.959.959,0,0,1,.478.229,1.07,1.07,0,0,1,.237.276,1.2,1.2,0,0,1,.124.306,1.723,1.723,0,0,1,.049.336q0,.176.016.357v2.29a.708.708,0,0,1-.032.211.48.48,0,0,1-.1.182.592.592,0,0,1-.186.134A.633.633,0,0,1,73.064,108Z" transform="translate(-56.144 -83.275)" fill="#14c4ac"/>
        <path id="Path_2651" data-name="Path 2651" d="M90.845,106.35h.1a.4.4,0,0,1,.341.18.7.7,0,0,1,.12.395.592.592,0,0,1-.14.395.45.45,0,0,1-.363.168h-.79a.4.4,0,0,1-.345-.2.833.833,0,0,1-.126-.474,2.835,2.835,0,0,1,.083-.671,2.982,2.982,0,0,1,.245-.657q.093-.176.2-.357l.2-.357q.059-.109.03-.148a.435.435,0,0,0-.075-.079l-.462-.407a1.545,1.545,0,0,1-.2-.213.485.485,0,0,1-.083-.3.671.671,0,0,1,.7-.673.628.628,0,0,1,.3.065.917.917,0,0,1,.213.158l1.226,1.165.778-1.028a.772.772,0,0,1,.213-.2.661.661,0,0,1,.351-.081.5.5,0,0,1,.336.111.535.535,0,0,1,.176.266.749.749,0,0,1,.018.324.549.549,0,0,1-.126.282l-.967,1.127q.395.458.657.809t.44.608a.561.561,0,0,1,.073.148.592.592,0,0,1,.036.2.571.571,0,0,1-.057.265.609.609,0,0,1-.328.29.51.51,0,0,1-.166.034.815.815,0,0,1-.27-.041.6.6,0,0,1-.247-.2l-1.184-1.441-.5-.486a2.232,2.232,0,0,0-.14.219q-.077.134-.148.278t-.118.259a.853.853,0,0,0-.055.182Q90.786,106.35,90.845,106.35Z" transform="translate(-71.764 -82.782)" fill="#14c4ac"/>
        <path id="Path_2652" data-name="Path 2652" d="M115.235,107.723h-1.113a1.612,1.612,0,0,1-.255-.018.483.483,0,0,1-.2-.077.43.43,0,0,1-.138-.164.872.872,0,0,1-.077-.28l-.395-3.273a.592.592,0,0,1,.113-.43.553.553,0,0,1,.44-.225.641.641,0,0,1,.432.111.592.592,0,0,1,.209.415l.32,2.791h.693a1.528,1.528,0,0,0,.446-.061.809.809,0,0,0,.341-.2.865.865,0,0,0,.211-.373,1.94,1.94,0,0,0,.061-.592l-.022-.756a.182.182,0,0,0-.024-.1.049.049,0,0,0-.032-.016h-.417l.016.341a.531.531,0,0,1-.555.626.494.494,0,0,1-.395-.16.559.559,0,0,1-.142-.383l-.022-.7a1.34,1.34,0,0,1,.045-.353.736.736,0,0,1,.148-.286.715.715,0,0,1,.261-.2.93.93,0,0,1,.375-.069h1.028a1.232,1.232,0,0,1,.338.043.689.689,0,0,1,.263.138.64.64,0,0,1,.178.263,1.172,1.172,0,0,1,.065.42l.022,1.2a2.865,2.865,0,0,1-.172,1.094,1.846,1.846,0,0,1-1.2,1.127A2.789,2.789,0,0,1,115.235,107.723Z" transform="translate(-90.537 -83.019)" fill="#14c4ac"/>
        <path id="Path_2653" data-name="Path 2653" d="M136.974,104.727h-.041q-.533,0-.533-.559a1.255,1.255,0,0,1,.016-.172.491.491,0,0,1,.077-.2.529.529,0,0,1,.176-.164.606.606,0,0,1,.314-.069h2.554a2.054,2.054,0,0,1,.444.047.892.892,0,0,1,.371.176.906.906,0,0,1,.259.357,1.7,1.7,0,0,1,.114.592v.5a3.261,3.261,0,0,1-.172,1.184,2.469,2.469,0,0,1-.505.855,2.091,2.091,0,0,1-.734.513,2.23,2.23,0,0,1-.859.172h-.807a.553.553,0,0,1-.395-.116.826.826,0,0,1-.178-.395L136.7,105.9a.728.728,0,0,1-.026-.115q-.012-.069-.028-.142a1.175,1.175,0,0,1-.024-.146v-.116a.76.76,0,0,1,.083-.357A.987.987,0,0,1,136.974,104.727Zm2.546.3a.294.294,0,0,0-.126-.239.4.4,0,0,0-.209-.071h-1.076a.9.9,0,0,0-.268.343.788.788,0,0,0-.037.2.556.556,0,0,0,.016.124,1.11,1.11,0,0,0,.03.15l.3,1.281h.227a1.325,1.325,0,0,0,.395-.069,1.06,1.06,0,0,0,.395-.241,1.161,1.161,0,0,0,.29-.462,1.777,1.777,0,0,0,.077-.726Z" transform="translate(-109.273 -83.271)" fill="#14c4ac"/>
        <path id="Path_2654" data-name="Path 2654" d="M41.44,28.447a30.457,30.457,0,0,0,.807-3.338.567.567,0,0,1,.5-.466l.572-.059a.568.568,0,0,1,.592.74,25.39,25.39,0,0,1-1.433,3.553.57.57,0,0,1-.45.3h0a.568.568,0,0,1-.59-.732Zm.551-8.071a1.132,1.132,0,0,1,1.149-1.206,1.1,1.1,0,0,1,1.111,1.206,1.131,1.131,0,1,1-2.26,0Z" transform="translate(-33.186 -15.376)" fill="#14c4ac"/>
        <path id="Path_2655" data-name="Path 2655" d="M38.086,1.873a4.491,4.491,0,0,0-1.991.237.856.856,0,0,0-.53.534.848.848,0,0,0,1.1,1.067,2.765,2.765,0,0,1,1.3-.146,2.853,2.853,0,0,1,2.377,2.763c-.012,1.309-.145,3.924-6.3,8.348q-.778-.547-1.435-1.062a11.948,11.948,0,0,0,2.277-7.4A4.384,4.384,0,0,0,33.527,3.09a4.442,4.442,0,0,0-7.522,3.353c.04,1.992.693,4.264,4.159,7.355v.012q-.139.13-.295.253l.016-.014c-1.368,1.08-3.751,1.627-7.294,1.627h-.167a3.4,3.4,0,0,1-.567-.061.938.938,0,0,1-.5-.257,1.18,1.18,0,0,1-.267-.541,3.888,3.888,0,0,1-.086-.9V12.363q0-2.983-1.593-3.711V8.64q1.593-.726,1.593-3.711V3.375a3.763,3.763,0,0,1,.086-.892,1.163,1.163,0,0,1,.267-.531.936.936,0,0,1,.5-.257l.05-.01A.874.874,0,1,0,21.64-.041q-.237.034-.454.079a2.4,2.4,0,0,0-1.071.5,2.435,2.435,0,0,0-.7,1.015,4.575,4.575,0,0,0-.249,1.63V4.96a4.4,4.4,0,0,1-.4,2.114,1.276,1.276,0,0,1-.661.527,1.107,1.107,0,0,0-.7,1.042A1.125,1.125,0,0,0,18.14,9.7l.092.038a1.191,1.191,0,0,1,.545.486,2.551,2.551,0,0,1,.3.863,7.687,7.687,0,0,1,.1,1.326v1.777a4.579,4.579,0,0,0,.221,1.526,2.276,2.276,0,0,0,.651.987,2.5,2.5,0,0,0,1.069.535,5.821,5.821,0,0,0,1.294.134h.167c4.38,0,7.24-.849,8.887-2.463.611.484,1.288.987,2.041,1.512l.488.34h0l.488-.34a22.049,22.049,0,0,0,6.358-6,7.371,7.371,0,0,0,1.194-3.989A4.475,4.475,0,0,0,38.086,1.873ZM31.289,12.5h-.012C27.817,9.38,27.718,7.42,27.714,6.34a2.773,2.773,0,0,1,2.574-2.793,2.741,2.741,0,0,1,2.024.736,2.693,2.693,0,0,1,.853,1.963v.079A10.19,10.19,0,0,1,31.289,12.5Z" transform="translate(-13.979 0.052)" fill="#231f20"/>
      </g>
    </g>
  </g>
</svg>
