<svg xmlns="http://www.w3.org/2000/svg" xmlns:xlink="http://www.w3.org/1999/xlink" width="203.431" height="306.767" viewBox="0 0 203.431 306.767">
  <defs>
    <linearGradient id="linear-gradient" x1="0.697" y1="0.014" x2="0.415" y2="0.943" gradientUnits="objectBoundingBox">
      <stop offset="0" stop-color="#4d4d4d"/>
      <stop offset="1"/>
    </linearGradient>
    <clipPath id="clip-path">
      <rect id="Rectangle_690" data-name="Rectangle 690" width="30.335" height="32.721" fill="none"/>
    </clipPath>
    <clipPath id="clip-path-2">
      <path id="a" d="M99.943,107.757a10.838,10.838,0,0,1-8.922,5.576,10.717,10.717,0,0,1-1.349.005,10.938,10.938,0,0,1-9.1-15.386C81.938,92.626,87.889,83.3,87.889,83.3a5.51,5.51,0,0,1,1.81-2.35,2.008,2.008,0,0,1,1.888-.265,3.563,3.563,0,0,1,1.769,2l5.861,12.989c.934,1.976,2.044,3.885,2.085,6.245A10.765,10.765,0,0,1,99.943,107.757Z" transform="translate(-79.564 -80.554)" fill="#cb007b"/>
    </clipPath>
  </defs>
  <g id="img-Onboarding_1" data-name="img-Onboarding 1" transform="translate(-42.879 14.892)">
    <path id="bg" d="M270.145,334.949A101.358,101.358,0,0,1,186.709,387.1a100.208,100.208,0,0,1-12.614.049C105.507,382.875,58.6,307.055,89.011,243.262c12.756-49.814,68.4-137.04,68.4-137.04,4.752-10.38,10.67-17.854,16.928-21.976,5.819-3.783,11.886-4.752,17.656-2.475,6.159,2.383,11.936,8.492,16.546,18.681l54.813,121.47c8.732,18.483,19.112,36.33,19.5,58.405A100.673,100.673,0,0,1,270.145,334.949Z" transform="translate(-36.685 -95.446)" fill="#fd8ad0" opacity="0.15"/>
    <path id="Path_2575" data-name="Path 2575" d="M581.555,143.548h-1.529v-41.9A24.249,24.249,0,0,0,555.777,77.4H467.013a24.249,24.249,0,0,0-24.249,24.249V331.5a24.249,24.249,0,0,0,24.249,24.249h88.764A24.249,24.249,0,0,0,580.026,331.5V173.371h1.529Z" transform="translate(-368.274 -77.403)" fill="#515151"/>
    <path id="Path_2576" data-name="Path 2576" d="M585.669,112.007V341.518a18.11,18.11,0,0,1-18.109,18.109H478.37a18.11,18.11,0,0,1-18.11-18.109V112.007A18.11,18.11,0,0,1,478.369,93.9h10.82a8.608,8.608,0,0,0,7.967,11.852h50.852A8.608,8.608,0,0,0,555.975,93.9h11.585a18.11,18.11,0,0,1,18.109,18.109Z" transform="translate(-379.079 -87.589)" fill="#fff"/>
    <path id="Path_2632" data-name="Path 2632" d="M0,0H69.4L0,262.068Z" transform="translate(74.094 1.907)" fill="url(#linear-gradient)" style="mix-blend-mode: color-dodge;isolation: isolate"/>
    <g id="Group_670" data-name="Group 670" transform="translate(-63.537 -55.093)">
      <g id="_1" data-name="1" transform="translate(214.885 270.101)" clip-path="url(#clip-path)">
        <path id="Path_2367" data-name="Path 2367" d="M-2895.128,98.415l.535-.6-.482-.446-.343.383a.346.346,0,0,0-.077.126.217.217,0,0,0,0,.114.275.275,0,0,0,.055.109.842.842,0,0,0,.1.11Zm-.027-1.242a.082.082,0,0,1,.132-.007l.623.576a.086.086,0,0,1,.007.137l-.655.733a.084.084,0,0,1-.135.007l-.264-.244a1.276,1.276,0,0,1-.164-.183.485.485,0,0,1-.084-.182.365.365,0,0,1,.012-.187.567.567,0,0,1,.124-.2Zm-.931.531a.036.036,0,0,1-.026.009.029.029,0,0,1-.024-.01l-.357-.393a.743.743,0,0,1-.09-.122.317.317,0,0,1-.042-.128.28.28,0,0,1,.025-.137.485.485,0,0,1,.114-.148l.563-.53a.029.029,0,0,1,.047,0l.081.089a.037.037,0,0,1,.01.024.032.032,0,0,1-.013.025l-.525.494a.834.834,0,0,0-.072.075.179.179,0,0,0-.037.069.1.1,0,0,0,.01.071.366.366,0,0,0,.064.09l.361.391a.035.035,0,0,1,.008.025.037.037,0,0,1-.012.027Zm.661-.91a.03.03,0,0,1,.049,0l.079.087a.031.031,0,0,1,0,.05l-.418.393a.031.031,0,0,1-.05,0l-.079-.088a.031.031,0,0,1,0-.049Zm-1.17-.628a.029.029,0,0,1,.027-.006.042.042,0,0,1,.021.013l.07.1a.042.042,0,0,1,.009.027.033.033,0,0,1-.012.025l-.488.37a.032.032,0,0,1-.027.006.036.036,0,0,1-.025-.015l-.071-.1a.035.035,0,0,1,0-.026.035.035,0,0,1,.014-.025Zm-.386-1.441a.031.031,0,0,1,.029,0,.046.046,0,0,1,.021.018l.063.1a.041.041,0,0,1,.008.027.032.032,0,0,1-.016.025l-.644.438a.17.17,0,0,0-.087.113.237.237,0,0,0,.049.14l.208.318.737-.5a.081.081,0,0,1,.128.024l.148.225a.031.031,0,0,1-.01.048l-.1.065a.029.029,0,0,1-.046-.01l-.094-.143-.662.45.07.108a.031.031,0,0,1-.011.048l-.094.064a.035.035,0,0,1-.026.006.027.027,0,0,1-.023-.014l-.423-.645a.3.3,0,0,1-.052-.241.346.346,0,0,1,.151-.2Zm-.241-.419a.029.029,0,0,1,.029,0,.037.037,0,0,1,.018.017l.054.105a.045.045,0,0,1,0,.029.029.029,0,0,1-.018.023l-.967.517a.034.034,0,0,1-.027,0,.034.034,0,0,1-.022-.02l-.055-.1a.032.032,0,0,1,0-.027.037.037,0,0,1,.016-.023Zm-.559-1.187a.03.03,0,0,1,.027,0,.041.041,0,0,1,.019.02l.048.107a.044.044,0,0,1,0,.028.033.033,0,0,1-.02.02l-.65.306a1,1,0,0,0-.091.048.156.156,0,0,0-.056.052.115.115,0,0,0-.013.073.374.374,0,0,0,.034.1l.186.411.858-.4a.03.03,0,0,1,.028,0,.038.038,0,0,1,.018.017l.05.109a.048.048,0,0,1,0,.029.031.031,0,0,1-.019.021l-.992.465a.027.027,0,0,1-.028,0,.031.031,0,0,1-.021-.02l-.25-.549a.742.742,0,0,1-.048-.145.33.33,0,0,1,0-.137.265.265,0,0,1,.066-.124.453.453,0,0,1,.151-.1Zm-.737-.5a.033.033,0,0,1,.029,0,.04.04,0,0,1,.019.023l.086.259a.124.124,0,0,1,.007.07.073.073,0,0,1-.025.043.127.127,0,0,1-.045.027l-.052.019-.444.156a.036.036,0,0,1-.026,0,.031.031,0,0,1-.019-.021l-.164-.49a.439.439,0,0,1-.01-.305.367.367,0,0,1,.24-.189l.308-.107a1.066,1.066,0,0,1,.208-.051.332.332,0,0,1,.157.016.266.266,0,0,1,.119.1.694.694,0,0,1,.091.187l.15.452c.008.024,0,.04-.02.048l-.109.038c-.021.007-.036,0-.044-.026l-.145-.435a.447.447,0,0,0-.055-.12.143.143,0,0,0-.067-.056.162.162,0,0,0-.091-.005,1.052,1.052,0,0,0-.127.037l-.268.092c-.041.014-.073.027-.1.04a.149.149,0,0,0-.06.048.114.114,0,0,0-.017.073.442.442,0,0,0,.026.115l.11.331.278-.1-.062-.187a.033.033,0,0,1,.021-.048Zm-.512-1.994a.834.834,0,0,1,.26-.027.4.4,0,0,1,.192.065.421.421,0,0,1,.135.156,1.021,1.021,0,0,1,.091.25,1.3,1.3,0,0,1,.04.276.509.509,0,0,1-.038.215.39.39,0,0,1-.127.156.655.655,0,0,1-.23.1l-.625.156a.033.033,0,0,1-.027-.006.038.038,0,0,1-.017-.025l-.028-.111a.034.034,0,0,1,.005-.028.032.032,0,0,1,.022-.017l.614-.153a.46.46,0,0,0,.173-.077.234.234,0,0,0,.079-.116.374.374,0,0,0,.01-.15,1.359,1.359,0,0,0-.033-.179.883.883,0,0,0-.051-.159.273.273,0,0,0-.082-.11.278.278,0,0,0-.132-.05.575.575,0,0,0-.2.021l-.578.144a.047.047,0,0,1-.026,0,.026.026,0,0,1-.017-.02l-.03-.122a.029.029,0,0,1,.006-.026.053.053,0,0,1,.023-.013Zm.235.48a.031.031,0,0,1,.027.005.034.034,0,0,1,.015.021l.028.116a.036.036,0,0,1,0,.027.033.033,0,0,1-.022.015l-.7.175a.034.034,0,0,1-.026,0,.032.032,0,0,1-.018-.022l-.028-.115a.034.034,0,0,1,.006-.026.032.032,0,0,1,.021-.017Zm-.043-1.968a.217.217,0,0,1,.14.025.122.122,0,0,1,.057.1l.035.436a.042.042,0,0,1-.007.027.031.031,0,0,1-.025.013l-.115.009a.034.034,0,0,1-.026-.008.042.042,0,0,1-.011-.025l-.027-.329c0-.029-.01-.046-.026-.05a.3.3,0,0,0-.076,0l-.51.043a.3.3,0,0,0-.1.021.114.114,0,0,0-.052.044.142.142,0,0,0-.018.065.529.529,0,0,0,0,.083l.014.172a.541.541,0,0,0,.009.065.144.144,0,0,0,.025.051.128.128,0,0,0,.046.035.244.244,0,0,0,.078.019l.819.074a.023.023,0,0,1,.02.016c0,.009,0,.018,0,.028l.011.145a.017.017,0,0,1-.014.02.064.064,0,0,1-.03,0l-.68-.081-.334.255a.035.035,0,0,1-.025.009.031.031,0,0,1-.022-.011l-.072-.114a.038.038,0,0,1,0-.052l.239-.165-.1-.029a.234.234,0,0,1-.123-.081.283.283,0,0,1-.046-.146l-.023-.287a.324.324,0,0,1,.01-.116.249.249,0,0,1,.048-.1.266.266,0,0,1,.089-.072.358.358,0,0,1,.127-.034Zm-.352-1.05a.028.028,0,0,1,.025.012.033.033,0,0,1,.009.023v.12a.04.04,0,0,1-.01.027.029.029,0,0,1-.024.012l-.609,0a.035.035,0,0,1-.025-.012.04.04,0,0,1-.011-.027v-.12a.031.031,0,0,1,.012-.023.032.032,0,0,1,.025-.012Zm.493-.8a.083.083,0,0,1,.083.1l-.048.437a.03.03,0,0,1-.038.03l-.114-.012c-.023,0-.032-.015-.031-.039l.037-.341-.668-.075a.309.309,0,0,0-.047,0,.116.116,0,0,0-.041.009.059.059,0,0,0-.03.028.145.145,0,0,0-.016.057l-.018.168a.034.034,0,0,1-.011.023.034.034,0,0,1-.026.007l-.113-.012a.038.038,0,0,1-.024-.013.035.035,0,0,1-.008-.026l.02-.193a.268.268,0,0,1,.094-.2.313.313,0,0,1,.219-.039Zm-1.014-.377a.042.042,0,0,1-.023-.013.033.033,0,0,1-.007-.027l.052-.36a.7.7,0,0,1,.038-.154.313.313,0,0,1,.074-.117.263.263,0,0,1,.121-.067.445.445,0,0,1,.185,0l.608.09.016-.114a.028.028,0,0,1,.014-.024.03.03,0,0,1,.024-.006l.114.016a.032.032,0,0,1,.029.041l-.124.866a.03.03,0,0,1-.039.029l-.114-.017a.038.038,0,0,1-.021-.013.032.032,0,0,1-.007-.027l.081-.565-.561-.083a.281.281,0,0,0-.179.019.217.217,0,0,0-.079.165l-.046.35a.033.033,0,0,1-.014.025.039.039,0,0,1-.027,0Zm1.29-1.163a.029.029,0,0,1,.022.016.041.041,0,0,1,0,.025l-.024.117a.042.042,0,0,1-.013.025.03.03,0,0,1-.028.006l-1.072-.217a.039.039,0,0,1-.022-.017.031.031,0,0,1-.006-.029l.022-.117a.037.037,0,0,1,.016-.021.036.036,0,0,1,.027-.006Zm.643-.887a.032.032,0,0,1,.02.019.044.044,0,0,1,0,.025l-.035.114a.046.046,0,0,1-.016.024.026.026,0,0,1-.026,0l-1.418-.447a.037.037,0,0,1-.02-.02.034.034,0,0,1,0-.029l.035-.114a.031.031,0,0,1,.018-.02.038.038,0,0,1,.027,0Zm-.252-1.561a.745.745,0,0,1,.2.128.337.337,0,0,1,.1.15.379.379,0,0,1,.006.182,1.3,1.3,0,0,1-.069.223,1.323,1.323,0,0,1-.107.205.406.406,0,0,1-.13.131.321.321,0,0,1-.172.044.613.613,0,0,1-.229-.056l-.651-.271a.037.037,0,0,1-.019-.018.03.03,0,0,1,0-.028l.044-.111a.032.032,0,0,1,.019-.018.032.032,0,0,1,.028,0l.654.273a.408.408,0,0,0,.14.036.174.174,0,0,0,.1-.026.266.266,0,0,0,.078-.087,1.107,1.107,0,0,0,.07-.146.94.94,0,0,0,.05-.157.264.264,0,0,0,0-.118.181.181,0,0,0-.056-.089.5.5,0,0,0-.125-.072l-.513-.213-.071.174.174.294a.033.033,0,0,1-.012.051l-.1.059a.032.032,0,0,1-.028.006.038.038,0,0,1-.021-.02l-.2-.328a.185.185,0,0,1-.014-.042.084.084,0,0,1,.006-.047l.125-.31a.082.082,0,0,1,.123-.049Zm.805-.774a.03.03,0,0,1,.014.047l-.056.105a.035.035,0,0,1-.019.017.032.032,0,0,1-.027,0l-.682-.373a.172.172,0,0,0-.138-.027.209.209,0,0,0-.1.1l-.2.377a.03.03,0,0,1-.046.014l-.1-.055a.038.038,0,0,1-.018-.02.029.029,0,0,1,0-.028l.227-.43a.282.282,0,0,1,.186-.16.339.339,0,0,1,.241.044Zm-.56-.929.461.308c.091.061.164.079.218.056h0a.531.531,0,0,0,.168-.19.528.528,0,0,0,.1-.231.184.184,0,0,0-.034-.09.369.369,0,0,0-.1-.092l-.459-.309Zm.917-.4a.6.6,0,0,1,.158.152.337.337,0,0,1,.059.164.668.668,0,0,1-.133.36.653.653,0,0,1-.271.267.39.39,0,0,1-.371-.077l-.538-.359a.084.084,0,0,1-.03-.13l.456-.709a.083.083,0,0,1,.132-.027Zm.56-.929a.026.026,0,0,1,.012.025.036.036,0,0,1-.007.024l-.075.093a.043.043,0,0,1-.023.016.028.028,0,0,1-.027-.007l-.471-.392a.034.034,0,0,1-.012-.025.035.035,0,0,1,.008-.029l.074-.093a.031.031,0,0,1,.023-.01.033.033,0,0,1,.026.007Zm.808-.8a.676.676,0,0,1,.111.144.42.42,0,0,1,.056.157.359.359,0,0,1-.013.16.384.384,0,0,1-.095.154l-.131.137a.039.039,0,0,1-.025.012.03.03,0,0,1-.026-.011l-.082-.082a.03.03,0,0,1-.011-.025.036.036,0,0,1,.012-.026l.122-.127a.219.219,0,0,0,.063-.106.185.185,0,0,0,0-.1.282.282,0,0,0-.046-.086.77.77,0,0,0-.062-.071l-.365-.361-.407.426a.083.083,0,0,1-.135,0l-.322-.32a.03.03,0,0,1-.01-.026.041.041,0,0,1,.013-.026l.079-.083a.041.041,0,0,1,.024-.013.031.031,0,0,1,.026.011l.256.254.409-.428a.082.082,0,0,1,.132,0Zm.649-.029a.03.03,0,0,1,.01.027.043.043,0,0,1-.011.022l-.087.082a.042.042,0,0,1-.026.013.032.032,0,0,1-.026-.011l-.742-.817a.038.038,0,0,1-.008-.027.038.038,0,0,1,.012-.027l.087-.081a.028.028,0,0,1,.025-.007.033.033,0,0,1,.025.011Zm.986-.845a.032.032,0,0,1,.008.026.038.038,0,0,1-.013.024l-.089.075a.042.042,0,0,1-.026.011.039.039,0,0,1-.025-.014l-.457-.56a.845.845,0,0,0-.07-.078.149.149,0,0,0-.063-.04.113.113,0,0,0-.073,0,.364.364,0,0,0-.091.061l-.342.288.6.74a.029.029,0,0,1,.008.027.037.037,0,0,1-.012.023l-.09.077a.045.045,0,0,1-.026.011.03.03,0,0,1-.025-.014l-.7-.855a.035.035,0,0,1-.008-.026.035.035,0,0,1,.014-.026l.457-.387a.68.68,0,0,1,.123-.085.319.319,0,0,1,.131-.036.251.251,0,0,1,.135.033.445.445,0,0,1,.138.121Zm.356-1.395.419.688.554-.348-.268-.441a.343.343,0,0,0-.1-.109.214.214,0,0,0-.107-.037.258.258,0,0,0-.118.024.882.882,0,0,0-.131.069Zm1.181.315a.086.086,0,0,1-.03.132l-.717.451a.083.083,0,0,1-.13-.031l-.512-.842a.087.087,0,0,1,.031-.134l.3-.191a1.163,1.163,0,0,1,.217-.11.457.457,0,0,1,.2-.032.348.348,0,0,1,.174.063.579.579,0,0,1,.155.177Zm.258-.58a.03.03,0,0,1,0,.027.032.032,0,0,1-.017.019l-.106.051a.039.039,0,0,1-.028,0,.028.028,0,0,1-.021-.017l-.265-.558a.033.033,0,0,1,0-.028.038.038,0,0,1,.019-.022l.106-.051a.027.027,0,0,1,.026,0,.03.03,0,0,1,.02.017Zm.842-.918c.009.024,0,.041-.018.05l-.116.05.365.887a.03.03,0,0,1-.018.046l-.109.047a.03.03,0,0,1-.044-.019l-.365-.887-.49.209c-.02.009-.035,0-.044-.02l-.044-.106a.044.044,0,0,1,0-.028.029.029,0,0,1,.018-.02l.78-.332a.031.031,0,0,1,.026,0,.028.028,0,0,1,.017.015Zm1.223.181a.674.674,0,0,1,.032.18.435.435,0,0,1-.023.165.357.357,0,0,1-.085.137.4.4,0,0,1-.155.09l-.18.058a.033.033,0,0,1-.028,0,.034.034,0,0,1-.018-.022l-.035-.112a.032.032,0,0,1,0-.027.045.045,0,0,1,.023-.017l.167-.055a.211.211,0,0,0,.1-.063.2.2,0,0,0,.041-.088.32.32,0,0,0,0-.1.767.767,0,0,0-.023-.093l-.155-.493-.556.181a.085.085,0,0,1-.12-.062l-.138-.438a.032.032,0,0,1,0-.028.042.042,0,0,1,.023-.017l.108-.035a.041.041,0,0,1,.027,0,.034.034,0,0,1,.018.022l.108.346.559-.182a.082.082,0,0,1,.115.065Zm.468-.162a.029.029,0,0,1,0,.028.032.032,0,0,1-.02.015l-.115.03a.037.037,0,0,1-.028,0,.029.029,0,0,1-.018-.022l-.154-.6a.033.033,0,0,1,0-.027.037.037,0,0,1,.023-.018l.114-.03a.03.03,0,0,1,.025,0,.036.036,0,0,1,.018.022Zm.18-.7a.044.044,0,0,1,.005-.026.028.028,0,0,1,.024-.015l.353-.055a.652.652,0,0,1,.156-.008.3.3,0,0,1,.131.038.275.275,0,0,1,.1.1.491.491,0,0,1,.058.178l.093.618.111-.017a.035.035,0,0,1,.027.007.037.037,0,0,1,.012.022l.018.116a.031.031,0,0,1-.029.04l-.85.133a.03.03,0,0,1-.039-.029l-.018-.116a.038.038,0,0,1,.005-.024.032.032,0,0,1,.024-.015l.555-.087-.086-.57a.289.289,0,0,0-.07-.168.206.206,0,0,0-.178-.029l-.343.058a.038.038,0,0,1-.027-.007.044.044,0,0,1-.012-.025Zm1.72-.217a.035.035,0,0,1,.009-.026.03.03,0,0,1,.023-.013l.525-.035a.7.7,0,0,1,.15.006.316.316,0,0,1,.125.047.269.269,0,0,1,.089.107.487.487,0,0,1,.042.183l.05.779c0,.024-.01.037-.031.038l-.118.007a.032.032,0,0,1-.025-.006.032.032,0,0,1-.011-.026l-.047-.726a.97.97,0,0,0-.012-.105.178.178,0,0,0-.029-.071.11.11,0,0,0-.061-.038.36.36,0,0,0-.109-.006l-.525.039a.037.037,0,0,1-.025-.01.036.036,0,0,1-.012-.026Zm.278,1.1a.031.031,0,0,1-.032.038l-.117.007c-.022,0-.035-.009-.037-.032l-.036-.578a.031.031,0,0,1,.032-.038l.117-.008a.031.031,0,0,1,.037.033Zm1.82-.411a1.061,1.061,0,0,1-.028.216.349.349,0,0,1-.071.144.273.273,0,0,1-.132.078.663.663,0,0,1-.2.019l-.358-.014c-.024,0-.036-.013-.034-.037l0-.117c0-.023.013-.033.037-.032l.339.013a.46.46,0,0,0,.13-.008.143.143,0,0,0,.077-.044.165.165,0,0,0,.036-.084.99.99,0,0,0,.012-.132l.011-.3q0-.063,0-.109a.162.162,0,0,0-.023-.074.115.115,0,0,0-.062-.042.4.4,0,0,0-.115-.016l-.4-.017a.029.029,0,0,1-.024-.011.045.045,0,0,1-.007-.027l0-.117a.045.045,0,0,1,.009-.025.027.027,0,0,1,.026-.011l.409.017a.4.4,0,0,1,.282.1.386.386,0,0,1,.087.3Zm.5.008a.032.032,0,0,1-.015.023.033.033,0,0,1-.024.006l-.117-.016a.042.042,0,0,1-.025-.013.03.03,0,0,1-.008-.026l.077-.615a.035.035,0,0,1,.015-.023.036.036,0,0,1,.028-.008l.116.016a.03.03,0,0,1,.022.014.037.037,0,0,1,.009.026Zm1.31.594a.225.225,0,0,1-.06.132.115.115,0,0,1-.109.028l-.424-.078a.041.041,0,0,1-.024-.013.035.035,0,0,1-.006-.028l.02-.115a.031.031,0,0,1,.015-.024.039.039,0,0,1,.027,0l.318.059c.028.005.046,0,.053-.013a.283.283,0,0,0,.021-.074l.092-.512a.329.329,0,0,0,0-.1.12.12,0,0,0-.028-.063.13.13,0,0,0-.058-.035.622.622,0,0,0-.078-.02l-.167-.03a.355.355,0,0,0-.063-.007.117.117,0,0,0-.054.01.129.129,0,0,0-.046.037.234.234,0,0,0-.038.072l-.283.786c0,.01-.011.016-.02.015a.11.11,0,0,1-.028,0l-.141-.025a.017.017,0,0,1-.014-.02.063.063,0,0,1,.007-.03l.252-.648-.156-.394a.041.041,0,0,1,0-.028.033.033,0,0,1,.015-.019l.127-.041a.035.035,0,0,1,.047.019l.1.278.053-.089a.237.237,0,0,1,.108-.1.273.273,0,0,1,.15-.006l.279.05a.324.324,0,0,1,.107.04.259.259,0,0,1,.081.074.275.275,0,0,1,.044.106.323.323,0,0,1,0,.133Zm1.263.571a.034.034,0,0,1-.019.022.044.044,0,0,1-.028,0l-.108-.036a.044.044,0,0,1-.023-.017.034.034,0,0,1,0-.029l.243-.749a.165.165,0,0,0,0-.143.219.219,0,0,0-.122-.08l-.357-.12-.278.858a.081.081,0,0,1-.115.06l-.252-.085a.031.031,0,0,1-.021-.044l.036-.111a.029.029,0,0,1,.042-.022l.161.054.25-.769-.121-.04a.031.031,0,0,1-.021-.044l.035-.11a.039.039,0,0,1,.016-.021.029.029,0,0,1,.027,0l.723.243a.285.285,0,0,1,.187.157.353.353,0,0,1,0,.25Zm.417.185a.032.032,0,0,1-.019.021.042.042,0,0,1-.025,0l-.11-.043a.05.05,0,0,1-.023-.019.036.036,0,0,1,0-.029l.4-1.037a.039.039,0,0,1,.02-.02.042.042,0,0,1,.029,0l.109.043a.032.032,0,0,1,.017.02.037.037,0,0,1,0,.029Z" transform="translate(2902.56 -75.031)" fill="#cb007b"/>
        <path id="Path_2368" data-name="Path 2368" d="M-2838.6,79.706a.035.035,0,0,1,.014-.022.02.02,0,0,1,.023,0l.111.064a.027.027,0,0,1,.017.021.066.066,0,0,1,0,.029l-.254.956.086.049a.227.227,0,0,0,.118.035.177.177,0,0,0,.092-.03.278.278,0,0,0,.071-.066.71.71,0,0,0,.051-.08l.321-.588a.037.037,0,0,1,.021-.019.033.033,0,0,1,.028,0l.1.059a.038.038,0,0,1,.015.02.035.035,0,0,1,0,.029l-.324.588a.656.656,0,0,1-.109.146.437.437,0,0,1-.136.094.345.345,0,0,1-.156.03.376.376,0,0,1-.169-.053l-.469-.267a.03.03,0,0,1-.013-.047l.057-.1a.03.03,0,0,1,.046-.014l.207.118Zm.678,1.693a.029.029,0,0,1-.024.016.036.036,0,0,1-.023,0l-.1-.064a.04.04,0,0,1-.017-.022.032.032,0,0,1,0-.029l.583-.94a.034.034,0,0,1,.023-.016.034.034,0,0,1,.029,0l.1.064a.034.034,0,0,1,.014.023.035.035,0,0,1,0,.027Zm.66-.128a.029.029,0,0,1-.024.013.031.031,0,0,1-.024-.006l-.1-.069a.042.042,0,0,1-.017-.023.031.031,0,0,1,0-.027l.352-.505a.03.03,0,0,1,.023-.014.035.035,0,0,1,.029.006l.1.069a.032.032,0,0,1,.012.023.04.04,0,0,1,0,.027Zm.681-.055-.341.441c-.068.087-.093.159-.073.216v0a.533.533,0,0,0,.171.187.516.516,0,0,0,.218.124.165.165,0,0,0,.09-.027.348.348,0,0,0,.1-.094l.343-.438Zm.311.965a.582.582,0,0,1-.163.147.318.318,0,0,1-.166.045.634.634,0,0,1-.34-.166.641.641,0,0,1-.238-.3.406.406,0,0,1,.107-.369l.4-.514a.081.081,0,0,1,.13-.02l.653.525a.087.087,0,0,1,.016.136Zm.829.745a.677.677,0,0,1-.139.115.42.42,0,0,1-.153.06.355.355,0,0,1-.159-.011.383.383,0,0,1-.153-.094l-.137-.132a.035.035,0,0,1-.013-.024.031.031,0,0,1,.01-.027l.078-.085a.028.028,0,0,1,.025-.011.035.035,0,0,1,.025.011l.127.123a.212.212,0,0,0,.1.062.18.18,0,0,0,.1-.006.263.263,0,0,0,.083-.048c.026-.022.048-.043.069-.065l.348-.377-.424-.408a.086.086,0,0,1-.005-.137l.31-.335a.031.031,0,0,1,.025-.011.04.04,0,0,1,.025.013l.083.08a.037.037,0,0,1,.013.024.035.035,0,0,1-.01.026l-.245.265.427.409a.084.084,0,0,1,0,.133Zm1.324.759c-.021.016-.039.015-.052,0l-.066-.087a.214.214,0,0,0-.146.011.359.359,0,0,0-.133.105l-.454.49a.022.022,0,0,1-.025.01.046.046,0,0,1-.023-.016l-.072-.094a.047.047,0,0,1-.009-.028.034.034,0,0,1,.015-.024l.418-.437a.784.784,0,0,1,.059-.061.528.528,0,0,1,.076-.054.45.45,0,0,1,.087-.038.307.307,0,0,1,.1-.011l-.131-.173a.033.033,0,0,1-.008-.027.035.035,0,0,1,.013-.024l.09-.071a.034.034,0,0,1,.026-.008.031.031,0,0,1,.024.014l.309.407a.029.029,0,0,1,.007.026.044.044,0,0,1-.01.021Zm.131,1.185a1.031,1.031,0,0,1-.186.108.318.318,0,0,1-.156.028.263.263,0,0,1-.14-.058.725.725,0,0,1-.137-.156l-.2-.3a.033.033,0,0,1,.008-.051l.1-.066c.018-.014.034-.01.048.011l.193.284a.567.567,0,0,0,.085.1.141.141,0,0,0,.081.036.162.162,0,0,0,.087-.021.961.961,0,0,0,.11-.069l.24-.169a.835.835,0,0,0,.084-.066.137.137,0,0,0,.044-.062.118.118,0,0,0,0-.075.432.432,0,0,0-.056-.1l-.226-.333a.028.028,0,0,1-.006-.027.042.042,0,0,1,.017-.022l.095-.067a.051.051,0,0,1,.025-.008.029.029,0,0,1,.024.015l.234.343a.425.425,0,0,1,.088.292.384.384,0,0,1-.183.252Zm.15,1.154a.03.03,0,0,1-.047-.013l-.057-.105a.037.037,0,0,1,0-.025.034.034,0,0,1,.018-.022l.679-.379a.177.177,0,0,0,.1-.1.215.215,0,0,0-.034-.138l-.2-.375a.032.032,0,0,1,.014-.047l.1-.055a.039.039,0,0,1,.026,0,.028.028,0,0,1,.021.016l.23.428a.3.3,0,0,1,.032.246.351.351,0,0,1-.168.181Zm.7,1.206a.222.222,0,0,1-.141.02.12.12,0,0,1-.083-.077l-.166-.4a.04.04,0,0,1,0-.028.033.033,0,0,1,.02-.02l.106-.045a.03.03,0,0,1,.027,0,.034.034,0,0,1,.017.021l.125.3c.012.026.024.04.041.039a.254.254,0,0,0,.072-.023l.471-.2a.3.3,0,0,0,.087-.051.115.115,0,0,0,.036-.059.161.161,0,0,0,0-.068.585.585,0,0,0-.027-.077l-.066-.159a.349.349,0,0,0-.028-.059.135.135,0,0,0-.039-.04.132.132,0,0,0-.055-.018.229.229,0,0,0-.08.007l-.8.186a.019.019,0,0,1-.022-.008.17.17,0,0,1-.013-.025l-.055-.134a.017.017,0,0,1,.007-.022.056.056,0,0,1,.029-.011l.67-.137.24-.347a.041.041,0,0,1,.022-.016.026.026,0,0,1,.023,0l.1.086a.038.038,0,0,1,.011.051l-.177.232.1,0a.226.226,0,0,1,.142.037.28.28,0,0,1,.087.126l.109.265a.335.335,0,0,1,.026.114.261.261,0,0,1-.017.108.273.273,0,0,1-.062.1.339.339,0,0,1-.11.072Zm.97-.042a.037.037,0,0,1,.028,0,.032.032,0,0,1,.018.019l.161.511a.672.672,0,0,1,.03.148.308.308,0,0,1-.015.135.271.271,0,0,1-.08.114.463.463,0,0,1-.165.085l-.73.239a.03.03,0,0,1-.043-.021L-2833,88.3a.034.034,0,0,1,0-.027.033.033,0,0,1,.021-.017l.681-.222a.8.8,0,0,0,.1-.037.158.158,0,0,0,.061-.046.105.105,0,0,0,.021-.069.378.378,0,0,0-.021-.109l-.164-.509a.033.033,0,0,1,0-.026.036.036,0,0,1,.022-.019Zm-.977.54a.03.03,0,0,1-.043-.022l-.036-.114a.032.032,0,0,1,.022-.045l.542-.177a.032.032,0,0,1,.044.023l.035.114a.032.032,0,0,1-.022.045Z" transform="translate(2860.379 -78.238)" fill="#cb007b"/>
        <path id="Path_2369" data-name="Path 2369" d="M-2838.324,112.353l3.776,11.657c.393,1.222.459,2.148-1.625,2.448l5.224-.017c1.482,0,1.732-.644,1.1-1.936l-2.647-5.4c-.678-1.384-.761-1.613.09-2.9l1.822-2.76c.8-1.209.3-1.95-1.034-1.95l-5.8,0c-.812,0-1.2-.049-.9.863" transform="translate(2859.859 -100.18)" fill="#cb007b"/>
        <path id="Path_2370" data-name="Path 2370" d="M-2872.011,93.131l-2.6,4.967-4.554,0c-1.132,0-1.522.659-.864,1.759l2.571,4.291-3.264,6.226c-.348.616-.192,1.374.627,1.374h4.419l3.419-8.2c.416-1.084,1.957-.354,1.385.818l-2.158,5.61c-.709,1.27-.3,1.954,1.035,1.954l4.948,0c1.269,0,1.154-.677.738-1.99l-3.431-10.806a.865.865,0,0,1,1.273-.967c.481.358-.132-.722-.262-1.053l-1.592-4.088c-.392-1.007-1.183-.872-1.692.1" transform="translate(2889.391 -86.966)" fill="#a2d45e"/>
        <path id="Path_2371" data-name="Path 2371" d="M-2907.6,162.948v2.118h1.871v-1.2a1.514,1.514,0,0,0-.067-.5.517.517,0,0,0-.211-.275.874.874,0,0,0-.369-.112c-.149-.015-.332-.025-.545-.032Zm3.043,2.873c0,.235-.114.353-.34.353h-3.531a.308.308,0,0,1-.343-.353v-3.632c0-.237.115-.357.343-.357h1.886a4.034,4.034,0,0,1,.863.083,1.509,1.509,0,0,1,.625.283,1.222,1.222,0,0,1,.378.54,2.481,2.481,0,0,1,.126.853Z" transform="translate(2908.773 -134.906)" fill="#cb007b"/>
        <path id="Path_2372" data-name="Path 2372" d="M-2889.329,166.044a.125.125,0,0,1-.038.1.134.134,0,0,1-.088.033h-.918a.113.113,0,0,1-.126-.13v-2.472c0-.089,0-.17-.008-.247a.4.4,0,0,0-.066-.2.37.37,0,0,0-.193-.133,1.215,1.215,0,0,0-.376-.045h-1.185v3.1a.126.126,0,0,1-.037.1.13.13,0,0,1-.09.033h-.911a.146.146,0,0,1-.1-.033.124.124,0,0,1-.037-.1v-4.076a.136.136,0,0,1,.037-.093.124.124,0,0,1,.1-.043h2.621a2.609,2.609,0,0,1,.549.057,1.1,1.1,0,0,1,.452.209,1.04,1.04,0,0,1,.305.413,1.766,1.766,0,0,1,.11.672Z" transform="translate(2898.153 -134.906)" fill="#cb007b"/>
        <path id="Path_2373" data-name="Path 2373" d="M-2876.7,165.828a.306.306,0,0,1-.346.346h-1.843c-.09,0-.135-.043-.135-.13V165.2a.142.142,0,0,1,.039-.1.124.124,0,0,1,.1-.042h1.023v-1.818a.318.318,0,0,0-.064-.237.418.418,0,0,0-.262-.056h-.444a.128.128,0,0,1-.1-.038.12.12,0,0,1-.037-.088v-.854a.138.138,0,0,1,.037-.092.12.12,0,0,1,.1-.043h.946a.958.958,0,0,1,.77.266,1.224,1.224,0,0,1,.221.8Z" transform="translate(2888.088 -134.906)" fill="#cb007b"/>
        <path id="Path_2374" data-name="Path 2374" d="M-2866.218,165.359a.856.856,0,0,1-.132.515.442.442,0,0,1-.377.177h-1.645c-.078,0-.116-.042-.116-.129v-.835a.18.18,0,0,1,.029-.1.1.1,0,0,1,.087-.041h.77c.109,0,.171-.026.19-.078a1.018,1.018,0,0,0,.026-.273v-1.156c0-.154,0-.274-.006-.357a.246.246,0,0,0-.074-.181.381.381,0,0,0-.212-.064c-.1-.007-.236-.008-.42-.008a.5.5,0,0,0-.413.143,1.1,1.1,0,0,0-.194.408l-.687,2.6c-.009.04-.028.061-.06.066a.569.569,0,0,1-.1.007h-.962a.07.07,0,0,1-.076-.06.222.222,0,0,1,0-.113l.607-2-.954-1.469a.242.242,0,0,1-.039-.164.179.179,0,0,1,.06-.131l.459-.385a.3.3,0,0,1,.214-.07.192.192,0,0,1,.177.1l.483.828.124-.309a.918.918,0,0,1,.323-.43.985.985,0,0,1,.545-.13h1.309a1.179,1.179,0,0,1,.416.072.947.947,0,0,1,.334.212,1.014,1.014,0,0,1,.23.351,1.286,1.286,0,0,1,.085.481Z" transform="translate(2882.495 -134.783)" fill="#cb007b"/>
        <path id="Path_2375" data-name="Path 2375" d="M-2849.257,167.507a.112.112,0,0,1-.037.088.128.128,0,0,1-.09.033h-.911a.147.147,0,0,1-.1-.033.114.114,0,0,1-.037-.088v-5.539a.137.137,0,0,1,.037-.093.125.125,0,0,1,.1-.043h.911a.11.11,0,0,1,.09.043.135.135,0,0,1,.037.093Z" transform="translate(2868.206 -134.906)" fill="#cb007b"/>
        <path id="Path_2376" data-name="Path 2376" d="M-2844.031,166.044a.127.127,0,0,1-.037.1.132.132,0,0,1-.091.033h-.91a.149.149,0,0,1-.1-.033.126.126,0,0,1-.037-.1v-4.076a.139.139,0,0,1,.037-.093.126.126,0,0,1,.1-.043h.91a.114.114,0,0,1,.091.043.139.139,0,0,1,.037.093Z" transform="translate(2864.573 -134.906)" fill="#cb007b"/>
        <path id="Path_2377" data-name="Path 2377" d="M-2837.272,166.044a.134.134,0,0,1-.036.1.145.145,0,0,1-.1.033h-.908c-.083,0-.125-.043-.125-.13v-2.66a.631.631,0,0,0-.067-.338c-.046-.066-.147-.1-.306-.1h-1.554a.115.115,0,0,1-.091-.038.121.121,0,0,1-.034-.087v-.855a.14.14,0,0,1,.034-.093.111.111,0,0,1,.091-.043h1.985a1.194,1.194,0,0,1,.829.254,1.023,1.023,0,0,1,.281.8Z" transform="translate(2861.299 -134.906)" fill="#cb007b"/>
        <path id="Path_2378" data-name="Path 2378" d="M-2825.41,164.441a3.368,3.368,0,0,1-.081.8,1.234,1.234,0,0,1-.267.535,1.061,1.061,0,0,1-.493.3,2.519,2.519,0,0,1-.756.1h-1.377a.112.112,0,0,1-.126-.129v-.835a.159.159,0,0,1,.032-.1.117.117,0,0,1,.094-.041h.9c.2,0,.356,0,.476-.015a.516.516,0,0,0,.275-.085.36.36,0,0,0,.125-.231,2.685,2.685,0,0,0,.028-.453v-.467a3.392,3.392,0,0,0-.021-.409.554.554,0,0,0-.1-.268.444.444,0,0,0-.229-.146,1.524,1.524,0,0,0-.42-.045h-1.109a.13.13,0,0,1-.089-.034.113.113,0,0,1-.038-.091v-.855a.134.134,0,0,1,.038-.093.115.115,0,0,1,.089-.043h1.561a1.625,1.625,0,0,1,1.09.341,1.353,1.353,0,0,1,.4,1.084Z" transform="translate(2853.021 -134.906)" fill="#cb007b"/>
        <path id="Path_2379" data-name="Path 2379" d="M-2814.83,162.79a.229.229,0,0,1-.023.116c-.015.028-.049.042-.1.042h-.4a.8.8,0,0,0-.277.471,1.591,1.591,0,0,0-.013.605l.373,2.019a.1.1,0,0,1-.031.1.143.143,0,0,1-.095.033h-.925a.113.113,0,0,1-.127-.13l-.311-1.8a1.943,1.943,0,0,1-.036-.313,1.927,1.927,0,0,1,.017-.344,1.5,1.5,0,0,1,.093-.34,1.049,1.049,0,0,1,.186-.3h-.662a.113.113,0,0,1-.09-.038.125.125,0,0,1-.033-.087v-.855a.142.142,0,0,1,.033-.1.11.11,0,0,1,.09-.039h2.209a.1.1,0,0,1,.082.039.171.171,0,0,1,.043.075Z" transform="translate(2845.164 -134.906)" fill="#cb007b"/>
      </g>
      <g id="Layer_2" data-name="Layer 2" transform="translate(168.997 272.695)">
        <g id="Layer_1" data-name="Layer 1" transform="translate(0.03 -0.052)">
          <path id="Path_2642" data-name="Path 2642" d="M48.14,136.776a.113.113,0,0,1-.051.012.123.123,0,0,1-.045-.237,2.108,2.108,0,0,0,.613-.429,1.71,1.71,0,0,0,.468-.637.409.409,0,0,0-.016-.319.691.691,0,0,0-.65-.315,1.307,1.307,0,0,0-.221.018,1.032,1.032,0,0,0-.439.2.55.55,0,0,0-.239.378.128.128,0,0,1-.253-.031.817.817,0,0,1,.425-.6,1.318,1.318,0,0,1,.731-.2.913.913,0,0,1,.858.445.523.523,0,0,1,.08.278,1.352,1.352,0,0,1-.454.868A2.433,2.433,0,0,1,48.14,136.776Z" transform="translate(-37.646 -107.101)" fill="#231f20"/>
          <path id="Path_2643" data-name="Path 2643" d="M57.562,136.9a.378.378,0,0,1-.335-.155.711.711,0,0,1-.116-.217.468.468,0,0,0-.047-.11.466.466,0,0,0-.157.11l-.574.556a.131.131,0,0,1-.086.031.108.108,0,0,1-.088-.037.1.1,0,0,1,0-.174l.433-.435a.935.935,0,0,1,.492-.3.259.259,0,0,1,.243.2.9.9,0,0,0,.129.272.343.343,0,0,0,.2.012,1.214,1.214,0,0,0,.613-.388.942.942,0,0,0,.292-.633.409.409,0,0,0-.2-.353.966.966,0,0,0-.58-.163,1.265,1.265,0,0,0-.707.2.127.127,0,1,1-.135-.215,1.563,1.563,0,0,1,.848-.239,1.24,1.24,0,0,1,.725.2.646.646,0,0,1,.3.556,1.244,1.244,0,0,1-.409.856A1.179,1.179,0,0,1,57.562,136.9Z" transform="translate(-44.653 -107.3)" fill="#231f20"/>
          <path id="Path_2644" data-name="Path 2644" d="M70.7,136.569a.092.092,0,0,1-.057.018.129.129,0,0,1-.059-.239,1.353,1.353,0,0,0,.437-.378,1.022,1.022,0,0,0,.223-.478.623.623,0,0,0-.2-.568.934.934,0,0,0-.337-.19,1.48,1.48,0,0,0-.452-.082.547.547,0,0,0-.221.039,8.847,8.847,0,0,1-.807,1.851.11.11,0,0,1-.174.018.108.108,0,0,1-.018-.174,6.248,6.248,0,0,0,.425-.848,3.649,3.649,0,0,0,.335-.917.118.118,0,0,1,.053-.1.641.641,0,0,1,.409-.116,1.538,1.538,0,0,1,.562.116,1.187,1.187,0,0,1,.409.225.874.874,0,0,1,.29.654,1.191,1.191,0,0,1-.27.684A1.52,1.52,0,0,1,70.7,136.569Z" transform="translate(-54.905 -106.932)" fill="#231f20"/>
          <path id="Path_2645" data-name="Path 2645" d="M82,134.9a1.773,1.773,0,0,1-.556,1.165.129.129,0,0,1-.1.045.112.112,0,0,1-.11-.069.114.114,0,0,1,.012-.135,1.588,1.588,0,0,0,.5-.958.613.613,0,0,0-.223-.494.827.827,0,0,0-.574-.155,2.022,2.022,0,0,0-.266.018q-.051.2-.155.613a3.116,3.116,0,0,1-.46,1,2.019,2.019,0,0,1-1.056.691h-.047a.118.118,0,0,1-.116-.08q-.051-.129.072-.161a1.725,1.725,0,0,0,.834-.458,2.127,2.127,0,0,0,.409-.719q.031-.088.245-.858a3.154,3.154,0,0,0-.388.116.114.114,0,0,1-.161-.074q-.051-.121.063-.161a4.286,4.286,0,0,1,.543-.135l.041-.192a.125.125,0,1,1,.245.045l-.029.116a1.738,1.738,0,0,1,.2-.012,1.108,1.108,0,0,1,.764.2A.86.86,0,0,1,82,134.9Z" transform="translate(-62.735 -106.452)" fill="#231f20"/>
          <path id="Path_2646" data-name="Path 2646" d="M95.528,134.925a1.773,1.773,0,0,1-.556,1.165.129.129,0,0,1-.1.045.112.112,0,0,1-.11-.069.114.114,0,0,1,.012-.135,1.588,1.588,0,0,0,.5-.958.613.613,0,0,0-.2-.488.827.827,0,0,0-.574-.155,2.019,2.019,0,0,0-.266.018q-.051.2-.155.613a3.116,3.116,0,0,1-.46,1,2.019,2.019,0,0,1-1.056.691h-.047a.118.118,0,0,1-.116-.08q-.051-.129.072-.161a1.724,1.724,0,0,0,.834-.458,2.126,2.126,0,0,0,.409-.719q.031-.088.245-.858a3.162,3.162,0,0,0-.388.116.114.114,0,0,1-.161-.074q-.051-.121.063-.161a4.288,4.288,0,0,1,.543-.135l.041-.192a.125.125,0,0,1,.245.045l-.029.116a1.748,1.748,0,0,1,.2-.012,1.107,1.107,0,0,1,.764.2.86.86,0,0,1,.284.64Z" transform="translate(-73.516 -106.475)" fill="#231f20"/>
          <path id="Path_2647" data-name="Path 2647" d="M3.8,108.207a.729.729,0,0,1-.3-.051.472.472,0,0,1-.186-.143.613.613,0,0,1-.1-.2.864.864,0,0,1-.033-.241l-.022-2.327a.409.409,0,0,0-.106-.333.409.409,0,0,0-.264-.084H1.658L1.6,107.612a.631.631,0,0,1-.165.421.6.6,0,0,1-.468.174.613.613,0,0,1-.466-.17.57.57,0,0,1-.151-.425l.1-2.8a.429.429,0,0,1-.2-.047.351.351,0,0,1-.131-.125.531.531,0,0,1-.067-.182,1.148,1.148,0,0,1-.018-.2,1.04,1.04,0,0,1,.022-.2.537.537,0,0,1,.084-.2.525.525,0,0,1,.153-.147.452.452,0,0,1,.245-.059H3.156a1.476,1.476,0,0,1,.253.033,2.063,2.063,0,0,1,.284.084.856.856,0,0,1,.266.157,1.021,1.021,0,0,1,.237.259,1.107,1.107,0,0,1,.129.3,2.174,2.174,0,0,1,.059.335q.016.174.016.366l.022,2.382a.664.664,0,0,1-.153.462.57.57,0,0,1-.474.188Z" transform="translate(-0.03 -82.452)" fill="#231f20"/>
          <path id="Path_2648" data-name="Path 2648" d="M24.569,106.438h.1a.409.409,0,0,1,.353.186.719.719,0,0,1,.125.409.613.613,0,0,1-.145.409.466.466,0,0,1-.376.174h-.813a.409.409,0,0,1-.358-.2.862.862,0,0,1-.131-.49,2.934,2.934,0,0,1,.086-.695,3.087,3.087,0,0,1,.253-.68q.1-.182.2-.37l.2-.37q.061-.112.031-.153a.452.452,0,0,0-.086-.084l-.474-.427a1.6,1.6,0,0,1-.2-.221.5.5,0,0,1-.086-.306.695.695,0,0,1,.725-.7.65.65,0,0,1,.311.067.948.948,0,0,1,.221.163l1.269,1.205.805-1.064a.8.8,0,0,1,.221-.2.684.684,0,0,1,.364-.084.521.521,0,0,1,.347.114.554.554,0,0,1,.182.276.774.774,0,0,1,.018.335.568.568,0,0,1-.131.292l-1,1.167q.409.474.68.838t.456.629a.58.58,0,0,1,.076.153.613.613,0,0,1,.037.2.591.591,0,0,1-.059.274.63.63,0,0,1-.339.3.527.527,0,0,1-.172.035.844.844,0,0,1-.28-.043.623.623,0,0,1-.255-.2l-1.226-1.492L25,105.386a2.312,2.312,0,0,0-.145.227q-.08.139-.153.288t-.125.276a.883.883,0,0,0-.057.188Q24.514,106.438,24.569,106.438Z" transform="translate(-18.511 -81.878)" fill="#231f20"/>
          <path id="Path_2649" data-name="Path 2649" d="M48.792,107.88H47.639a1.67,1.67,0,0,1-.264-.018.5.5,0,0,1-.2-.08.445.445,0,0,1-.143-.17.9.9,0,0,1-.08-.29l-.409-3.388a.613.613,0,0,1,.116-.445.572.572,0,0,1,.456-.233.664.664,0,0,1,.447.114.613.613,0,0,1,.217.429l.331,2.889h.717a1.582,1.582,0,0,0,.462-.063.838.838,0,0,0,.353-.2.9.9,0,0,0,.219-.386,2.008,2.008,0,0,0,.063-.613l-.022-.778a.188.188,0,0,0-.025-.1.051.051,0,0,0-.033-.016H49.4l.016.353a.55.55,0,0,1-.574.648.511.511,0,0,1-.409-.166.578.578,0,0,1-.147-.4l-.022-.723a1.387,1.387,0,0,1,.047-.366.762.762,0,0,1,.153-.3.74.74,0,0,1,.27-.2.962.962,0,0,1,.388-.072h1.062a1.275,1.275,0,0,1,.349.045.713.713,0,0,1,.272.143.662.662,0,0,1,.184.272,1.214,1.214,0,0,1,.067.435l.022,1.244a2.967,2.967,0,0,1-.178,1.132,1.91,1.91,0,0,1-1.242,1.167,2.887,2.887,0,0,1-.868.137Z" transform="translate(-37.033 -82.145)" fill="#14c4ac"/>
          <path id="Path_2650" data-name="Path 2650" d="M73.169,108.154a.735.735,0,0,1-.292-.051.521.521,0,0,1-.19-.135.5.5,0,0,1-.1-.186.67.67,0,0,1-.031-.2v-2.2a1.064,1.064,0,0,0-.043-.335.409.409,0,0,0-.118-.186.356.356,0,0,0-.176-.078,1.354,1.354,0,0,0-.2-.016H70.654a.586.586,0,0,1-.409-.153.564.564,0,0,1-.17-.439.678.678,0,0,1,.139-.409.511.511,0,0,1,.439-.186H72.38a3.135,3.135,0,0,1,.468.041.993.993,0,0,1,.494.237,1.108,1.108,0,0,1,.245.286,1.244,1.244,0,0,1,.129.317,1.783,1.783,0,0,1,.051.347q0,.182.016.37v2.37a.733.733,0,0,1-.033.219.5.5,0,0,1-.108.188.613.613,0,0,1-.192.139A.656.656,0,0,1,73.169,108.154Z" transform="translate(-55.763 -82.399)" fill="#14c4ac"/>
          <path id="Path_2651" data-name="Path 2651" d="M90.889,106.47h.1a.409.409,0,0,1,.353.186.719.719,0,0,1,.125.409.613.613,0,0,1-.145.409.466.466,0,0,1-.376.174h-.817a.409.409,0,0,1-.358-.2.862.862,0,0,1-.131-.49,2.934,2.934,0,0,1,.086-.695,3.087,3.087,0,0,1,.253-.68q.1-.182.2-.37l.2-.37q.061-.112.031-.153a.45.45,0,0,0-.078-.082l-.478-.421a1.6,1.6,0,0,1-.2-.221.5.5,0,0,1-.086-.306.695.695,0,0,1,.725-.7.65.65,0,0,1,.311.067.948.948,0,0,1,.221.163l1.269,1.205.805-1.065a.8.8,0,0,1,.221-.2.685.685,0,0,1,.364-.084.521.521,0,0,1,.347.114.554.554,0,0,1,.182.276.775.775,0,0,1,.018.335.568.568,0,0,1-.131.292l-1,1.167q.409.474.68.838t.456.629a.58.58,0,0,1,.076.153.613.613,0,0,1,.037.2.591.591,0,0,1-.059.274.63.63,0,0,1-.339.3.528.528,0,0,1-.172.035.844.844,0,0,1-.28-.043.623.623,0,0,1-.255-.2l-1.226-1.492-.515-.5a2.309,2.309,0,0,0-.145.227q-.08.139-.153.288t-.123.268a.883.883,0,0,0-.057.188Q90.828,106.47,90.889,106.47Z" transform="translate(-71.281 -81.91)" fill="#14c4ac"/>
          <path id="Path_2652" data-name="Path 2652" d="M115.312,107.88h-1.152a1.67,1.67,0,0,1-.264-.018.5.5,0,0,1-.2-.08.445.445,0,0,1-.143-.17.9.9,0,0,1-.08-.29l-.409-3.388a.613.613,0,0,1,.116-.445.572.572,0,0,1,.456-.233.664.664,0,0,1,.447.114.613.613,0,0,1,.217.429l.331,2.889h.717a1.581,1.581,0,0,0,.462-.063.838.838,0,0,0,.353-.2.9.9,0,0,0,.219-.386,2.008,2.008,0,0,0,.063-.613l-.022-.783a.188.188,0,0,0-.025-.1.051.051,0,0,0-.033-.016h-.431l.016.353a.55.55,0,0,1-.574.648.511.511,0,0,1-.409-.165.578.578,0,0,1-.147-.4l-.022-.723a1.387,1.387,0,0,1,.047-.366.762.762,0,0,1,.153-.3.74.74,0,0,1,.27-.2.962.962,0,0,1,.388-.072h1.064a1.275,1.275,0,0,1,.349.045.713.713,0,0,1,.272.143.662.662,0,0,1,.184.272,1.214,1.214,0,0,1,.067.435l.022,1.244a2.966,2.966,0,0,1-.178,1.132,1.91,1.91,0,0,1-1.242,1.167A2.887,2.887,0,0,1,115.312,107.88Z" transform="translate(-89.962 -82.145)" fill="#14c4ac"/>
          <path id="Path_2653" data-name="Path 2653" d="M136.995,104.768h-.043q-.552,0-.552-.578a1.3,1.3,0,0,1,.016-.178.509.509,0,0,1,.08-.2.547.547,0,0,1,.182-.17.627.627,0,0,1,.325-.072h2.644a2.127,2.127,0,0,1,.46.049.923.923,0,0,1,.384.182.938.938,0,0,1,.268.37,1.763,1.763,0,0,1,.118.613v.521a3.377,3.377,0,0,1-.178,1.226,2.556,2.556,0,0,1-.523.885,2.164,2.164,0,0,1-.76.531,2.309,2.309,0,0,1-.889.178h-.836a.572.572,0,0,1-.409-.121.856.856,0,0,1-.184-.409l-.392-1.61a.757.757,0,0,1-.027-.119q-.012-.072-.029-.147a1.209,1.209,0,0,1-.025-.151v-.121a.786.786,0,0,1,.086-.37A1.021,1.021,0,0,1,136.995,104.768Zm2.636.313a.3.3,0,0,0-.131-.247.409.409,0,0,0-.217-.074h-1.114a.93.93,0,0,0-.278.356.816.816,0,0,0-.039.2.574.574,0,0,0,.016.129,1.145,1.145,0,0,0,.031.155l.309,1.326h.235a1.371,1.371,0,0,0,.409-.072,1.1,1.1,0,0,0,.409-.249,1.2,1.2,0,0,0,.3-.478,1.839,1.839,0,0,0,.08-.752Z" transform="translate(-108.537 -82.395)" fill="#14c4ac"/>
          <path id="Path_2654" data-name="Path 2654" d="M41.44,28.773a31.527,31.527,0,0,0,.836-3.455.586.586,0,0,1,.519-.482l.593-.061a.588.588,0,0,1,.613.766,26.281,26.281,0,0,1-1.483,3.678.59.59,0,0,1-.466.313h0a.588.588,0,0,1-.611-.758Zm.57-8.355A1.172,1.172,0,0,1,43.2,19.17a1.143,1.143,0,0,1,1.15,1.248,1.171,1.171,0,1,1-2.339,0Z" transform="translate(-32.959 -15.243)" fill="#14c4ac"/>
          <path id="Path_2655" data-name="Path 2655" d="M38.63,1.941a4.573,4.573,0,0,0-2.043.245.883.883,0,0,0-.441,1.322.87.87,0,0,0,1.022.335,2.816,2.816,0,0,1,1.33-.151,2.945,2.945,0,0,1,2.44,2.86c-.012,1.355-.149,4.062-6.467,8.641q-.8-.566-1.473-1.1a12.442,12.442,0,0,0,2.337-7.66,4.556,4.556,0,0,0-4.656-4.52,4.631,4.631,0,0,0-4.446,4.757c.041,2.062.711,4.413,4.268,7.613V14.3q-.143.135-.3.262l.016-.014c-1.4,1.118-3.849,1.684-7.486,1.684h-.172a3.461,3.461,0,0,1-.582-.063.96.96,0,0,1-.511-.266,1.226,1.226,0,0,1-.274-.56,4.058,4.058,0,0,1-.088-.932V12.8q0-3.087-1.635-3.841V8.945Q21.1,8.193,21.1,5.1V3.5a3.927,3.927,0,0,1,.088-.924,1.208,1.208,0,0,1,.274-.55.958.958,0,0,1,.511-.266l.051-.01a.9.9,0,1,0-.274-1.788q-.243.035-.466.082a2.452,2.452,0,0,0-1.1.519,2.521,2.521,0,0,0-.715,1.05A4.773,4.773,0,0,0,19.216,3.3V5.136a4.59,4.59,0,0,1-.409,2.188,1.312,1.312,0,0,1-.678.546,1.146,1.146,0,0,0-.719,1.079,1.165,1.165,0,0,0,.75,1.093l.094.039a1.226,1.226,0,0,1,.56.5,2.656,2.656,0,0,1,.3.893,8.024,8.024,0,0,1,.1,1.373v1.839a4.777,4.777,0,0,0,.227,1.579,2.358,2.358,0,0,0,.668,1.022,2.556,2.556,0,0,0,1.1.554,5.925,5.925,0,0,0,1.328.139h.172c4.5,0,7.431-.879,9.121-2.55.627.5,1.322,1.022,2.094,1.565l.5.351h0l.5-.351a22.716,22.716,0,0,0,6.526-6.209,7.676,7.676,0,0,0,1.226-4.129A4.62,4.62,0,0,0,38.63,1.941Zm-6.975,11h-.012c-3.551-3.228-3.653-5.257-3.657-6.375a2.86,2.86,0,0,1,2.642-2.891,2.8,2.8,0,0,1,2.952,2.793v.082A10.613,10.613,0,0,1,31.655,12.939Z" transform="translate(-13.859 0.052)" fill="#231f20"/>
        </g>
      </g>
    </g>
    <path id="Path_2661" data-name="Path 2661" d="M80.648,69.5c-1.344.073-2.718,1.3-3.719,3.481,0,0-7.558,11.842-9.285,18.607-3.756,7.869,1.162,17.091,9.083,19.135a18.419,18.419,0,0,1-4.793.892c-13.8.919-23.836-13.969-17.917-26.372,2.334-9.134,12.543-25.126,12.543-25.126,2.552-5.566,6.909-6.542,9.379-1.059Z" transform="translate(71.304 34.619)" fill="#a2d45e"/>
    <g id="Group_707" data-name="Group 707" transform="translate(117.49 150.424)">
      <text id="בנק_הדם" data-name="בנק הדם" transform="translate(26 13)" fill="#cb007b" font-size="14" font-family="Rubik-Bold, Rubik" font-weight="700" style="isolation: isolate"><tspan x="-26.075" y="0">בנק הדם</tspan></text>
      <text id="של_זכרון_מנחם" data-name="של זכרון מנחם" transform="translate(26 23.431)" fill="#4c554d" font-size="8.5" font-family="Rubik-Regular, Rubik" style="isolation: isolate"><tspan x="-25.169" y="0">של זכרון מנחם</tspan></text>
    </g>
    <g id="Mask_Group_5" data-name="Mask Group 5" transform="translate(144.213 109.039)" clip-path="url(#clip-path-2)">
      <path id="Path_2662" data-name="Path 2662" d="M17.35-3949.047c3.214-2.47,2.57-3.544,6.239-2.151s5,2.688,7.674,2.151,3.754-.88,5.323,1.769,3.8.171,5.756,1.624,1.882,3.278,1.806,6.55,0,38.5,0,38.5H10.729l.469-48.444A4.936,4.936,0,0,0,17.35-3949.047Z" transform="translate(-15.937 3949.028)" fill="#cb007b"/>
    </g>
  </g>
</svg>
