<svg xmlns="http://www.w3.org/2000/svg" width="24" height="24" viewBox="0 0 24 24"><defs><style>.a,.b,.c{fill:none;}.b{stroke:#272932;stroke-width:2px;}.c{stroke-linecap:round;stroke-linejoin:round;}.d,.f{fill:#272932;}.e,.f{stroke:none;}</style></defs><rect class="a" width="24" height="24"/><g transform="translate(-1 -1)"><g class="b" transform="translate(3 3)"><rect class="e" width="20" height="20" rx="6"/><rect class="a" x="1" y="1" width="18" height="18" rx="5"/></g><g class="c" transform="translate(-4.065 -3.935)"><path class="e" d="M22.01,16.2A5,5,0,1,1,17.8,11.989,5,5,0,0,1,22.01,16.2Z"/><path class="f" d="M 17.06288146972656 13.93482971191406 C 15.92388153076172 13.93482971191406 14.89783096313477 14.56759071350098 14.38515090942383 15.58617973327637 C 13.80209159851074 16.74460029602051 14.02647018432617 18.13903045654297 14.94349098205566 19.05606079101563 C 15.51017189025879 19.62274169921875 16.26401138305664 19.9348201751709 17.0661506652832 19.9348201751709 C 17.53106117248535 19.9348201751709 17.99692153930664 19.82402038574219 18.41337966918945 19.61441040039063 C 19.57179069519043 19.03134918212891 20.2222900390625 17.77769088745117 20.03205108642578 16.49484062194824 C 19.83684158325195 15.17838096618652 18.82118225097656 14.1627197265625 17.50470161437988 13.96750068664551 C 17.35848999023438 13.94581985473633 17.2098503112793 13.93482971191406 17.06288146972656 13.93482971191406 M 17.0628833770752 11.93482780456543 C 17.30633926391602 11.93482780456543 17.55195236206055 11.9526424407959 17.79808044433594 11.98913955688477 C 19.97672080993652 12.31220054626465 21.6873607635498 14.02284049987793 22.01042175292969 16.20148086547852 C 22.32682037353516 18.33512115478516 21.23923110961914 20.43112945556641 19.31256103515625 21.40088081359863 C 18.59887313842773 21.76009750366211 17.8293571472168 21.93482208251953 17.06615447998047 21.93482208251953 C 15.76899909973145 21.93482208251953 14.4895191192627 21.43050765991211 13.52928161621094 20.47027015686035 C 12.00408172607422 18.94507026672363 11.62893104553223 16.61367988586426 12.59868049621582 14.6870002746582 C 13.45656394958496 12.98258399963379 15.19586753845215 11.93482780456543 17.0628833770752 11.93482780456543 Z"/></g><circle class="d" cx="1" cy="1" r="1" transform="translate(17 7)"/></g></svg>