<svg xmlns="http://www.w3.org/2000/svg" viewBox="0 0 24 24"><defs><style>.cls-1{fill:#fff;}</style></defs><g id="Layer_2" data-name="Layer 2"><g id="Layer_1-2" data-name="Layer 1"><path class="cls-1" d="M18.7,22l.07-.05a12.68,12.68,0,0,0,1.74-1.44l0-.05a12,12,0,1,0-17.1,0,.1.1,0,0,1,0,.05,11.46,11.46,0,0,0,2.24,1.75c.2.12.39.25.59.36l.07,0A11.87,11.87,0,0,0,12,24h0a11.71,11.71,0,0,0,1.19-.06,12,12,0,0,0,5.21-1.81Zm-.49-2.12-.49.36-.32.21a3.78,3.78,0,0,1-.43.26c-.14.09-.28.16-.43.24l-.36.17-.51.22a2.19,2.19,0,0,1-.33.12l-.55.19-.37.09-.53.13-.5.07c-.14,0-.28.05-.43.06-.31,0-.63.05-1,.05s-.65,0-1-.05l-.37-.05c-.19,0-.38,0-.56-.09l-.49-.11-.41-.11-.52-.17-.36-.13-.48-.21-.4-.19L7,20.67l-.45-.27-.31-.21-.5-.37-.22-.18-.19-.17a7.21,7.21,0,0,1,13.26,0l-.18.16Zm-9-9.54A2.77,2.77,0,1,1,12,13.06h0a2.77,2.77,0,0,1-2.77-2.77ZM12,2a10,10,0,0,1,8.07,15.89,9.15,9.15,0,0,0-4.75-4.18,4.77,4.77,0,1,0-8.09-3.42h0a4.73,4.73,0,0,0,1.4,3.37l0,.05a9.15,9.15,0,0,0-4.75,4.18A10,10,0,0,1,12,2Z"/></g></g></svg>