<svg width="20" height="19" viewBox="0 0 20 19" fill="none" xmlns="http://www.w3.org/2000/svg">
<path d="M9.08789 13.2505C8.73633 13.2505 8.46289 13.563 8.46289 13.8755C8.46289 14.2271 8.73633 14.5005 9.08789 14.5005C9.40039 14.5005 9.71289 14.2271 9.71289 13.8755C9.71289 13.563 9.40039 13.2505 9.08789 13.2505ZM10.9629 4.50049H8.42383C7.05664 4.50049 5.96289 5.6333 5.96289 7.00049V7.39111C5.96289 7.58643 6.08008 7.70361 6.27539 7.70361C6.43164 7.70361 6.58789 7.58643 6.58789 7.39111V7.00049C6.58789 5.98486 7.4082 5.12549 8.42383 5.12549H10.9629C11.9785 5.12549 12.8379 5.98486 12.8379 7.00049C12.8379 7.66455 12.4473 8.28955 11.8613 8.60205L9.2832 9.89111C8.93164 10.0864 8.69727 10.5161 8.69727 10.9067V11.688C8.69727 11.8833 8.85352 12.0005 9.00977 12.0005C9.16602 12.0005 9.32227 11.8833 9.32227 11.688V10.9067C9.32227 10.7114 9.43945 10.5552 9.5957 10.438L12.1738 9.14893C12.9551 8.71924 13.4629 7.89893 13.4629 7.00049C13.4629 5.6333 12.3301 4.50049 10.9629 4.50049ZM9.71289 0.125488C4.51758 0.125488 0.337891 4.34424 0.337891 9.50049C0.337891 14.6958 4.51758 18.8755 9.71289 18.8755C14.8691 18.8755 19.0879 14.6958 19.0879 9.50049C19.0879 4.34424 14.8691 0.125488 9.71289 0.125488ZM9.71289 18.2505C4.86914 18.2505 0.962891 14.3442 0.962891 9.50049C0.962891 4.6958 4.86914 0.750488 9.71289 0.750488C14.5176 0.750488 18.4629 4.6958 18.4629 9.50049C18.4629 14.3442 14.5176 18.2505 9.71289 18.2505Z" fill="#7E7E7E"/>
<path d="M11.8613 8.60205L11.9732 8.82574L11.979 8.82264L11.8613 8.60205ZM9.2832 9.89111L9.17129 9.6673L9.16179 9.67257L9.2832 9.89111ZM9.5957 10.438L9.4839 10.2144L9.46374 10.2245L9.4457 10.238L9.5957 10.438ZM12.1738 9.14893L12.2857 9.3727L12.2943 9.36798L12.1738 9.14893ZM9.08789 13.0005C8.58834 13.0005 8.21289 13.4351 8.21289 13.8755H8.71289C8.71289 13.6909 8.88432 13.5005 9.08789 13.5005V13.0005ZM8.21289 13.8755C8.21289 14.3651 8.59826 14.7505 9.08789 14.7505V14.2505C8.8744 14.2505 8.71289 14.089 8.71289 13.8755H8.21289ZM9.08789 14.7505C9.52833 14.7505 9.96289 14.375 9.96289 13.8755H9.46289C9.46289 14.0791 9.27245 14.2505 9.08789 14.2505V14.7505ZM9.96289 13.8755C9.96289 13.6379 9.84663 13.4213 9.69436 13.269C9.54208 13.1167 9.32545 13.0005 9.08789 13.0005V13.5005C9.16283 13.5005 9.2587 13.5405 9.3408 13.6226C9.4229 13.7047 9.46289 13.8005 9.46289 13.8755H9.96289ZM10.9629 4.25049H8.42383V4.75049H10.9629V4.25049ZM8.42383 4.25049C6.91347 4.25049 5.71289 5.50038 5.71289 7.00049H6.21289C6.21289 5.76622 7.19981 4.75049 8.42383 4.75049V4.25049ZM5.71289 7.00049V7.39111H6.21289V7.00049H5.71289ZM5.71289 7.39111C5.71289 7.5389 5.75821 7.68647 5.86912 7.79738C5.98004 7.9083 6.12761 7.95361 6.27539 7.95361V7.45361C6.25135 7.45361 6.23699 7.45 6.2299 7.44741C6.22639 7.44613 6.22446 7.44503 6.22363 7.44451C6.22319 7.44424 6.22294 7.44405 6.22283 7.44396C6.22272 7.44388 6.22268 7.44384 6.22268 7.44383C6.22267 7.44382 6.22263 7.44378 6.22254 7.44367C6.22245 7.44356 6.22227 7.44332 6.22199 7.44288C6.22147 7.44205 6.22037 7.44011 6.21909 7.4366C6.21651 7.42952 6.21289 7.41515 6.21289 7.39111H5.71289ZM6.27539 7.95361C6.54879 7.95361 6.83789 7.74453 6.83789 7.39111H6.33789C6.33789 7.406 6.33505 7.41525 6.33258 7.4208C6.33001 7.4266 6.32634 7.4317 6.3213 7.43632C6.31011 7.44658 6.29274 7.45361 6.27539 7.45361V7.95361ZM6.83789 7.39111V7.00049H6.33789V7.39111H6.83789ZM6.83789 7.00049C6.83789 6.11605 7.55306 5.37549 8.42383 5.37549V4.87549C7.26335 4.87549 6.33789 5.85367 6.33789 7.00049H6.83789ZM8.42383 5.37549H10.9629V4.87549H8.42383V5.37549ZM10.9629 5.37549C11.8404 5.37549 12.5879 6.12293 12.5879 7.00049H13.0879C13.0879 5.84679 12.1166 4.87549 10.9629 4.87549V5.37549ZM12.5879 7.00049C12.5879 7.56827 12.2517 8.11052 11.7437 8.38146L11.979 8.82264C12.6428 8.46858 13.0879 7.76083 13.0879 7.00049H12.5879ZM11.7495 8.37844L9.1714 9.66751L9.39501 10.1147L11.9731 8.82566L11.7495 8.37844ZM9.16179 9.67257C8.72565 9.91487 8.44727 10.4314 8.44727 10.9067H8.94727C8.94727 10.6008 9.13763 10.258 9.40461 10.1097L9.16179 9.67257ZM8.44727 10.9067V11.688H8.94727V10.9067H8.44727ZM8.44727 11.688C8.44727 12.0414 8.73637 12.2505 9.00977 12.2505V11.7505C8.99242 11.7505 8.97505 11.7435 8.96385 11.7332C8.95882 11.7286 8.95515 11.7235 8.95257 11.7177C8.95011 11.7121 8.94727 11.7029 8.94727 11.688H8.44727ZM9.00977 12.2505C9.28316 12.2505 9.57227 12.0414 9.57227 11.688H9.07227C9.07227 11.7029 9.06943 11.7121 9.06696 11.7177C9.06438 11.7235 9.06071 11.7286 9.05568 11.7332C9.04448 11.7435 9.02711 11.7505 9.00977 11.7505V12.2505ZM9.57227 11.688V10.9067H9.07227V11.688H9.57227ZM9.57227 10.9067C9.57227 10.8221 9.62145 10.7312 9.7457 10.638L9.4457 10.238C9.25745 10.3792 9.07227 10.6008 9.07227 10.9067H9.57227ZM9.70751 10.6616L12.2856 9.37253L12.062 8.92532L9.4839 10.2144L9.70751 10.6616ZM12.2943 9.36798C13.1519 8.89629 13.7129 7.99405 13.7129 7.00049H13.2129C13.2129 7.8038 12.7582 8.54218 12.0533 8.92987L12.2943 9.36798ZM13.7129 7.00049C13.7129 5.49523 12.4681 4.25049 10.9629 4.25049V4.75049C12.192 4.75049 13.2129 5.77137 13.2129 7.00049H13.7129ZM9.71289 -0.124512C4.37883 -0.124512 0.0878906 4.20685 0.0878906 9.50049H0.587891C0.587891 4.48163 4.65633 0.375488 9.71289 0.375488V-0.124512ZM0.0878906 9.50049C0.0878906 14.8339 4.37951 19.1255 9.71289 19.1255V18.6255C4.65565 18.6255 0.587891 14.5577 0.587891 9.50049H0.0878906ZM9.71289 19.1255C15.0065 19.1255 19.3379 14.8345 19.3379 9.50049H18.8379C18.8379 14.5571 14.7317 18.6255 9.71289 18.6255V19.1255ZM19.3379 9.50049C19.3379 4.20617 15.0072 -0.124512 9.71289 -0.124512V0.375488C14.7311 0.375488 18.8379 4.48231 18.8379 9.50049H19.3379ZM9.71289 18.0005C5.00721 18.0005 1.21289 14.2062 1.21289 9.50049H0.712891C0.712891 14.4823 4.73107 18.5005 9.71289 18.5005V18.0005ZM1.21289 9.50049C1.21289 4.83315 5.00794 1.00049 9.71289 1.00049V0.500488C4.73034 0.500488 0.712891 4.55846 0.712891 9.50049H1.21289ZM9.71289 1.00049C14.3795 1.00049 18.2129 4.83387 18.2129 9.50049H18.7129C18.7129 4.55773 14.6556 0.500488 9.71289 0.500488V1.00049ZM18.2129 9.50049C18.2129 14.2054 14.3802 18.0005 9.71289 18.0005V18.5005C14.6549 18.5005 18.7129 14.483 18.7129 9.50049H18.2129Z" fill="#7E7E7E"/>
</svg>
