<svg xmlns="http://www.w3.org/2000/svg" width="22.66" height="22.651" viewBox="0 0 22.66 22.651"><defs><style>.a{fill:#7e7e7e;stroke:#fff;}</style></defs><path class="a" d="M15.638,12.853c-.269-.134-1.579-.775-1.823-.863s-.423-.134-.6.134-.689.862-.844,1.038-.312.188-.577.067A7.253,7.253,0,0,1,9.645,11.9a8.108,8.108,0,0,1-1.484-1.85c-.155-.268-.017-.416.116-.55s.269-.308.4-.467a2.265,2.265,0,0,0,.265-.443.491.491,0,0,0-.022-.468c-.067-.134-.6-1.448-.824-1.971S7.664,5.7,7.5,5.7s-.332-.013-.51-.013A1.007,1.007,0,0,0,6.276,6a2.984,2.984,0,0,0-.934,2.212,5.229,5.229,0,0,0,1.089,2.748,11.916,11.916,0,0,0,4.558,4.008c.638.268,1.135.429,1.523.562a3.7,3.7,0,0,0,1.68.108,2.75,2.75,0,0,0,1.8-1.274,2.212,2.212,0,0,0,.161-1.273c-.066-.121-.241-.188-.509-.308m-4.867,6.652h-.014A8.94,8.94,0,0,1,6.247,18.2l-.322-.191-3.351.871.9-3.257-.214-.335a8.863,8.863,0,0,1,13.8-10.934,8.747,8.747,0,0,1,2.6,6.247,8.874,8.874,0,0,1-8.879,8.834M18.338,3.082A10.851,10.851,0,0,0,10.764,0,10.626,10.626,0,0,0,1.516,15.941L0,21.448l5.661-1.476a10.78,10.78,0,0,0,5.1,1.293h.005A10.671,10.671,0,0,0,21.448,10.634a10.54,10.54,0,0,0-3.123-7.517" transform="translate(0.712 0.5)"/></svg>