<svg width="17" height="19" viewBox="0 0 17 19" fill="none" xmlns="http://www.w3.org/2000/svg">
<path d="M1 4.83301H16" stroke="#474747" stroke-width="1.5" stroke-linecap="round" stroke-linejoin="round"/>
<path d="M5.16602 4.833V3.166C5.16628 2.72406 5.34203 2.30031 5.65462 1.9879C5.96722 1.67549 6.39107 1.5 6.83302 1.5H10.166C10.6081 1.5 11.0321 1.67563 11.3448 1.98825C11.6574 2.30088 11.833 2.72488 11.833 3.167V4.833M14.333 4.833V16.5C14.333 16.9421 14.1574 17.3661 13.8448 17.6787C13.5321 17.9914 13.1081 18.167 12.666 18.167H4.33302C3.8909 18.167 3.46689 17.9914 3.15427 17.6787C2.84165 17.3661 2.66602 16.9421 2.66602 16.5V4.833H14.333Z" stroke="#474747" stroke-width="1.5" stroke-linecap="round" stroke-linejoin="round"/>
<path d="M6.83301 9V14" stroke="#474747" stroke-width="1.5" stroke-linecap="round" stroke-linejoin="round"/>
<path d="M10.167 9V14" stroke="#474747" stroke-width="1.5" stroke-linecap="round" stroke-linejoin="round"/>
</svg>
