<?xml version="1.0" encoding="utf-8"?>
<!-- Generator: Adobe Illustrator 25.2.0, SVG Export Plug-In . SVG Version: 6.00 Build 0)  -->
<svg version="1.1" id="Layer_1" xmlns="http://www.w3.org/2000/svg" xmlns:xlink="http://www.w3.org/1999/xlink" x="0px" y="0px"
	 viewBox="0 0 24 24" style="enable-background:new 0 0 24 24;" xml:space="preserve">
<style type="text/css">
	.st0{fill:#272932;}
</style>
<path class="st0" d="M15.5,11.6c3-3,1.1-8.5-3.5-8.6C9.3,3,7,5.2,7,8c-0.1,1.4,0.8,2.8,1.5,3.6c-3,0-5.5,2.5-5.5,5.6
	c0,0,0,1.8,0,1.8c0,1.1,0.9,2,2,2h14c1.1,0,2-0.9,2-2v-1.8C21,14.1,18.5,11.6,15.5,11.6z M12,5c3.9,0.1,3.9,5.8,0,6
	C8.1,10.8,8.1,5.1,12,5z M19,19H5c0-0.5-0.1-2,0.1-2.5c0.2-1.1,1-2.2,2.1-2.6c0.4-0.2,0.9-0.3,1.4-0.3c0,0,7,0,7,0
	c1.7,0,3.2,1.3,3.4,3C19.1,17,19,18.5,19,19z"/>
</svg>
