<?xml version="1.0" encoding="utf-8"?>
<!-- Generator: Adobe Illustrator 25.2.3, SVG Export Plug-In . SVG Version: 6.00 Build 0)  -->
<svg version="1.1" id="Layer_1" xmlns="http://www.w3.org/2000/svg" xmlns:xlink="http://www.w3.org/1999/xlink" x="0px" y="0px"
	 viewBox="0 0 20.4 20.4" style="enable-background:new 0 0 20.4 20.4;" xml:space="preserve">
<style type="text/css">
	.st0{fill:#272932;}
</style>
<path class="st0" d="M17.4,3.3L17.4,3.3l-0.2-0.3c-3.9-3.9-10.1-3.9-14,0c-3.1,3.1-3.8,8-1.6,11.9l-1.4,5.2l5.4-1.4
	c1.4,0.8,3,1.2,4.7,1.2c0,0,0,0,0,0c5.4,0,9.9-4.4,10-9.9C20.1,7.5,19.2,5.2,17.4,3.3z M10.2,18C10.2,18,10.2,18,10.2,18
	c-1.4,0-2.8-0.4-4.1-1.1l-0.3-0.2l-2.9,0.8l0.8-2.8l-0.2-0.4c-1.1-1.8-1.4-4-0.9-6c0.5-2.1,1.8-3.8,3.6-4.9c1.8-1.1,4-1.4,6-0.9
	C14.2,2.9,16,4.2,17.1,6c0.7,1.2,1.1,2.6,1.2,4C18.2,14.4,14.6,18,10.2,18z M15.3,12.4c0.1,0.4,0,0.9-0.2,1.2
	c-0.4,0.6-1,1.1-1.7,1.2c-0.2,0-0.4,0-0.6,0c-0.9,0-1.7-0.2-2.5-0.7c-1.7-0.8-3.2-2.1-4.2-3.7c-0.6-0.7-0.9-1.6-1-2.6
	c0-0.8,0.3-1.6,0.9-2.2c0.2-0.2,0.5-0.3,0.7-0.3c0.2,0,0.3,0,0.5,0c0,0,0,0,0,0c0.2,0,0.4,0,0.6,0.5l0.2,0.6C8.3,7,8.6,7.7,8.7,7.7
	c0.1,0.2,0.1,0.4,0,0.6C8.5,8.7,8.2,9,8.1,9.1C7.9,9.3,7.9,9.3,8,9.5c0.7,1.3,1.9,2.3,3.2,2.8c0.2,0.1,0.3,0.1,0.4,0
	c0.2-0.2,0.6-0.7,0.8-0.9c0.2-0.3,0.5-0.3,0.7-0.2c0.2,0.1,1.5,0.7,1.7,0.8v0l0.1,0.1C15,12.1,15.2,12.2,15.3,12.4L15.3,12.4z"/>
</svg>
