<svg xmlns="http://www.w3.org/2000/svg" width="24" height="24" viewBox="0 0 24 24"><defs><style>.a,.b{fill:none;}.c,.e{fill:#272932;}.d,.e{stroke:none;}</style></defs><rect class="a" width="24" height="24" transform="translate(0)"/><g transform="translate(-141 -520)"><g class="b" transform="translate(139.95 519.5)"><path class="d" d="M24.548,7.14A3.016,3.016,0,0,0,22.427,5c-1.872-.5-9.377-.5-9.377-.5s-7.5,0-9.377.5A3.016,3.016,0,0,0,1.551,7.14a31.635,31.635,0,0,0-.5,5.814,31.635,31.635,0,0,0,.5,5.814,2.971,2.971,0,0,0,2.122,2.1c1.872.5,9.377.5,9.377.5s7.5,0,9.377-.5a2.971,2.971,0,0,0,2.122-2.1,31.635,31.635,0,0,0,.5-5.814,31.635,31.635,0,0,0-.5-5.814Z"/><path class="e" d="M 13.04992771148682 6.500001907348633 L 13.05002689361572 6.500001907348633 C 10.04315757751465 6.500150680541992 5.307687759399414 6.635452270507813 4.192977905273438 6.936061859130859 C 3.84893798828125 7.028631210327148 3.577447891235352 7.303621292114258 3.484167098999023 7.654870986938477 C 3.129037857055664 8.988851547241211 3.050336837768555 11.93302154541016 3.049978256225586 12.95419120788574 C 3.050336837768555 13.97606182098389 3.129037857055664 16.92023086547852 3.484466552734375 18.25536155700684 C 3.572757720947266 18.58778190612793 3.837587356567383 18.84331130981445 4.194076538085938 18.9392204284668 C 5.307687759399414 19.23953247070313 10.04315757751465 19.37483215332031 13.04992771148682 19.37498092651367 C 16.05679702758789 19.37483215332031 20.79225730895996 19.23953247070313 21.90707778930664 18.93888092041016 C 22.26236724853516 18.84330177307129 22.52719688415527 18.58777236938477 22.61578750610352 18.25421142578125 C 22.97091674804688 16.92023086547852 23.04961776733398 13.97606182098389 23.04997634887695 12.95489120483398 C 23.04961776733398 11.93302154541016 22.97091674804688 8.988851547241211 22.61548805236816 7.653732299804688 C 22.52249717712402 7.303611755371094 22.25104713439941 7.028621673583984 21.90584754943848 6.935760498046875 C 20.79228782653809 6.635452270507813 16.05681610107422 6.500150680541992 13.04992771148682 6.500001907348633 M 13.04997730255127 4.500001907348633 C 13.04997730255127 4.500001907348633 20.55499649047852 4.500001907348633 22.42661666870117 5.004751205444336 C 23.45920753479004 5.28253173828125 24.27245712280273 6.10106086730957 24.54847717285156 7.140361785888672 C 25.04997634887695 9.024162292480469 25.04997634887695 12.95454120635986 25.04997634887695 12.95454120635986 C 25.04997634887695 12.95454120635986 25.04997634887695 16.88492202758789 24.54847717285156 18.76872253417969 C 24.27244758605957 19.80802154541016 23.45920753479004 20.59245109558105 22.42661666870117 20.8702220916748 C 20.55494689941406 21.37498092651367 13.04997730255127 21.37498092651367 13.04997730255127 21.37498092651367 C 13.04997730255127 21.37498092651367 5.545007705688477 21.37498092651367 3.67332649230957 20.87023162841797 C 2.6407470703125 20.59245109558105 1.827497482299805 19.80803108215332 1.551477432250977 18.76872253417969 C 1.049978256225586 16.88492202758789 1.049978256225586 12.95454120635986 1.049978256225586 12.95454120635986 C 1.049978256225586 12.95454120635986 1.049978256225586 9.024162292480469 1.551477432250977 7.140361785888672 C 1.827497482299805 6.10106086730957 2.6407470703125 5.282581329345703 3.67332649230957 5.004751205444336 C 5.545007705688477 4.500001907348633 13.04997730255127 4.500001907348633 13.04997730255127 4.500001907348633 Z"/></g><path class="c" d="M3.567,0,7.135,6.273H0Z" transform="translate(156.764 528.865) rotate(90)"/></g></svg>