<svg xmlns="http://www.w3.org/2000/svg" width="16.129" height="21.098" viewBox="0 0 16.129 21.098"><defs><style>.a{fill:none;stroke:#7e7e7e;stroke-linejoin:round;}</style></defs><g transform="translate(-4077.44 -1049.661)"><path class="a" d="M62.369,60.441c-.478.026-.966.465-1.322,1.243,0,0-2.687,4.23-3.3,6.646a4.973,4.973,0,0,0,3.23,6.835,6.522,6.522,0,0,1-1.7.319,6.676,6.676,0,0,1-6.371-9.42c.83-3.263,4.46-8.975,4.46-8.975.907-1.988,2.457-2.337,3.335-.378Z" transform="translate(4025.717 994.757)"/><path class="a" d="M86.81,90.239a3.854,3.854,0,0,1-3.172,1.983,3.811,3.811,0,0,1-.48,0,3.889,3.889,0,0,1-3.234-5.471,25.87,25.87,0,0,1,2.6-5.21,1.959,1.959,0,0,1,.644-.836.714.714,0,0,1,.671-.094,1.264,1.264,0,0,1,.629.71l2.084,4.618a5.374,5.374,0,0,1,.742,2.221A3.828,3.828,0,0,1,86.81,90.239Z" transform="translate(4005.77 976.461)"/></g></svg>