<svg width="50" height="50" viewBox="0 0 50 50" fill="none" xmlns="http://www.w3.org/2000/svg">
<path d="M25 5.46875C35.7812 5.46875 44.5312 14.2188 44.5312 25C44.5312 35.7812 35.7812 44.5312 25 44.5312C14.2188 44.5312 5.46875 35.7812 5.46875 25C5.46875 14.2188 14.2188 5.46875 25 5.46875Z" fill="white"/>
<path d="M25 5.46875C24.9219 5.46875 24.8438 5.46875 24.7656 5.46875C24.1797 5.46875 23.5547 5.50781 22.9688 5.58594C22.8516 5.58594 22.6953 5.625 22.5781 5.625C32.1875 6.83594 39.6484 15.0391 39.6484 25C39.6484 34.9609 32.1875 43.1641 22.5781 44.375C22.7734 44.4141 22.9688 44.4141 23.2031 44.4531C23.6719 44.4922 24.1797 44.5312 24.6484 44.5312C24.7656 44.5312 24.8828 44.5312 25 44.5312C35.7813 44.5312 44.5313 35.7812 44.5313 25C44.5313 14.2188 35.7813 5.46875 25 5.46875Z" fill="#E6E7E7"/>
<path d="M25 45.7031C13.5938 45.7031 4.29688 36.4062 4.29688 25C4.29688 13.5938 13.5938 4.29688 25 4.29688C36.4062 4.29688 45.7031 13.5938 45.7031 25C45.7031 36.4062 36.4062 45.7031 25 45.7031ZM25 6.64062C14.8828 6.64062 6.64062 14.8828 6.64062 25C6.64062 35.1172 14.8828 43.3594 25 43.3594C35.1172 43.3594 43.3594 35.1172 43.3594 25C43.3594 14.8828 35.1172 6.64062 25 6.64062Z" fill="black"/>
<path d="M25 16.6797C24.3359 16.6797 23.8281 17.1875 23.8281 17.8516C23.8281 18.5156 24.3359 19.0234 25 19.0234C25.6641 19.0234 26.1719 18.5156 26.1719 17.8516C26.1719 17.1875 25.6641 16.6797 25 16.6797ZM25 36.3281C24.3359 36.3281 23.8281 35.8203 23.8281 35.1562V24.3359C23.8281 23.6719 24.3359 23.1641 25 23.1641C25.6641 23.1641 26.1719 23.6719 26.1719 24.3359V35.1562C26.1719 35.8203 25.6641 36.3281 25 36.3281Z" fill="black"/>
</svg>
