<svg width="50" height="50" viewBox="0 0 50 50" fill="none" xmlns="http://www.w3.org/2000/svg">
<path d="M44.043 11.9141H36.7188V4.39453C36.7188 1.97139 34.7474 0 32.3242 0H5.95703C3.53389 0 1.5625 1.97139 1.5625 4.39453V45.6055C1.5625 48.0286 3.53389 50 5.95703 50H32.3242C34.7474 50 36.7188 48.0286 36.7188 45.6055V35.3516H44.043C46.457 35.3516 48.4375 33.3859 48.4375 30.957V16.3086C48.4375 13.8945 46.4719 11.9141 44.043 11.9141ZM43.4362 14.8438L33.3601 24.9199C32.7889 25.4911 31.8597 25.4911 31.2885 24.9199L21.2122 14.8438H43.4362ZM25.8581 23.6328L19.1406 30.3503V16.9153L25.8581 23.6328ZM4.49219 4.39453C4.49219 3.58682 5.14932 2.92969 5.95703 2.92969H32.3242C33.1319 2.92969 33.7891 3.58682 33.7891 4.39453V5.85938H4.49219V4.39453ZM33.7891 45.6055C33.7891 46.4132 33.1319 47.0703 32.3242 47.0703H5.95703C5.14932 47.0703 4.49219 46.4132 4.49219 45.6055V41.2109H33.7891V45.6055ZM33.7891 38.2812H4.49219V8.78906H33.7891V11.9141H20.6055C18.1914 11.9141 16.2109 13.8797 16.2109 16.3086V30.957C16.2109 33.3711 18.1766 35.3516 20.6055 35.3516H33.7891V38.2812ZM21.2122 32.4219L27.9297 25.7044L29.2169 26.9916C30.9302 28.7049 33.7182 28.705 35.4316 26.9916L36.7188 25.7044L43.4362 32.4219H21.2122ZM45.5078 30.3503L38.7903 23.6328L45.5078 16.9153V30.3503Z" fill="black"/>
</svg>
