<svg width="50" height="50" viewBox="0 0 50 50" fill="none" xmlns="http://www.w3.org/2000/svg">
<g clip-path="url(#clip0)">
<path d="M1 49.9999H51L46.4224 41.2109H44.6254L50.9999 28.9719V8.78917C50.9999 6.36603 49.0285 4.39465 46.6054 4.39465C44.1823 4.39465 42.2109 6.36603 42.2109 8.78917V19.9786C40.6648 19.4346 38.8729 19.7795 37.6387 21.0137L26.6764 31.9761C26.4307 32.2218 26.2057 32.4827 26 32.7556C25.7943 32.4826 25.5692 32.2218 25.3235 31.976L14.3613 21.0137C13.127 19.7796 11.3352 19.4346 9.78913 19.9786V8.78917C9.78913 6.36603 7.81775 4.39465 5.39461 4.39465C2.97148 4.39465 1.0001 6.36603 1.0001 8.78917V28.9719L7.37458 41.2109H5.57762L1 49.9999ZM46.1709 47.0703H27.4648V44.1406H44.645L46.1709 47.0703ZM28.748 34.0476L39.7103 23.0854C40.2815 22.5143 41.2107 22.5143 41.7819 23.0854C42.0585 23.3621 42.211 23.7299 42.211 24.1212C42.211 24.5125 42.0585 24.8803 41.7819 25.1571L30.8239 36.1148L32.8955 38.1864L43.8533 27.2285C44.6719 26.4101 45.1268 25.3255 45.1393 24.17C45.1404 24.17 45.1404 8.78917 45.1404 8.78917C45.1404 7.98146 45.7976 7.32433 46.6053 7.32433C47.413 7.32433 48.0701 7.98146 48.0701 8.78917V28.2547L41.3221 41.2109H27.4647V37.1582C27.4648 35.9799 27.9206 34.8752 28.748 34.0476ZM3.92977 28.2547V8.78917C3.92977 7.98146 4.5869 7.32433 5.39461 7.32433C6.20232 7.32433 6.85945 7.98146 6.85945 8.78917V24.17C6.87322 25.3255 7.3281 26.4101 8.14665 27.2285L19.1045 38.1864L21.1761 36.1148L10.2182 25.157C9.64704 24.5858 9.64704 23.6565 10.2182 23.0854C10.7895 22.5143 11.7187 22.5143 12.2898 23.0854L23.2519 34.0475C24.0794 34.8752 24.5352 35.9799 24.5352 37.1582V41.2109H10.6778L3.92977 28.2547ZM7.35496 44.1406H24.5352V47.0703H5.82908L7.35496 44.1406Z" fill="black"/>
<path d="M26.0001 28.51L36.8249 17.6853C38.4089 16.1012 39.2813 13.9952 39.2813 11.7549C39.2813 9.51471 38.4088 7.40866 36.8249 5.82459C36.7078 5.7075 36.5843 5.59256 36.4567 5.47976C36.2039 4.20233 35.5841 2.98368 34.5962 1.9957C33.3098 0.709372 31.5995 0.000976562 29.7803 0.000976562C28.4143 0.000976562 27.1099 0.400291 26.0001 1.14384C24.8903 0.400291 23.5858 0.000976562 22.2199 0.000976562C20.4007 0.000976562 18.6904 0.709372 17.4041 1.99579C16.4161 2.98378 15.7964 4.20233 15.5436 5.47986C15.416 5.59256 15.2925 5.70759 15.1754 5.82468C13.5914 7.40876 12.719 9.51481 12.719 11.755C12.719 13.9953 13.5915 16.1013 15.1754 17.6853L26.0001 28.51ZM34.7533 15.6136L26.0001 24.3668L17.2469 15.6136C16.2161 14.5829 15.6486 13.2126 15.6486 11.7549C15.6486 11.0371 15.787 10.3406 16.0497 9.69518C16.376 10.3951 16.8272 11.0507 17.404 11.6276L26 20.2236L34.596 11.6276C35.1728 11.0507 35.6241 10.3951 35.9503 9.69518C36.2131 10.3406 36.3514 11.0371 36.3514 11.7549C36.3516 13.2126 35.7839 14.5829 34.7533 15.6136ZM19.4756 4.06737C20.2087 3.33436 21.1832 2.93065 22.2199 2.93065C23.2566 2.93065 24.2313 3.33436 24.9644 4.06737L26.0001 5.1032L27.0358 4.06737C27.7689 3.33436 28.7434 2.93065 29.7803 2.93065C30.8169 2.93065 31.7915 3.33436 32.5246 4.06737C34.0378 5.58064 34.0378 8.04274 32.5246 9.55602L26.0001 16.0804L19.4756 9.55602C17.9624 8.04284 17.9624 5.58064 19.4756 4.06737Z" fill="black"/>
</g>
<defs>
<clipPath id="clip0">
<rect width="50" height="50" fill="white"/>
</clipPath>
</defs>
</svg>
